<svg xmlns="http://www.w3.org/2000/svg" xmlns:xlink="http://www.w3.org/1999/xlink" width="295" height="220.865" viewBox="0 0 295 220.865"><defs><clipPath id="a"><rect width="295" height="220.865" fill="none"/></clipPath><clipPath id="c"><rect width="49.252" height="9.597" fill="none"/></clipPath><clipPath id="d"><rect width="166.368" height="77.938" fill="none"/></clipPath><clipPath id="e"><rect width="22.022" height="16.816" fill="none"/></clipPath><clipPath id="f"><rect width="20.392" height="13.778" fill="none"/></clipPath><clipPath id="g"><rect width="8.578" height="17.16" fill="none"/></clipPath><clipPath id="h"><rect width="15.806" height="7.944" fill="none"/></clipPath><clipPath id="i"><path d="M121.473,40a7.25,7.25,0,1,0,7.251-7.25A7.251,7.251,0,0,0,121.473,40" transform="translate(-121.473 -32.748)" fill="none"/></clipPath><radialGradient id="j" cx="0.352" cy="0.321" r="0.71" gradientTransform="matrix(1, 0, 0, -1, 0, 22.509)" gradientUnits="objectBoundingBox"><stop offset="0" stop-color="#7cab20"/><stop offset="0.581" stop-color="#5c8019"/><stop offset="0.828" stop-color="#5d8119"/><stop offset="0.918" stop-color="#62881a"/><stop offset="0.983" stop-color="#6b941c"/><stop offset="1" stop-color="#6f991d"/></radialGradient><clipPath id="l"><rect width="15.805" height="7.944" fill="none"/></clipPath><clipPath id="m"><path d="M142.409,52.085a7.25,7.25,0,1,0,7.248-7.25,7.249,7.249,0,0,0-7.248,7.25" transform="translate(-142.409 -44.835)" fill="none"/></clipPath><radialGradient id="n" cx="0.352" cy="0.321" r="0.71" gradientTransform="matrix(1, 0, 0, -1, 0, 19.572)" xlink:href="#j"/><clipPath id="q"><path d="M100.537,52.085a7.251,7.251,0,1,0,7.251-7.25,7.251,7.251,0,0,0-7.251,7.25" transform="translate(-100.537 -44.835)" fill="none"/></clipPath><radialGradient id="r" cx="0.352" cy="0.321" r="0.71" gradientTransform="matrix(1, 0, 0, -1, -0.001, 19.572)" xlink:href="#j"/><clipPath id="u"><path d="M121.473,64.172a7.25,7.25,0,1,0,7.251-7.25,7.251,7.251,0,0,0-7.251,7.25" transform="translate(-121.473 -56.922)" fill="none"/></clipPath><radialGradient id="v" cx="0.352" cy="0.321" r="0.71" gradientTransform="matrix(1, 0, 0, -1, 0, 16.636)" xlink:href="#j"/><clipPath id="y"><path d="M79.6,64.172a7.25,7.25,0,1,0,7.25-7.25,7.25,7.25,0,0,0-7.25,7.25" transform="translate(-79.602 -56.922)" fill="none"/></clipPath><radialGradient id="z" cx="0.352" cy="0.321" r="0.71" gradientTransform="matrix(1, 0, 0, -1, 0, 16.636)" xlink:href="#j"/><clipPath id="ac"><path d="M100.537,76.26a7.251,7.251,0,1,0,7.251-7.251,7.25,7.25,0,0,0-7.251,7.251" transform="translate(-100.537 -69.009)" fill="none"/></clipPath><radialGradient id="ad" cx="0.352" cy="0.321" r="0.71" gradientTransform="matrix(1, 0, 0, -1, -0.001, 13.699)" xlink:href="#j"/><clipPath id="ag"><path d="M58.667,76.26a7.25,7.25,0,1,0,7.248-7.251,7.248,7.248,0,0,0-7.248,7.251" transform="translate(-58.667 -69.009)" fill="none"/></clipPath><radialGradient id="ah" cx="0.352" cy="0.321" r="0.71" gradientTransform="matrix(1, 0, 0, -1, 0, 13.699)" xlink:href="#j"/><clipPath id="ak"><path d="M79.6,88.347a7.25,7.25,0,1,0,7.25-7.25,7.249,7.249,0,0,0-7.25,7.25" transform="translate(-79.602 -81.097)" fill="none"/></clipPath><radialGradient id="al" cx="0.352" cy="0.321" r="0.71" gradientTransform="matrix(1, 0, 0, -1, -0.001, 10.764)" xlink:href="#j"/><clipPath id="an"><rect width="45.499" height="5.878" fill="none"/></clipPath><clipPath id="ao"><rect width="41.669" height="11.598" fill="none"/></clipPath></defs><g clip-path="url(#a)"><path d="M62.807,31.884,99.682,53.173V43.2L62.807,21.914Z" transform="translate(47.818 16.684)" fill="#5c2c1b"/><path d="M120.618,31.884,83.742,53.173V43.2l36.876-21.289Z" transform="translate(63.757 16.684)" fill="#452014"/><path d="M120.618,23.106,83.742,44.4V41.637l36.876-21.289Z" transform="translate(63.757 15.492)" fill="#4c631c"/><path d="M62.807,23.106,99.682,44.4V41.637L62.807,20.348Z" transform="translate(47.818 15.492)" fill="#709129"/><path d="M62.807,42.509,99.682,63.8V48.864L62.807,27.574Z" transform="translate(47.818 20.994)" fill="#a8804c"/><path d="M120.618,42.509,83.742,63.8V48.864l36.876-21.289Z" transform="translate(63.757 20.994)" fill="#87673d"/><path d="M62.807,44.386,99.682,65.676V57.343L62.807,36.053Z" transform="translate(47.818 27.449)" fill="#878787"/><path d="M120.618,44.386,83.742,65.676V57.343l36.876-21.289Z" transform="translate(63.757 27.449)" fill="#636363"/><path d="M62.807,29.55,99.682,50.84,136.556,29.55,99.681,8.261Z" transform="translate(47.818 6.289)" fill="#90ad1a"/><path d="M41.871,43.971,78.747,65.26V55.291L41.871,34Z" transform="translate(31.879 25.887)" fill="#5c2c1b"/><path d="M99.682,43.971,62.806,65.26V55.291L99.682,34Z" transform="translate(47.818 25.887)" fill="#452014"/><path d="M99.682,35.193,62.806,56.483V53.725L99.682,32.435Z" transform="translate(47.818 24.695)" fill="#4c631c"/><path d="M41.871,35.193,78.747,56.483V53.725L41.871,32.435Z" transform="translate(31.879 24.695)" fill="#709129"/><path d="M41.871,54.6,78.747,75.885V60.951L41.871,39.662Z" transform="translate(31.879 30.196)" fill="#a8804c"/><path d="M99.682,54.6,62.806,75.885V60.951L99.682,39.662Z" transform="translate(47.818 30.196)" fill="#87673d"/><path d="M41.871,56.474,78.747,77.763V69.43L41.871,48.141Z" transform="translate(31.879 36.652)" fill="#878787"/><path d="M99.682,56.474,62.806,77.763V69.43L99.682,48.141Z" transform="translate(47.818 36.652)" fill="#636363"/><path d="M41.871,41.638,78.747,62.927l36.874-21.289L78.745,20.348Z" transform="translate(31.879 15.492)" fill="#90ad1a"/><path d="M20.936,56.058,57.811,77.347V67.378L20.936,46.089Z" transform="translate(15.939 35.09)" fill="#5c2c1b"/><path d="M78.746,56.058,41.871,77.347V67.378L78.746,46.089Z" transform="translate(31.878 35.09)" fill="#452014"/><path d="M78.746,47.281,41.871,68.57V65.812L78.746,44.523Z" transform="translate(31.878 33.897)" fill="#4c631c"/><path d="M20.936,47.281,57.811,68.57V65.812L20.936,44.522Z" transform="translate(15.939 33.897)" fill="#709129"/><path d="M20.936,66.683,57.811,87.973V73.038L20.936,51.749Z" transform="translate(15.939 39.399)" fill="#a8804c"/><path d="M78.746,66.683,41.871,87.973V73.038L78.746,51.749Z" transform="translate(31.878 39.399)" fill="#87673d"/><path d="M20.936,68.561,57.811,89.85V81.517L20.936,60.228Z" transform="translate(15.939 45.855)" fill="#878787"/><path d="M78.746,68.561,41.871,89.85V81.517L78.746,60.228Z" transform="translate(31.878 45.855)" fill="#636363"/><path d="M20.936,53.725,57.811,75.014,94.685,53.725,57.809,32.435Z" transform="translate(15.939 24.695)" fill="#90ad1a"/><path d="M0,68.145,36.876,89.435V79.465L0,58.176Z" transform="translate(0 44.292)" fill="#5c2c1b"/><path d="M57.811,68.145,20.935,89.435V79.465L57.811,58.176Z" transform="translate(15.939 44.292)" fill="#452014"/><path d="M57.811,59.368,20.935,80.657V77.9L57.811,56.61Z" transform="translate(15.939 43.1)" fill="#4c631c"/><path d="M0,59.368,36.876,80.658V77.9L0,56.61Z" transform="translate(0 43.1)" fill="#709129"/><path d="M0,78.77,36.876,100.06V85.125L0,63.836Z" transform="translate(0 48.602)" fill="#a8804c"/><path d="M57.811,78.77,20.935,100.06V85.125L57.811,63.836Z" transform="translate(15.939 48.602)" fill="#87673d"/><path d="M0,80.648l36.876,21.289V93.6L0,72.315Z" transform="translate(0 55.057)" fill="#878787"/><path d="M57.811,80.648,20.935,101.938V93.6L57.811,72.315Z" transform="translate(15.939 55.057)" fill="#636363"/><path d="M0,65.812,36.876,87.1,73.751,65.812,36.876,44.523Z" transform="translate(0 33.898)" fill="#90ad1a"/><path d="M83.742,43.971,120.618,65.26V55.291L83.742,34Z" transform="translate(63.757 25.887)" fill="#5c2c1b"/><path d="M141.553,43.971,104.677,65.26V55.291L141.553,34Z" transform="translate(79.696 25.887)" fill="#452014"/><path d="M141.553,35.193,104.677,56.483V53.725l36.876-21.289Z" transform="translate(79.696 24.695)" fill="#4c631c"/><path d="M83.742,35.193l36.876,21.289V53.725L83.742,32.435Z" transform="translate(63.757 24.695)" fill="#709129"/><path d="M83.742,54.6l36.876,21.289V60.951L83.742,39.662Z" transform="translate(63.757 30.196)" fill="#a8804c"/><path d="M141.553,54.6,104.677,75.885V60.951l36.876-21.289Z" transform="translate(79.696 30.196)" fill="#87673d"/><path d="M83.742,56.474l36.876,21.289V69.43L83.742,48.141Z" transform="translate(63.757 36.652)" fill="#878787"/><path d="M141.553,56.474,104.677,77.763V69.43l36.876-21.289Z" transform="translate(79.696 36.652)" fill="#636363"/><path d="M83.742,41.638l36.876,21.289,36.874-21.289L120.616,20.348Z" transform="translate(63.757 15.492)" fill="#90ad1a"/><path d="M62.807,56.058,99.682,77.347V67.378L62.807,46.089Z" transform="translate(47.818 35.09)" fill="#5c2c1b"/><path d="M120.618,56.058,83.742,77.347V67.378l36.876-21.289Z" transform="translate(63.757 35.09)" fill="#452014"/><path d="M120.618,47.281,83.742,68.57V65.812l36.876-21.289Z" transform="translate(63.757 33.897)" fill="#4c631c"/><path d="M62.807,47.281,99.682,68.57V65.812L62.807,44.522Z" transform="translate(47.818 33.897)" fill="#709129"/><path d="M62.807,66.683,99.682,87.973V73.038L62.807,51.749Z" transform="translate(47.818 39.399)" fill="#a8804c"/><path d="M120.618,66.683,83.742,87.973V73.038l36.876-21.289Z" transform="translate(63.757 39.399)" fill="#87673d"/><path d="M62.807,68.561,99.682,89.85V81.517L62.807,60.228Z" transform="translate(47.818 45.855)" fill="#878787"/><path d="M120.618,68.561,83.742,89.85V81.517l36.876-21.289Z" transform="translate(63.757 45.855)" fill="#636363"/><path d="M62.807,53.725,99.682,75.014l36.874-21.289L99.681,32.435Z" transform="translate(47.818 24.695)" fill="#90ad1a"/><path d="M41.871,68.145,78.747,89.435V79.465L41.871,58.176Z" transform="translate(31.879 44.292)" fill="#5c2c1b"/><path d="M99.682,68.145,62.806,89.435V79.465L99.682,58.176Z" transform="translate(47.818 44.292)" fill="#452014"/><path d="M99.682,59.368,62.806,80.657V77.9L99.682,56.61Z" transform="translate(47.818 43.1)" fill="#4c631c"/><path d="M41.871,59.368,78.747,80.657V77.9L41.871,56.61Z" transform="translate(31.879 43.1)" fill="#709129"/><path d="M41.871,78.77,78.747,100.06V85.125L41.871,63.836Z" transform="translate(31.879 48.602)" fill="#a8804c"/><path d="M99.682,78.77,62.806,100.06V85.125L99.682,63.836Z" transform="translate(47.818 48.602)" fill="#87673d"/><path d="M41.871,80.648l36.876,21.289V93.6L41.871,72.315Z" transform="translate(31.879 55.057)" fill="#878787"/><path d="M99.682,80.648,62.806,101.938V93.6L99.682,72.315Z" transform="translate(47.818 55.057)" fill="#636363"/><path d="M41.871,65.812,78.747,87.1l36.874-21.289L78.745,44.523Z" transform="translate(31.879 33.897)" fill="#90ad1a"/><path d="M20.936,80.232l36.876,21.289V91.553L20.936,70.263Z" transform="translate(15.939 53.495)" fill="#5c2c1b"/><path d="M78.746,80.232,41.871,101.522V91.553L78.746,70.263Z" transform="translate(31.878 53.495)" fill="#452014"/><path d="M78.746,71.455,41.871,92.745V89.986L78.746,68.7Z" transform="translate(31.878 52.303)" fill="#4c631c"/><path d="M20.936,71.455,57.811,92.745V89.986L20.936,68.7Z" transform="translate(15.939 52.302)" fill="#709129"/><path d="M20.936,90.858l36.876,21.289V97.213L20.936,75.923Z" transform="translate(15.939 57.804)" fill="#a8804c"/><path d="M78.746,90.858,41.871,112.147V97.213L78.746,75.923Z" transform="translate(31.878 57.804)" fill="#87673d"/><path d="M20.936,92.735l36.876,21.289v-8.333L20.936,84.4Z" transform="translate(15.939 64.26)" fill="#878787"/><path d="M78.746,92.735,41.871,114.025v-8.333L78.746,84.4Z" transform="translate(31.878 64.26)" fill="#636363"/><path d="M20.936,77.9,57.811,99.189,94.685,77.9,57.809,56.61Z" transform="translate(15.939 43.1)" fill="#90ad1a"/><g transform="translate(0 0)"><g clip-path="url(#a)"><g transform="translate(147.192 39.815)" opacity="0.3"><g clip-path="url(#c)"><path d="M132.819,27.4c0-2.651-12.777-4.8-28.539-4.8a125.614,125.614,0,0,0-20.712,1.5l3.577,4.053,9.541-.07,4.358,4.086q1.593.032,3.236.032c15.762,0,28.539-2.149,28.539-4.8" transform="translate(-83.567 -22.606)"/></g></g><path d="M90.216,3.476a4.189,4.189,0,0,1-.157,1.365,1.424,1.424,0,0,1-.493.555l1.465,2.753,2.284,1.43.99-2.022L93.2,5.4Z" transform="translate(68.191 2.646)" fill="#c9897d"/><path d="M93.479,4.251a4.586,4.586,0,0,1,.941,1.37,6.326,6.326,0,0,1,.365,2.594c-.025,1.221,2.112,6.288,1.853,6.85s-2.124-.3-3.308-.62L92.2,12.3l.4-7.725Z" transform="translate(70.2 3.236)" fill="#cf7c00"/><path d="M93.99,4.891S92.042,1.5,89.273,1.548c-2.418-.093-6.057,4.715-6.314,8.727-.255,3.954,1.013,5.488,3.875,6.145s4.9-2.744,4.9-2.744Z" transform="translate(63.136 1.177)" fill="#42784d"/><path d="M88.688,6.282c1.059-.34,2.866-1.819,3.857-1.849C92.8,4.741,94.532,8.389,95.494,8s.891-2.83.891-2.83.611-.109.845.109c.68.6.889,2.846.889,2.846a8.427,8.427,0,0,1-.4,3.778c-.486.923-3.553,6.51-3.553,6.51l-5.046,1.818-3.093-2.221,2.189-4.629s.417-6.545.467-7.1" transform="translate(65.501 3.375)" fill="#ff9800"/><path d="M93.835,9.78a12.758,12.758,0,0,0-1.067-5.008c-.211-.211-1.256.292-1.044.55a12.346,12.346,0,0,1,.939,4.763Z" transform="translate(69.812 3.595)" fill="#663f30"/><path d="M95.007,1.464A4.262,4.262,0,0,1,96.078,4.5a1.042,1.042,0,0,1-.321.273,9.738,9.738,0,0,1-.7,3.785c-.06.129-.43.3-.6.375a.6.6,0,0,1-.2.048c-.395.025-1.747-.042-3.153-1.883a6.243,6.243,0,0,1-.229-.821s-.546-.014-.858-1.041c-.479-1.2-.22-1.254-.22-1.254l1.215-2.644L92.939.756s1.909.671,2.068.708" transform="translate(68.316 0.576)" fill="#ffad9e"/><path d="M92.241.357c3.19-.446,3.32,2.17,2.956,2.276-1.113.469-2.968-1.02-3.378-.469-.539.763.493,1.372.541,1.876.081.657-.375.775-.4,1.994-.328.188-.7-.375-.7-.375s.106-1.1-.893-1.1c-.21.025-.328.6-.21,1.15-.282-.2-1.971-4.129,2.087-5.349" transform="translate(68.192 0.233)" fill="#582a1a"/><path d="M90.32,21.811c-.023,1.5.768,4.379.587,6.568a3.542,3.542,0,0,0,0,2,8.221,8.221,0,0,0,1.934.814s1.908,1.751,3.061,1.786c.814,0,1.317-.974,1.413-1.5.187-1.284-3.067-2.1-3.493-3.66.048-.424.682-6.184.682-6.184s-3.857-.2-4.183.178" transform="translate(68.765 16.431)" fill="#1e9e39"/><path d="M93.575,12.524c2.346,5.4,1.994,12.2,1.994,12.2s.837,3.456.023,4.333a2.673,2.673,0,0,1-3.415.469c-.5-.342-.9-.8-.717-1.37a6.311,6.311,0,0,0,.259-2.07c-.093-1.925-3.214-7.227-3.163-10,.183-.75,4.738-3.706,5.02-3.565" transform="translate(67.421 9.532)" fill="#4d2f24"/><path d="M85.7,19.57c-.539.782-.634,2.732-1.384,3.65s-1.157,1.261-1.251,2.293c-.042.458.507,1.212,1.032,2.189.659,1.231,1.372,2.69,1.908,2.91a1.853,1.853,0,0,0,2.473-.75c.312-.657-1.723-3.535-1.723-4.224.032-1.5,2.365-4.1,2.365-4.1S86.242,18.788,85.7,19.57" transform="translate(63.242 14.794)" fill="#1e9e39"/><path d="M96.326,11.616s-4.388,2.455-6.4,1.782a4.917,4.917,0,0,1-2.535-1.782,18.934,18.934,0,0,0-1.125,2.91c-.75,2.908-.328,8.914-.609,9.665s-.712.423-1.025,1.33c-.967,2.825,3.105,3.049,3.558,1.939.59-.343.611-.592.891-.923.752-.844,2.582-5.4,3.192-9.15,3.988-2.344,4.41-4.174,4.41-4.174Z" transform="translate(64.318 8.844)" fill="#663f30"/><path d="M90.274,9.519c.5,2.69-2,7.369-2,7.713a6.149,6.149,0,0,0,5.17-2.33s3.438-5.2,3.19-7.6c.044.164-6.355,2.218-6.355,2.218" transform="translate(67.205 5.559)" fill="#663f30"/><path d="M89.7,4.578c1.768,1.5,1.842,3.945,2.279,6.792-.423.155-1.575.763-1.474.49-.215-2.836.025-5-2.078-6.535,0-.328.828-.842,1.273-.747" transform="translate(67.327 3.477)" fill="#663f30"/><path d="M89.517,5.625c-1.282-.736-2.635,1.446-2.894,2.329a12.872,12.872,0,0,0-.077,2.926s-.875,4-.657,4.99c.343.252,3.41-1.784,3.785-2.441a12.824,12.824,0,0,0,.565-3.1s.56-3.97-.722-4.706" transform="translate(65.364 4.169)" fill="#cf7c00"/><path d="M89.91,12.281s1.2,2.277,2.633.4c1.876-.421,1.1-1.664,1.1-1.664l-1.767-.8Z" transform="translate(68.453 7.779)" fill="#24422b"/><path d="M92.463,13.7c.3.588-.673,1.844-.509,3.486.352,1.948,1.767.093,1.767.093.393-1.244,1.95-.912,1.95-.912a30.732,30.732,0,0,1-2.388-4.456c-.826-2.163-.407-5.853-2.452-8.321-.495-1.168-5.217.865-3.3,3.657,1.959,3.4,4.462,5,4.93,6.454" transform="translate(66.296 2.477)" fill="#42784d"/><path d="M85.873,14.609c.328-1.814,1.654-1.846,3.183-2.415a5.637,5.637,0,0,0,2.207-1.236c-.1-1.018-.1-2.073-.1-2.073A3.2,3.2,0,0,1,92.379,7.25a1.477,1.477,0,0,1,1.642.352s.8,1.305.579,1.657l-.143.155s-.68-.5-.953.063c-.387.8.282,1.048,0,1.846-.181.38-.039.211-.227.493s-.523.328-.9.423c-1.184,1.133-2.7,3.753-4.481,4.081-1.619.3-1.932-1.469-2.026-1.712" transform="translate(65.38 5.428)" fill="#ffad9e"/><path d="M90.458,9.737a1.584,1.584,0,0,1,2.029-.321l1.295,1.346,1.782-.47s2.082-.506,2.4.652a2.116,2.116,0,0,1-.643,2.008c-1.189.844-2.878-.5-2.878-.5s-1.252.437-1.314-.157c-.042-.349.2-.493-.282-.75-.282-.157-.5.469-.844.407-.907-.252-1.855-1.964-1.541-2.214" transform="translate(68.824 6.992)" fill="#ffad9e"/><g transform="translate(5.508 43.176)" opacity="0.3"><g clip-path="url(#d)"><path d="M141.633,24.513,77.127,61.757,51.891,53.5,3.128,81.653l36.469,20.8H86.866l30.151-17.679L105,77.838,169.5,40.6Z" transform="translate(-3.127 -24.513)"/></g></g><path d="M81.045,36.246l1.395-.8v-19.8l-1.395.8Z" transform="translate(61.704 11.909)" fill="#663f30"/><path d="M56.775,2.434l42.748,24.68,1.395-.8L58.17,1.63Z" transform="translate(43.226 1.241)" fill="#965d47"/><path d="M56.775,21.885l42.748,24.68v-19.8L56.775,2.086Z" transform="translate(43.226 1.588)" fill="#804f3c"/><path d="M56.775,6.244l42.748,24.68v-.572L56.775,5.672Z" transform="translate(43.226 4.318)" fill="#965d47"/><path d="M56.775,9.885l42.748,24.68v-.572L56.775,9.313Z" transform="translate(43.226 7.09)" fill="#965d47"/><path d="M21.877,45.931v5.08l1.4.807v-5.08L84.742,11.25l-1.4-.807Z" transform="translate(16.656 7.951)" fill="#965d47"/><path d="M22.67,51.47,84.138,15.982V10.9L22.67,46.39Z" transform="translate(17.26 8.299)" fill="#663f30"/><path d="M21.877,42.45v5.08l1.4.807v-5.08L84.742,7.769l-1.4-.807Z" transform="translate(16.656 5.301)" fill="#965d47"/><path d="M22.67,47.989,84.138,12.5V7.419L22.67,42.909Z" transform="translate(17.26 5.649)" fill="#663f30"/><path d="M21.877,38.969v5.08l1.4.807v-5.08L84.742,4.288l-1.4-.807Z" transform="translate(16.656 2.65)" fill="#965d47"/><path d="M22.67,44.508,84.138,9.02V3.938L22.67,39.428Z" transform="translate(17.26 2.998)" fill="#663f30"/><path d="M21.877,35.488v5.08l1.4.807v-5.08L84.742.807,83.345,0Z" transform="translate(16.656 0)" fill="#965d47"/><path d="M22.67,41.027,84.138,5.539V.457L22.67,35.947Z" transform="translate(17.26 0.348)" fill="#663f30"/><path d="M6.63,63.473,47.983,87.348l81.263-46.919L87.894,16.556Z" transform="translate(5.048 12.605)" fill="#121212"/><path d="M20.939,42.011l1.654-.955V25.634l-1.654.955Z" transform="translate(15.942 19.516)" fill="#0a0a0a"/><path d="M30.108,82.719,44.6,74.372l4.136,2.388.629-5.159,62.007-35.8V30.111L30.108,77.028Z" transform="translate(22.923 22.925)" fill="#242424"/><path d="M66.061,39.433l7.725,4.46-3.056-7.156Z" transform="translate(50.296 27.969)" fill="#242424"/><path d="M68.347,38.424a16.571,16.571,0,0,0-7.5,12.985c0,4.782,3.357,6.72,7.5,4.329a16.57,16.57,0,0,0,7.5-12.985c0-4.782-3.357-6.72-7.5-4.329" transform="translate(46.327 28.474)" fill="#333"/><path d="M69.666,35.6c-1.349-.724-3.183-.592-5.2.576a16.573,16.573,0,0,0-7.5,12.985c0,2.3.775,3.935,2.04,4.756l0,0,6.832,3.947,0,0c-1.259-.821-2.031-2.457-2.031-4.747A16.571,16.571,0,0,1,71.3,40.13c2.047-1.182,3.9-1.3,5.256-.548L69.666,35.6Z" transform="translate(43.37 26.766)" fill="#474747"/><path d="M67.405,39.722a11.758,11.758,0,0,0-5.319,9.214c0,3.392,2.381,4.768,5.319,3.072a11.757,11.757,0,0,0,5.319-9.214c0-3.392-2.381-4.768-5.319-3.072" transform="translate(47.269 29.689)" fill="#1f1f1f"/><path d="M70.031,39.686a3.558,3.558,0,0,1,.983,2.728,10.26,10.26,0,0,1-4.646,8.046,3.22,3.22,0,0,1-3.336.294c.853.764,2.172.8,3.655-.053a10.269,10.269,0,0,0,4.645-8.046,3.307,3.307,0,0,0-1.3-2.97" transform="translate(47.989 30.215)" fill="#0f0f0f"/><path d="M70.45,39.83a3.224,3.224,0,0,0-3.336.294,10.269,10.269,0,0,0-4.646,8.046,3.565,3.565,0,0,0,.983,2.73l.009,0A3.227,3.227,0,0,0,66.8,50.61a10.263,10.263,0,0,0,4.645-8.046,3.558,3.558,0,0,0-.983-2.728l-.009-.005" transform="translate(47.56 30.065)" fill="#919191"/><path d="M68.285,40.76a2.7,2.7,0,0,1,.324,1.377,6.64,6.64,0,0,1-2.994,5.189,2.266,2.266,0,0,1-2.026.273c.477.851,1.5,1.037,2.672.358a6.615,6.615,0,0,0,2.994-5.189,2.106,2.106,0,0,0-.971-2.008" transform="translate(48.414 31.033)" fill="#3b3b3b"/><path d="M68.407,40.818a2.226,2.226,0,0,0-2.008.273A6.664,6.664,0,0,0,63.4,46.3a2.73,2.73,0,0,0,.324,1.362,2.262,2.262,0,0,0,2.024-.273A6.635,6.635,0,0,0,68.747,42.2a2.7,2.7,0,0,0-.322-1.377Z" transform="translate(48.274 30.974)" fill="#787878"/><path d="M61.679,44.262,58.3,56.834l2.151-.329,2.827-10.521L76.639,38.27,79.7,45.426l2.129-2.205-3.628-8.5Z" transform="translate(44.387 26.437)" fill="#575757"/><path d="M56.194,41.948l7.088,4.076L79.8,36.486,72.712,32.41Z" transform="translate(42.784 24.675)" fill="#757575"/><path d="M54.276,50.4l7.088,4.076L64.742,41.9l-7.088-4.076Z" transform="translate(41.323 28.798)" fill="#787878"/><path d="M39.487,55.088a16.57,16.57,0,0,0-7.5,12.985c0,4.782,3.357,6.72,7.5,4.329a16.57,16.57,0,0,0,7.5-12.985c0-4.782-3.357-6.72-7.5-4.329" transform="translate(24.355 41.162)" fill="#333"/><path d="M40.807,52.267c-1.349-.724-3.183-.592-5.2.576a16.573,16.573,0,0,0-7.5,12.985c0,2.3.775,3.935,2.04,4.756l0,0,6.832,3.947,0,0c-1.259-.823-2.031-2.459-2.031-4.749a16.571,16.571,0,0,1,7.5-12.986c2.047-1.182,3.9-1.3,5.256-.548l-6.894-3.982Z" transform="translate(21.399 39.454)" fill="#474747"/><path d="M38.545,56.387A11.758,11.758,0,0,0,33.226,65.6c0,3.392,2.381,4.768,5.319,3.072a11.758,11.758,0,0,0,5.319-9.214c0-3.392-2.381-4.768-5.319-3.072" transform="translate(25.297 42.377)" fill="#1f1f1f"/><path d="M41.172,56.351a3.558,3.558,0,0,1,.983,2.728,10.26,10.26,0,0,1-4.646,8.046,3.22,3.22,0,0,1-3.336.294c.852.764,2.17.8,3.653-.053a10.269,10.269,0,0,0,4.646-8.046,3.311,3.311,0,0,0-1.3-2.97" transform="translate(26.017 42.903)" fill="#0f0f0f"/><path d="M41.59,56.5a3.227,3.227,0,0,0-3.338.294,10.272,10.272,0,0,0-4.645,8.046,3.565,3.565,0,0,0,.983,2.73l.009,0a3.224,3.224,0,0,0,3.336-.294,10.26,10.26,0,0,0,4.646-8.046A3.558,3.558,0,0,0,41.6,56.5L41.59,56.5" transform="translate(25.588 42.753)" fill="#919191"/><path d="M39.442,57.44a2.617,2.617,0,0,1,.306,1.344,6.606,6.606,0,0,1-3.012,5.189,2.119,2.119,0,0,1-2.006.271c.476.868,1.5,1.055,2.67.375a6.635,6.635,0,0,0,2.994-5.189,2.1,2.1,0,0,0-.953-1.99" transform="translate(26.442 43.732)" fill="#3b3b3b"/><path d="M37.54,57.761a6.635,6.635,0,0,0-2.994,5.189,2.641,2.641,0,0,0,.324,1.362,2.125,2.125,0,0,0,2.006-.273,6.606,6.606,0,0,0,3.012-5.189,2.617,2.617,0,0,0-.306-1.344,2.18,2.18,0,0,0-2.041.255" transform="translate(26.302 43.666)" fill="#787878"/><path d="M22.67,49.273,64.022,73.146l61.468-35.488L84.138,13.785Z" transform="translate(17.26 10.495)" fill="#5e5e5e"/><path d="M23.383,49.668l1.1.631L85.953,14.811l-1.1-.631Z" transform="translate(17.803 10.796)" fill="#4f4f4f"/><path d="M24.653,50.41l1.1.631L87.224,15.553l-1.1-.631Z" transform="translate(18.77 11.361)" fill="#4f4f4f"/><path d="M25.919,51.126l1.1.631L88.489,16.269l-1.1-.631Z" transform="translate(19.733 11.906)" fill="#4f4f4f"/><path d="M27.189,51.868l1.1.631L89.76,17.011l-1.1-.631Z" transform="translate(20.701 12.471)" fill="#4f4f4f"/><path d="M28.368,52.545l1.1.631L90.938,17.688l-1.1-.631Z" transform="translate(21.598 12.987)" fill="#4f4f4f"/><path d="M29.638,53.288l1.1.631L92.209,18.431l-1.1-.631Z" transform="translate(22.565 13.552)" fill="#4f4f4f"/><path d="M30.9,54l1.1.631L93.474,19.146l-1.1-.631Z" transform="translate(23.529 14.097)" fill="#4f4f4f"/><path d="M32.174,54.746l1.1.631L94.745,19.889l-1.1-.631Z" transform="translate(24.496 14.662)" fill="#4f4f4f"/><path d="M33.38,55.447l1.1.631L95.95,20.59l-1.1-.631Z" transform="translate(25.414 15.196)" fill="#4f4f4f"/><path d="M34.651,56.189l1.1.631L97.221,21.332l-1.1-.631Z" transform="translate(26.381 15.761)" fill="#4f4f4f"/><path d="M35.916,56.905l1.1.631L98.486,22.048l-1.1-.631Z" transform="translate(27.345 16.306)" fill="#4f4f4f"/><path d="M37.186,57.647l1.1.631L99.757,22.79l-1.1-.631Z" transform="translate(28.312 16.871)" fill="#4f4f4f"/><path d="M38.365,58.325l1.1.631,61.468-35.488-1.1-.631Z" transform="translate(29.209 17.387)" fill="#4f4f4f"/><path d="M39.635,59.067l1.1.631L102.206,24.21l-1.1-.631Z" transform="translate(30.177 17.952)" fill="#4f4f4f"/><path d="M40.9,59.783l1.1.631,61.468-35.488-1.1-.631Z" transform="translate(31.14 18.497)" fill="#4f4f4f"/><path d="M42.171,60.525l1.1.631,61.468-35.488-1.1-.631Z" transform="translate(32.107 19.062)" fill="#4f4f4f"/><path d="M43.458,61.267l1.1.631,61.468-35.488-1.1-.631Z" transform="translate(33.087 19.627)" fill="#4f4f4f"/><path d="M44.729,62.009l1.1.631L107.3,27.152l-1.1-.631Z" transform="translate(34.054 20.192)" fill="#4f4f4f"/><path d="M45.355,58.159l1.395-.8V32.412l-1.395.8Z" transform="translate(34.531 24.677)" fill="#663f30"/><path d="M21.086,19.2l42.748,24.68,1.395-.8L22.48,18.4Z" transform="translate(16.053 14.008)" fill="#965d47"/><path d="M21.086,43.8l42.748,24.68V43.537L21.086,18.857Z" transform="translate(16.053 14.356)" fill="#543428"/><path d="M21.086,25.935l42.748,24.68v-.572L21.086,25.362Z" transform="translate(16.053 19.31)" fill="#663f30"/><path d="M21.086,22.293l42.748,24.68V46.4L21.086,21.721Z" transform="translate(16.053 16.537)" fill="#663f30"/><path d="M21.086,29.576l42.748,24.68v-.572L21.086,29Z" transform="translate(16.053 22.082)" fill="#663f30"/><path d="M45.354,59.485v5.08l1.4.807v-5.08L108.218,24.8l-1.4-.807Z" transform="translate(34.53 18.27)" fill="#965d47"/><path d="M46.147,65.024l61.468-35.488V24.455L46.147,59.944Z" transform="translate(35.134 18.619)" fill="#663f30"/><path d="M45.354,56v5.08l1.4.807v-5.08l61.468-35.489-1.4-.8Z" transform="translate(34.53 15.62)" fill="#965d47"/><path d="M46.147,61.543l61.468-35.488V20.974L46.147,56.463Z" transform="translate(35.134 15.968)" fill="#663f30"/><path d="M45.354,52.523V57.6l1.4.807V53.33l61.468-35.488-1.4-.807Z" transform="translate(34.53 12.97)" fill="#965d47"/><path d="M46.147,58.062l61.468-35.488V17.493L46.147,52.982Z" transform="translate(35.134 13.318)" fill="#663f30"/><path d="M45.354,49.042v5.08l1.4.807v-5.08l61.468-35.488-1.4-.807Z" transform="translate(34.53 10.32)" fill="#965d47"/><path d="M46.147,54.581l61.468-35.488V14.012L46.147,49.5Z" transform="translate(35.134 10.668)" fill="#663f30"/><path d="M24.038,68.384V93.108l13.4-7.734c.317-4.946,3.755-10.684,7.961-13.113s7.646-.661,7.963,3.919l6.575-3.8V30.872L31.108,47.515Z" transform="translate(18.301 23.504)" fill="#ed9215"/><path d="M42.693,49.946l-16.4,9.492-.3.879L43.325,50.294v-12.9l-.632.366Z" transform="translate(19.788 28.47)" fill="#2e6a99"/><path d="M26.162,59.279l16.4-9.492V37.6L31.412,44.033Z" transform="translate(19.918 28.629)" fill="#2b82c7"/><path d="M36.911,45.863l-2.686,1.55a1.3,1.3,0,0,0-.587,1.018v.014c0,.375.262.527.587.338l2.686-1.55a1.3,1.3,0,0,0,.587-1.018V46.2c0-.375-.262-.527-.587-.34" transform="translate(25.61 34.857)" fill="#e76e1b"/><path d="M37.276,51.96l9.952-5.746V33.3l-9.952,5.746Z" transform="translate(28.38 25.351)" fill="#e76e1b"/><path d="M.56,63.339,41.913,87.214V62.49L.56,38.615Z" transform="translate(0.426 29.399)" fill="#ffb205"/><path d="M.56,47.635,41.913,71.51l7.07-20.87L7.63,26.767Z" transform="translate(0.426 20.379)" fill="#ffb205"/><path d="M8.637,28.328,7.712,27.8,1.3,46.122,40.429,68.714l.349-.988L2.581,45.664Z" transform="translate(0.987 21.163)" fill="#2e6a99"/><path d="M2.026,45.433,40.222,67.5l6.066-17.335L8.081,28.1Z" transform="translate(1.542 21.393)" fill="#369ff2"/><path d="M4.574,33.96,45.927,57.835,74.751,41.192,33.4,17.317Z" transform="translate(3.482 13.184)" fill="#ffc600"/><path d="M31.2,44.409,24.789,63.465,24.773,77.4,45.492,65.376V36.152l-14.2,8.2ZM44.93,37.126V65.052l-19.6,11.375V63.6L31.662,44.79Z" transform="translate(18.861 27.524)" fill="#e76e1b"/><path d="M21.518,57.47c-2.089-1.207-3.783-.229-3.783,2.184a8.366,8.366,0,0,0,3.783,6.554c2.089,1.207,3.783.227,3.783-2.184a8.366,8.366,0,0,0-3.783-6.554" transform="translate(13.503 43.362)" fill="#ad752b"/><path d="M22.465,56.986a2.66,2.66,0,0,0-2.674-.266l0,0-1.356.789a2.736,2.736,0,0,1,2.554.328,8.361,8.361,0,0,1,3.783,6.554,2.666,2.666,0,0,1-1.09,2.438l1.349-.782a2.59,2.59,0,0,0,1.221-2.508,8.366,8.366,0,0,0-3.783-6.554" transform="translate(14.033 42.993)" fill="#ffc600"/><path d="M21.477,64.649a6.679,6.679,0,0,1-3.021-5.233,2.275,2.275,0,0,1,.685-1.816,2.065,2.065,0,0,0-.974,2,6.679,6.679,0,0,0,3.021,5.233,2,2,0,0,0,2.336.072,2.182,2.182,0,0,1-2.047-.259" transform="translate(13.831 43.854)" fill="#ffb205"/><path d="M21.063,57.925a2.182,2.182,0,0,0-2.047-.259,2.275,2.275,0,0,0-.685,1.816,6.679,6.679,0,0,0,3.021,5.233,2.182,2.182,0,0,0,2.047.259,2.276,2.276,0,0,0,.687-1.816,6.681,6.681,0,0,0-3.022-5.233" transform="translate(13.956 43.787)" fill="#ffd57a"/><path d="M5.218,48.06c-2.089-1.207-3.783-.229-3.783,2.184A8.366,8.366,0,0,0,5.218,56.8C7.307,58.005,9,57.026,9,54.614A8.366,8.366,0,0,0,5.218,48.06" transform="translate(1.093 36.197)" fill="#ad752b"/><path d="M6.166,47.575a2.66,2.66,0,0,0-2.674-.266l0,0h0L2.133,48.1a2.736,2.736,0,0,1,2.554.328A8.366,8.366,0,0,1,8.47,54.982,2.666,2.666,0,0,1,7.38,57.42l1.349-.782A2.59,2.59,0,0,0,9.95,54.129a8.366,8.366,0,0,0-3.783-6.554" transform="translate(1.624 35.828)" fill="#ffc600"/><path d="M5.178,55.24a6.681,6.681,0,0,1-3.022-5.233,2.282,2.282,0,0,1,.687-1.818,2.07,2.07,0,0,0-.974,2,6.679,6.679,0,0,0,3.021,5.233,2,2,0,0,0,2.336.072,2.182,2.182,0,0,1-2.047-.259" transform="translate(1.422 36.689)" fill="#ffb205"/><path d="M4.765,48.515a2.181,2.181,0,0,0-2.047-.259,2.276,2.276,0,0,0-.687,1.816,6.681,6.681,0,0,0,3.022,5.233,2.181,2.181,0,0,0,2.047.259,2.275,2.275,0,0,0,.687-1.816,6.681,6.681,0,0,0-3.022-5.233" transform="translate(1.546 36.623)" fill="#ffd57a"/><path d="M7.486,60.145l16.245,9.379V57.183L7.486,47.8Z" transform="translate(5.7 36.395)" fill="#5e5e5e"/><path d="M78.569,21.133l1.046.6V19.926l-1.046-.6Z" transform="translate(59.819 14.712)" fill="#4d4d4d"/><path d="M84.324,17.861l-5.754,3.322,1.046.6,6.628-3.827-1.92-1.08Z" transform="translate(59.819 12.852)" fill="#787878"/><path d="M79.163,23.13l6.63-3.827V17.493l-6.63,3.827Z" transform="translate(60.271 13.319)" fill="#5e5e5e"/><path d="M44.493,39.8l2.565,1.508V39.5l-2.565-1.508Z" transform="translate(33.875 28.927)" fill="#4d4d4d"/><path d="M47.406,39.353l-1.559-.875-1.354.78,2.565,1.508,6.63-3.827-1.076-.6Z" transform="translate(33.875 27.663)" fill="#787878"/><path d="M45.949,42.314l6.63-3.827V36.677L45.949,40.5Z" transform="translate(34.983 27.924)" fill="#5e5e5e"/><path d="M44.493,46.742l2.565,1.508V46.441l-2.565-1.508Z" transform="translate(33.875 34.21)" fill="#4d4d4d"/><path d="M47.406,46.292l-1.559-.875-1.354.78L47.058,47.7l6.63-3.827-1.076-.6Z" transform="translate(33.875 32.946)" fill="#787878"/><path d="M45.949,49.253l6.63-3.827V43.617l-6.63,3.827Z" transform="translate(34.983 33.207)" fill="#5e5e5e"/><g transform="translate(6.311 56.238)" opacity="0.1"><g clip-path="url(#e)"><path d="M3.583,44.1l8.041,4.645L25.6,35.984l-7.024-4.055Z" transform="translate(-3.583 -31.929)" fill="#fff"/></g></g><g transform="translate(21.308 65.864)" opacity="0.1"><g clip-path="url(#f)"><path d="M12.1,48.6l4.391,2.57,16-11.628-3.722-2.151Z" transform="translate(-12.098 -37.394)" fill="#fff"/></g></g><g transform="translate(48.772 69.19)" opacity="0.1"><g clip-path="url(#g)"><path d="M27.69,56.443l5.982-3.463,2.6-13.7L33.2,41.054Z" transform="translate(-27.69 -39.282)" fill="#fff"/></g></g><path d="M104.678,58.176l36.876,21.289V66.738l-3.151-7.4-26.836-16.03-6.889,2.142Z" transform="translate(79.697 32.972)" fill="#5c2c1b"/><path d="M104.678,54.014l1.508-.382a9.587,9.587,0,0,1,7.148.992L135.271,67.29a9.579,9.579,0,0,1,3.375,3.283l2.908,4.731,36.874-21.289-2.912-4.735A9.583,9.583,0,0,0,172.143,46L150.218,33.34a9.591,9.591,0,0,0-7.109-1l-1.555.388Z" transform="translate(79.697 24.405)" fill="#783b25"/><path d="M104.678,53.892l1.508-.382,36.923-21.295-1.555.388Z" transform="translate(79.697 24.527)" fill="#572a1b"/><path d="M123.963,63.128l2.906,4.731,36.876-21.289-2.912-4.735Z" transform="translate(94.38 31.851)" fill="#572a1b"/><path d="M162.489,57.25,125.613,78.54V65.812l36.876-21.289Z" transform="translate(95.636 33.897)" fill="#452014"/><path d="M104.678,66.683l36.876,21.289V73.038L104.678,51.749Z" transform="translate(79.697 39.399)" fill="#a8804c"/><path d="M162.489,66.683,125.613,87.973V73.038l36.876-21.289Z" transform="translate(95.636 39.399)" fill="#87673d"/><path d="M104.678,68.561,141.554,89.85V81.517L104.678,60.228Z" transform="translate(79.697 45.855)" fill="#878787"/><path d="M162.489,68.561,125.613,89.85V81.517l36.876-21.289Z" transform="translate(95.636 45.855)" fill="#636363"/><g transform="translate(221.206 69.538)" opacity="0.3"><g clip-path="url(#h)"><path d="M134.145,39.48c-3.635,0-6.646,1.465-7.169,3.378H125.59v1.455h1.478c.719,1.779,3.614,3.111,7.077,3.111,4,0,7.25-1.777,7.25-3.972s-3.246-3.972-7.25-3.972" transform="translate(-125.588 -39.48)"/></g></g><path d="M126.753,38.064h-.22a1.051,1.051,0,0,0-.9,0h-.22s-.451,6.679-.449,6.693a.527.527,0,0,0,.322.52,1.761,1.761,0,0,0,1.6,0,.519.519,0,0,0,.319-.542c0-.007-.446-6.381-.446-6.381Z" transform="translate(95.14 28.904)" fill="#4c8018"/></g></g><g transform="translate(213.957 57.681)"><g clip-path="url(#i)"><rect width="14.499" height="14.499" transform="translate(0 0)" fill="url(#j)"/></g></g><g transform="translate(0 0)"><g clip-path="url(#a)"><path d="M125.614,70.263l36.876,21.289V78.825l-3.151-7.4L132.5,55.394l-6.889,2.142Z" transform="translate(95.636 42.174)" fill="#5c2c1b"/><path d="M125.614,66.1l1.506-.382a9.585,9.585,0,0,1,7.148.992l21.938,12.666a9.593,9.593,0,0,1,3.375,3.283l2.908,4.731L199.362,66.1l-2.912-4.735a9.592,9.592,0,0,0-3.371-3.281L171.152,45.428a9.591,9.591,0,0,0-7.109-1l-1.555.387Z" transform="translate(95.636 33.608)" fill="#783b25"/><path d="M125.614,65.98l1.508-.382L164.044,44.3l-1.555.388Z" transform="translate(95.636 33.73)" fill="#572a1b"/><path d="M144.9,75.216l2.906,4.731L184.68,58.657l-2.912-4.736Z" transform="translate(110.319 41.053)" fill="#572a1b"/><path d="M183.424,69.338,146.549,90.627V77.9L183.424,56.61Z" transform="translate(111.575 43.1)" fill="#452014"/><path d="M125.614,78.77l36.876,21.289V85.125L125.614,63.836Z" transform="translate(95.636 48.602)" fill="#a8804c"/><path d="M183.424,78.77,146.549,100.06V85.125l36.876-21.289Z" transform="translate(111.575 48.602)" fill="#87673d"/><path d="M125.614,80.648l36.876,21.289V93.6L125.614,72.315Z" transform="translate(95.636 55.057)" fill="#878787"/><path d="M183.424,80.648l-36.876,21.289V93.6l36.876-21.289Z" transform="translate(111.575 55.057)" fill="#636363"/><g transform="translate(258.082 90.828)" opacity="0.3"><g clip-path="url(#l)"><path d="M155.08,51.567c-3.635,0-6.646,1.465-7.169,3.378h-1.386V56.4H148c.719,1.781,3.614,3.111,7.077,3.111,4,0,7.25-1.779,7.25-3.972s-3.246-3.972-7.25-3.972" transform="translate(-146.525 -51.568)"/></g></g><path d="M147.688,50.151h-.22a1.064,1.064,0,0,0-.9,0h-.22s-.451,6.679-.449,6.693a.527.527,0,0,0,.322.52,1.761,1.761,0,0,0,1.6,0,.516.516,0,0,0,.319-.542c0-.007-.446-6.381-.446-6.381Z" transform="translate(111.079 38.107)" fill="#4c8018"/></g></g><g transform="translate(250.832 78.97)"><g clip-path="url(#m)"><rect width="14.499" height="14.499" transform="translate(0 0)" fill="url(#n)"/></g></g><g transform="translate(0 0)"><g clip-path="url(#a)"><path d="M83.742,70.263l36.876,21.289V78.825l-3.151-7.4L90.631,55.394l-6.889,2.142Z" transform="translate(63.757 42.174)" fill="#5c2c1b"/><path d="M83.742,66.1l1.508-.382a9.586,9.586,0,0,1,7.148.992l21.938,12.666a9.608,9.608,0,0,1,3.375,3.283l2.908,4.731L157.492,66.1l-2.912-4.735a9.583,9.583,0,0,0-3.373-3.281L129.282,45.428a9.591,9.591,0,0,0-7.109-1l-1.557.387Z" transform="translate(63.757 33.608)" fill="#783b25"/><path d="M83.742,65.98,85.25,65.6,122.173,44.3l-1.557.388Z" transform="translate(63.757 33.73)" fill="#572a1b"/><path d="M103.027,75.216l2.906,4.731,36.876-21.289L139.9,53.921Z" transform="translate(78.44 41.053)" fill="#572a1b"/><path d="M141.553,69.338,104.677,90.627V77.9L141.553,56.61Z" transform="translate(79.696 43.1)" fill="#452014"/><path d="M83.742,78.77l36.876,21.289V85.125L83.742,63.836Z" transform="translate(63.757 48.602)" fill="#a8804c"/><path d="M141.553,78.77,104.677,100.06V85.125l36.876-21.289Z" transform="translate(79.696 48.602)" fill="#87673d"/><path d="M83.742,80.648l36.876,21.289V93.6L83.742,72.315Z" transform="translate(63.757 55.057)" fill="#878787"/><path d="M141.553,80.648l-36.876,21.289V93.6l36.876-21.289Z" transform="translate(79.696 55.057)" fill="#636363"/><g transform="translate(184.333 90.828)" opacity="0.3"><g clip-path="url(#l)"><path d="M113.209,51.567c-3.635,0-6.646,1.465-7.169,3.378h-1.386V56.4h1.478c.719,1.781,3.614,3.111,7.077,3.111,4,0,7.25-1.779,7.25-3.972s-3.246-3.972-7.25-3.972" transform="translate(-104.654 -51.568)"/></g></g><path d="M105.817,50.151h-.22a1.064,1.064,0,0,0-.9,0h-.22s-.451,6.679-.449,6.693a.527.527,0,0,0,.322.52,1.761,1.761,0,0,0,1.6,0,.516.516,0,0,0,.319-.542c0-.007-.446-6.381-.446-6.381Z" transform="translate(79.201 38.107)" fill="#4c8018"/></g></g><g transform="translate(177.081 78.97)"><g clip-path="url(#q)"><rect width="14.501" height="14.499" transform="translate(0 0)" fill="url(#r)"/></g></g><g transform="translate(0 0)"><g clip-path="url(#a)"><path d="M104.678,82.351l36.876,21.289V90.912l-3.151-7.4-26.836-16.03-6.889,2.142Z" transform="translate(79.697 51.377)" fill="#5c2c1b"/><path d="M104.678,78.189l1.508-.382a9.6,9.6,0,0,1,7.148.992l21.938,12.666a9.593,9.593,0,0,1,3.375,3.283l2.908,4.731,36.874-21.289-2.912-4.735a9.583,9.583,0,0,0-3.373-3.281L150.218,57.515a9.591,9.591,0,0,0-7.109-1l-1.555.387Z" transform="translate(79.697 42.81)" fill="#783b25"/><path d="M104.678,78.067l1.508-.382L143.109,56.39l-1.555.388Z" transform="translate(79.697 42.932)" fill="#572a1b"/><path d="M123.963,87.3l2.906,4.731,36.876-21.289-2.912-4.735Z" transform="translate(94.38 50.256)" fill="#572a1b"/><path d="M162.489,81.425l-36.876,21.289V89.987L162.489,68.7Z" transform="translate(95.636 52.303)" fill="#452014"/><path d="M104.678,90.858l36.876,21.289V97.213L104.678,75.923Z" transform="translate(79.697 57.804)" fill="#a8804c"/><path d="M162.489,90.858l-36.876,21.289V97.213l36.876-21.289Z" transform="translate(95.636 57.804)" fill="#87673d"/><path d="M104.678,92.735l36.876,21.289v-8.333L104.678,84.4Z" transform="translate(79.697 64.26)" fill="#878787"/><path d="M162.489,92.735l-36.876,21.289v-8.333L162.489,84.4Z" transform="translate(95.636 64.26)" fill="#636363"/><g transform="translate(221.206 112.118)" opacity="0.3"><g clip-path="url(#h)"><path d="M134.145,63.655c-3.635,0-6.646,1.467-7.169,3.378H125.59V68.49h1.478c.719,1.779,3.614,3.109,7.077,3.109,4,0,7.25-1.777,7.25-3.972s-3.246-3.972-7.25-3.972" transform="translate(-125.588 -63.654)"/></g></g><path d="M126.753,62.238h-.22a1.064,1.064,0,0,0-.9,0h-.22s-.451,6.681-.449,6.693a.527.527,0,0,0,.322.52,1.761,1.761,0,0,0,1.6,0,.519.519,0,0,0,.319-.542c0-.007-.446-6.381-.446-6.381Z" transform="translate(95.14 47.309)" fill="#4c8018"/></g></g><g transform="translate(213.957 100.26)"><g clip-path="url(#u)"><rect width="14.499" height="14.499" transform="translate(0 0)" fill="url(#v)"/></g></g><g transform="translate(0 0)"><g clip-path="url(#a)"><path d="M62.807,82.351,99.682,103.64V90.912l-3.151-7.4L69.7,67.481l-6.889,2.142Z" transform="translate(47.818 51.377)" fill="#5c2c1b"/><path d="M62.807,78.189l1.508-.382a9.594,9.594,0,0,1,7.148.992L93.4,91.465a9.594,9.594,0,0,1,3.375,3.283l2.908,4.731,36.874-21.289-2.912-4.735a9.583,9.583,0,0,0-3.373-3.281L108.347,57.515a9.591,9.591,0,0,0-7.109-1l-1.557.387Z" transform="translate(47.818 42.81)" fill="#783b25"/><path d="M62.807,78.067l1.508-.382L101.238,56.39l-1.557.388Z" transform="translate(47.818 42.932)" fill="#572a1b"/><path d="M82.092,87.3,85,92.033l36.876-21.289-2.912-4.735Z" transform="translate(62.501 50.256)" fill="#572a1b"/><path d="M120.618,81.425,83.742,102.714V89.987L120.618,68.7Z" transform="translate(63.757 52.303)" fill="#452014"/><path d="M62.807,90.858l36.876,21.289V97.213L62.807,75.923Z" transform="translate(47.818 57.804)" fill="#a8804c"/><path d="M120.618,90.858,83.742,112.147V97.213l36.876-21.289Z" transform="translate(63.757 57.804)" fill="#87673d"/><path d="M62.807,92.735l36.876,21.289v-8.333L62.807,84.4Z" transform="translate(47.818 64.26)" fill="#878787"/><path d="M120.618,92.735,83.742,114.025v-8.333L120.618,84.4Z" transform="translate(63.757 64.26)" fill="#636363"/><g transform="translate(147.457 112.118)" opacity="0.3"><g clip-path="url(#h)"><path d="M92.275,63.655c-3.637,0-6.647,1.467-7.17,3.378H83.718V68.49H85.2c.719,1.779,3.614,3.109,7.079,3.109,4,0,7.248-1.777,7.248-3.972s-3.246-3.972-7.248-3.972" transform="translate(-83.718 -63.654)"/></g></g><path d="M84.881,62.238h-.22a1.064,1.064,0,0,0-.9,0h-.22s-.451,6.681-.449,6.693a.527.527,0,0,0,.322.52,1.761,1.761,0,0,0,1.6,0,.516.516,0,0,0,.319-.542c0-.007-.446-6.381-.446-6.381Z" transform="translate(63.261 47.309)" fill="#4c8018"/></g></g><g transform="translate(140.207 100.26)"><g clip-path="url(#y)"><rect width="14.499" height="14.499" transform="translate(0 0)" fill="url(#z)"/></g></g><g transform="translate(0 0)"><g clip-path="url(#a)"><path d="M83.742,94.438l36.876,21.289V103l-3.151-7.4L90.631,79.568,83.742,81.71Z" transform="translate(63.757 60.58)" fill="#5c2c1b"/><path d="M83.742,90.276l1.508-.382a9.6,9.6,0,0,1,7.148.992l21.938,12.666a9.584,9.584,0,0,1,3.375,3.285l2.908,4.729,36.874-21.289-2.912-4.735a9.6,9.6,0,0,0-3.373-3.281L129.282,69.6a9.591,9.591,0,0,0-7.109-1l-1.557.387Z" transform="translate(63.757 52.013)" fill="#783b25"/><path d="M83.742,90.154l1.508-.382,36.923-21.295-1.557.388Z" transform="translate(63.757 52.135)" fill="#572a1b"/><path d="M103.027,99.389l2.906,4.731,36.876-21.289L139.9,78.1Z" transform="translate(78.44 59.459)" fill="#572a1b"/><path d="M141.553,93.512,104.677,114.8V102.074l36.876-21.289Z" transform="translate(79.696 61.505)" fill="#452014"/><path d="M83.742,102.945l36.876,21.289V109.3L83.742,88.01Z" transform="translate(63.757 67.007)" fill="#a8804c"/><path d="M141.553,102.945l-36.876,21.289V109.3L141.553,88.01Z" transform="translate(79.696 67.007)" fill="#87673d"/><path d="M83.742,104.822l36.876,21.289v-8.333L83.742,96.489Z" transform="translate(63.757 73.462)" fill="#878787"/><path d="M141.553,104.822l-36.876,21.289v-8.333l36.876-21.289Z" transform="translate(79.696 73.462)" fill="#636363"/><g transform="translate(184.333 133.408)" opacity="0.3"><g clip-path="url(#l)"><path d="M113.209,75.742c-3.635,0-6.646,1.467-7.169,3.378h-1.386v1.457h1.478c.719,1.779,3.614,3.109,7.077,3.109,4,0,7.25-1.777,7.25-3.972s-3.246-3.972-7.25-3.972" transform="translate(-104.654 -75.741)"/></g></g><path d="M105.817,74.325h-.22a1.064,1.064,0,0,0-.9,0h-.22s-.451,6.681-.449,6.693a.525.525,0,0,0,.322.52,1.761,1.761,0,0,0,1.6,0A.515.515,0,0,0,106.27,81c0-.007-.446-6.381-.446-6.381Z" transform="translate(79.201 56.512)" fill="#4c8018"/></g></g><g transform="translate(177.081 121.549)"><g clip-path="url(#ac)"><rect width="14.501" height="14.499" fill="url(#ad)"/></g></g><g transform="translate(0 0)"><g clip-path="url(#a)"><path d="M41.871,94.438l36.876,21.289V103L75.6,95.6,48.76,79.568,41.871,81.71Z" transform="translate(31.879 60.58)" fill="#5c2c1b"/><path d="M41.871,90.276l1.508-.382a9.6,9.6,0,0,1,7.148.992l21.938,12.666a9.583,9.583,0,0,1,3.375,3.285l2.908,4.729,36.874-21.289-2.912-4.735a9.6,9.6,0,0,0-3.373-3.281L87.411,69.6a9.591,9.591,0,0,0-7.109-1l-1.557.387Z" transform="translate(31.879 52.013)" fill="#783b25"/><path d="M41.871,90.154l1.508-.382L80.3,68.477l-1.557.388Z" transform="translate(31.879 52.135)" fill="#572a1b"/><path d="M61.156,99.389l2.906,4.731,36.876-21.289L98.027,78.1Z" transform="translate(46.561 59.459)" fill="#572a1b"/><path d="M99.682,93.512,62.806,114.8V102.074L99.682,80.784Z" transform="translate(47.818 61.505)" fill="#452014"/><path d="M41.871,102.945l36.876,21.289V109.3L41.871,88.01Z" transform="translate(31.879 67.007)" fill="#a8804c"/><path d="M99.682,102.945,62.806,124.234V109.3L99.682,88.01Z" transform="translate(47.818 67.007)" fill="#87673d"/><path d="M41.871,104.822l36.876,21.289v-8.333L41.871,96.489Z" transform="translate(31.879 73.462)" fill="#878787"/><path d="M99.682,104.822,62.806,126.112v-8.333L99.682,96.489Z" transform="translate(47.818 73.462)" fill="#636363"/><g transform="translate(110.582 133.408)" opacity="0.3"><g clip-path="url(#h)"><path d="M71.339,75.742c-3.635,0-6.646,1.467-7.169,3.378H62.782v1.457h1.48c.719,1.779,3.614,3.109,7.077,3.109,4,0,7.25-1.777,7.25-3.972s-3.246-3.972-7.25-3.972" transform="translate(-62.783 -75.741)"/></g></g><path d="M63.946,74.325h-.22a1.064,1.064,0,0,0-.9,0h-.22s-.451,6.681-.449,6.693a.524.524,0,0,0,.321.52,1.765,1.765,0,0,0,1.6,0A.515.515,0,0,0,64.4,81c0-.007-.446-6.381-.446-6.381Z" transform="translate(47.322 56.512)" fill="#4c8018"/></g></g><g transform="translate(103.333 121.549)"><g clip-path="url(#ag)"><rect width="14.499" height="14.499" transform="translate(0)" fill="url(#ah)"/></g></g><g transform="translate(0 0)"><g clip-path="url(#a)"><path d="M62.807,106.525l36.876,21.289V115.087l-3.151-7.4L69.7,91.656,62.807,93.8Z" transform="translate(47.818 69.782)" fill="#5c2c1b"/><path d="M62.807,102.363l1.508-.382a9.585,9.585,0,0,1,7.148.992L93.4,115.639a9.579,9.579,0,0,1,3.375,3.283l2.908,4.731,36.874-21.289-2.912-4.735a9.583,9.583,0,0,0-3.373-3.281L108.347,81.689a9.591,9.591,0,0,0-7.109-1l-1.557.387Z" transform="translate(47.818 61.215)" fill="#783b25"/><path d="M62.807,102.241l1.508-.382,36.923-21.295-1.557.388Z" transform="translate(47.818 61.338)" fill="#572a1b"/><path d="M82.092,111.477,85,116.208l36.876-21.289-2.912-4.736Z" transform="translate(62.501 68.661)" fill="#572a1b"/><path d="M120.618,105.6,83.742,126.889V114.161l36.876-21.289Z" transform="translate(63.757 70.708)" fill="#452014"/><path d="M62.807,115.032l36.876,21.289V121.387L62.807,100.1Z" transform="translate(47.818 76.209)" fill="#a8804c"/><path d="M120.618,115.032,83.742,136.322V121.387L120.618,100.1Z" transform="translate(63.757 76.209)" fill="#87673d"/><path d="M62.807,116.91,99.682,138.2v-8.333L62.807,108.577Z" transform="translate(47.818 82.665)" fill="#878787"/><path d="M120.618,116.91,83.742,138.2v-8.333l36.876-21.289Z" transform="translate(63.757 82.665)" fill="#636363"/><g transform="translate(147.457 154.698)" opacity="0.3"><g clip-path="url(#h)"><path d="M92.275,87.829c-3.637,0-6.647,1.465-7.17,3.378H83.718v1.455H85.2c.719,1.781,3.614,3.111,7.079,3.111,4,0,7.248-1.777,7.248-3.972s-3.246-3.972-7.248-3.972" transform="translate(-83.718 -87.829)"/></g></g><path d="M84.881,86.413h-.22a1.051,1.051,0,0,0-.9,0h-.22s-.451,6.679-.449,6.693a.527.527,0,0,0,.322.52,1.761,1.761,0,0,0,1.6,0,.516.516,0,0,0,.319-.542c0-.007-.446-6.381-.446-6.381Z" transform="translate(63.261 65.715)" fill="#4c8018"/></g></g><g transform="translate(140.207 142.84)"><g clip-path="url(#ak)"><rect width="14.499" height="14.498" transform="translate(0)" fill="url(#al)"/></g></g><g transform="translate(0 0)"><g clip-path="url(#a)"><g transform="translate(131.189 93.496)" opacity="0.3"><g clip-path="url(#an)"><path d="M119.981,56.022c0-1.622-12.777-2.94-28.539-2.94-6.351,0-12.218.215-16.96.576l1.138,3.054,7.246.157,1.212,1.994c2.35.063,4.819.1,7.364.1,15.762,0,28.539-1.316,28.539-2.94" transform="translate(-74.482 -53.082)"/></g></g><path d="M79.957,37.373l3.155,6.255a3.2,3.2,0,0,1,1.148.69L81.983,45.6a7.529,7.529,0,0,1-.173-1.428c-.25-.335-3.056-3.9-3.169-4.794-.162-.55,1.316-2,1.316-2" transform="translate(59.864 28.454)" fill="#ffad9e"/><path d="M76.861,31.952a6.756,6.756,0,0,1-.483,1.259,2.443,2.443,0,0,1-.893,1.1l1.2,1.3,2.424,1.64,1.133-.6.225-3.581-2.329-1.554Z" transform="translate(57.471 23.992)" fill="#c9897d"/><path d="M79.385,32.483c.877.826.837,2.788.7,3.331S79.8,37.39,79.8,37.39l-1.767-1.326s1.127-3.757,1.353-3.581" transform="translate(59.41 24.726)" fill="#cf7c00"/><path d="M74.153,35.33a27.764,27.764,0,0,0,2.63-2.066c1.76.4,2.679,3.042,4.12,2.417.689-.4.137-1.858,0-2.785,0-.183.793.005.793.005l1.083,2.2s1.33,3.433,1.192,4.183c-.065,1.052-1.43,1.289-1.656,1.4-1.238,1.541-.324,3.331-.8,4.52-.238.99-4.3,1.365-4.3,1.365l-2.848-2.128s.564-.238.713-1.441-1.164-3.118-1.353-4.845a5.612,5.612,0,0,1,.426-2.829" transform="translate(56.102 24.984)" fill="#ff9800"/><path d="M77.8,33.638a10.77,10.77,0,0,1,2.137,5.178l.814-.4s-1-3.938-2.212-5.2Z" transform="translate(59.236 25.286)" fill="#d63a5e"/><path d="M80.574,53.335c.789,2.654,2.517,2.667,2.7,3.775.113.518.088,1.509-1.39,1.559a4.573,4.573,0,0,1-2.764-1.744s-1.462-.435-1.818-1.111a3.973,3.973,0,0,1,.225-2.478Z" transform="translate(58.758 40.607)" fill="#1e9e39"/><path d="M79.872,40.49c1.765,2.478,2.619,13.006,2.593,13.865a33.222,33.222,0,0,0-.565,8.569s-.074.965-1.689,1.041-2.1-.713-2.1-.713-.713-7.325.338-9.2c.183-.488-2.517-7.812-2.517-7.812V43.193s3.456-3.079,3.944-2.7" transform="translate(57.808 30.803)" fill="#a82d4a"/><path d="M76.132,52.928a7.172,7.172,0,0,0,2.552,2.614.714.714,0,0,1,.326.59,2.434,2.434,0,0,1-.074.752,2.943,2.943,0,0,1-3.331,0,12.189,12.189,0,0,1-2.2-1.717,6.569,6.569,0,0,1,0-2.239s2.429-.025,2.73,0" transform="translate(55.8 40.288)" fill="#1e9e39"/><path d="M84.671,36.091s-4.211,2.068-4.548,2.24a8.694,8.694,0,0,1-2.108,5.34,2.763,2.763,0,0,1-.826-.254,6.914,6.914,0,0,1-2-1.738,8.463,8.463,0,0,0-1.978,2.557c-.689,1.478.375,11.322.262,11.935s-.52,1.4-.622,2.216.284,7.362.284,7.362a2.554,2.554,0,0,0,2.029.826,3.153,3.153,0,0,0,1.878-.713s-.238-7.086-.213-7.561a6.681,6.681,0,0,1,.476-1.3,35.236,35.236,0,0,0,1.615-9.5,7.219,7.219,0,0,0,3.306-3.679l.1-.978c.345-.6,2.723-4.867,2.348-6.748" transform="translate(55.453 27.478)" fill="#d63a5e"/><path d="M78.953,28.794s-.754-.923-2.332-.042a5.4,5.4,0,0,0-2.135,2.35s-.74,2.348.75,2.73c.314.012.9-.476.9-.476l.176.225.976-.6Z" transform="translate(56.571 21.6)" fill="#b35600"/><path d="M82.15,31.309a3.508,3.508,0,0,1-.282,2.35l-.225.181a1.416,1.416,0,0,0,0,.382,9.455,9.455,0,0,1-1.37,2.348,1.226,1.226,0,0,1-.9.338,4.382,4.382,0,0,1-2.159-1.841,1.709,1.709,0,0,1,0-.882s-.833-.789-.764-1.071a1.085,1.085,0,0,1-.137-.9l1.221-1.39,2.179-.657,1.333.47s.978.314,1.108.673" transform="translate(58.066 22.967)" fill="#ffad9e"/><path d="M76.515,30.279s-.8-.638.116-1.427,1.64.43,1.64.43Z" transform="translate(58.007 21.764)" fill="#d63a5e"/><path d="M76.885,34.049s-.113-.581.25-.6c.389-.039.232.395,1.1,1.326.125-.331.6-.351.6-.351a.869.869,0,0,0,.525-.025c.326-.1.451-.7.627-.851s1.282.238,1.982-.266c.382-.275.56-.266.616-.925s-.689-3.871-3.938-3.345c-.638-.47-2.108,1.411-2.108,1.411A3.311,3.311,0,0,0,75.709,33c.1.6,1.177,1.052,1.177,1.052" transform="translate(57.627 22.032)" fill="#cf6400"/><path d="M72.88,37.618c.7.388,2.3,2.279,3.294,2.779.174.1,1.277.25,1.552.513s.185.939.183,1.022c.092.516,1.106,1.192,1.106,1.37s-.564.551-.564.551a2.75,2.75,0,0,1-1.351.1c-.217-.041-.717-.615-.926-.877a10.192,10.192,0,0,1-.643-1.494c-1.309-.775-4.326-2.225-4.571-2.575s1.594-1.539,1.92-1.39" transform="translate(54.008 28.63)" fill="#ffad9e"/><path d="M76.878,34.341c-.838.351-1.076,1.03-2.029,1.677A26.762,26.762,0,0,0,70.143,39.2a2.773,2.773,0,0,0,.516,1.941,8.288,8.288,0,0,1,.823.569c1.453.25,2.078-1.465,2.078-1.465l-.287-.294a11.407,11.407,0,0,0,3.556-1.878s3.78-.476,2.7-3.079a2.066,2.066,0,0,0-2.654-.652" transform="translate(53.377 25.973)" fill="#cf7c00"/><path d="M74.664,34.01a7.77,7.77,0,0,1,4.314,6.29l.814-.4s-.544-4.921-4.368-6.515c-.308-.06-1.06.562-.759.627" transform="translate(56.793 25.413)" fill="#d63a5e"/><path d="M84.84,49.041s-.685-1.154-.713-1.207c-.116-.113-.019-.474.211-.467l1.467.141Z" transform="translate(64.012 36.064)" fill="#a62626"/><path d="M80.97,47.9c-1.062-1.853-1.31-3.706-.557-4.137l-.5.287c-.754.432-.506,2.284.557,4.137,1.044,1.821,2.485,2.964,3.25,2.589v0l.016-.009.023-.011.019-.014.479-.273c-.754.433-2.226-.719-3.288-2.572" transform="translate(60.512 33.315)" fill="#a62626"/><path d="M83.487,46.37c1.062,1.853,1.31,3.706.557,4.137s-2.226-.719-3.288-2.572S79.445,44.23,80.2,43.8s2.226.719,3.288,2.572" transform="translate(60.727 33.277)" fill="#d63a3a"/><path d="M83.956,42.96l-3.6,1.592c-.692.4-.463,2.1.513,3.8.958,1.673,2.281,2.723,2.984,2.38l.014-.007.021-.011L83.9,50.7l3.158-2.519Z" transform="translate(60.872 32.708)" fill="#a62626"/><path d="M83.458,46.19c-.919-1.6-1.136-3.209-.483-3.583l-.432.248c-.653.373-.437,1.978.483,3.583.9,1.578,2.152,2.568,2.815,2.244l.012-.007.021-.011.018-.011.414-.236c-.653.373-1.929-.624-2.848-2.228" transform="translate(62.558 32.439)" fill="#a62626"/><path d="M85.637,44.868c.919,1.6,1.136,3.209.483,3.583s-1.929-.622-2.848-2.226-1.136-3.209-.483-3.583,1.929.622,2.848,2.226" transform="translate(62.744 32.406)" fill="#d63a3a"/><path d="M84.7,46.158a.267.267,0,0,1-.1.037c.222-.31.077-1.09-.37-1.869-.461-.8-1.085-1.33-1.462-1.258a.314.314,0,0,1,.106-.1c.359-.206,1.059.342,1.562,1.222s.624,1.76.264,1.966" transform="translate(63.013 32.682)" fill="#c72d2d"/><path d="M84.638,46.136c-.377.07-1-.454-1.46-1.259-.446-.777-.59-1.554-.37-1.867.377-.072,1,.454,1.462,1.258.446.779.59,1.559.368,1.869" transform="translate(62.969 32.741)" fill="#821e1e"/><path d="M85,48.226c.264-.439.624-.706.8-.6l-.259-.157c-.178-.107-.537.16-.8.6s-.331.867-.164.983l.268.162c-.178-.107-.109-.55.155-.988" transform="translate(64.328 36.123)" fill="#1e9e39"/><path d="M85.539,48.548c-.264.439-.624.706-.8.6s-.109-.55.155-.988.624-.708.8-.6.109.55-.155.988" transform="translate(64.44 36.191)" fill="#25c447"/><path d="M85.149,47.749c-.023.037-.053.06-.067.051s-.011-.048.012-.085.053-.058.067-.049.011.046-.012.083" transform="translate(64.77 36.289)" fill="#16752a"/><path d="M85.259,47.729c-.023.037-.053.06-.067.051s-.009-.048.012-.085.053-.058.067-.049.011.046-.012.083" transform="translate(64.854 36.274)" fill="#16752a"/><path d="M85.268,47.866c-.023.037-.053.06-.067.051s-.011-.048.012-.085.053-.058.067-.049.009.046-.012.083" transform="translate(64.861 36.378)" fill="#16752a"/><path d="M85.149,47.912c-.023.037-.053.06-.067.051s-.011-.048.012-.085.053-.058.067-.049.011.046-.012.083" transform="translate(64.77 36.413)" fill="#16752a"/><path d="M85.027,47.827c-.023.037-.053.06-.067.051s-.011-.048.012-.085.053-.058.067-.049.011.046-.012.083" transform="translate(64.677 36.348)" fill="#16752a"/><path d="M85.22,48.014c-.023.037-.053.06-.067.051s-.009-.048.012-.085.053-.058.067-.049.011.046-.012.083" transform="translate(64.825 36.491)" fill="#16752a"/><path d="M85.122,48.073c-.023.037-.053.06-.067.051s-.011-.048.012-.085.053-.058.067-.049.011.046-.012.083" transform="translate(64.75 36.536)" fill="#16752a"/><path d="M85.007,47.995c-.023.037-.053.06-.067.051s-.011-.048.012-.085.053-.058.067-.049.011.046-.012.083" transform="translate(64.662 36.476)" fill="#16752a"/><path d="M84.9,48.139c-.023.037-.053.06-.067.051s-.011-.048.012-.085.053-.058.067-.049.011.046-.012.083" transform="translate(64.578 36.586)" fill="#16752a"/><path d="M84.987,48.278c-.023.037-.053.06-.067.051s-.011-.048.012-.085.053-.058.067-.049.011.046-.012.083" transform="translate(64.647 36.692)" fill="#16752a"/><path d="M84.884,47.995c-.023.037-.053.06-.067.051s-.009-.048.012-.085.053-.058.067-.049.011.046-.012.083" transform="translate(64.569 36.476)" fill="#16752a"/><path d="M84.777,48.217c-.023.037-.053.06-.067.051s-.009-.048.012-.085.053-.058.067-.049.011.046-.012.083" transform="translate(64.487 36.645)" fill="#16752a"/><path d="M84.869,48.3c-.023.037-.053.06-.067.051s-.011-.048.012-.085.053-.058.067-.049.011.046-.012.083" transform="translate(64.557 36.706)" fill="#16752a"/><path d="M84.952,48.4c-.023.037-.053.06-.067.051s-.009-.048.012-.083.053-.06.067-.051.011.046-.012.083" transform="translate(64.621 36.788)" fill="#16752a"/><path d="M84.856,48.443c-.021.037-.053.06-.067.051s-.009-.048.012-.085.053-.058.069-.049.009.046-.014.083" transform="translate(64.547 36.817)" fill="#16752a"/><path d="M84.749,48.386c-.023.037-.053.06-.067.051s-.011-.048.012-.083.053-.06.067-.051.011.046-.012.083" transform="translate(64.466 36.774)" fill="#16752a"/><path d="M85.007,48.139c-.023.037-.053.06-.067.051s-.011-.048.012-.085.053-.058.067-.049.011.046-.012.083" transform="translate(64.662 36.586)" fill="#16752a"/><path d="M85.106,48.217c-.023.037-.053.06-.067.051s-.011-.048.012-.085.053-.058.067-.049.011.046-.012.083" transform="translate(64.738 36.645)" fill="#16752a"/><path d="M85.241,48.638c-.144-.063-2.422-1.062-2.563-1.131-.359-.16.875-1.5,1.416-1.129.111.146,1.3,1.738,1.358,1.793-.111-.032-.342.308-.211.467" transform="translate(62.898 35.26)" fill="#d63a3a"/><path d="M81.059,45.684l-.712-1.224c-.423-.727-.424-1.52-.007-1.765L83,41.134a1.424,1.424,0,0,1,1.742.661l.393.675c.421.727.424,1.52.005,1.767l-.343.259a.2.2,0,0,1-.291-.058l-.092-.157a.2.2,0,0,1,.07-.264l.141-.083c.255-.15.254-.632,0-1.076l-.393-.676c-.257-.444-.675-.682-.93-.532l-2.5,1.483c-.255.15-.254.634,0,1.076l.736,1.266Z" transform="translate(60.93 31.238)" fill="#a62626"/><path d="M86.152,48.142l-.035,0c-.521-.085-.844-.1-.845-.1a.221.221,0,0,1-.208-.232A.217.217,0,0,1,85.3,47.6c.012,0,.343.021.891.107a.221.221,0,0,1-.035.439" transform="translate(64.763 36.237)" fill="#2bade6"/><path d="M94.725,62.551l-.042,0a.221.221,0,0,1-.173-.259c.114-.564.2-1.111.266-1.633a.22.22,0,1,1,.437.055c-.065.53-.155,1.09-.273,1.664a.217.217,0,0,1-.215.176m.393-3.315c-.13-.021-.222-.1-.22-.222l0-.342c0-.451-.021-.889-.06-1.3a.219.219,0,1,1,.437-.042c.042.426.063.879.063,1.344l0,.345a.221.221,0,0,1-.22.218m-.335-3.313a.22.22,0,0,1-.213-.167,9.988,9.988,0,0,0-.511-1.55.222.222,0,0,1,.118-.289.226.226,0,0,1,.289.116A10.431,10.431,0,0,1,95,55.652a.221.221,0,0,1-.162.266.269.269,0,0,1-.053.005m-1.305-3.058a.219.219,0,0,1-.183-.1,9.313,9.313,0,0,0-1.009-1.279.22.22,0,1,1,.319-.3,9.918,9.918,0,0,1,1.059,1.34.221.221,0,0,1-.063.3.232.232,0,0,1-.122.035M91.2,50.444a.217.217,0,0,1-.132-.044,11.45,11.45,0,0,0-1.377-.891.22.22,0,1,1,.213-.386,11.96,11.96,0,0,1,1.428.926.218.218,0,0,1,.044.308.223.223,0,0,1-.176.086m-2.915-1.62a.214.214,0,0,1-.081-.016,15.065,15.065,0,0,0-1.564-.52.22.22,0,0,1,.118-.424,15.782,15.782,0,0,1,1.608.535.22.22,0,0,1-.081.424" transform="translate(65.843 36.435)" fill="#2bade6"/><path d="M90.892,58.176a.262.262,0,0,1-.063-.009.221.221,0,0,1-.146-.277c.086-.284.169-.564.245-.838a.216.216,0,0,1,.27-.155.221.221,0,0,1,.153.271q-.114.417-.248.853a.217.217,0,0,1-.21.155" transform="translate(69.033 43.313)" fill="#2bade6"/><path d="M85.949,48.263a.207.207,0,0,1-.048-.005c-.514-.116-.835-.153-.838-.155a.219.219,0,0,1-.192-.243.226.226,0,0,1,.243-.194c.014,0,.345.041.882.162a.22.22,0,0,1-.048.435" transform="translate(64.615 36.29)" fill="#2bade6"/><path d="M93.713,63.3a.2.2,0,0,1-.044-.005.221.221,0,0,1-.171-.261c.116-.551.208-1.1.277-1.622a.228.228,0,0,1,.248-.19.223.223,0,0,1,.19.247c-.07.535-.166,1.094-.285,1.656a.219.219,0,0,1-.215.176m.428-3.3h-.009a.219.219,0,0,1-.211-.227c.007-.231.012-.456.012-.678,0-.328-.011-.65-.032-.962a.222.222,0,0,1,.206-.234h.014a.221.221,0,0,1,.22.2c.021.321.03.652.032.992,0,.227-.005.458-.012.692a.221.221,0,0,1-.22.213m-.229-3.31a.221.221,0,0,1-.217-.178,11.322,11.322,0,0,0-.426-1.573.223.223,0,0,1,.137-.282.227.227,0,0,1,.28.136,12.083,12.083,0,0,1,.442,1.635.221.221,0,0,1-.174.257.185.185,0,0,1-.042.005M92.8,53.572a.22.22,0,0,1-.194-.114,10,10,0,0,0-.893-1.354.219.219,0,1,1,.343-.273,10.045,10.045,0,0,1,.935,1.416.22.22,0,0,1-.088.3.217.217,0,0,1-.1.026m-2.043-2.6a.212.212,0,0,1-.148-.058A11.25,11.25,0,0,0,89.328,49.9a.218.218,0,0,1-.058-.3.223.223,0,0,1,.306-.06,11.712,11.712,0,0,1,1.332,1.048.22.22,0,0,1,.012.312.211.211,0,0,1-.16.07m-2.746-1.862a.224.224,0,0,1-.1-.023,13.784,13.784,0,0,0-1.508-.639.219.219,0,0,1-.134-.28.221.221,0,0,1,.282-.134,14.486,14.486,0,0,1,1.557.659.222.222,0,0,1,.1.3.219.219,0,0,1-.2.122" transform="translate(65.675 36.558)" fill="#2bade6"/><path d="M90.217,58.666a.262.262,0,0,1-.063-.009.22.22,0,0,1-.146-.277c.086-.284.169-.564.245-.84a.221.221,0,1,1,.425.12q-.116.417-.25.851a.217.217,0,0,1-.21.155" transform="translate(68.519 43.687)" fill="#2bade6"/><path d="M86.091,48.537a.262.262,0,0,1-.063-.009,7.963,7.963,0,0,0-.819-.21.22.22,0,1,1,.072-.433,7.379,7.379,0,0,1,.874.22.22.22,0,0,1,.146.277.217.217,0,0,1-.21.155" transform="translate(64.733 36.454)" fill="#2bade6"/><path d="M92.193,63.227l-.046,0a.219.219,0,0,1-.169-.261c.129-.622.233-1.233.308-1.816a.219.219,0,0,1,.245-.19.221.221,0,0,1,.192.247c-.077.6-.183,1.217-.315,1.849a.218.218,0,0,1-.215.174m.46-3.685h-.007a.22.22,0,0,1-.213-.227c.005-.173.007-.34.007-.507,0-.446-.018-.891-.058-1.325a.222.222,0,0,1,.2-.24.219.219,0,0,1,.238.2c.039.446.058.905.058,1.363,0,.171,0,.343-.007.521a.221.221,0,0,1-.22.213m-.342-3.694a.223.223,0,0,1-.215-.169,10.915,10.915,0,0,0-.558-1.731.22.22,0,1,1,.405-.171,11.389,11.389,0,0,1,.583,1.8.22.22,0,0,1-.164.264.251.251,0,0,1-.051.005m-1.441-3.4a.225.225,0,0,1-.185-.1,9.615,9.615,0,0,0-1.136-1.418.218.218,0,0,1,.005-.31.222.222,0,0,1,.312.005,10.048,10.048,0,0,1,1.187,1.48.218.218,0,0,1-.063.3.213.213,0,0,1-.12.037M88.3,49.786a.22.22,0,0,1-.129-.042,11.129,11.129,0,0,0-1.564-.935.22.22,0,1,1,.2-.395,11.565,11.565,0,0,1,1.626.972.22.22,0,0,1-.129.4" transform="translate(65.843 36.843)" fill="#2bade6"/><path d="M89.418,58.893a.2.2,0,0,1-.065-.011.218.218,0,0,1-.144-.277c.088-.282.173-.562.25-.837a.218.218,0,0,1,.269-.153.221.221,0,0,1,.153.271c-.078.278-.162.564-.254.852a.217.217,0,0,1-.21.153" transform="translate(67.911 43.859)" fill="#2bade6"/><path d="M85.9,48.69a.212.212,0,0,1-.081-.014,6.766,6.766,0,0,0-.8-.264.222.222,0,0,1-.162-.266.228.228,0,0,1,.264-.162,7.613,7.613,0,0,1,.858.28.22.22,0,0,1,.125.285.218.218,0,0,1-.2.141" transform="translate(64.6 36.528)" fill="#2bade6"/><path d="M91.273,63.328a.218.218,0,0,1-.048-.005.222.222,0,0,1-.169-.262c.132-.608.236-1.2.312-1.76a.221.221,0,1,1,.437.062c-.078.569-.183,1.173-.317,1.791a.221.221,0,0,1-.215.174m.479-3.572h-.009a.22.22,0,0,1-.211-.229c.011-.25.016-.493.016-.731,0-.359-.012-.712-.037-1.048a.22.22,0,0,1,.2-.234.211.211,0,0,1,.236.2c.025.345.037.708.037,1.078,0,.243-.005.493-.016.749a.222.222,0,0,1-.22.211m-.257-3.59a.22.22,0,0,1-.215-.176,11.426,11.426,0,0,0-.481-1.7.22.22,0,1,1,.412-.153,11.666,11.666,0,0,1,.5,1.765.22.22,0,0,1-.171.261l-.044,0M90.241,52.8a.225.225,0,0,1-.192-.111,10.03,10.03,0,0,0-1.013-1.443.22.22,0,0,1,.336-.284,10.582,10.582,0,0,1,1.059,1.506.221.221,0,0,1-.19.331M87.93,50.058a.224.224,0,0,1-.141-.051,10.748,10.748,0,0,0-1.444-1.018.221.221,0,0,1,.224-.38,11.468,11.468,0,0,1,1.5,1.06.22.22,0,0,1-.141.389" transform="translate(65.656 36.984)" fill="#2bade6"/><path d="M88.792,59a.2.2,0,0,1-.065-.011.218.218,0,0,1-.144-.277c.09-.282.173-.562.252-.837a.219.219,0,0,1,.273-.151.222.222,0,0,1,.151.271c-.079.278-.167.562-.257.851a.217.217,0,0,1-.21.153" transform="translate(67.434 43.939)" fill="#2bade6"/><path d="M85.629,48.843a.215.215,0,0,1-.111-.03,6.878,6.878,0,0,0-.754-.38.224.224,0,0,1-.123-.287.227.227,0,0,1,.291-.122,7.868,7.868,0,0,1,.8.409.216.216,0,0,1,.081.3.21.21,0,0,1-.188.111" transform="translate(64.43 36.551)" fill="#2bade6"/><path d="M90.612,62.72a.131.131,0,0,1-.037,0,.217.217,0,0,1-.18-.254c.1-.564.173-1.115.22-1.638a.223.223,0,0,1,.24-.2.219.219,0,0,1,.2.24c-.048.535-.123,1.1-.224,1.675a.221.221,0,0,1-.217.181m.3-3.325a.22.22,0,0,1-.22-.218,15.249,15.249,0,0,0-.1-1.643.222.222,0,0,1,.2-.245.239.239,0,0,1,.241.194,15.263,15.263,0,0,1,.1,1.691.22.22,0,0,1-.218.222Zm-.387-3.311a.221.221,0,0,1-.213-.169,12.459,12.459,0,0,0-.486-1.568.223.223,0,0,1,.127-.285.219.219,0,0,1,.285.127,12.675,12.675,0,0,1,.5,1.624.216.216,0,0,1-.16.264.182.182,0,0,1-.053.007m-1.2-3.111a.222.222,0,0,1-.194-.113,11.693,11.693,0,0,0-.889-1.377.219.219,0,0,1,.044-.308.223.223,0,0,1,.308.044,12.2,12.2,0,0,1,.923,1.428.221.221,0,0,1-.086.3.229.229,0,0,1-.106.026m-2-2.667a.217.217,0,0,1-.157-.065,12.381,12.381,0,0,0-1.228-1.089.22.22,0,0,1,.268-.349,12.665,12.665,0,0,1,1.273,1.127.22.22,0,0,1,0,.312.225.225,0,0,1-.155.063" transform="translate(65.366 37.122)" fill="#2bade6"/><path d="M88.318,58.669a.17.17,0,0,1-.06-.009.218.218,0,0,1-.151-.273c.083-.284.159-.565.229-.844a.215.215,0,0,1,.266-.159.219.219,0,0,1,.16.268c-.07.28-.15.567-.232.858a.22.22,0,0,1-.211.159" transform="translate(67.073 43.684)" fill="#2bade6"/><path d="M85.624,49.206a.217.217,0,0,1-.132-.044,7.351,7.351,0,0,0-.7-.479.221.221,0,0,1,.22-.382,8,8,0,0,1,.743.509.22.22,0,0,1-.132.4" transform="translate(64.473 36.752)" fill="#2bade6"/><path d="M89.66,61.353l-.033,0a.221.221,0,0,1-.185-.252,15.677,15.677,0,0,0,.164-1.779.223.223,0,0,1,.22-.211h.011a.217.217,0,0,1,.21.227,17.07,17.07,0,0,1-.169,1.83.217.217,0,0,1-.217.187m.125-3.614a.218.218,0,0,1-.22-.2,13.3,13.3,0,0,0-.268-1.761.222.222,0,0,1,.167-.262.213.213,0,0,1,.261.166,13.936,13.936,0,0,1,.28,1.819.225.225,0,0,1-.2.238l-.016,0m-.793-3.526a.221.221,0,0,1-.206-.143,12.271,12.271,0,0,0-.74-1.617.219.219,0,1,1,.384-.211,13.066,13.066,0,0,1,.771,1.673.222.222,0,0,1-.13.284.2.2,0,0,1-.079.014m-1.731-3.169a.223.223,0,0,1-.178-.088,12.724,12.724,0,0,0-1.159-1.351.218.218,0,0,1,0-.312.224.224,0,0,1,.314,0,13.829,13.829,0,0,1,1.2,1.4.218.218,0,0,1-.046.308.215.215,0,0,1-.13.044" transform="translate(65.369 37.481)" fill="#2bade6"/><path d="M87.781,58.178a.224.224,0,0,1-.06-.009.218.218,0,0,1-.151-.273q.124-.425.227-.842a.217.217,0,0,1,.266-.162.221.221,0,0,1,.16.268c-.069.282-.148.569-.231.86a.219.219,0,0,1-.211.159" transform="translate(66.665 43.311)" fill="#2bade6"/><path d="M81.823,41.137s.365.472.076.75a1.811,1.811,0,0,1-.953.314c-.166-.243.365-.789.365-.789Z" transform="translate(61.604 31.32)" fill="#ffad9e"/><path d="M80.48,42.519c-.09.2.136.467.41.544a2.96,2.96,0,0,0,1.916-.661c.3-.317.058-.988.058-.988l-.7.417a.7.7,0,0,0-.511-.218c-.329,0-1.08.708-1.17.905" transform="translate(61.258 31.531)" fill="#ffad9e"/><g transform="translate(173.39 66.299)" opacity="0.3"><g clip-path="url(#ao)"><path d="M140.11,43.439c0,3.2-11.9,5.8-26.577,5.8a109.878,109.878,0,0,1-12.291-.655l-2.8-6.052s.87-4.206,8.941-4.853c.8-.012,5.131-.037,6.151-.037,14.677,0,26.577,2.6,26.577,5.8" transform="translate(-98.441 -37.64)"/></g></g><path d="M101.834,38.168a.636.636,0,0,0,.435.086c.092.083-.338,1.478-.569,1.532a1.008,1.008,0,0,1-.907-.229l-.148-1.256Z" transform="translate(76.626 29.059)" fill="#fff"/><path d="M102.177,38.639a1.951,1.951,0,0,1-1.624.564c-.358-.192-.358-1.362-.358-1.362a6.07,6.07,0,0,1,1.555-.275c.412.261.426,1.073.426,1.073" transform="translate(76.284 28.589)" fill="#2b2b2b"/><path d="M97.108,40.872s.423,1,1.073,1.17a12.278,12.278,0,0,0,1.46-1.376l-.345-.881Z" transform="translate(73.933 30.29)" fill="#fff"/><path d="M104.749,32.519l3.435,1.83a2.889,2.889,0,0,1,1.441.079,5.127,5.127,0,0,1-.581,2.115,2.034,2.034,0,0,1-1.34-.888c-1.3-.641-3.4-1.152-3.972-1.4a.966.966,0,0,1-.257-1.293c.2-.469,1.275-.44,1.275-.44" transform="translate(78.678 24.758)" fill="#ffad9e"/><path d="M103.744,29.174a2.326,2.326,0,0,1,.294,1.788c.049,1.17.572,3.137.49,3.923.317-.083,1.089.426,1.089.426a3.052,3.052,0,0,0-.889,1.786,4.025,4.025,0,0,1-1.946-1.126c-.137-.3-.881-5.89-.44-6.605a.824.824,0,0,1,1.4-.192" transform="translate(77.812 21.966)" fill="#a82d4a"/><path d="M100.649,28.68l-1.032.743.248,1.444.907,1.184,1.61.44,1.015-.481.211-1.955L103,28.915l-1.155-.537Z" transform="translate(75.843 21.605)" fill="#c9897d"/><path d="M98.354,30.952c.243-.153.786-.567.786-.567a10.51,10.51,0,0,1,2.064-1.608c.852.562-.22,1.085,1.1,2.175.546.333,1.286,1,1.892.706s.581-2.76.581-2.76l1.421.166s1.583,4.747,1.148,5.534a2.639,2.639,0,0,1-1.962,1.554,4.179,4.179,0,0,0-.562,2.091c-.289.463-2.5,2.064-4.083,1.576a3,3,0,0,1-1.95-2.031A.9.9,0,0,0,99,37.265a7.038,7.038,0,0,0-1.2-2.008s.507-4.109.55-4.3" transform="translate(74.463 21.909)" fill="#d63a5e"/><path d="M102.936,34.646c3.877,2.256,6.959,8.624,7.62,9.376.423.606-.074.955-.312,1.249a1.707,1.707,0,0,1-1.541.852c-1.009-.247-4.111-2.908-6.73-3.537a1.125,1.125,0,0,1-.107-1.041,1.216,1.216,0,0,1,.616-.692l.661.206-2.862-1.7V36.848a22.7,22.7,0,0,1,2.656-2.2" transform="translate(76.348 26.374)" fill="#1c4b94"/><path d="M101.906,38.285s4.4,4.028,5.3,4.229Z" transform="translate(77.586 29.148)" fill="#15376e"/><path d="M98.974,39.2a3.981,3.981,0,0,0-1.633-.44c-.643-.074-1.92-.1-1.9.653.092.881,1.06.793,1.79,1.383a6.321,6.321,0,0,1,1,.981,1.369,1.369,0,0,0,1.094.011,2.114,2.114,0,0,0,1.391-.826s.113-1.548-.365-1.911c-.208-.159-.7.058-1.376.15" transform="translate(72.664 29.486)" fill="#2b2b2b"/><path d="M105.21,34.348c-.3.62-3.248,2.1-4.356,1.471a4.614,4.614,0,0,1-1.677-1.925,6.633,6.633,0,0,0-1.816,2.642c-.506,2.166,1.964,8.625,1.964,8.625a1.436,1.436,0,0,0-1.134.513,1.342,1.342,0,0,0-.225,1.029c1.258.678,3.248,3.967,3.671,4.565s1.155.187,1.724-.088a1.821,1.821,0,0,0,1.048-2.008c.028-1.922-1.4-9.846-1.414-10.131a16.131,16.131,0,0,0,2.216-3.678Z" transform="translate(74.074 25.805)" fill="#2565c4"/><path d="M105.816,28.982a13.015,13.015,0,0,1-1.117,1.182c0,.289-1.117,1.395-1.117,1.395a1.7,1.7,0,0,1-1.1.3c-.358-.041-1.5-1.437-1.5-1.437l1.074-2.545h3.125l.715.514Z" transform="translate(76.884 21.222)" fill="#ffad9e"/><path d="M105.8,26.253a2.219,2.219,0,0,0-2.845.092c-.546.243-3.045,1.046-3.431,2.742a3.436,3.436,0,0,0,.551,2.464s.114-.292.192-.192a2.011,2.011,0,0,0,.107.562,5.845,5.845,0,0,0,1.462,1.231,2.208,2.208,0,0,1,.109-.5.989.989,0,0,0,.331.218,3,3,0,0,1-.093-.7,1.219,1.219,0,0,1,.609-.463c1.657-.588,1.657-1.483,3.392-1.083.069-.194.634-.192.786-.055l-.634.727s3.054-.59-.537-5.05" transform="translate(75.732 19.629)" fill="#ff9800"/><path d="M101.77,26.315c1.092.469,2.427,3.357,2.427,3.357s-1.844-2.642-2.427-3.357" transform="translate(77.483 20.035)" fill="#b86d00"/><path d="M104.877,38.175a.344.344,0,0,1-.224.2L98.9,39.993a.344.344,0,0,1-.187-.662l5.751-1.622a.345.345,0,0,1,.424.24.335.335,0,0,1-.014.227" transform="translate(74.966 28.7)" fill="#663f30"/><path d="M101.5,37.413l.7,2.9s3.713-.6,5.041-3.1a8.434,8.434,0,0,0-5.746.2" transform="translate(77.277 28.012)" fill="#1e9e39"/><path d="M104.892,37.875a.4.4,0,0,1-.262.231l-2.936.835s-.2,0-.291-.338.072-.44.072-.44l2.936-.835a.4.4,0,0,1,.481.548" transform="translate(77.181 28.408)" fill="#1b8a32"/><path d="M108.081,32.727a.315.315,0,0,1,.035.273l-1.723,5.24a.317.317,0,1,1-.6-.2l1.721-5.24a.318.318,0,0,1,.569-.074" transform="translate(80.532 24.807)" fill="#663f30"/><path d="M107.8,32.2a.368.368,0,0,1,.041.319l-.534,1.624s-.1.151-.409.048-.3-.282-.3-.282l.534-1.622a.373.373,0,0,1,.668-.086" transform="translate(81.162 24.383)" fill="#1b8a32"/><path d="M111.286,32.709l-.018.063-.011-.014L109.7,31.222l-3.6,1.8-.063.24L107.59,34.8a.411.411,0,0,0,.458.072l.005,0a.2.2,0,0,0,.1-.125h0l.063-.238H108.1l-.007.026-.007-.009-.858-.842.3-.171.858.844a.411.411,0,0,0,.458.072l.005,0a.209.209,0,0,0,.1-.12h0l.065-.245-.118-.011-.011.039-.009-.009-.856-.842.3-.166.856.842a.412.412,0,0,0,.458.074l.005,0a.2.2,0,0,0,.107-.139l.056-.206L109.7,33.6l-.012.046-.011-.014-.856-.842.289-.16.856.842a.411.411,0,0,0,.46.072l0,0a.211.211,0,0,0,.107-.136l.062-.225-.109-.033-.016.062-.011-.014-.856-.842.294-.164.858.842a.408.408,0,0,0,.458.072l.005,0a.215.215,0,0,0,.106-.13l.058-.218Z" transform="translate(80.725 23.771)" fill="#146626"/><path d="M110.8,32.9a.406.406,0,0,0,.456.072l.005,0a.206.206,0,0,0,.035-.347l-1.564-1.536-3.65,2.033-.018.009,1.562,1.536a.414.414,0,0,0,.46.072l.005,0a.205.205,0,0,0,.032-.345l-.856-.842.306-.171.856.844a.409.409,0,0,0,.456.072l.007,0a.2.2,0,0,0,.032-.345l-.856-.842.294-.166.856.842a.418.418,0,0,0,.461.074l0,0a.2.2,0,0,0,.032-.345l-.856-.844.289-.16.858.842a.41.41,0,0,0,.46.072l0,0a.205.205,0,0,0,.032-.347l-.856-.842.3-.164Z" transform="translate(80.752 23.668)" fill="#1e9e39"/><path d="M98.782,35.569l3.523,2.862a6.505,6.505,0,0,1,1.4.86c.106.125.3.211.315.44l-.4.114c-.039.123.125.363.275.638l.345-.1c.042.037.03.268.011.352-.076.477-1.746,1.032-2.218.7-.541-.4-.592-1.767-.592-1.767l-3.646-2.2a1.5,1.5,0,0,1-.386-1.43c.292-.726,1.376-.469,1.376-.469" transform="translate(74.104 27.047)" fill="#ffad9e"/><path d="M100.551,29.889c-1.018-.192-1.458.8-1.761,1.349a14.933,14.933,0,0,0-.715,2.339s-.386,1.2-.932,2.755c-.331.946-.941,2.82-.941,2.82-.028,1.416,2.45,2.628,2.45,2.628a2.479,2.479,0,0,1,.99-1.9c.194.081-.963-.937-.963-.937s1.844-3.413,1.872-4.514c0-.44.661-.66,1.046-1.321a3.042,3.042,0,0,0,.026-2.339c-.234-.386-.275-.743-1.073-.881" transform="translate(73.243 22.737)" fill="#a82d4a"/><path d="M100.444,44.2c.257-.109-1.945-3.854-1.945-3.854s1.687,3.963,1.945,3.854" transform="translate(74.992 30.714)" fill="#1c4b94"/><path d="M98.584,33.758a3.068,3.068,0,0,0,1.927,1.779c1.707.56,3.988-1.5,3.988-1.5v.689s-2.272,1.9-3.988,1.455a3.364,3.364,0,0,1-2.244-2.029Z" transform="translate(74.816 25.702)" fill="#2b2b2b"/><path d="M100.712,34.816l.167.541.766-.407-.109-.572Z" transform="translate(76.677 26.174)" fill="#7a7a7a"/><path d="M103.415,32.964s-3.2.956-3.017,1.325a25.64,25.64,0,0,0,3.017-1.325" transform="translate(76.433 25.097)" fill="#a82d4a"/><path d="M106.357,35.333s-.134-1.28.314-1.432c.358-.109.474-.026.474-.026l.2-.271a.929.929,0,0,1,.361.622,1.5,1.5,0,0,1-.942,1.494.876.876,0,0,1-.139-.005.315.315,0,0,1-.264-.38" transform="translate(80.961 25.584)" fill="#ffad9e"/><path d="M106.36,33.6s.564-.014.7.248c.213.417-.41,1.157-.479,1.2a.723.723,0,0,1-.079-.652l-.491.014Z" transform="translate(80.709 25.579)" fill="#ffad9e"/></g></g></g></svg>