<svg xmlns="http://www.w3.org/2000/svg" width="32" height="31" viewBox="0 0 32 31"><g transform="translate(-208 -3420)"><rect width="32" height="31" transform="translate(208 3420)" fill="#cc846b"/><path d="M1.248,12.707l.738-6.5H9.158V8.321H4.069l-.316,2.751a4.027,4.027,0,0,1,1.925-.483,3.689,3.689,0,0,1,2.865,1.134A4.529,4.529,0,0,1,9.58,14.9a4.64,4.64,0,0,1-.523,2.219,3.691,3.691,0,0,1-1.5,1.521,4.678,4.678,0,0,1-2.3.541,4.968,4.968,0,0,1-2.153-.47,3.819,3.819,0,0,1-1.569-1.323A3.605,3.605,0,0,1,.923,15.44H3.437a1.878,1.878,0,0,0,.558,1.244,1.769,1.769,0,0,0,1.252.444,1.562,1.562,0,0,0,1.327-.62,2.87,2.87,0,0,0,.466-1.753,2.374,2.374,0,0,0-.536-1.67,1.967,1.967,0,0,0-1.521-.58,2.2,2.2,0,0,0-1.468.475l-.246.229Z" transform="translate(219 3424)" fill="#fff"/></g></svg>