<svg xmlns="http://www.w3.org/2000/svg" xmlns:xlink="http://www.w3.org/1999/xlink" width="77" height="81" viewBox="0 0 77 81"><defs><clipPath id="a"><rect width="77" height="81" transform="translate(325 4113)" fill="#01f6ff" stroke="#707070" stroke-width="1"/></clipPath></defs><g transform="translate(-325 -4113)" clip-path="url(#a)"><g transform="translate(323 4113)"><path d="M74.317,23.011C69.826,23.1,53.2,24.394,51.4,38.836a.874.874,0,0,0,.85.9c18.324,1.692,22.286-12,23.027-15.775a.881.881,0,0,0-.96-.95Z" fill="#b5e245"/><path d="M20.255,23.011c4.49.086,21.113,1.383,22.918,15.825a.874.874,0,0,1-.85.9C24,41.428,20.036,27.735,19.3,23.961a.881.881,0,0,1,.96-.95Z" fill="#b5e245"/><path d="M47.753,1.485a.633.633,0,0,0-1.075,0C44.331,5.184,35.6,20.7,47.2,30.738h.038C58.832,20.7,50.1,5.184,47.753,1.485Z" fill="#c6e873"/><path d="M29.46,53.934,22.2,59.725,47.216,71.7,72.233,59.725l-7.262-5.791a28.571,28.571,0,0,0-35.511,0Z" fill="#ce9875"/><path d="M55.2,57.943l7.262,5.791.554.4,9.215-4.412-7.262-5.791a28.584,28.584,0,0,0-33.306-1.59A28.544,28.544,0,0,1,55.2,57.943Z" fill="#c6865c"/><path d="M72.271,57.49l-8.535,4.486A16.762,16.762,0,0,1,56.515,63.9l.11-1.82a4.691,4.691,0,0,0-3.889-4.273L43.2,56.651c-2.2-.328-3.3-1.106-5.218-2.289a37.961,37.961,0,0,0-7.238-3.123,12.787,12.787,0,0,0-9.9,1.165L7.394,59.943l10.535,16.8,5.747-5.1a3.481,3.481,0,0,1,3.375-.71l9.623,3.093a7.088,7.088,0,0,0,3.32.458l19.157-1.966A7.2,7.2,0,0,0,62.5,71.284l13.224-9.1a3.093,3.093,0,0,0,.46-3.9,2.735,2.735,0,0,0-3.91-.8Z" fill="#ffddce"/><path d="M7.443,59.916l-.049.028.1.159Z" fill="#ffcbbe"/><path d="M76.181,58.287a2.735,2.735,0,0,0-3.91-.8l-6.052,3.181s-.6,1.357-1.265,2.8c-1.238,2.679-3.861,4.493-5.174,4.628L39.92,70.135a7.346,7.346,0,0,1-3.442-.474L26.5,66.455a3.608,3.608,0,0,0-3.5.736l-7.163,6.224,2.088,3.33,5.747-5.1a3.481,3.481,0,0,1,3.375-.71l9.623,3.093a7.088,7.088,0,0,0,3.32.458l19.157-1.966A7.2,7.2,0,0,0,62.5,71.284l13.224-9.1a3.093,3.093,0,0,0,.46-3.9Z" fill="#ffcbbe"/><path d="M20.5,77.919l-2.764,1.6a2.215,2.215,0,0,1-3.025-.811L4.631,61.239a2.215,2.215,0,0,1,.811-3.025l2.764-1.6a2.215,2.215,0,0,1,3.025.811L21.315,74.894A2.215,2.215,0,0,1,20.5,77.919Z" fill="#dd636e"/><path d="M77.178,57.643a3.92,3.92,0,0,0-5.522-1.17l-.962.506-4.983-3.973A29.642,29.642,0,0,0,48.627,46.6a10.876,10.876,0,0,1,3.126-5.754,24.139,24.139,0,0,0,3.516.221A23.229,23.229,0,0,0,66,38.7a1.187,1.187,0,1,0-1.085-2.111,21.512,21.512,0,0,1-10.688,2.085A135.538,135.538,0,0,1,73.685,25.46a19.4,19.4,0,0,1-4.607,8.062,1.186,1.186,0,0,0,1.693,1.663,22.315,22.315,0,0,0,5.67-11,2.063,2.063,0,0,0-2.146-2.364c-11.632.222-22.614,5.2-24.072,16.865a1.855,1.855,0,0,0-.01.343A14.712,14.712,0,0,0,48.4,41.157V31.285c5.137-4.677,6.758-10.849,5.489-17.766A37.89,37.89,0,0,0,48.755.849h0a1.82,1.82,0,0,0-3.078,0,37.891,37.891,0,0,0-5.136,12.67c-1.266,6.9.341,13.078,5.487,17.764v9.672a14.815,14.815,0,0,0-1.669-1.924,1.855,1.855,0,0,0-.01-.343C42.893,27.038,31.9,22.046,20.277,21.824a2.062,2.062,0,0,0-2.146,2.364c1.85,9.428,8.981,16.88,21.125,16.88a24.845,24.845,0,0,0,3.563-.224,10.854,10.854,0,0,1,3.131,5.746,29.627,29.627,0,0,0-13.592,3.935c-.478-.17-.913-.314-1.277-.423a14.03,14.03,0,0,0-10.821,1.266l-8.526,4.78a3.392,3.392,0,0,0-4.121-.56l-2.764,1.6A3.405,3.405,0,0,0,3.6,61.832L13.688,79.3a3.4,3.4,0,0,0,4.646,1.245l2.764-1.6a3.4,3.4,0,0,0,1.285-4.567l2.081-1.846a2.3,2.3,0,0,1,2.224-.468l9.589,3.082a8.32,8.32,0,0,0,3.839.519L59.273,73.7a8.414,8.414,0,0,0,3.9-1.441c14.084-9.694,13.239-9.093,13.362-9.208a4.3,4.3,0,0,0,.646-5.41Zm-6.52-33.184a136.309,136.309,0,0,0-17.592,12.09c2.487-8.834,11.719-11.378,17.592-12.09ZM41.509,36.552A136.275,136.275,0,0,0,23.931,24.469C31.843,25.45,39.347,28.839,41.509,36.552ZM20.882,25.459A135.524,135.524,0,0,1,40.35,38.673C26.695,39.15,22.265,30.2,20.882,25.459ZM51.556,13.948c1.017,5.544-.045,10.215-3.155,13.925V5.016a33.153,33.153,0,0,1,3.155,8.931Zm-8.681,0a33.147,33.147,0,0,1,3.153-8.927V27.87c-3.108-3.71-4.17-8.38-3.153-13.922ZM64.231,54.861,68.4,58.185l-5.215,2.741a15.5,15.5,0,0,1-5.4,1.69l.028-.463a1.178,1.178,0,0,0,0-.183,5.863,5.863,0,0,0-4.9-5.335l-.032,0-9.523-1.156c-3.017-.455-3.427-1.777-8.1-3.8A27.427,27.427,0,0,1,64.231,54.861Zm10.735,6.4-13.141,9.04a6.034,6.034,0,0,1-2.794,1.035L39.874,73.307a6.107,6.107,0,0,1-2.836-.407l-9.623-3.093a4.687,4.687,0,0,0-4.525.952l-1.714,1.52-3.839-6.65a1.186,1.186,0,1,0-2.055,1.187l5.006,8.671a1.03,1.03,0,0,1-.376,1.4l-2.764,1.6a1.027,1.027,0,0,1-1.4-.376L5.659,60.645a1.029,1.029,0,0,1,.376-1.4l2.764-1.6a1.027,1.027,0,0,1,1.4.376L12.5,62a1.186,1.186,0,0,0,2.055-1.187L13.018,58.15l8.4-4.711a11.647,11.647,0,0,1,8.98-1.063c7.366,2.206,8.252,4.8,12.622,5.448l.032,0,9.522,1.156a3.491,3.491,0,0,1,2.859,3.124l-.041.679-12.1.791a1.187,1.187,0,0,0,.076,2.371l.079,0c12.811-1.157,15.647-.186,20.844-2.918,9.059-4.766,8.549-4.483,8.669-4.568a1.549,1.549,0,0,1,2.227.471A1.9,1.9,0,0,1,74.966,61.266Z"/></g></g></svg>