<svg xmlns="http://www.w3.org/2000/svg" xmlns:xlink="http://www.w3.org/1999/xlink" width="420" height="145" viewBox="0 0 420 145"><defs><clipPath id="a"><rect width="105" height="105" transform="translate(223 5028)" fill="#fff" stroke="#707070" stroke-width="1"/></clipPath></defs><g transform="translate(-180 -5951)"><rect width="420" height="145" transform="translate(180 5951)" fill="#ffe9e1"/><g transform="translate(0 945)"><rect width="190" height="134" transform="translate(180 5013)" fill="#ffe9e1"/><g clip-path="url(#a)"><g transform="translate(223 5028.32)"><path d="M78.856,99.753H91.5c-.42-8.739-2.668-20.651-4.44-28.947a9.342,9.342,0,1,0-17.943,5.045A221.507,221.507,0,0,0,78.856,99.753Z" fill="#f09b73"/><circle cx="2.453" cy="2.453" r="2.453" transform="translate(75.224 63.777)" fill="#f2bba5"/><circle cx="1.635" cy="1.635" r="1.635" transform="translate(81.765 68.683)" fill="#f2bba5"/><path d="M73.977,88.8c1.086,2.681,2.232,5.362,3.4,7.89,2.841-.353,11.2-1.446,13.724-1.923-.554-5.333-1.538-11.258-2.566-16.638A27.047,27.047,0,0,1,73.977,88.8Z" fill="#e58b6c"/><path d="M67.047,29.435H48.614L46.582,27.4c-4.746-4.729-12.07-3.373-15.511,2.032H0V52.33H29.435L35.977,55.6H67.047Z" fill="#ffead2"/><path d="M32.1,53.66l3.881,1.94H67.047V29.435H57.771A40.988,40.988,0,0,1,32.1,53.66Z" fill="#faddc3"/><path d="M25.748,99.753A221.624,221.624,0,0,0,35.5,75.839,9.341,9.341,0,1,0,17.551,70.8c-1.772,8.3-4.02,20.216-4.44,28.957Z" fill="#f09b73"/><path d="M45.815,99.753H58.96a215.955,215.955,0,0,0,3.163-27.385,9.8,9.8,0,1,0-19.583.065A226.477,226.477,0,0,0,45.815,99.753Z" fill="#f09b73"/><path d="M27.743,95.552c2.065-4.559,4.031-9.53,5.711-14.054a27.019,27.019,0,0,1-19.125,6.786c-.252,1.7-.478,3.389-.667,5.032Z" fill="#e58b6c"/><path d="M43.981,88.031c.279,2.306.594,4.606.949,6.824l14.9.066c.909-5.744,1.533-12.043,1.954-17.574a27.07,27.07,0,0,1-17.8,10.684Z" fill="#e58b6c"/><circle cx="2.453" cy="2.453" r="2.453" transform="translate(22.894 63.777)" fill="#f2bba5"/><circle cx="2.453" cy="2.453" r="2.453" transform="translate(49.059 63.777)" fill="#f2bba5"/><circle cx="1.635" cy="1.635" r="1.635" transform="translate(55.6 68.683)" fill="#f2bba5"/><circle cx="1.635" cy="1.635" r="1.635" transform="translate(19.624 68.683)" fill="#f2bba5"/><path d="M80.112,6.627C79.739.838,72.275-.309,69.587,3.966a4.929,4.929,0,0,0-8.772.859,4.97,4.97,0,0,0-6.851-.3,4.979,4.979,0,0,0-6.851.3,4.918,4.918,0,0,0-8.772-.859A5.732,5.732,0,0,0,27.817,6.627c-5.976-1.236-6.667,8.091-.835,8.091A4.066,4.066,0,0,0,29.5,13.85c.626,4.419,6.956,5.592,9.117,1.647,2.808,4.206,10.014,2.566,10.422-2.7a5.025,5.025,0,0,0,4.931-.961,5.02,5.02,0,0,0,4.931.961c.393,5.153,7.549,7.024,10.422,2.7,2.1,3.831,8.471,2.882,9.117-1.647a4.138,4.138,0,0,0,6.6-3.219,4.1,4.1,0,0,0-4.923-4Z" fill="#81c784"/><rect width="14.718" height="6.541" rx="3.271" transform="translate(58.871 29.435)" fill="#ffead2"/><rect width="14.718" height="6.541" rx="3.271" transform="translate(58.871 35.977)" fill="#ffead2"/><rect width="14.718" height="6.541" rx="3.271" transform="translate(58.871 42.518)" fill="#ffead2"/><rect width="11.447" height="6.541" rx="3.271" transform="translate(58.871 49.059)" fill="#ffead2"/><path d="M85.036,91.577a11.45,11.45,0,0,0-11.058,8.487,8.169,8.169,0,0,0-10.589,0,11.448,11.448,0,0,0-22.117,0,8.169,8.169,0,0,0-10.589,0,11.447,11.447,0,0,0-22.506,2.958v1.635H96.483v-1.635A11.447,11.447,0,0,0,85.036,91.577Z" fill="#a1887f"/><circle cx="2.453" cy="2.453" r="2.453" transform="translate(19.624 39.247)" fill="#fff7f0"/><circle cx="4.088" cy="4.088" r="4.088" transform="translate(9.812 31.071)" fill="#fff7f0"/><circle cx="2.453" cy="2.453" r="2.453" transform="translate(11.447 94.847)" fill="#bcaaa4"/><circle cx="1.635" cy="1.635" r="1.635" transform="translate(17.988 93.212)" fill="#bcaaa4"/><circle cx="2.453" cy="2.453" r="2.453" transform="translate(45.788 94.847)" fill="#bcaaa4"/><circle cx="1.635" cy="1.635" r="1.635" transform="translate(52.33 93.212)" fill="#bcaaa4"/><path d="M80.112,6.627A5.527,5.527,0,0,0,73.993,1.4,26.237,26.237,0,0,1,61.081,16.7,5.769,5.769,0,0,0,69.318,15.5c2.1,3.831,8.471,2.882,9.117-1.647a4.138,4.138,0,0,0,6.6-3.219,4.1,4.1,0,0,0-4.923-4Z" fill="#66bb6a"/><circle cx="3.271" cy="3.271" r="3.271" transform="translate(29.435 4.906)" fill="#c8e6c9"/><circle cx="1.635" cy="1.635" r="1.635" transform="translate(37.664 10.95)" fill="#c8e6c9"/><circle cx="2.453" cy="2.453" r="2.453" transform="translate(76.859 94.847)" fill="#bcaaa4"/><circle cx="1.635" cy="1.635" r="1.635" transform="translate(83.4 93.212)" fill="#bcaaa4"/><path d="M80.947,101.389a15.465,15.465,0,0,1-6.888-1.61c-.028.1-.057.191-.083.287a8.169,8.169,0,0,0-10.589,0,11.433,11.433,0,0,0-2.724-4.885,15.535,15.535,0,0,1-19.311,4.6c-.028.1-.057.191-.083.287a8.169,8.169,0,0,0-10.589,0,11.474,11.474,0,0,0-6.637-7.6,18.024,18.024,0,0,1-10,12.2h82.44v-1.635a11.4,11.4,0,0,0-3.113-7.842A15.511,15.511,0,0,1,80.947,101.389Z" fill="#9c7b70"/><path d="M60.864,88.83a1.635,1.635,0,0,0,1.623-1.451c.511-4.519.938-9.535,1.269-14.909a11.324,11.324,0,0,0-9.544-11.8l2.377-15.451a1.635,1.635,0,1,0-3.233-.5L52.33,51.385l-.682-4.433a1.635,1.635,0,1,0-3.233.5l2.032,13.213a11.312,11.312,0,0,0-9.539,11.882c.359,5.276.81,10.255,1.342,14.8.237,2.029,3.527,2.019,3.215-.67H52.33a1.635,1.635,0,1,0,0-3.271H45.109c-.32-3.108-.6-6.393-.847-9.812h6.433a1.635,1.635,0,1,0,0-3.271H44.288c1.229-6.55,9.535-8.755,14.048-3.956,2.851,3.033,2.168,6.142,1.842,10.5H52.33a1.635,1.635,0,1,0,0,3.271h7.586c-.206,2.4-.432,4.7-.679,6.881a1.635,1.635,0,0,0,1.627,1.819Z"/><path d="M75.728,61.968c-2.261-1.762-4.983-4.475-5.364-6.028a4.894,4.894,0,0,0,1.242-5.419,4.906,4.906,0,0,0,2.364-8,4.894,4.894,0,0,0,0-6.541A4.909,4.909,0,0,0,70.318,27.8H62.141a4.909,4.909,0,0,0-3.653,8.177,4.894,4.894,0,0,0,0,6.541,4.894,4.894,0,0,0,0,6.541,4.9,4.9,0,0,0,.441,6.975c.918,3.327,4.836,7.228,11.44,8.723a11.1,11.1,0,0,0-2.8,11.636c1.648,4.7,3.3,9.091,4.9,13.055a1.645,1.645,0,1,0,2.933-1.473l6.677-1.335a1.635,1.635,0,1,0-.641-3.207l-7.259,1.451c-.83-2.138-3.351-8.873-3.679-10.065l5.115-1.279a1.635,1.635,0,1,0-.793-3.173L70.335,71.49c1.414-8.539,13.385-8.488,15.123-.342q.483,2.259.917,4.429l-6.566,1.313a1.635,1.635,0,0,0,.641,3.207L87,78.788c.475,2.5.9,4.9,1.263,7.17a1.636,1.636,0,1,0,3.23-.52C90.7,80.513,89.69,75.3,88.657,70.466a11,11,0,0,0-12.929-8.5Zm-13.586-30.9h8.177a1.635,1.635,0,1,1,0,3.271H62.141a1.635,1.635,0,1,1,0-3.271Zm0,6.541h8.177a1.635,1.635,0,0,1,0,3.271H62.141a1.635,1.635,0,1,1,0-3.271ZM60.506,52.33a1.637,1.637,0,0,1,1.635-1.635h4.906a1.635,1.635,0,1,1,0,3.271H62.141A1.637,1.637,0,0,1,60.506,52.33Zm2.826,4.906c3.88,0,3.7.01,4.03-.011a12.845,12.845,0,0,0,2.766,4.094A13.035,13.035,0,0,1,63.332,57.236Zm-1.191-9.812a1.635,1.635,0,1,1,0-3.271h8.177a1.635,1.635,0,0,1,0,3.271Z"/><path d="M47.113,51.926a1.635,1.635,0,1,0-2.649-1.917,36.44,36.44,0,0,1-9.574,9.026,81.508,81.508,0,0,0,7.432-13.7A1.635,1.635,0,1,0,39.3,44.083,83.281,83.281,0,0,1,28.779,61.935a11,11,0,0,0-12.827,8.52c-1.155,5.414-2.111,10.46-2.84,15a1.636,1.636,0,0,0,3.23.519c.365-2.273.789-4.678,1.267-7.194,6.924,1.374,6.634,1.353,6.924,1.353a1.636,1.636,0,0,0,.319-3.239l-6.618-1.324q.435-2.168.917-4.429c1.76-8.232,13.71-8.153,15.123.339l-4.442-1.111a1.635,1.635,0,1,0-.793,3.173L34.1,74.807c-.329,1.194-2.746,7.66-3.682,10.068l-7.208-1.442a1.635,1.635,0,1,0-.641,3.207L29.2,87.965a1.644,1.644,0,1,0,2.942,1.451c1.615-3.986,3.264-8.372,4.9-13.035a11.1,11.1,0,0,0-3.871-12.537A40.252,40.252,0,0,0,47.113,51.926Z"/><path d="M1.635,53.965h27.8a1.635,1.635,0,0,0,0-3.271H1.635a1.635,1.635,0,1,0,0,3.271Z"/><path d="M21.259,31.071c9.44-.247,10.348.567,11.191-.756,2.9-4.556,9-5.72,12.975-1.754,4.253,4.681,6.624,5.478,5.984,7.893a3.949,3.949,0,0,1-2.707,2.67,2.838,2.838,0,0,1-2.891-.92L40.31,33.5a1.635,1.635,0,1,0-2.126,2.485l5.451,4.665c5.843,5.819,15.286-3.314,9.208-9.294l-5.107-5.106c-5.288-5.269-13.362-4.062-17.524,1.555H21.259a1.635,1.635,0,0,0,0,3.271Z"/><path d="M103.365,101.389H98.016a13.084,13.084,0,0,0-24.869-3.829,9.8,9.8,0,0,0-8.93,0,13.1,13.1,0,0,0-23.776,0,9.8,9.8,0,0,0-8.93,0,13.084,13.084,0,0,0-24.868,3.829H1.635a1.635,1.635,0,1,0,0,3.271H8.177a1.635,1.635,0,0,0,1.635-1.635A9.812,9.812,0,0,1,29.1,100.487a1.635,1.635,0,0,0,1.093,1.139c1.706.532,2.115-1.873,5.781-1.873s4.078,2.405,5.781,1.873a1.635,1.635,0,0,0,1.093-1.139c2.578-9.661,16.378-9.669,18.958,0a1.635,1.635,0,0,0,1.093,1.139c1.708.533,2.109-1.873,5.781-1.873s4.078,2.405,5.781,1.873a1.635,1.635,0,0,0,1.093-1.139,9.812,9.812,0,0,1,19.291,2.537,1.635,1.635,0,0,0,1.635,1.635h6.882a1.635,1.635,0,1,0,0-3.271Z"/><path d="M55.6,11.832a1.635,1.635,0,0,0-3.271,0V26.165a1.635,1.635,0,0,0,3.271,0Z"/><path d="M28.546,16.137a6.732,6.732,0,0,0,10.146,1.84,7.511,7.511,0,0,0,7.674.886l1.107,4.428a1.635,1.635,0,1,0,3.173-.793l-1.451-5.8c1.5-1.912,2.334-5.347-.034-5.531a1.638,1.638,0,0,0-1.757,1.5c-.286,3.695-5.472,4.856-7.431,1.921a1.637,1.637,0,0,0-2.794.123,3.326,3.326,0,0,1-6.063-1.091,1.635,1.635,0,0,0-1.008-1.288c-1.352-.545-1.621.749-3.124.749-2.549,0-2.889-2.836-1.845-4.182,1.173-1.513,2.5-.091,3.666-.968a1.635,1.635,0,0,0,.646-1.186,4.1,4.1,0,0,1,7.518-1.9,1.637,1.637,0,0,0,2.767-.024,3.283,3.283,0,0,1,5.849.571,1.637,1.637,0,0,0,2.736.534,3.352,3.352,0,0,1,4.544-.2,1.635,1.635,0,0,0,2.2,0,3.352,3.352,0,0,1,4.545.2,1.635,1.635,0,0,0,2.738-.538,3.293,3.293,0,0,1,5.845-.571,1.636,1.636,0,0,0,2.778.014c1.86-2.957,7.239-2.283,7.509,1.9a1.635,1.635,0,0,0,1.962,1.5,2.467,2.467,0,0,1,2.957,2.4,2.505,2.505,0,0,1-3.949,1.939,1.636,1.636,0,0,0-2.635,1.05c-.424,2.974-4.717,3.542-6.064,1.09a1.637,1.637,0,0,0-2.789-.127c-2.07,3.079-7.164,1.648-7.436-1.914a1.637,1.637,0,0,0-1.755-1.506c-2.388.182-1.536,3.645-.008,5.561l-1.5,7.484a1.635,1.635,0,1,0,3.207.641l1.189-5.944a7.761,7.761,0,0,0,4.885.411l-1.054,3.761a1.635,1.635,0,0,0,3.149.882l1.5-5.339a6.76,6.76,0,0,0,9.251-2.5,5.8,5.8,0,0,0,7.279-5.5,5.744,5.744,0,0,0-5.192-5.7C80.013-.36,73.406-1.775,69.582,1.5a6.614,6.614,0,0,0-9.249.92,6.67,6.67,0,0,0-6.367.092,6.667,6.667,0,0,0-6.355-.1,6.6,6.6,0,0,0-9.252-.917A7.4,7.4,0,0,0,26.485,4.887c-4.278.2-6.293,4.9-4.555,8.446A5.6,5.6,0,0,0,28.546,16.137Z"/><circle cx="1.635" cy="1.635" r="1.635" transform="translate(13.082 101.389)"/><circle cx="1.635" cy="1.635" r="1.635" transform="translate(19.624 96.483)"/><circle cx="1.635" cy="1.635" r="1.635" transform="translate(50.694 96.483)"/><circle cx="1.635" cy="1.635" r="1.635" transform="translate(13.082 27.8)"/><circle cx="1.635" cy="1.635" r="1.635" transform="translate(55.6 101.389)"/><circle cx="1.635" cy="1.635" r="1.635" transform="translate(45.788 101.389)"/><circle cx="1.635" cy="1.635" r="1.635" transform="translate(81.765 96.483)"/><circle cx="1.635" cy="1.635" r="1.635" transform="translate(86.671 101.389)"/><path d="M1.635,31.071H8.177a1.635,1.635,0,1,0,0-3.271H1.635a1.635,1.635,0,0,0,0,3.271Z"/></g></g></g></g></svg>