<svg xmlns="http://www.w3.org/2000/svg" xmlns:xlink="http://www.w3.org/1999/xlink" width="157.177" height="157.341" viewBox="0 0 157.177 157.341"><defs><clipPath id="a"><ellipse cx="78.589" cy="78.67" rx="78.589" ry="78.67" transform="translate(0)" fill="#ffc846"/></clipPath><clipPath id="b"><rect width="138.199" height="147.645" fill="none"/></clipPath><clipPath id="c"><rect width="138.199" height="156.246" fill="none"/></clipPath><clipPath id="d"><path d="M22.52,50.48a25.026,25.026,0,0,0,5.242,7.313c3.266,2.925,9.97,2.839,9.97,2.839L96.088,27.165s-7.907-1.2-12.118-4.474-4.641-4.9-4.641-4.9Z" transform="translate(-22.52 -17.787)" fill="none"/></clipPath><clipPath id="f"><rect width="8.754" height="102.226" fill="#942e19"/></clipPath><clipPath id="g"><path d="M60.552,60.384A25.021,25.021,0,0,0,65.795,67.7c3.266,2.926,9.969,2.839,9.969,2.839L134.12,37.069s-7.907-1.2-12.118-4.474-4.641-4.9-4.641-4.9Z" transform="translate(-60.552 -27.691)" fill="none"/></clipPath><clipPath id="i"><rect width="8.754" height="102.226" fill="none"/></clipPath></defs><g transform="translate(-5265.326 3911.5)"><path d="M78.589,0A78.67,78.67,0,1,1,0,78.67,78.629,78.629,0,0,1,78.589,0Z" transform="translate(5265.327 -3911.5)" fill="#ffe9e1"/><g transform="translate(5265.327 -3911.5)" clip-path="url(#a)"><g transform="translate(10.478 10.185)"><g transform="translate(0 0)" clip-path="url(#b)"><path d="M22.506,144.2l57.047-32.968,0-94.413L22.5,49.788Z" transform="translate(-6.368 -13.349)" fill="#bf6755"/><g transform="translate(0 -8.601)"><g clip-path="url(#c)"><path d="M22.631,50.708,79.44,18.015s.429,1.634,4.641,4.9S96.2,27.393,96.2,27.393L37.843,60.86s-6.7.086-9.969-2.839a25.02,25.02,0,0,1-5.243-7.313" transform="translate(-6.404 -5.084)" fill="#fff"/></g></g><g transform="translate(16.147 4.166)"><g clip-path="url(#d)"><path d="M99.261.281.486,57.373,0,57.092,98.775,0Z" transform="translate(-16.147 -12.767)" fill="#e4e0d0"/><path d="M101.973,1.847,3.2,58.939l-.486-.281L101.487,1.567Z" transform="translate(-16.915 -13.209)" fill="#e4e0d0"/><path d="M104.685,3.414,5.911,60.505l-.486-.281L104.2,3.133Z" transform="translate(-17.682 -13.651)" fill="#e4e0d0"/><path d="M107.4,4.98,8.623,62.071l-.486-.281L106.911,4.7Z" transform="translate(-18.45 -14.093)" fill="#e4e0d0"/><path d="M110.11,6.546,11.335,63.637l-.486-.281L109.624,6.265Z" transform="translate(-19.217 -14.535)" fill="#e4e0d0"/><path d="M112.822,8.111,14.048,65.2l-.486-.281L112.336,7.83Z" transform="translate(-19.985 -14.977)" fill="#e4e0d0"/><path d="M115.534,9.677,16.76,66.769l-.486-.281L115.048,9.4Z" transform="translate(-20.752 -15.419)" fill="#e4e0d0"/></g></g><g transform="translate(0 -8.601)"><g clip-path="url(#c)"><path d="M45.7,157.746l57.047-32.968,0-94.413L45.7,63.333Z" transform="translate(-12.931 -8.57)" fill="#bf6755"/><path d="M22.5,157.059c5.074,6.968,11.943,10.247,17.017,9.836q0-47.208,0-94.415c-5.074.412-11.943-2.865-17.018-9.831q0,47.2,0,94.41" transform="translate(-6.367 -17.682)" fill="#9f4633"/><g transform="translate(16.133 44.967)" opacity="0.35" style="mix-blend-mode:multiply;isolation:isolate"><g clip-path="url(#f)"><path d="M31.253,70.463q0,47.207,0,94.413a26.345,26.345,0,0,1-8.75-7.816q0-47.206,0-94.411a26.336,26.336,0,0,0,8.751,7.814" transform="translate(-22.5 -62.649)" fill="#942e19"/></g></g><path d="M22.5,76.182c5.074,6.967,11.943,10.244,17.017,9.832V84.755c-5.073.412-11.943-2.865-17.017-9.832Z" transform="translate(-6.368 -21.146)" fill="#f5ae00"/><path d="M22.5,82.446c5.074,6.967,11.943,10.244,17.017,9.833V91.02c-5.074.411-11.943-2.866-17.017-9.833v1.259" transform="translate(-6.368 -22.914)" fill="#f5ae00"/><path d="M22.5,120.812c5.074,6.967,11.943,10.245,17.017,9.834v-1.26c-5.074.411-11.943-2.866-17.017-9.833v1.259" transform="translate(-6.368 -33.742)" fill="#f5ae00"/><path d="M22.5,127.076c5.074,6.967,11.943,10.245,17.017,9.834v-1.259c-5.074.411-11.943-2.867-17.017-9.834v1.259" transform="translate(-6.368 -35.51)" fill="#f5ae00"/><path d="M22.5,176.4c5.074,6.968,11.943,10.246,17.017,9.836v-1.259c-5.074.411-11.943-2.868-17.017-9.836V176.4" transform="translate(-6.367 -49.432)" fill="#f5ae00"/><path d="M22.5,182.669c5.074,6.968,11.943,10.247,17.017,9.836v-1.259c-5.074.41-11.943-2.868-17.017-9.836v1.259" transform="translate(-6.367 -51.2)" fill="#f5ae00"/><path d="M60.383,153.95l57.047-32.968,0-94.413L60.379,59.537Z" transform="translate(-17.086 -7.499)" fill="#869d69"/><path d="M60.508,60.457l56.809-32.693s.43,1.634,4.641,4.9,12.118,4.474,12.118,4.474L75.72,70.609s-6.7.086-9.969-2.839a25.021,25.021,0,0,1-5.243-7.313" transform="translate(-17.123 -7.836)" fill="#fff"/></g></g><g transform="translate(43.417 11.274)"><g clip-path="url(#g)"><path d="M137.293,10.186,38.519,67.277,38.033,67,136.807,9.9Z" transform="translate(-54.179 -22.671)" fill="#e4e0d0"/><path d="M140.005,11.752,41.231,68.844l-.486-.281,98.774-57.091Z" transform="translate(-54.947 -23.113)" fill="#e4e0d0"/><path d="M142.718,13.318,43.943,70.409l-.486-.281,98.774-57.092Z" transform="translate(-55.714 -23.555)" fill="#e4e0d0"/><path d="M145.43,14.884,46.655,71.976l-.486-.281L144.944,14.6Z" transform="translate(-56.482 -23.997)" fill="#e4e0d0"/><path d="M148.142,16.45,49.368,73.542l-.486-.281,98.774-57.092Z" transform="translate(-57.25 -24.439)" fill="#e4e0d0"/><path d="M150.854,18.016,52.08,75.108l-.486-.281,98.775-57.091Z" transform="translate(-58.017 -24.881)" fill="#e4e0d0"/><path d="M153.567,19.582,54.792,76.674l-.486-.281L153.081,19.3Z" transform="translate(-58.785 -25.323)" fill="#e4e0d0"/></g></g><g transform="translate(0 -8.601)"><g clip-path="url(#c)"><path d="M83.577,167.5l57.047-32.968,0-94.413L83.573,73.082Z" transform="translate(-23.65 -11.322)" fill="#869d69"/><path d="M60.377,166.808c5.074,6.968,11.943,10.247,17.017,9.836q0-47.208,0-94.416c-5.074.412-11.943-2.865-17.018-9.831q0,47.2,0,94.41" transform="translate(-17.085 -20.433)" fill="#789357"/><g transform="translate(43.291 51.965)" opacity="0.35" style="mix-blend-mode:multiply;isolation:isolate"><g clip-path="url(#i)"><path d="M69.13,80.212q0,47.207,0,94.413a26.354,26.354,0,0,1-8.751-7.816q0-47.206,0-94.411a26.329,26.329,0,0,0,8.751,7.814" transform="translate(-60.377 -72.398)" fill="#542c37"/></g></g><path d="M60.381,85.931C65.455,92.9,72.325,96.175,77.4,95.764q0-.63,0-1.259c-5.074.411-11.943-2.866-17.018-9.833v1.259" transform="translate(-17.087 -23.897)" fill="#f5ae00"/><path d="M60.38,92.194c5.074,6.967,11.943,10.244,17.017,9.833q0-.63,0-1.259c-5.074.411-11.943-2.866-17.018-9.833v1.259" transform="translate(-17.086 -25.665)" fill="#f5ae00"/><path d="M60.379,130.561c5.074,6.967,11.943,10.245,17.017,9.834v-1.259c-5.074.411-11.943-2.867-17.017-9.834Z" transform="translate(-17.086 -36.494)" fill="#f5ae00"/><path d="M60.379,136.825c5.074,6.967,11.943,10.245,17.017,9.834V145.4c-5.074.411-11.943-2.867-17.017-9.834v1.259" transform="translate(-17.086 -38.262)" fill="#f5ae00"/><path d="M60.377,186.153c5.074,6.968,11.943,10.246,17.017,9.835v-1.259c-5.074.411-11.943-2.867-17.017-9.835v1.259" transform="translate(-17.085 -52.184)" fill="#f5ae00"/><path d="M60.377,192.417c5.074,6.968,11.943,10.246,17.017,9.836v-1.259c-5.074.41-11.943-2.868-17.017-9.836Z" transform="translate(-17.085 -53.952)" fill="#f5ae00"/></g></g></g></g></g></g></svg>