<svg xmlns="http://www.w3.org/2000/svg" width="32" height="31" viewBox="0 0 32 31"><g transform="translate(-208 -3222)"><rect width="32" height="31" transform="translate(208 3222)" fill="#cc846b"/><path d="M9.642,19H.87V17.26l4.14-4.412a10.213,10.213,0,0,0,1.261-1.626A2.612,2.612,0,0,0,6.68,9.9a1.955,1.955,0,0,0-.431-1.34,1.555,1.555,0,0,0-1.23-.488,1.677,1.677,0,0,0-1.358.593,2.35,2.35,0,0,0-.5,1.56H.615a4.2,4.2,0,0,1,.558-2.136A3.934,3.934,0,0,1,2.751,6.577a4.8,4.8,0,0,1,2.312-.549,4.54,4.54,0,0,1,3.072.949A3.358,3.358,0,0,1,9.229,9.657a4.3,4.3,0,0,1-.492,1.934,10.745,10.745,0,0,1-1.687,2.294L4.14,16.952h5.5Z" transform="translate(219 3226)" fill="#fff"/></g></svg>