<svg xmlns="http://www.w3.org/2000/svg" width="32" height="31" viewBox="0 0 32 31"><g transform="translate(-208 -3296)"><rect width="32" height="31" transform="translate(208 3296)" fill="#cc846b"/><path d="M3.454,11.477H4.808a1.907,1.907,0,0,0,1.433-.483A1.771,1.771,0,0,0,6.706,9.71a1.566,1.566,0,0,0-.461-1.2,1.788,1.788,0,0,0-1.27-.431,1.874,1.874,0,0,0-1.222.4,1.279,1.279,0,0,0-.492,1.042H.721a3.124,3.124,0,0,1,.541-1.8A3.6,3.6,0,0,1,2.773,6.476a5.045,5.045,0,0,1,2.14-.448A4.785,4.785,0,0,1,8.095,7,3.314,3.314,0,0,1,9.246,9.675a2.693,2.693,0,0,1-.536,1.617A3.483,3.483,0,0,1,7.3,12.426a3.18,3.18,0,0,1,1.613,1.16,3.147,3.147,0,0,1,.532,1.828A3.369,3.369,0,0,1,8.2,18.147a5,5,0,0,1-3.292,1.028A4.741,4.741,0,0,1,1.78,18.165,3.3,3.3,0,0,1,.563,15.493H3.1a1.472,1.472,0,0,0,.541,1.178,1.992,1.992,0,0,0,1.332.457,2,2,0,0,0,1.419-.479,1.654,1.654,0,0,0,.514-1.27q0-1.916-2.109-1.916H3.454Z" transform="translate(219 3300)" fill="#fff"/></g></svg>