<svg xmlns="http://www.w3.org/2000/svg" width="32" height="32" viewBox="0 0 32 32"><g transform="translate(-208 -3479)"><rect width="32" height="32" transform="translate(208 3479)" fill="#cc846b"/><path d="M7.761,6.071V8.163H7.515a4.315,4.315,0,0,0-2.773.9A3.642,3.642,0,0,0,3.48,11.477a3.46,3.46,0,0,1,2.575-1.037,3.26,3.26,0,0,1,2.654,1.2,4.792,4.792,0,0,1,.984,3.146,4.713,4.713,0,0,1-.541,2.259,3.877,3.877,0,0,1-1.529,1.573,4.443,4.443,0,0,1-2.237.563A4.15,4.15,0,0,1,2.123,17.77,5.459,5.459,0,0,1,.879,14.017V13.1a8.215,8.215,0,0,1,.787-3.678,5.768,5.768,0,0,1,2.259-2.47,6.619,6.619,0,0,1,3.415-.883ZM5.282,12.487a2.029,2.029,0,0,0-1.116.32,1.929,1.929,0,0,0-.738.847v.772a3.42,3.42,0,0,0,.5,1.987,1.619,1.619,0,0,0,1.406.715,1.6,1.6,0,0,0,1.323-.645,2.63,2.63,0,0,0,.505-1.671,2.625,2.625,0,0,0-.51-1.684A1.661,1.661,0,0,0,5.282,12.487Z" transform="translate(219 3483)" fill="#fff"/></g></svg>