<svg xmlns="http://www.w3.org/2000/svg" width="400" height="313.014" viewBox="0 0 400 313.014"><g transform="translate(7347.667 6012)"><rect width="400" height="279.83" rx="10" transform="translate(-7347.667 -5978.815)" fill="#f2e6dc"/><g transform="translate(-7611.802 -6346.135)"><path d="M130,0A130,130,0,1,1,0,130,130,130,0,0,1,130,0Z" transform="translate(334.135 334.135)" fill="#f9efe4"/><g transform="translate(337.898 404.625)"><path d="M375.327,902.5a15.515,15.515,0,0,0,22.437-13.336,10.542,10.542,0,0,0,10.913-17.877,14.58,14.58,0,0,0,5.014-24.228,14.583,14.583,0,1,0-27.883-8.275,10.545,10.545,0,0,0-10.481,5.781c-.062.125-.12.251-.176.377A13,13,0,0,0,362.587,863.4a10.541,10.541,0,0,0,4.918,20.406A15.518,15.518,0,0,0,375.327,902.5Zm13.77-43.617c.009.1.022.207.033.311-.126-.057-.253-.11-.38-.164C388.867,858.982,388.982,858.934,389.1,858.883Z" transform="translate(-355.461 -827.289)" fill="#e6d0be"/><path d="M631.923,872.709a.142.142,0,0,1-.091-.033,5.062,5.062,0,0,1-.66-7.487.142.142,0,0,1,.2-.018,5.061,5.061,0,0,1,.66,7.487.14.14,0,0,1-.1.05Zm-.624-7.222a4.743,4.743,0,0,0,.606,6.873,4.743,4.743,0,0,0-.606-6.873Z" transform="translate(-591.021 -859.785)" fill="#d3bba3"/><path d="M489.2,957.991a.141.141,0,0,1-.084-.028,5.318,5.318,0,0,1-1.392-7.378.142.142,0,0,1,.2-.039,5.319,5.319,0,0,1,1.392,7.378.141.141,0,0,1-.094.064Zm-1.316-7.117a5,5,0,0,0,1.276,6.762,5,5,0,0,0-1.276-6.762Z" transform="translate(-468.243 -933.091)" fill="#d3bba3"/><path d="M620.659,1037.481a6.338,6.338,0,0,1-3.525-1.267.141.141,0,0,1-.016-.207,5.318,5.318,0,0,1,7.485-.585.142.142,0,0,1,.016.207,6.18,6.18,0,0,1-3.622,1.839C620.884,1037.477,620.771,1037.481,620.659,1037.481Zm-3.221-1.4a5,5,0,1,0,3.323-1.636A5.884,5.884,0,0,0,617.439,1036.086Z" transform="translate(-580.081 -1004.899)" fill="#d3bba3"/><path d="M564.892,1170.548a4.982,4.982,0,0,1-1.867-.34,6.179,6.179,0,0,1-2.9-2.844.141.141,0,0,1,.078-.193,5.318,5.318,0,0,1,6.962,2.81.141.141,0,0,1-.078.193A6.766,6.766,0,0,1,564.892,1170.548Zm-4.437-3.163a5,5,0,1,0,3.7.015A5.88,5.88,0,0,0,560.455,1167.385Z" transform="translate(-531.169 -1118.784)" fill="#d3bba3"/><path d="M774.424,952.776a.144.144,0,0,1-.048-.008.142.142,0,0,1-.082-.078,5.319,5.319,0,0,1,2.536-7.067.141.141,0,0,1,.2.07,5.319,5.319,0,0,1-2.535,7.068A.143.143,0,0,1,774.424,952.776Zm2.4-6.823a5,5,0,0,0-2.324,6.477,5,5,0,0,0,2.324-6.477Z" transform="translate(-714.663 -928.874)" fill="#d3bba3"/><path d="M726.694,1114.556a5.671,5.671,0,0,1-3.059-.815,6.178,6.178,0,0,1-2.3-3.349.141.141,0,0,1,.113-.174,5.318,5.318,0,0,1,6.291,4.1.141.141,0,0,1-.113.174A6.024,6.024,0,0,1,726.694,1114.556Zm-5.038-4.08a5,5,0,1,0,3.632.728A5.881,5.881,0,0,0,721.656,1110.476Z" transform="translate(-669.589 -1070.149)" fill="#d3bba3"/><path d="M386.626,1130.92a.141.141,0,0,1-.141-.133,5.318,5.318,0,0,1,4.755-5.811.141.141,0,0,1,.161.131,5.318,5.318,0,0,1-4.755,5.811Zm4.5-5.635a5,5,0,0,0-4.358,5.325,5,5,0,0,0,4.358-5.325Z" transform="translate(-382.093 -1082.876)" fill="#d3bba3"/></g><g transform="translate(436.274 371.247)"><path d="M1224.9,831.775h-2.962l.583-107.923h1.8Z" transform="translate(-1197.776 -705.102)" fill="#e6d0be"/><g transform="translate(0 0)"><path d="M1076.626,686.619l-3.149.8-1.341,2.707-21.058-9.567Z" transform="translate(-1051.077 -667.933)" fill="#e6d0be"/><path d="M1231.748,723.359l2.466,2.116,2.986-.46,4.282,22.73Z" transform="translate(-1206.197 -704.679)" fill="#e6d0be"/><path d="M1227.493,610.056l.935-3.111L1226.8,604.4l19.044-13.126Z" transform="translate(-1201.947 -591.275)" fill="#e6d0be"/></g></g><g transform="translate(465.947 397.56)"><path d="M1417.155,858.423H1304.517V811.681h74.38l19.866-33.669,18.392,33.669Z" transform="translate(-1298.348 -777.916)" fill="#fff"/><path d="M1864.057,858.423l-38.994-.011L1825.032,809l9.391-20.479,11.242-10.512,11.534,11.6L1864.057,809Z" transform="translate(-1745.251 -777.916)" fill="#d3bba3"/><path d="M1340.815,812.855H1260.9l11.172-22.262,11.544-13.26,77.938.089-11.95,13.015Z" transform="translate(-1260.9 -777.333)" fill="#9e6c5a"/><path d="M1991.529,814.183a.142.142,0,0,1-.134-.094l-8.413-23.838L1971.718,778.9a.141.141,0,0,1,.2-.2l11.287,11.371a.142.142,0,0,1,.033.053l8.424,23.868a.141.141,0,0,1-.133.188Z" transform="translate(-1871.157 -778.474)" fill="#9e6c5a"/><rect width="13.134" height="11.138" transform="translate(94.041 20.53)" fill="#e6d0be"/><g transform="translate(20.355 46.71)"><rect width="28.983" height="30.992" transform="translate(2.81 2.793)" fill="#d3bba3"/><path d="M1439.019,1140.12a.141.141,0,0,1-.141-.141v-32.073h-33.76V1139.7a.141.141,0,1,1-.283,0v-31.933a.141.141,0,0,1,.141-.141h34.043a.142.142,0,0,1,.141.141v32.214A.142.142,0,0,1,1439.019,1140.12Z" transform="translate(-1404.834 -1107.623)" fill="#9e6c5a"/><path d="M1404.975,1140.877a.142.142,0,0,1-.124-.209l17.4-32.089a.141.141,0,0,1,.266.068l-.208,31.933a.142.142,0,0,1-.141.141h0a.141.141,0,0,1-.14-.142l.2-31.368L1405.1,1140.8A.141.141,0,0,1,1404.975,1140.877Z" transform="translate(-1404.833 -1108.38)" fill="#9e6c5a"/><path d="M1544.675,1140.877a.142.142,0,0,1-.126-.076l-16.64-32.089a.141.141,0,0,1,.251-.13l16.64,32.089a.141.141,0,0,1-.06.191A.14.14,0,0,1,1544.675,1140.877Z" transform="translate(-1510.49 -1108.38)" fill="#9e6c5a"/></g><g transform="translate(87.055 45.358)"><rect width="19.968" height="32.676" transform="translate(2.273 2.473)" fill="#e6d0be"/><path d="M1963.382,1134.5h0a.141.141,0,0,1-.141-.142l.1-34.357a.141.141,0,0,1,.141-.141h0a.141.141,0,0,1,.141.142l-.1,34.357A.142.142,0,0,1,1963.382,1134.5Z" transform="translate(-1950.968 -1099.609)" fill="#fff"/><path d="M1876.606,1133.03a.141.141,0,0,1-.141-.141V1098.2a.141.141,0,0,1,.141-.141h24.336a.141.141,0,0,1,.141.141v34.372a.141.141,0,0,1-.283,0v-34.23h-24.053v34.542A.141.141,0,0,1,1876.606,1133.03Z" transform="translate(-1876.465 -1098.063)" fill="#fff"/></g></g><g transform="translate(368.554 355.087)"><path d="M598,514.609H572.233V489.045h32.692v35.6Z" transform="translate(-572.233 -487.342)" fill="#fff"/><path d="M608.5,512.885a.142.142,0,0,1-.116-.061l-6.886-9.97H575.8a.141.141,0,0,1-.141-.141V477.148a.141.141,0,0,1,.141-.141H608.5a.141.141,0,0,1,.141.141v35.6a.141.141,0,0,1-.1.135A.144.144,0,0,1,608.5,512.885Zm-32.551-10.314h25.622a.142.142,0,0,1,.116.061l6.671,9.658v-35H575.945Z" transform="translate(-575.177 -477.007)" fill="#d3bba3"/><path d="M632.235,530.067h0a4.727,4.727,0,0,1,6.685,0l.037.037.028-.028a4.739,4.739,0,0,1,6.7,0h0a4.739,4.739,0,0,1,0,6.7l-6.715,6.715-6.738-6.741A4.727,4.727,0,0,1,632.235,530.067Z" transform="translate(-622.561 -521.374)" fill="#d87355"/></g><path d="M1138.56,396.126c.021-.262.035-.525.035-.792a9.644,9.644,0,0,0-13.447-8.861,6.865,6.865,0,0,0-10.008-4.185,15.041,15.041,0,0,0-27.81,1.513,12.411,12.411,0,0,0-13.99,12.325Z" transform="translate(-633.918 -33.206)" fill="#fff"/><g transform="translate(337.594 471.993)"><path d="M478.782,1303.649c-48.485,0-92.591,6.237-125.468,16.432a129.508,129.508,0,0,0,254.138,1.017C574.264,1310.3,528.859,1303.649,478.782,1303.649Z" transform="translate(-353.314 -1303.649)" fill="#9e9569"/><g transform="translate(46.316 0.503)"><path d="M733.625,1664.873c-18.71,13.257-36.109,27.776-52.811,42.025a124.755,124.755,0,0,0,40.548,21.748C715.858,1709.232,720.827,1685.716,733.625,1664.873Z" transform="translate(-680.814 -1614.291)" fill="#776e42"/><path d="M1201.837,1398.893A254.912,254.912,0,0,0,1171,1412.956c-19.492,18.643-31.47,68.973-20.461,93.368a143.815,143.815,0,0,0,27.7,0C1166.688,1478.323,1181.494,1419.452,1201.837,1398.893Z" transform="translate(-1080.504 -1385.926)" fill="#776e42"/><path d="M1403.363,1333a208.06,208.06,0,0,0-32.448,9.319c-20.343,20.559-35.149,79.43-23.594,107.434a136.334,136.334,0,0,0,30.626-6.538C1366.073,1414.666,1382.332,1352.438,1403.363,1333Z" transform="translate(-1249.582 -1329.351)" fill="#8b865c"/><path d="M1004,1498.329a356.611,356.611,0,0,0-37.683,23.553c-12.8,20.843-17.767,44.359-12.263,63.773a141.561,141.561,0,0,0,29.486,6.042C972.528,1567.3,984.506,1516.972,1004,1498.329Z" transform="translate(-913.504 -1471.299)" fill="#8b865c"/><path d="M2003.579,1308.032c-9.223,23.427-15.353,52.326-9.467,69.481,12.278-17.957,20.271-40.761,21.75-68.649Q2009.654,1308.242,2003.579,1308.032Z" transform="translate(-1806.394 -1307.915)" fill="#776e42"/><path d="M1826.289,1307.321a186.5,186.5,0,0,0-21.844.506c-15.177,25.612-24.73,73.3-15.536,97.311a112.291,112.291,0,0,0,27.913-28.335C1810.936,1359.648,1817.066,1330.748,1826.289,1307.321Z" transform="translate(-1629.104 -1307.204)" fill="#8b865c"/><path d="M1611.092,1311.609a189.613,189.613,0,0,0-21.56,3.025c-21.031,19.438-37.29,81.667-25.417,110.215a122.326,122.326,0,0,0,31.442-15.929C1586.361,1384.9,1595.915,1337.221,1611.092,1311.609Z" transform="translate(-1435.75 -1310.986)" fill="#776e42"/></g></g><g transform="translate(399.68 460.908)"><g transform="translate(134.97 0)"><path d="M1763.332,1249.164c-.851,0-2.035-3.525-2.883-6.5a91.016,91.016,0,0,1-2.527-11.736c-.733-5.422.142-5.6.43-5.654,1.142-.228,3.209,4.875,4.731,10.206,1.328-5.916,3.739-9.493,4.4-9.358.648.13.888,1.384.734,3.834-.366,5.791-3.329,19.095-4.867,19.2h-.022Zm-4.89-23.613a.16.16,0,0,0-.035,0c-.212.042-.852.552-.2,5.339a90.637,90.637,0,0,0,2.518,11.7c1.417,4.972,2.3,6.292,2.6,6.292h.007c.406-.029,1.383-2.249,2.567-7.054a76.418,76.418,0,0,0,2.038-11.886c.194-3.063-.29-3.5-.507-3.538-.417.034-2.875,3.349-4.192,9.7a.142.142,0,0,1-.134.113.139.139,0,0,1-.141-.1C1761.031,1229.144,1759.121,1225.551,1758.442,1225.551Z" transform="translate(-1756.09 -1225.27)" fill="#363e44"/><path d="M1746.735,1375.052c-.022-.232-.037-2.975-.037-3.213a7.354,7.354,0,1,1,14.709,0c0,.238-.015,2.981-.037,3.213Z" transform="translate(-1746.698 -1344.796)" fill="#d87355"/><path d="M1810.767,1400.653h-3.66a.141.141,0,1,1,0-.283h3.66a.141.141,0,1,1,0,.283Z" transform="translate(-1798.443 -1375.607)" fill="#363e44"/><path d="M1758.809,1421.436h-3.66a.141.141,0,0,1,0-.283h3.66a.141.141,0,0,1,0,.283Z" transform="translate(-1753.833 -1393.451)" fill="#363e44"/></g><g transform="translate(0 74.441)"><path d="M808.955,1775.538c-.851,0-2.035-3.525-2.883-6.5a91,91,0,0,1-2.527-11.736c-.733-5.422.142-5.6.43-5.654,1.141-.231,3.209,4.875,4.731,10.206,1.328-5.917,3.744-9.493,4.4-9.358s.888,1.383.734,3.833c-.366,5.791-3.329,19.1-4.867,19.205h-.022Zm-4.889-23.613a.179.179,0,0,0-.035,0c-.212.042-.852.552-.2,5.339a90.654,90.654,0,0,0,2.518,11.7c1.417,4.972,2.3,6.292,2.6,6.292h.007c.406-.029,1.383-2.249,2.567-7.055a76.457,76.457,0,0,0,2.038-11.886c.193-3.063-.29-3.495-.507-3.538-.417.034-2.875,3.35-4.192,9.7a.141.141,0,0,1-.134.113.144.144,0,0,1-.141-.1C806.654,1755.518,804.744,1751.925,804.066,1751.925Z" transform="translate(-801.713 -1751.644)" fill="#363e44"/><path d="M792.358,1901.427c-.022-.233-.037-2.975-.037-3.213a7.354,7.354,0,1,1,14.709,0c0,.238-.015,2.98-.037,3.213Z" transform="translate(-792.321 -1871.171)" fill="#d87355"/><path d="M857.689,1932h-3.66a.141.141,0,0,1,0-.283h3.66a.141.141,0,0,1,0,.283Z" transform="translate(-845.181 -1906.247)" fill="#363e44"/><path d="M805.732,1952.779h-3.66a.141.141,0,1,1,0-.283h3.66a.141.141,0,1,1,0,.283Z" transform="translate(-800.572 -1924.091)" fill="#363e44"/></g><g transform="translate(116.59 37.44)"><path d="M1627.8,1513.78h-.011l-3.148-.242a.141.141,0,0,1-.115-.078c-7.937-15.848-8.217-18.322-7.573-18.707.391-.234,1.319.109,5.015,4.8,0-8.34.584-9.483,1.1-9.537.589-.06,1.553,1.33,3.762,12.574.85-4.457,1.981-6.657,2.562-7.054a.335.335,0,0,1,.255-.069.307.307,0,0,1,.193.146c.612.935.431,7.322-1.9,18.06A.142.142,0,0,1,1627.8,1513.78Zm-3.057-.518,2.945.226c2.668-12.344,2.258-17.424,1.9-17.745-.305.087-1.656,2.113-2.615,7.63a.141.141,0,0,1-.138.117.136.136,0,0,1-.14-.115c-.856-4.415-1.605-7.761-2.227-9.946-.862-3.03-1.293-3.142-1.372-3.135-.063.007-.391.152-.61,2.377-.16,1.622-.238,4.074-.231,7.288a.141.141,0,0,1-.253.088c-3.84-4.907-4.706-5.166-4.9-5.05-.124.074-.4.642,1.33,4.834C1619.686,1502.887,1621.81,1507.405,1624.742,1513.261Z" transform="translate(-1616.73 -1490.01)" fill="#363e44"/><path d="M1631.579,1651.751c-.022-.232-.037-2.975-.037-3.213a7.354,7.354,0,1,1,14.709,0c0,.238-.015,2.981-.037,3.213Z" transform="translate(-1629.447 -1619.805)" fill="#d87355"/><path d="M1647.719,1675.621h-3.659a.141.141,0,1,1,0-.283h3.659a.141.141,0,0,1,0,.283Z" transform="translate(-1640.073 -1649.128)" fill="#363e44"/><path d="M1699.676,1696.4h-3.659a.141.141,0,1,1,0-.283h3.659a.141.141,0,0,1,0,.283Z" transform="translate(-1684.682 -1666.972)" fill="#363e44"/></g><g transform="translate(63.085 37.44)"><path d="M1249.461,1513.78h-.011l-3.148-.242a.141.141,0,0,1-.115-.078c-7.937-15.848-8.216-18.322-7.573-18.707.391-.234,1.319.109,5.016,4.8,0-8.34.584-9.483,1.1-9.537.589-.06,1.554,1.33,3.763,12.574.85-4.457,1.981-6.657,2.562-7.054a.334.334,0,0,1,.255-.069.306.306,0,0,1,.193.146c.612.935.431,7.322-1.9,18.06A.142.142,0,0,1,1249.461,1513.78Zm-3.057-.518,2.945.226c2.668-12.344,2.257-17.424,1.9-17.745-.305.087-1.656,2.113-2.615,7.63a.142.142,0,0,1-.138.117h0a.141.141,0,0,1-.139-.115c-.856-4.415-1.605-7.761-2.227-9.946-.862-3.03-1.292-3.145-1.372-3.135-.063.007-.391.152-.611,2.377-.16,1.622-.238,4.074-.231,7.288a.141.141,0,0,1-.253.088c-3.84-4.907-4.706-5.166-4.9-5.05-.124.074-.4.642,1.33,4.834C1241.348,1502.887,1243.472,1507.405,1246.4,1513.261Z" transform="translate(-1238.392 -1490.01)" fill="#2d353a"/><path d="M1253.24,1651.751c-.022-.232-.037-2.975-.037-3.213a7.354,7.354,0,1,1,14.709,0c0,.238-.015,2.981-.037,3.213Z" transform="translate(-1251.108 -1619.805)" fill="#d87355"/><path d="M1269.38,1675.621h-3.66a.141.141,0,0,1,0-.283h3.66a.141.141,0,0,1,0,.283Z" transform="translate(-1261.734 -1649.128)" fill="#363e44"/><path d="M1321.337,1696.4h-3.66a.141.141,0,1,1,0-.283h3.66a.141.141,0,0,1,0,.283Z" transform="translate(-1306.343 -1666.972)" fill="#363e44"/></g><g transform="translate(110.658 80.24)"><path d="M1587.39,1819.714h-.011l-3.589-.276a.141.141,0,0,1-.116-.078c-3.367-6.724-5.807-11.911-7.251-15.418-1.969-4.78-1.778-5.657-1.392-5.888.441-.264,1.494.135,5.729,5.51,0-9.548.656-10.853,1.232-10.913.664-.071,1.76,1.527,4.289,14.424.967-5.111,2.294-7.7,2.932-8.133a.364.364,0,0,1,.276-.076.33.33,0,0,1,.207.158c.7,1.064.488,8.341-2.168,20.581A.141.141,0,0,1,1587.39,1819.714Zm-3.5-.552,3.387.26a109.134,109.134,0,0,0,2.369-15.1c.257-3.678-.037-5.078-.22-5.181-.3.018-1.891,2.337-3,8.723a.141.141,0,0,1-.138.117h0a.141.141,0,0,1-.139-.115c-.977-5.035-1.831-8.852-2.54-11.344-.963-3.385-1.463-3.6-1.586-3.59-.3.032-1,1.171-.978,11.042a.141.141,0,0,1-.253.087c-4.389-5.608-5.389-5.9-5.615-5.764-.186.111-.412.874,1.508,5.538C1578.12,1807.322,1580.545,1812.479,1583.891,1819.161Z" transform="translate(-1574.781 -1792.647)" fill="#363e44"/><path d="M1591.617,1976.956c-.025-.265-.042-3.393-.042-3.664a8.387,8.387,0,0,1,16.773,0c0,.272-.017,3.4-.042,3.664Z" transform="translate(-1589.2 -1940.544)" fill="#d87355"/><path d="M1610.143,2004.277h-4.173a.141.141,0,0,1,0-.283h4.173a.141.141,0,1,1,0,.283Z" transform="translate(-1601.437 -1974.105)" fill="#363e44"/><path d="M1669.394,2027.977h-4.173a.141.141,0,1,1,0-.283h4.173a.141.141,0,1,1,0,.283Z" transform="translate(-1652.309 -1994.453)" fill="#363e44"/></g><g transform="translate(55.436 76.964)"><path d="M1196.921,1796.552h-.011l-3.589-.276a.142.142,0,0,1-.116-.078c-3.367-6.724-5.807-11.911-7.251-15.419-1.968-4.78-1.778-5.657-1.392-5.888.441-.264,1.495.135,5.729,5.51,0-9.547.656-10.853,1.232-10.913.666-.069,1.76,1.527,4.289,14.424.967-5.111,2.294-7.7,2.932-8.133a.366.366,0,0,1,.276-.076.332.332,0,0,1,.207.158c.7,1.064.488,8.341-2.168,20.581A.141.141,0,0,1,1196.921,1796.552Zm-3.5-.552,3.387.26a109.232,109.232,0,0,0,2.369-15.1c.257-3.677-.037-5.078-.22-5.181-.3.019-1.891,2.337-3,8.723a.142.142,0,0,1-.138.117h0a.142.142,0,0,1-.139-.114c-.976-5.035-1.831-8.852-2.54-11.344-.963-3.385-1.46-3.6-1.586-3.59-.3.032-1,1.171-.978,11.041a.141.141,0,0,1-.253.088c-4.388-5.608-5.387-5.9-5.614-5.764-.186.111-.412.874,1.508,5.538C1187.652,1784.16,1190.076,1789.317,1193.422,1796Z" transform="translate(-1184.313 -1769.485)" fill="#363e44"/><path d="M1201.148,1953.793c-.026-.265-.042-3.393-.042-3.664a8.387,8.387,0,1,1,16.773,0c0,.272-.017,3.4-.042,3.664Z" transform="translate(-1198.731 -1917.381)" fill="#d87355"/><path d="M1219.674,1981.113H1215.5a.141.141,0,1,1,0-.283h4.173a.141.141,0,1,1,0,.283Z" transform="translate(-1210.968 -1950.941)" fill="#363e44"/><path d="M1278.925,2004.814h-4.173a.141.141,0,0,1,0-.283h4.173a.141.141,0,1,1,0,.283Z" transform="translate(-1261.84 -1971.29)" fill="#363e44"/></g></g><g transform="translate(335.504 383.121)"><g transform="translate(78.245 30.579)"><g transform="translate(17 22.18)"><path d="M1022.107,1048.29c5.56,3.976,19.116,12.69,20.4,13.594,2.41,1.689,15.111,11.087,13.953,13.067-.553.946-3.082-.754-3.92-1.354.438.818,2.461,3.777,1.587,4.64-1.027,1.014-3.977-2.143-4.054-2.163.529.786,2.764,3.829,2.134,4.5-.819.875-3.747-1.333-4.594-2.034-.007.189,2.126,3.339,1.6,3.854-.581.571-3.36-1.423-4.535-2.11-2.143-1.5-10.782-6.876-15.1-9.288a91.824,91.824,0,0,1-17.328-11.9C1010.524,1057.692,1018.436,1048.53,1022.107,1048.29Z" transform="translate(-1012.011 -1048.29)" fill="#e2a18d"/><path d="M1152.625,1149.906a8.376,8.376,0,0,1-4.017-1.89c-2.3-1.611-16.368-10.066-16.51-10.151a.141.141,0,0,1-.026-.222l12.312-12.123a.142.142,0,0,1,.187-.01c.044.034,4.387,3.459,8.521,7.1a76.143,76.143,0,0,1,5.6,5.348c1.694,1.855,2.329,2.984,2,3.553a1.216,1.216,0,0,1-.843.564,4.316,4.316,0,0,1-2.553-.5l.14.217c.77,1.194,1.933,3,1.086,3.834-.761.752-2.134-.052-3.127-.81.791,1.014,1.552,2.228.984,3.01a.931.931,0,0,1-.667.378c-1,.126-2.54-.872-3.412-1.513.647.948,1.6,2.4.966,3.007A.889.889,0,0,1,1152.625,1149.906Zm-20.225-12.19c1.557.937,14.191,8.544,16.38,10.075,1.357,1.138,3.761,2.2,4.282,1.707.487-.466-.582-2.026-1.1-2.776-.307-.447-.366-.542-.363-.634a.141.141,0,0,1,.232-.1c.879.729,2.808,2.074,3.833,1.944a.65.65,0,0,0,.474-.263c.581-.8-.755-2.414-1.553-3.378-.128-.155-.245-.3-.34-.417a.141.141,0,0,1,.147-.224c.044.011.062.027.233.179,2.322,2.044,3.286,2,3.686,1.606.683-.675-.448-2.43-1.124-3.479-.184-.286-.344-.532-.442-.716a.142.142,0,0,1,.207-.182,4.317,4.317,0,0,0,2.827.749.946.946,0,0,0,.658-.43c.274-.468-.341-2.2-7.536-8.546-3.783-3.337-7.745-6.489-8.412-7.018Z" transform="translate(-1115.056 -1114.563)" fill="#fff"/><path d="M1275.954,1204.336a.141.141,0,0,1-.116-.06,13.3,13.3,0,0,0-3.663-3.536.141.141,0,0,1,.154-.237,13.574,13.574,0,0,1,3.741,3.611.141.141,0,0,1-.116.222Z" transform="translate(-1235.327 -1178.956)" fill="#fff"/><path d="M1263.959,1229.1a.141.141,0,0,1-.106-.048q-.126-.144-.261-.29a13.367,13.367,0,0,0-2.513-2.111.142.142,0,0,1,.154-.237,13.664,13.664,0,0,1,2.566,2.156q.138.149.267.3a.141.141,0,0,1-.106.234Z" transform="translate(-1225.799 -1201.202)" fill="#fff"/><path d="M1252.193,1252.95a.141.141,0,0,1-.1-.037,13.442,13.442,0,0,0-1.706-1.314.141.141,0,1,1,.154-.237,13.768,13.768,0,0,1,1.742,1.341.142.142,0,0,1-.095.246Z" transform="translate(-1216.625 -1222.624)" fill="#fff"/><path d="M1204.451,1178.174c-1.171,0-3.286-.98-5.22-2.18a13.031,13.031,0,0,1-1.863.46c-.326.056-.658.1-.987.129a.142.142,0,0,1-.026-.282c.322-.03.646-.072.965-.126a12.743,12.743,0,0,0,1.884-.471.141.141,0,0,1,.12.014c3.147,1.962,5.268,2.5,5.666,2,.365-.452-.487-2.281-2.783-4.782a.141.141,0,1,1,.208-.191c1.707,1.859,3.463,4.323,2.8,5.151A.931.931,0,0,1,1204.451,1178.174Z" transform="translate(-1170.174 -1155.109)" fill="#fff"/></g><path d="M891.8,891.453c.284,23.348,23.1,41.661,30.14,36.213,5.821-4.507-10.481-26.221-15.1-32.458C899.914,891.6,896.875,893.654,891.8,891.453Z" transform="translate(-891.801 -891.453)" fill="#e2a18d"/><g transform="translate(43.482 45.809)"><path d="M1226.912,1215.631c.209.4-.378,1.118-1.31,1.606s-1.858.558-2.067.159.378-1.119,1.31-1.606S1226.7,1215.231,1226.912,1215.631Z" transform="translate(-1220.066 -1215.372)" fill="#363e44"/><ellipse cx="0.816" cy="1.905" rx="0.816" ry="1.905" transform="translate(2.68 4.62) rotate(-74.159)" fill="#363e44"/><path d="M1253.755,1216.876c.39.225.281,1.147-.246,2.058s-1.269,1.467-1.659,1.242-.281-1.147.245-2.058S1253.364,1216.65,1253.755,1216.876Z" transform="translate(-1244.212 -1216.62)" fill="#363e44"/><path d="M1243.3,1270.127c.39.225.28,1.147-.246,2.058s-1.269,1.467-1.659,1.241-.281-1.147.245-2.058S1242.914,1269.9,1243.3,1270.127Z" transform="translate(-1235.24 -1262.34)" fill="#363e44"/><path d="M1202.748,1313.135c.191.409-.428,1.1-1.381,1.545s-1.881.474-2.071.066.427-1.1,1.381-1.545S1202.557,1312.727,1202.748,1313.135Z" transform="translate(-1199.261 -1299.062)" fill="#363e44"/><path d="M1251,1331.66c.39.225.281,1.147-.246,2.058s-1.269,1.467-1.66,1.241-.28-1.147.246-2.058S1250.608,1331.434,1251,1331.66Z" transform="translate(-1241.845 -1315.171)" fill="#363e44"/><path d="M1206.005,1370.475c.39-.225,1.133.331,1.659,1.242s.636,1.833.245,2.058-1.133-.331-1.659-1.242S1205.615,1370.7,1206.005,1370.475Z" transform="translate(-1204.851 -1348.497)" fill="#363e44"/></g></g><g transform="translate(0 51.198)"><path d="M366.834,1315.411l-27.724-4.061-.577,29.793,24.133.788a20.958,20.958,0,0,0-10.608-12.313Z" transform="translate(-338.533 -1272.587)" fill="#9e6c5a"/><path d="M669.343,1043.946s41.883-13.178,53.364-2.552c10.565,9.778-2.082,47.825-2.082,47.825l-18.857-1.547-1.58-19.618s-22.339,7.4-27.8,3.036C667.061,1066.823,669.343,1043.946,669.343,1043.946Z" transform="translate(-622.142 -1037.253)" fill="#efbc73"/><path d="M488.188,1119.1s5.576,43.552-6.91,52.976c-11.49,8.673-46.706-10.493-46.706-10.493l5.63-22.137,18.81,5.758s-3.344-23.3,1.919-27.9C466.074,1112.817,488.188,1119.1,488.188,1119.1Z" transform="translate(-420.99 -1104.599)" fill="#efbc73"/><path d="M820.226,1232.489a.142.142,0,0,1-.141-.14c-.027-2.152-.1-4.394-.213-6.663a.141.141,0,0,1,.283-.014c.114,2.272.186,4.517.213,6.673a.142.142,0,0,1-.14.143Z" transform="translate(-751.8 -1198.91)" fill="#363e44"/><path d="M626.121,1331.864a.141.141,0,0,1-.122-.07c-4.837-8.237-17.16-11.2-17.284-11.231a.141.141,0,1,1,.064-.275,38.173,38.173,0,0,1,6.869,2.513c3.419,1.629,8.033,4.486,10.6,8.85a.141.141,0,0,1-.122.213Z" transform="translate(-570.411 -1280.257)" fill="#363e44"/><path d="M939.151,1412.21h-39.5l3.7-16.366,15.417,1.265,11.191,3.414a12.142,12.142,0,0,1,9.2,11.688Z" transform="translate(-820.293 -1345.131)" fill="#9e6c5a"/></g><g transform="translate(33.8 22.478)"><path d="M595.242,842.675c5.932-6.011,17.015-11.4,29.218-6.739,12.576,4.8,21.839,15.441,21.839,15.441l-13.8,12.032-6.552,18.037-48.411,2.477S585.644,852.4,595.242,842.675Z" transform="translate(-577.533 -834.174)" fill="#d87355"/><path d="M710.916,959.944c-.533,23.343,21.631,42.444,28.855,37.246,5.975-4.3-9.557-26.572-13.958-32.967C719.018,960.377,715.91,962.322,710.916,959.944Z" transform="translate(-692.044 -942.157)" fill="#e2a18d"/><rect width="22.343" height="15.219" transform="translate(13.749 18.739) rotate(-18.395)" fill="#d87355"/><path d="M689.854,962.434a.142.142,0,0,1-.134-.1l-2.965-8.914a.141.141,0,0,1,.268-.089l2.92,8.78,20.933-6.961-3.4-10.216a.141.141,0,0,1,.268-.089l3.442,10.35a.141.141,0,0,1-.09.179l-21.2,7.051A.14.14,0,0,1,689.854,962.434Z" transform="translate(-671.302 -929.112)" fill="#363e44"/><path d="M965.241,960.69l-.024,0a.142.142,0,0,1-.116-.163c.363-2.13.628-4.3.787-6.461.161-2.178.217-4.39.168-6.574a.142.142,0,0,1,.138-.145.136.136,0,0,1,.145.138c.049,2.193-.008,4.414-.169,6.6-.16,2.167-.426,4.349-.79,6.488A.141.141,0,0,1,965.241,960.69Z" transform="translate(-910.289 -931.34)" fill="#363e44"/></g><g transform="translate(68.527 63.38)"><path d="M833.538,1123.39c5.417,4.168,18.66,13.351,19.917,14.3,2.35,1.772,14.713,11.609,13.487,13.547-.586.926-3.053-.862-3.87-1.49.409.833,2.327,3.861,1.424,4.693-1.062.978-3.9-2.28-3.976-2.3.5.8,2.628,3.923,1.975,4.574-.85.846-3.7-1.463-4.52-2.194-.014.189,2.008,3.411,1.466,3.908-.6.55-3.308-1.54-4.458-2.268-2.089-1.573-10.535-7.249-14.769-9.811a91.819,91.819,0,0,1-16.9-12.494C821.632,1132.38,829.861,1123.5,833.538,1123.39Z" transform="translate(-823.09 -1123.39)" fill="#e2a18d"/><path d="M960.043,1230.013c-1.1,0-3.047-1.167-4.006-2.03-2.246-1.691-16.006-10.633-16.145-10.723a.142.142,0,0,1-.019-.223l12.729-11.684a.141.141,0,0,1,.187,0c.042.036,4.264,3.61,8.267,7.4a76.158,76.158,0,0,1,5.407,5.541c1.629,1.913,2.223,3.064,1.87,3.621a1.216,1.216,0,0,1-.862.534,4.317,4.317,0,0,1-2.534-.586l.132.222c.727,1.219,1.826,3.063.951,3.869-.786.724-2.131-.127-3.1-.92.755,1.041,1.473,2.281.878,3.043a.932.932,0,0,1-.68.354c-1,.091-2.508-.96-3.357-1.632.613.97,1.511,2.459.861,3.039A.852.852,0,0,1,960.043,1230.013ZM940.2,1217.122c1.523.991,13.883,9.036,16.017,10.643,1.317,1.185,3.682,2.335,4.22,1.856.5-.448-.511-2.045-1-2.813-.29-.458-.347-.555-.34-.646a.141.141,0,0,1,.235-.1c.852.759,2.736,2.168,3.762,2.077a.653.653,0,0,0,.483-.246c.609-.78-.67-2.439-1.434-3.431-.122-.159-.234-.3-.326-.429a.141.141,0,0,1,.155-.219c.043.013.061.03.227.187,2.249,2.124,3.213,2.115,3.627,1.734.706-.651-.363-2.445-1-3.517-.174-.292-.325-.544-.417-.731a.141.141,0,0,1,.213-.175,4.32,4.32,0,0,0,2.8.847.947.947,0,0,0,.673-.407c.29-.458-.264-2.212-7.233-8.805-3.664-3.467-7.512-6.755-8.161-7.307Z" transform="translate(-923.319 -1193.729)" fill="#fff"/><path d="M1083.914,1286.108a.141.141,0,0,1-.119-.064,13.3,13.3,0,0,0-3.537-3.662.141.141,0,1,1,.163-.232,13.58,13.58,0,0,1,3.612,3.74.141.141,0,0,1-.042.2A.139.139,0,0,1,1083.914,1286.108Z" transform="translate(-1043.838 -1259.676)" fill="#fff"/><path d="M1071.061,1310.436a.141.141,0,0,1-.11-.052q-.121-.148-.251-.3a13.387,13.387,0,0,0-2.437-2.2.141.141,0,1,1,.162-.232,13.654,13.654,0,0,1,2.489,2.245c.089.1.174.2.257.305a.142.142,0,0,1-.109.231Z" transform="translate(-1033.537 -1281.574)" fill="#fff"/><path d="M1058.468,1333.861a.141.141,0,0,1-.1-.04,13.46,13.46,0,0,0-1.659-1.373.141.141,0,0,1,.162-.232,13.758,13.758,0,0,1,1.693,1.4.141.141,0,0,1-.1.243Z" transform="translate(-1023.62 -1302.662)" fill="#fff"/></g><g transform="translate(66.928 0)"><g transform="translate(10.289 5.357)"><path d="M887.283,785.214h0a3.785,3.785,0,0,0,4.673-2.585l2.334-8.043a3.785,3.785,0,0,0-2.58-4.689h0a3.785,3.785,0,0,0-4.69,2.579l-2.336,8.043A3.785,3.785,0,0,0,887.283,785.214Z" transform="translate(-884.536 -761.737)" fill="#bc8271"/><path d="M911.354,736.747c.289.1,3.045,1.129,3.794,3.693.557,1.908-.113,3.708-1.692,6.558-1.86,3.356-3.441,5.1-4.759,5.319-2.083.342-5.675-4.29-6.033-8.149a7.708,7.708,0,0,1,3.574-7.057A5.785,5.785,0,0,1,911.354,736.747Z" transform="translate(-900.074 -733.027)" fill="#bc8271"/><path d="M910.094,812.415a.14.14,0,0,1-.045-.008c-2.585-.878-4.107-4.28-4.784-6.23a.141.141,0,1,1,.267-.093c.66,1.9,2.137,5.216,4.608,6.055a.141.141,0,0,1-.045.275Z" transform="translate(-902.326 -792.855)" fill="#363e44"/><g transform="translate(8.163 9.525)"><path d="M942.262,780.466a4.708,4.708,0,0,0,.4,2.029,3.312,3.312,0,0,0,.367.614.992.992,0,1,0,1.576-1.2,3.461,3.461,0,0,0-.724-.7q-.077-.056-.155-.107t-.167-.1A4.762,4.762,0,0,0,942.262,780.466Z" transform="translate(-942.259 -780.466)" fill="#fff"/><path d="M947.829,789.071a4.429,4.429,0,0,0-.767-2.643,3.462,3.462,0,0,0-.726-.7,1.851,1.851,0,0,0-1.162,1.12c-.02.055-.037.111-.052.167a3.312,3.312,0,0,0,.364.612A4.429,4.429,0,0,0,947.829,789.071Z" transform="translate(-944.717 -784.983)" fill="#363e44"/></g><path d="M966.874,813.756a.142.142,0,0,1-.061-.269c.152-.072.337-.187.356-.322.008-.058-.016-.106-.068-.2a1.46,1.46,0,0,1-.131-.3,1.329,1.329,0,0,1,.01-.74.141.141,0,0,1,.272.077,1.05,1.05,0,0,0-.011.584,1.177,1.177,0,0,0,.108.246.582.582,0,0,1,.1.376c-.03.211-.2.387-.514.538A.14.14,0,0,1,966.874,813.756Z" transform="translate(-955.108 -797.859)" fill="#363e44"/><path d="M942.953,821.95a.142.142,0,0,1-.13-.086,1.456,1.456,0,0,1-.084-.942,1.43,1.43,0,0,1,.566-.825.364.364,0,0,1,.287-.049c.176.05.208.229.239.4a1.134,1.134,0,0,0,.248.6,1.57,1.57,0,0,0,.571.406.141.141,0,1,1-.109.261,1.854,1.854,0,0,1-.674-.48,1.391,1.391,0,0,1-.315-.738.686.686,0,0,0-.047-.185s-.021.006-.063.031a1.16,1.16,0,0,0-.358,1.407.142.142,0,0,1-.13.2Z" transform="translate(-934.47 -804.915)" fill="#363e44"/><g transform="translate(2.005 6.435)"><path d="M902.765,761.639a2.055,2.055,0,1,1-2.367-2A2.2,2.2,0,0,1,902.765,761.639Z" transform="translate(-898.711 -759.473)" fill="#bc8271"/><path d="M904.042,787.814a2.121,2.121,0,0,1-1.558-.719.141.141,0,1,1,.208-.192,1.8,1.8,0,0,0,1.6.609.141.141,0,1,1,.043.279A1.931,1.931,0,0,1,904.042,787.814Z" transform="translate(-901.919 -782.863)" fill="#363e44"/><path d="M913.258,760.921a.142.142,0,0,1-.14-.12,2.11,2.11,0,0,0-2.038-1.9.143.143,0,0,1-.148-.134.141.141,0,0,1,.134-.148,2.369,2.369,0,0,1,2.331,2.142.141.141,0,0,1-.118.161Z" transform="translate(-909.204 -758.614)" fill="#363e44"/><path d="M905.4,767.913a.141.141,0,0,1-.14-.12,1.277,1.277,0,0,1,.173-.878,1,1,0,0,1,.694-.47,1.033,1.033,0,0,1,.955.394.141.141,0,0,1-.219.179.755.755,0,0,0-.693-.294.72.72,0,0,0-.5.341,1,1,0,0,0-.133.684.141.141,0,0,1-.118.161Z" transform="translate(-904.319 -765.329)" fill="#363e44"/></g><g transform="translate(2.038)"><path d="M904.879,719.5a11.166,11.166,0,0,1,7.152,3.591,3.38,3.38,0,0,0,2.072-1.472c.963-1.659.2-4.661-2.438-6.707a3.621,3.621,0,0,1,.364,1.823,4.411,4.411,0,0,0-1.385-2.308c-1.66-1.592-4.524-1.778-7.288-.332a3.138,3.138,0,0,1,1.684.15,6.475,6.475,0,0,0-1.633.2,7.686,7.686,0,0,0-4.459,3.473A7.258,7.258,0,0,1,904.879,719.5Z" transform="translate(-898.947 -713.112)" fill="#84524d"/><path d="M960.984,745.828h0a.141.141,0,0,1-.127-.086,10.991,10.991,0,0,0-2.218-3.332.141.141,0,1,1,.2-.2,11.263,11.263,0,0,1,2.14,3.117,3.119,3.119,0,0,0-.477-2.983.141.141,0,1,1,.223-.174,3.4,3.4,0,0,1,.386,3.575A.142.142,0,0,1,960.984,745.828Z" transform="translate(-950.161 -738.016)" fill="#363e44"/></g></g><g transform="translate(0)"><path d="M882.149,777.38a.142.142,0,0,1-.113-.056,54.845,54.845,0,0,1-6.716-11.613,55.774,55.774,0,0,1-4.4-22.526.141.141,0,0,1,.141-.14h0a.142.142,0,0,1,.14.143,55.5,55.5,0,0,0,4.383,22.412,54.558,54.558,0,0,0,6.608,11.456,27.287,27.287,0,0,0,11.044-11.241,29.014,29.014,0,0,0,2.791-18.049.141.141,0,1,1,.279-.047,29.3,29.3,0,0,1-2.819,18.227,27.566,27.566,0,0,1-11.267,11.416A.141.141,0,0,1,882.149,777.38Z" transform="translate(-862.55 -733.455)" fill="#776e42"/><ellipse cx="4.312" cy="19.569" rx="4.312" ry="19.569" transform="translate(0 8.03) rotate(-68.614)" fill="#8b865c"/><path d="M922.58,694.286c-.229-7.2-1.116-9.123-2-9.273-.846-.143-1.7,1.33-2.656,1-1.031-.359-.713-2.3-1.518-2.759s-2.764.539-7.647,6.22a20.555,20.555,0,0,0,13.823,4.815Z" transform="translate(-895.043 -682.035)" fill="#776e42"/><path d="M942.5,996.39a.142.142,0,0,1-.137-.109,21.627,21.627,0,0,1,.5-11.975.141.141,0,0,1,.241-.048,29.1,29.1,0,0,1,4.778,7.581.141.141,0,1,1-.26.112,28.827,28.827,0,0,0-4.568-7.318,21.337,21.337,0,0,0-.418,11.582.142.142,0,0,1-.1.171A.137.137,0,0,1,942.5,996.39Z" transform="translate(-923.366 -940.513)" fill="#776e42"/><path d="M980.307,1035.7a.5.5,0,1,0,.376-.595A.5.5,0,0,0,980.307,1035.7Z" transform="translate(-956.463 -984.199)" fill="#8b865c"/><path d="M944.071,1065.976a.5.5,0,1,0,.376-.594A.5.5,0,0,0,944.071,1065.976Z" transform="translate(-925.352 -1010.195)" fill="#8b865c"/><path d="M946.564,980.756a.636.636,0,1,0,.481-.759A.636.636,0,0,0,946.564,980.756Z" transform="translate(-927.49 -936.882)" fill="#8b865c"/></g></g></g><circle cx="16.382" cy="16.382" r="16.382" transform="translate(527.503 369.798) rotate(-45)" fill="#e6d0be"/></g></g></svg>