<svg xmlns="http://www.w3.org/2000/svg" xmlns:xlink="http://www.w3.org/1999/xlink" width="400" height="312.637" viewBox="0 0 400 312.637"><defs><linearGradient id="a" x1="0.588" y1="-0.637" x2="0.545" y2="-0.078" gradientUnits="objectBoundingBox"><stop offset="0" stop-color="#e4d6ca"/><stop offset="1" stop-color="#d4bdac"/></linearGradient><linearGradient id="b" x1="0.523" y1="-1.484" x2="0.514" y2="-0.699" gradientUnits="objectBoundingBox"><stop offset="0" stop-color="#d3c5cb"/><stop offset="1" stop-color="#ada0a6"/></linearGradient><linearGradient id="c" x1="0.51" y1="-0.355" x2="0.501" y2="0.433" xlink:href="#b"/><linearGradient id="d" x1="0.579" y1="-0.525" x2="0.536" y2="0.034" xlink:href="#a"/><linearGradient id="e" x1="0.524" y1="-1.562" x2="0.515" y2="-0.776" xlink:href="#b"/><linearGradient id="f" x1="0.511" y1="-0.434" x2="0.502" y2="0.354" xlink:href="#b"/><linearGradient id="g" x1="2.965" y1="2.133" x2="-0.186" y2="-0.298" gradientUnits="objectBoundingBox"><stop offset="0" stop-color="#96888e"/><stop offset="1" stop-color="#706369"/></linearGradient><linearGradient id="h" x1="0.732" y1="-1.584" x2="0.388" y2="1.745" xlink:href="#g"/><linearGradient id="i" x1="0.699" y1="-1.571" x2="0.388" y2="1.746" xlink:href="#g"/><linearGradient id="j" x1="0" y1="0.5" x2="1" y2="0.5" xlink:href="#a"/><linearGradient id="m" x1="0.74" y1="-1.586" x2="0.359" y2="1.746" xlink:href="#g"/><linearGradient id="n" x1="0.957" y1="2.511" x2="0.44" y2="0.143" xlink:href="#g"/><linearGradient id="o" x1="2.314" y1="2.374" x2="-0.232" y2="-0.435" xlink:href="#g"/><linearGradient id="p" y1="0.5" x2="1" y2="0.5" gradientUnits="objectBoundingBox"><stop offset="0" stop-color="#5d535a"/><stop offset="1" stop-color="#464143"/></linearGradient><linearGradient id="q" x1="0" y1="0.5" x2="1" y2="0.5" xlink:href="#g"/><linearGradient id="s" x1="1.779" y1="1.763" x2="-0.421" y2="-0.705" xlink:href="#g"/><linearGradient id="t" x1="1.499" y1="-2.536" x2="0.313" y2="0.963" xlink:href="#g"/><linearGradient id="u" x1="1.132" y1="-1.561" x2="-0.034" y2="1.833" xlink:href="#g"/><linearGradient id="v" x1="1.663" y1="3.711" x2="0.188" y2="-0.314" xlink:href="#g"/><linearGradient id="w" x1="0.302" y1="4.569" x2="0.722" y2="-3.952" xlink:href="#b"/><linearGradient id="x" x1="0.311" y1="4.4" x2="0.73" y2="-4.121" xlink:href="#b"/><linearGradient id="y" x1="0.505" y1="0.201" x2="0.473" y2="1.09" xlink:href="#p"/><linearGradient id="z" x1="0.501" y1="0.208" x2="0.494" y2="1.089" xlink:href="#g"/><linearGradient id="aa" x1="0.504" y1="0.199" x2="0.493" y2="1.093" xlink:href="#g"/><linearGradient id="ab" x1="0.503" y1="0.203" x2="0.491" y2="1.085" xlink:href="#g"/><linearGradient id="ac" y1="0.5" x2="1" y2="0.5" gradientUnits="objectBoundingBox"><stop offset="0" stop-color="#799b91"/><stop offset="1" stop-color="#3e6764"/></linearGradient><linearGradient id="ad" x1="-5.804" y1="-0.306" x2="-5.704" y2="1.327" gradientUnits="objectBoundingBox"><stop offset="0" stop-color="#46736e"/><stop offset="0.996" stop-color="#2f4f4f"/></linearGradient><linearGradient id="ae" x1="0.045" y1="0.006" x2="0.703" y2="0.749" xlink:href="#ac"/><linearGradient id="ag" x1="-4.867" y1="0.815" x2="-3.917" y2="0.815" xlink:href="#ad"/><linearGradient id="ah" x1="-4.038" y1="0.718" x2="-2.855" y2="0.718" xlink:href="#ad"/><linearGradient id="ai" x1="-6.887" y1="0.783" x2="-1.906" y2="-1.14" xlink:href="#ad"/><linearGradient id="aj" x1="0.097" y1="0.403" x2="0.877" y2="0.604" xlink:href="#ac"/><linearGradient id="ak" x1="-8.986" y1="-0.332" x2="-8.137" y2="-0.332" xlink:href="#ac"/><linearGradient id="al" x1="1.112" y1="0.439" x2="-0.11" y2="0.553" xlink:href="#ac"/><linearGradient id="am" x1="-7.466" y1="1.102" x2="-6.189" y2="1.102" xlink:href="#ac"/><linearGradient id="an" x1="0.367" y1="0.83" x2="0.615" y2="0.055" xlink:href="#ac"/><linearGradient id="ao" x1="-5.504" y1="0.633" x2="-4.586" y2="0.633" xlink:href="#ac"/><linearGradient id="ap" x1="-17.53" y1="-1.628" x2="-17.568" y2="1.742" xlink:href="#ac"/><linearGradient id="at" x1="0.474" y1="1.439" x2="0.56" y2="-1.475" gradientUnits="objectBoundingBox"><stop offset="0.004" stop-color="#ebeff2"/><stop offset="1" stop-color="#fff"/></linearGradient><linearGradient id="au" x1="0.213" y1="-2.04" x2="0.779" y2="3.062" gradientUnits="objectBoundingBox"><stop offset="0" stop-color="#a6b2c7"/><stop offset="1" stop-color="#7595b6"/></linearGradient><linearGradient id="av" y1="0.5" x2="1" y2="0.5" gradientUnits="objectBoundingBox"><stop offset="0" stop-color="#95afc7"/><stop offset="1" stop-color="#7595b6"/></linearGradient><linearGradient id="aw" x1="0.208" y1="0.496" x2="0.894" y2="0.511" xlink:href="#at"/><linearGradient id="ax" x1="0.317" y1="0.354" x2="1.506" y2="1.303" xlink:href="#av"/><linearGradient id="ay" x1="0" y1="0.5" x2="1" y2="0.5" xlink:href="#au"/><linearGradient id="az" x1="0" y1="0.5" x2="1" y2="0.5" xlink:href="#at"/><linearGradient id="bd" x1="0.487" y1="1.104" x2="0.533" y2="-1.021" xlink:href="#at"/><linearGradient id="bf" x1="0.378" y1="-2.253" x2="0.504" y2="0.606" gradientUnits="objectBoundingBox"><stop offset="0" stop-color="#f6af9a"/><stop offset="0.996" stop-color="#f89f8a"/></linearGradient><linearGradient id="bg" x1="0.378" y1="-2.246" x2="0.501" y2="0.606" xlink:href="#bf"/><linearGradient id="bh" x1="0.465" y1="-2.246" x2="0.497" y2="0.605" xlink:href="#bf"/><linearGradient id="bl" x1="-16.322" y1="-2.483" x2="-16.685" y2="-1.314" gradientUnits="objectBoundingBox"><stop offset="0" stop-color="#cbaf85"/><stop offset="1" stop-color="#ba7c44"/></linearGradient><linearGradient id="bm" x1="0.38" y1="-2.253" x2="0.506" y2="0.606" xlink:href="#bf"/><linearGradient id="bn" x1="0.38" y1="-2.246" x2="0.503" y2="0.606" xlink:href="#bf"/><linearGradient id="bp" x1="-0.718" y1="-1.329" x2="1.016" y2="1.084" xlink:href="#bl"/><linearGradient id="bq" x1="0.537" y1="-0.017" x2="0.491" y2="0.995" gradientUnits="objectBoundingBox"><stop offset="0" stop-color="#ef9f8e"/><stop offset="1" stop-color="#e68273"/></linearGradient><linearGradient id="br" x1="0.535" y1="0.013" x2="0.482" y2="0.981" xlink:href="#bq"/><linearGradient id="bs" x1="0.531" y1="0.015" x2="0.488" y2="0.976" xlink:href="#a"/><linearGradient id="bt" x1="1.561" y1="1.073" x2="-0.105" y2="0.046" xlink:href="#bl"/><linearGradient id="bu" x1="1.992" y1="-0.288" x2="0.462" y2="0.514" xlink:href="#bl"/><linearGradient id="bv" x1="1.942" y1="-1.211" x2="-0.045" y2="1.485" xlink:href="#bl"/><linearGradient id="bw" x1="0.343" y1="-0.08" x2="0.667" y2="0.909" xlink:href="#bq"/><linearGradient id="bx" x1="0.334" y1="-0.009" x2="0.904" y2="0.982" xlink:href="#bq"/><linearGradient id="by" x1="0" y1="0.5" x2="1" y2="0.5" xlink:href="#ad"/><linearGradient id="ca" x1="0" y1="0.5" x2="1" y2="0.5" xlink:href="#bl"/><linearGradient id="cc" x1="0.6" y1="0.776" x2="0.091" y2="-0.335" xlink:href="#a"/><linearGradient id="cd" x1="0.345" y1="-0.115" x2="1.241" y2="4.299" gradientUnits="objectBoundingBox"><stop offset="0" stop-color="#956f53"/><stop offset="1" stop-color="#71482f"/></linearGradient><linearGradient id="ce" x1="0.668" y1="0.783" x2="-0.03" y2="-0.368" xlink:href="#a"/><clipPath id="cf"><path d="M1834.331,1745.468s9.337-5.15,16.014-1.868,18.646,2.179,20.344,13.1c1.589,10.221.113,35.764-34.547,32.227,0,0,4.527-10.355,4.3-21.051S1838.745,1747.391,1834.331,1745.468Z" transform="translate(-1834.331 -1742.506)" fill="none"/></clipPath><linearGradient id="cg" x1="1.001" y1="1.301" x2="0.403" y2="0.411" gradientUnits="objectBoundingBox"><stop offset="0" stop-color="#f3e9e1"/><stop offset="1" stop-color="#e1d1c5"/></linearGradient><linearGradient id="ch" x1="0" y1="0.5" x2="1" y2="0.5" xlink:href="#bq"/><linearGradient id="ci" x1="0.249" y1="-2.17" x2="0.817" y2="4.165" xlink:href="#cd"/></defs><g transform="translate(10104.667 5842.623)"><g transform="translate(-10104.667 -5809.815)"><rect width="400" height="279.829" rx="10" fill="#f2e6dc"/></g><g transform="translate(-10372.667 -6199.909)"><path d="M472.019,357.345c-68.036-2.009-126.969,47.357-135.873,112.132C326.412,540.3,379.992,604.023,445.92,614.229c82,12.695,161.543-60.746,154.4-140.419C594.94,413.784,541.179,359.387,472.019,357.345Z" transform="translate(0)" fill="#f9efe4"/><g transform="translate(346.37 428.442)" opacity="0.5"><g transform="translate(0)" opacity="0.8"><path d="M458.207,1053.238l-29.668-.357-15.247,27.637,15.247,27.491,29.668-.639,14.435-27.134Z" transform="translate(-413.292 -1023.017)" fill="url(#a)"/><path d="M799.92,1264.8l-27.934.2-14.344,27.081,14.344,26.4,27.934-1.135,13.6-26.594Z" transform="translate(-707.632 -1204.159)" fill="url(#b)"/><path d="M799.92,848.122l-27.934-.871-14.344,26.533,14.344,26.945,27.934-.068,13.6-26.074Z" transform="translate(-707.632 -847.251)" fill="url(#c)"/></g><g transform="translate(146.294 5.962)" opacity="0.8"><path d="M1465.545,1094.29l-29.668-.357-15.248,27.636,15.248,27.491,29.668-.639,14.435-27.134Z" transform="translate(-1420.63 -1064.069)" fill="url(#d)"/><path d="M1807.258,1305.852l-27.934.2-14.344,27.081,14.344,26.4,27.934-1.135,13.6-26.594Z" transform="translate(-1714.97 -1245.212)" fill="url(#e)"/><path d="M1807.258,889.174l-27.934-.871-14.344,26.533,14.344,26.945,27.934-.068,13.6-26.074Z" transform="translate(-1714.97 -888.303)" fill="url(#f)"/></g></g><g transform="translate(376.73 428.405)"><path d="M1896.734,1117.264s16.25-9.978,18.531,1.425-6.272,25.936,0,39.054a38.926,38.926,0,0,1,3.136,24.8s.57-7.447-1.853-11.562-10.1-15.995-8.589-25.973,3.6-17.675,2.364-21.286-6.367-1.425-8.647.475S1896.734,1117.264,1896.734,1117.264Z" transform="translate(-1711.655 -1074.559)" fill="url(#g)"/><g transform="translate(137.945 82.446)"><path d="M1595.9,1465.227c-2.294,5.511-4.36,8.5-4.822,13.55s-8.494,7.35-16.071,4.822,2.521-5.284,2.521-7.578,4.133-4.36,5.972-6.427,5.972-20.211,5.511-25.26,0-17.683,0-17.683l12.682-11.959s2.7,14.487,4.285,23.18S1598.193,1459.716,1595.9,1465.227Z" transform="translate(-1572.187 -1414.692)" fill="url(#h)"/><path d="M1597.277,1519.025c-6.2,4.305-4.994,9.989-6.028,16.188s-3.906,19.977-16.243,18.771c-7.577-2.528,2.521-5.284,2.521-7.578s4.133-4.36,5.972-6.427,5.972-20.211,5.511-25.261,0-17.683,0-17.683l13.605,5.972S1603.477,1514.726,1597.277,1519.025Z" transform="translate(-1572.187 -1485.078)" opacity="0.25" fill="url(#i)" style="mix-blend-mode:multiply;isolation:isolate"/></g><path d="M1567.075,1454.593a11.8,11.8,0,0,0,10.677,8.611c8.955.861,22.922-1.722,24.033-14.294S1574.825,1439.782,1567.075,1454.593Z" transform="translate(-1429.872 -1354.904)" fill="url(#j)"/><path d="M1618.836,1579.664s-3.559,4.88-1.378,5.626,4.593-4.822,4.593-4.822Z" transform="translate(-1472.333 -1473.259)" fill="url(#j)"/><path d="M1678.937,1576.031s.441,5.638,3.578,4.9-.392-4.657-.784-5.49S1678.937,1576.031,1678.937,1576.031Z" transform="translate(-1525.489 -1469.427)" fill="url(#j)"/><path d="M973.7,1485.482s0,20.494,3.789,27.383,1.378,11.022-1.033,14.81-5.683,7.061-5.855,8.094-6.716,6.889,0,7.578,11.711-.517,15.155-6.544,1.894-7.405,2.067-12.744-1.085-9.816,2.471-17.222,3.728-21.01,3.556-22.733S973.7,1485.482,973.7,1485.482Z" transform="translate(-917.434 -1391.132)" fill="url(#m)"/><path d="M984.057,1063.734c-9.472,5.339-7.75-2.756-22.733,6.544s-42.021,13.261-62.342,6.544a49.165,49.165,0,0,0-9.41-2.381c-5.518-.62-6.627,1.472-11.449,3.1h-.007a42.441,42.441,0,0,1-11.387,1.5c-.379.007-.764.016-1.157.016-22.044-.172-21.01-13.945-22.9-23.589s-6.2-22.9-8.783-28.069c-.723-1.447.124-4.542,1.715-8.234,4.091-9.479,13.1-22.937,13.1-22.937s1.206,0,10.161,2.756c8.8,2.707,20.28-1.411,35.725,2.06.262.055.524.118.785.179,12.71,3.038,34.622,8.294,50.528,6.7a33,33,0,0,0,10.437-2.562c14.983-6.889,25.143,0,25.143,0C1009.028,1012.93,993.529,1058.4,984.057,1063.734Z" transform="translate(-802.939 -974.551)" fill="url(#n)"/><path d="M1040.091,1461.362c-5.132,9.561-1.019,20.521-.234,28.2.861,8.439,3.445,13.433,1.033,15.844s-1.378,4.133-4.305,9.989-6.372,4.822-15.121,2.067c-3-.944-3.61-2.149-2.838-3.362.048-.083-.014-.165-.014-.248v-.007c1.624-1.805,5.436-3.568,7.068-4.4a8.016,8.016,0,0,0,.82-.427c.689-.689,1.6-2.066,3.32-4.305s2.607-3.616,3.124-10.677.873-5.855-6.36-14.811c-2.989-3.7-6.379-8.687-9.342-13.268-4.2-6.524-7.526-12.22-7.526-12.22.138-3.445,6.835-4.967,14.172-4.87,10.629.145,22.609,3.679,18.007,9.693A19.99,19.99,0,0,0,1040.091,1461.362Z" transform="translate(-953.458 -1361.453)" fill="url(#o)"/><path d="M1072.4,1896.575a1.892,1.892,0,0,1,.179-.248C1072.479,1896.92,1072.431,1896.968,1072.4,1896.575Z" transform="translate(-1007.035 -1743.934)" fill="url(#p)"/><path d="M888.127,1098.247c-.379-6.193-4.891-17.5-8.638-23.015a8.749,8.749,0,0,0-2.322-2.7c-2.06-1.474-1.136-7.231-2.424-13.017-2.617-11.759-17.013-10.976-22.432-20.479-4.182-7.334-2.436-15.853.581-23.25,2.271-5.57,12.06-27.776-3.829-21.236-3.568,1.474-7.189,4.827-9.893,7.492-1.1,1.079-3.61,2.93-3.922,4.566-.329,1.722,3.788,7.078,3.314,7.7-8.929,11.805,4.264,30.618,6.181,42.918,2,12.848,8.507,19.38,22.2,19.38.393,0,.779,0,1.158-.007,2.962,4.581,6.359,9.568,9.348,13.267,7.233,8.955,6.889,7.75,6.372,14.811s-1.378,8.438-3.1,10.677-2.583,3.617-3.272,4.305a4.339,4.339,0,0,1-.723.427c2.452-.2,5.18-.3,7.495-1.46C889.732,1115.875,888.589,1105.825,888.127,1098.247Z" transform="translate(-804.311 -972.1)" opacity="0.25" fill="url(#q)" style="mix-blend-mode:multiply;isolation:isolate"/><path d="M1215.284,1457.143s-1.956-11.07,1.144-10.037,29.277,15.844,42.193,8.611,28.416-14.055,29.621-11.074,0,7.587,0,7.587S1255.989,1472.519,1215.284,1457.143Z" transform="translate(-1128.651 -1357.234)" opacity="0.25" fill="url(#q)" style="mix-blend-mode:multiply;isolation:isolate"/><path d="M1672.613,1383.053s9.816,12.4,15.844,19.977,6.889,2.067,6.372,10.677.344,20.493-1.378,23.594-7.922,7.061-7.922,10.333,7.577,3.961,7.577,3.961,4.822-1.033,8.094-8.094-4.133-11.194,2.755-20.149,9.644-13.088,4.133-19.8-4.478-27.038,0-31.687S1672.613,1383.053,1672.613,1383.053Z" transform="translate(-1520.083 -1294.903)" fill="url(#s)"/><path d="M643.812,892.2s-3.4-6.372-10.05-6.2-12.854-3.961-11.132,1.206,9.438,13.6,16.516,13.6S643.812,892.2,643.812,892.2Z" transform="translate(-622.339 -879.136)" fill="url(#t)"/><path d="M942.823,911.536s.984-1.457,9.767-4.729,13.236-4.086,12.375-1.331-6.618,13.254-12.658,14.49-9.385.023-9.385.023v-8.157Z" transform="translate(-896.279 -895.559)" fill="url(#u)"/><path d="M731.885,873.021s-13.26-2.928-16.877,4.305-6.2,11.711-4.994,17.91-.517,12.916-3.272,14.638-2.239,7.577,1.894,10.333,11.015,6.2,15.066,2.583,9.044-15.5,12.489-17.049,8.074-10.161,6.965-17.738S741.7,874.227,731.885,873.021Z" transform="translate(-693.018 -868.74)" fill="url(#v)"/><path d="M750.282,854.288s-5.425-3.758-5.253-6.443-3.389,1.529-2.669,4.979,2.454,6.372,5.209,5.554A3.507,3.507,0,0,0,750.282,854.288Z" transform="translate(-724.847 -846.993)" fill="url(#w)"/><path d="M903.586,873.261s5.425-3.758,5.253-6.443,3.389,1.529,2.669,4.979-2.454,6.372-5.209,5.554A3.508,3.508,0,0,1,903.586,873.261Z" transform="translate(-862.698 -863.211)" fill="url(#x)"/><path d="M2029.9,1538.539c-.285-.439-6.314-2.346-5.97,3.28s3.559,12.838.8,17.958a4.94,4.94,0,0,0,2.7-2.86,7.588,7.588,0,0,1-1.205,2.86s3.387-2.114,3.674-4.18,2.411-2.364,1.98-7.482S2030.973,1540.19,2029.9,1538.539Z" transform="translate(-1820.366 -1437.538)" fill="url(#y)"/><path d="M1253.027,1051.389c-6.889,1.378-8.494,11.249-25.949,15.169s-18.6-16.092-29.015-23.67c-6.757-4.911.014-10.305,5.614-13.495.262.055.523.117.785.179,12.71,3.038,34.622,8.294,50.528,6.7,2.708.93,4.643,1.853,5.387,2.721C1264.51,1043.812,1259.916,1050.012,1253.027,1051.389Z" transform="translate(-1112.035 -1002.904)" opacity="0.25" fill="url(#z)" style="mix-blend-mode:multiply;isolation:isolate"/><path d="M1633.52,1168.081s-9.185,9.644-3.215,15.155,15.561-4.7,23.624-8.207,8.523-15.9,3.242-18.429S1634.439,1156.6,1633.52,1168.081Z" transform="translate(-1482.196 -1110.872)" opacity="0.25" fill="url(#aa)" style="mix-blend-mode:multiply;isolation:isolate"/><path d="M1017.552,1139.261s10.625-1.378,13.149,7.405,9.928,2.773,8.206,9.481-6.889,9.869-14.811,4.758-10.637-6.489-8.591-11.483S1011.757,1138.806,1017.552,1139.261Z" transform="translate(-957.847 -1096.748)" opacity="0.25" fill="url(#ab)" style="mix-blend-mode:multiply;isolation:isolate"/></g><g transform="translate(451.84 518.103)"><path d="M1235.3,1867.968a20.666,20.666,0,0,0,.133,6.673c.308,2.157.866,4.241,2.727,5.585a6.325,6.325,0,0,0,1.29.739,7.183,7.183,0,0,1,1.568.6c.732.533,1.044,1.674,1.622,2.369a8.061,8.061,0,0,0,5.492,2.869,4.673,4.673,0,0,1,1.545.3,8.216,8.216,0,0,1,1.415,1.112,4.741,4.741,0,0,0,2.978,1.017,10.63,10.63,0,0,0,3.057-.55c1.167-.344,2.331-.7,3.5-1.048s2.331-.674,3.483-1.05a6.856,6.856,0,0,0,2.63-1.418,6.929,6.929,0,0,0,1.513-2.743,3.241,3.241,0,0,1,.779-1.339,3.367,3.367,0,0,1,1.409-.581,10.24,10.24,0,0,0,5.287-2.8,6.174,6.174,0,0,0,1.595-5.032c-.025-.161-.059-.319-.1-.475a.893.893,0,0,0,.428-.5,9.086,9.086,0,0,0-3.308-10.134,15.708,15.708,0,0,0-2.812-1.347c-.938-.414-1.391-1.347-2.061-2.071-1.45-1.569-3.322-1.413-5.257-1.127a4.59,4.59,0,0,1-2.565-.138c-.967-.412-1.813-1.056-2.775-1.478a5.164,5.164,0,0,0-3.078-.4,21.914,21.914,0,0,1-2.807.668,12.8,12.8,0,0,1-3.146-.676,10.575,10.575,0,0,0-2.9-.164,10.147,10.147,0,0,0-5.629,2.178,6.316,6.316,0,0,0-1.961,2.6,6.537,6.537,0,0,0-.342,1.595,2.4,2.4,0,0,1-.4,1.352,14.816,14.816,0,0,1-1.2,1.125,6.834,6.834,0,0,0-.99,1.27A8.7,8.7,0,0,0,1235.3,1867.968Z" transform="translate(-1221.2 -1798.133)" fill="url(#ac)"/><path d="M1237.606,1914.747c1.838,3.453,4.053,6.75,5.85,10.231,1.19,2.017,3.207,3.287,5.1,4.457a7.946,7.946,0,0,0,6.958.261c4.437-1.634,7.2-5.689,12.181-6.254a25.148,25.148,0,0,1,9.641.673,6.2,6.2,0,0,1-1.619,4.83,10.238,10.238,0,0,1-5.287,2.8,3.37,3.37,0,0,0-1.409.582,3.238,3.238,0,0,0-.779,1.339,6.929,6.929,0,0,1-1.513,2.743,6.85,6.85,0,0,1-2.63,1.418c-1.152.376-2.322.7-3.483,1.05s-2.33.7-3.5,1.048a10.638,10.638,0,0,1-3.057.55,4.743,4.743,0,0,1-2.978-1.017,8.219,8.219,0,0,0-1.415-1.112,4.677,4.677,0,0,0-1.545-.3,8.062,8.062,0,0,1-5.492-2.869c-.578-.694-.89-1.836-1.622-2.369a7.2,7.2,0,0,0-1.568-.6,6.3,6.3,0,0,1-1.291-.739c-1.861-1.344-2.418-3.428-2.726-5.585a20.665,20.665,0,0,1-.133-6.673,8.7,8.7,0,0,1,1.127-3.016,6.864,6.864,0,0,1,.99-1.27C1237.476,1914.865,1237.541,1914.806,1237.606,1914.747Z" transform="translate(-1221.2 -1849.377)" fill="url(#ad)"/><path d="M1182.464,1675.3a12.475,12.475,0,0,0-7.288-4.2,7.317,7.317,0,0,0-2.808-7.832c-3.327-2.337-7.259-1.95-10.763-.445a13.268,13.268,0,0,0-9.052.467c-6.2,2.716-8.853,9.764-6.979,15.933a8.429,8.429,0,0,0-5.715,5.7,8.936,8.936,0,0,0,3.208,9.406,52.306,52.306,0,0,0,4.562,3.021,18.446,18.446,0,0,1,3.995,3.987,12.4,12.4,0,0,0,10.127,4.467,12.153,12.153,0,0,0,8.7-4.6,9.845,9.845,0,0,0,7.026.917,11.441,11.441,0,0,0,7.713-6.107C1188.382,1689.767,1187.031,1680.564,1182.464,1675.3Z" transform="translate(-1139.526 -1633)" fill="url(#ae)"/><g transform="translate(14.88 0)"><path d="M1298.627,1538.812c1.83-.258,6.95-1.756,9.64-4.436,2.834-2.825,2.356-8.533,3.506-9.979s4.542-2.467,6.756-5.195c3.206-3.949,4.258-9.385,1.941-12.72-1-1.435-3.908-3.735-3.513-5.84.448-1.036,3.742-2.963,3.287-9.374-.364-5.118-3.311-12.889-13.442-14.96-1.981-1.154-1.736-5.6-6.918-7.745s-8.446,1.161-10.337.06-6.444-3.863-11.086-3.99c-5.409-.148-10.572,2.341-14.511,6.669a20.623,20.623,0,0,0-2.52,3.475c-.3.511-.382.7-.971.725-.7.032-1.371.022-2.077.1a18.537,18.537,0,0,0-7.684,2.191,16.746,16.746,0,0,0-7.536,12.822c-.288,4.485,4.207,12.524,3.734,13.867s-5.115,5.727-4.9,11.1c.269,6.837,3.655,12.476,9.842,15.466,2.728,1.318,10.256,3.06,12.245,4.39s1.6,7.714,4.717,10.547c3.388,3.076,7.1,2.874,12.3,1.393,2.813-.8,4.51-.429,6.838-2.358,2.683.825,6.213-.659,8.456-2.853C1297.407,1541.173,1296.8,1539.07,1298.627,1538.812Z" transform="translate(-1241.986 -1464.627)" fill="url(#ac)"/></g><g transform="translate(14.88 0)" opacity="0.4" style="mix-blend-mode:multiply;isolation:isolate"><path d="M1428.855,1483.142c-7.14-1.027-12.3,4.923-18.937,5.751s-8.21-7.865-11.861-12.341c-1.271-1.674-2.985-3.307-4.7-3.71a16.865,16.865,0,0,0-8.05-.14c.358-.481.74-.949,1.15-1.4,3.94-4.328,9.1-6.817,14.511-6.669,4.643.127,9.2,2.889,11.086,3.99s5.154-2.2,10.337-.06,4.937,6.591,6.918,7.745c8.641,1.767,12.055,7.68,13.1,12.557l-.422-.321A25.422,25.422,0,0,0,1428.855,1483.142Z" transform="translate(-1364.492 -1464.627)" fill="url(#ag)"/><path d="M1250.7,1544.386a15.187,15.187,0,0,1,5.244-1.848c-2.8,2.373-6.772,5.51-4.915,8.884,3.086,5.647,9.561,9.2,11.4,15.851,1.877,7.1-5.1,11.537-10.788,14.181-2.037.968-2.2,2.884-1.471,4.719a16.276,16.276,0,0,0,11.558,10.244c12.424,2.56,24.182-.972,36.747-1.781,3.328-.3,6.232,2.116,8.754,4.012q1.776-1.578,3.443-3.266c-.378,1.984-.963,4.158-2.4,5.591-2.689,2.68-7.81,4.178-9.64,4.436s-1.22,2.36-2.234,3.352c-2.243,2.195-5.773,3.678-8.456,2.853-2.328,1.93-4.025,1.557-6.838,2.358-5.2,1.48-8.913,1.683-12.3-1.393-3.121-2.833-2.729-9.218-4.717-10.548s-9.518-3.072-12.245-4.39c-6.187-2.99-9.573-8.629-9.842-15.466-.212-5.375,4.429-9.759,4.9-11.1s-4.022-9.382-3.733-13.867A16.746,16.746,0,0,1,1250.7,1544.386Z" transform="translate(-1241.986 -1531.223)" fill="url(#ah)"/></g><path d="M1350.24,1671.1c18.309,14.666,23.517,41.046,23.517,41.046l17.039-10.66c-23.335-26.79-17.894-37.854-18.09-49.3,0,0-1.419-2.786-2.4.411-.52,1.689-1.222,8.528-.069,16.13-5.511-8.158-4.646-15.285-6.562-17.468-.651-.742-2.466-.533-2.466-.533a143.15,143.15,0,0,0,13.13,40.071s-11.693-20.283-18.261-24.874c-1.229-.835-2.075.215-1.093,2.157a62.459,62.459,0,0,1,6.334,9.458c-5.872-5.08-6.855-6.3-8.924-8.025S1349.293,1669.169,1350.24,1671.1Z" transform="translate(-1319.335 -1623.678)" fill="url(#ai)"/><path d="M1623.917,1644a6.117,6.117,0,0,0,4.4-5.091,12.62,12.62,0,0,0-1.952-8.7,13.117,13.117,0,0,0-13.892-5.62,5.364,5.364,0,0,0-4.249-2.944,5.045,5.045,0,0,0-4.2,1.725,9.573,9.573,0,0,0-2.772.254,5.366,5.366,0,0,0-4.135,4.819c-3.071,1.11-4.708,4.953-4.927,8.05-.156,2.211.16,4.682,1.829,6.3.693.672,1.618.811,1.7,1.853a9.361,9.361,0,0,0,.568,2.885,8.732,8.732,0,0,0,3.966,4.326,7.847,7.847,0,0,0,2.464.825c.976.151,2.155-.229,3.073.038a6.172,6.172,0,0,1,1.474,1.029,6.687,6.687,0,0,0,1.346.754,6.8,6.8,0,0,0,2.83.438,11.368,11.368,0,0,0,5.2-1.841C1619.9,1651.123,1623.364,1647.919,1623.917,1644Z" transform="translate(-1526.419 -1598.822)" fill="url(#aj)"/><path d="M1597.66,1714.632c.868.928,2.138,2.6,2.763,2.1,5.707-4.882,13.069-1.414,19.443-.2,3.751.665,5.727-3.43,6.816-6.213a21.517,21.517,0,0,0,1.327-4.241,11.447,11.447,0,0,1,.31,5.018,6.118,6.118,0,0,1-4.4,5.092c-.554,3.924-4.015,7.128-7.274,9.1a11.371,11.371,0,0,1-5.2,1.841,6.8,6.8,0,0,1-2.83-.438,6.7,6.7,0,0,1-1.346-.754,6.186,6.186,0,0,0-1.474-1.029c-.918-.267-2.1.114-3.073-.038a7.849,7.849,0,0,1-2.464-.825,8.731,8.731,0,0,1-3.966-4.326,9.364,9.364,0,0,1-.568-2.885c-.086-1.042-1.011-1.181-1.7-1.853-1.669-1.619-1.985-4.09-1.829-6.3.012-.163.028-.329.047-.5C1594.021,1710.3,1595.7,1712.5,1597.66,1714.632Z" transform="translate(-1526.419 -1671.005)" opacity="0.2" fill="url(#ak)" style="mix-blend-mode:multiply;isolation:isolate"/><path d="M1191.834,1701.21a23.729,23.729,0,0,0-6.807-3.511c-2.345-.867-4.754-1.443-7.126-.3a7.255,7.255,0,0,0-1.451.9,8.263,8.263,0,0,1-1.463,1.255c-.938.447-2.261.139-3.277.343a9.252,9.252,0,0,0-5.9,3.976,5.348,5.348,0,0,1-1.142,1.4,9.408,9.408,0,0,1-1.895.82,5.446,5.446,0,0,0-2.654,2.45,12.2,12.2,0,0,0-1.115,3.386c-.29,1.366-.568,2.735-.853,4.1s-.593,2.721-.843,4.089a7.865,7.865,0,0,0-.005,3.428,7.947,7.947,0,0,0,1.942,3.025,3.719,3.719,0,0,1,.926,1.517,3.871,3.871,0,0,1-.183,1.74,11.746,11.746,0,0,0-.062,6.865,7.084,7.084,0,0,0,4.208,4.358c.176.063.354.114.533.16a1.026,1.026,0,0,0,.269.7,10.428,10.428,0,0,0,12.036,2.2,18.02,18.02,0,0,0,2.9-2.1c.929-.721,2.119-.668,3.216-.949,2.375-.607,3.24-2.582,4.01-4.69a5.269,5.269,0,0,1,1.54-2.514c.944-.751,2.057-1.254,3.007-1.994a5.927,5.927,0,0,0,2.081-2.89,25.109,25.109,0,0,1,.859-3.2c.523-1.112,1.627-1.879,2.4-2.806a12.138,12.138,0,0,0,1.747-2.833,11.647,11.647,0,0,0,.876-6.871,7.247,7.247,0,0,0-1.555-3.4,7.489,7.489,0,0,0-1.422-1.216,2.756,2.756,0,0,1-1.148-1.138,17.051,17.051,0,0,1-.482-1.823,7.845,7.845,0,0,0-.74-1.693A9.984,9.984,0,0,0,1191.834,1701.21Z" transform="translate(-1154.566 -1663.049)" fill="url(#al)"/><path d="M1162.778,1726.959a9.427,9.427,0,0,0,1.895-.821,5.355,5.355,0,0,0,1.142-1.4,9.343,9.343,0,0,1,4.463-3.565l-.46.73a5.014,5.014,0,0,0-.544,1.392c-2.016,3.651-5.666,7.786-3.649,11.517.968,2.037,3.732,2.9,4.8,4.82,1.816,2.743.687,6.312,1.313,9.5.323,2.319-.1,5.042,2.562,6.03a21.349,21.349,0,0,0,13.719.2,7.047,7.047,0,0,0-.92,1.873c-.769,2.108-1.634,4.083-4.01,4.69-1.1.281-2.287.228-3.216.949a18.02,18.02,0,0,1-2.9,2.1,10.428,10.428,0,0,1-12.036-2.2,1.025,1.025,0,0,1-.269-.7c-.18-.046-.358-.1-.534-.16a7.084,7.084,0,0,1-4.208-4.358,11.744,11.744,0,0,1,.062-6.866,3.867,3.867,0,0,0,.183-1.739,3.715,3.715,0,0,0-.926-1.517,7.953,7.953,0,0,1-1.942-3.025,7.863,7.863,0,0,1,.006-3.429c.25-1.368.56-2.727.843-4.089s.562-2.736.852-4.1a12.2,12.2,0,0,1,1.115-3.386A5.444,5.444,0,0,1,1162.778,1726.959Z" transform="translate(-1154.565 -1683.918)" opacity="0.2" fill="url(#am)" style="mix-blend-mode:multiply;isolation:isolate"/><path d="M1382.531,1533.492a12.9,12.9,0,0,0-8.265,2.7,7.567,7.567,0,0,0-7.964-3.257c-4.1.941-6.52,4.233-7.785,7.968a13.721,13.721,0,0,0-5.9,7.283c-2.2,6.643,1.386,13.56,7.425,16.386a8.717,8.717,0,0,0,.431,8.338,9.242,9.242,0,0,0,9.452,4.039,53.967,53.967,0,0,0,5.478-1.419,19.081,19.081,0,0,1,5.829-.314,12.821,12.821,0,0,0,10.438-4.7,12.569,12.569,0,0,0,2.483-9.87,10.186,10.186,0,0,0,5.565-4.769,11.834,11.834,0,0,0,.637-10.155C1397.75,1538.949,1389.738,1533.623,1382.531,1533.492Z" transform="translate(-1321.111 -1522.859)" fill="url(#an)"/><path d="M1355.866,1581.467c1.876,4.639,7.2,5.384,11.779,5.3,5.344-.263,7.544,5.464,11.8,7.985a2.013,2.013,0,0,0,2.561-.121c3.67-3.913,2.742-9.2,2.176-14.179-.4-1.976,1.149-3.348,3.105-3.974,1.755-.384,3.308.705,4.518,1.714a15.4,15.4,0,0,0,1.206-16.1,19.144,19.144,0,0,1,7.342,8.713,11.833,11.833,0,0,1-.638,10.154,10.184,10.184,0,0,1-5.565,4.768,12.568,12.568,0,0,1-2.483,9.87,12.822,12.822,0,0,1-10.438,4.7,19.072,19.072,0,0,0-5.829.314,54.025,54.025,0,0,1-5.478,1.419,9.242,9.242,0,0,1-9.451-4.039,8.717,8.717,0,0,1-.431-8.338c-6.039-2.826-9.622-9.743-7.425-16.386a13.362,13.362,0,0,1,3.165-5.114A18.645,18.645,0,0,0,1355.866,1581.467Z" transform="translate(-1321.112 -1547.939)" opacity="0.2" fill="url(#ao)" style="mix-blend-mode:multiply;isolation:isolate"/><path d="M1529.865,1994.867c-2.39-1.991-17.58,4.723-17.039,10.661S1534.583,1998.8,1529.865,1994.867Z" transform="translate(-1458.6 -1917.556)" fill="url(#ap)"/></g><g transform="translate(437.629 582.698)"><g transform="translate(5.917 0)"><path d="M1103,1930.491c-7.71,7.747-16.127-2.656-16.381-2.91-.177-.176-3.641-4.2-4.144-8.754a8.2,8.2,0,0,1,1.483-5.9,1.482,1.482,0,0,1,.084-.135c.56-.883,4.022-5.627,11.435-2.1a23.38,23.38,0,0,1,8.539,6.612,13.025,13.025,0,0,1,1.263,2.023C1107,1922.779,1106.787,1926.685,1103,1930.491Z" transform="translate(-1082.413 -1909.406)" fill="#fff"/><path d="M1103.362,1985.937c-7.71,7.747-16.127-2.656-16.381-2.91-.177-.176-3.641-4.2-4.144-8.754,1.087,1.626,3.819,4.353,9.727,3.855,7.505-.631,11.075-.163,13.077-3.351C1107.366,1978.225,1107.15,1982.132,1103.362,1985.937Z" transform="translate(-1082.775 -1964.853)" opacity="0.25" fill="url(#q)" style="mix-blend-mode:multiply;isolation:isolate"/></g><g transform="translate(23.633 8.737)"><path d="M1223.24,1988.248c-.295.207-10.342,9.044-16.637.11-3.714-5.272-2.327-9.821,1.219-13.167a23.4,23.4,0,0,1,9.531-5.08c7.9-2.231,10.515,3.029,10.919,3.992.042.095.06.148.06.148C1231.77,1981.214,1223.533,1988.042,1223.24,1988.248Z" transform="translate(-1204.404 -1969.565)" fill="#fff"/><path d="M1223.24,2014.963c-.295.207-10.342,9.044-16.637.11-3.714-5.272-2.327-9.821,1.219-13.167-1.907,10.2,7.073,14.152,14.525,10.811,5.561-2.49,6.063-8.71,5.925-11.9.042.1.06.148.06.148C1231.77,2007.928,1223.533,2014.755,1223.24,2014.963Z" transform="translate(-1204.404 -1996.279)" opacity="0.25" fill="url(#q)" style="mix-blend-mode:multiply;isolation:isolate"/></g><g transform="translate(0 13.992)"><path d="M1054.725,2025.637c-.357.024-11.056-.123-12.747-7.7a1.372,1.372,0,0,1-.046-.152,7.532,7.532,0,0,1-.22-2.757c.225-2.208,1.5-5.2,6.215-7.2a23.383,23.383,0,0,1,10.608-2.026c4.139.322,7.606,2.306,8.8,6.859a13.789,13.789,0,0,1,.411,2.627C1068.454,2026.188,1055.086,2025.614,1054.725,2025.637Z" transform="translate(-1041.672 -2005.747)" fill="#fff"/><path d="M1054.725,2066.3c-.357.024-11.056-.122-12.747-7.7a1.4,1.4,0,0,1-.046-.152,7.534,7.534,0,0,1-.22-2.757c1.831,2.51,5.794,6.158,13.469,6.51,11.807.542,12.155-8.882,12.155-8.882a13.783,13.783,0,0,1,.411,2.627C1068.454,2066.847,1055.086,2066.272,1054.725,2066.3Z" transform="translate(-1041.672 -2046.406)" opacity="0.25" fill="url(#q)" style="mix-blend-mode:multiply;isolation:isolate"/></g></g><g transform="translate(346.764 492.602)"><path d="M548.369,1298.3l-33.551-.248V1290.3a1.271,1.271,0,0,1,1.343-1.269l31.009,1.766a1.271,1.271,0,0,1,1.2,1.269Z" transform="translate(-500.467 -1289.032)" fill="url(#at)"/><path d="M551.014,1298.3l-33.551-1.911V1290.3a1.271,1.271,0,0,1,1.343-1.269l31.009,1.766a1.271,1.271,0,0,1,1.2,1.269Z" transform="translate(-502.728 -1289.032)" opacity="0.3" fill="url(#au)" style="mix-blend-mode:multiply;isolation:isolate"/><g transform="translate(32.71 15.32)"><path d="M673.98,1487.918l-32.748,1.82v-95.219l32.748,1.82Z" transform="translate(-641.232 -1394.519)" fill="url(#av)"/><g transform="translate(0 14.347)"><path d="M663.225,1493.64c-8.362,2.116,4.73,12.971-2.658,15.24-5.866,1.8-5.167-14.536-10.534-9.9-5.437,4.7,1.781,18.7,5.44,29.459,3.627,10.662,3.816,26.055-7.1,23.356a22.43,22.43,0,0,1-7.142-3.082v25.463l32.747-1.82v-75.091C671.376,1494.334,667.638,1492.523,663.225,1493.64Z" transform="translate(-641.232 -1493.307)" fill="url(#aw)"/></g></g><g transform="translate(0 6.982)"><path d="M416,1465.637v-60.31l32.727-10.391v69.7Z" transform="translate(-416.004 -1386.538)" fill="url(#ax)"/><path d="M448.731,1345.506,416,1355.9l14.82-18.789h0Z" transform="translate(-416.004 -1337.108)" fill="#fff"/><g transform="translate(0)" opacity="0.3" style="mix-blend-mode:multiply;isolation:isolate"><path d="M430.824,1337.108,416,1355.9l19.162-16.752Z" transform="translate(-416.004 -1337.108)" fill="#e6e6e6"/></g><path d="M416,1826.182v18.444l32.727,6.014v-25.434c-5.583-3.539-8.2-7.54-17.284-8.421C425.52,1816.209,419.911,1821.287,416,1826.182Z" transform="translate(-416.004 -1747.083)" opacity="0.3" fill="url(#ay)" style="mix-blend-mode:multiply;isolation:isolate"/><g transform="translate(3.326 17.862)"><path d="M443.618,1674.479v.033l5.024,1.923v2.664l-5.024,2.244v.033l8.207-.047v2.85l-12.922-.191v-2.795l7.3-3.332v-.034l-7.3-2.865V1672.1l12.922-1.024V1674Z" transform="translate(-438.904 -1640.44)" fill="url(#az)"/><path d="M451.826,1631.243l-12.922,1.3v-3l12.922-1.6Z" transform="translate(-438.904 -1603.559)" fill="url(#az)"/><path d="M438.9,1556.328l10.224-1.714v-5.346l2.7-.558v8.55l-12.922,1.879Z" transform="translate(-438.904 -1535.841)" fill="url(#az)"/><path d="M438.9,1470.871l5.235-1.28v-.034l-5.235-2.268v-3.164l5.882,2.618,7.039-6.643v3.487l-6.385,5.651v.034l6.385-1.561v3.009L438.9,1473.6Z" transform="translate(-438.904 -1460.101)" fill="url(#az)"/></g></g><path d="M518.049,1337.108l33.466,1.506,17.172,8.652-32.73-1.759Z" transform="translate(-503.229 -1330.126)" fill="url(#bd)"/><path d="M535.956,1345.506l-17.907-8.4,2.508,3.4Z" transform="translate(-503.229 -1330.126)" opacity="0.3" fill="url(#ay)" style="mix-blend-mode:multiply;isolation:isolate"/></g><g transform="translate(373.453 495.107)"><g transform="translate(46.525 88.067)"><path d="M922.648,1922.979h0l-.014-.065Z" transform="translate(-922.271 -1921.428)" fill="url(#bf)"/><path d="M922.572,1922.633l-.01-.048S922.566,1922.6,922.572,1922.633Z" transform="translate(-922.21 -1921.147)" fill="url(#bg)"/><path d="M938.795,1932.556c-.767-.767-1.48-1.694-5.783-1.992s-4.984-1.448-5.368-3.877-1.981-11.609-1.023-13.4-6.109.943-6.11.944l.045.206c.413,1.891,2.549,11.615,3.126,13.228.639,1.789-1.789,1.789-3.2,2.556s1.744.383,3.3.639,1.94,2.045,1.94,2.045.383,4.345,2.3.9a7.571,7.571,0,0,0,.864-2.011,1.555,1.555,0,0,0,.67.732,13.476,13.476,0,0,0,6.9,1.79c1.832-.213,2.854-.937,0-1.491-.7-.137-1.257-.239-1.694-.317C936.6,1932.763,939.311,1933.073,938.795,1932.556Z" transform="translate(-920.135 -1912.682)" fill="url(#bh)"/><g opacity="0.3" style="mix-blend-mode:multiply;isolation:isolate"><path d="M922.648,1922.979h0l-.014-.065Z" transform="translate(-922.271 -1921.428)" fill="url(#bf)"/><path d="M922.572,1922.633l-.01-.048S922.566,1922.6,922.572,1922.633Z" transform="translate(-922.21 -1921.147)" fill="url(#bg)"/><path d="M938.795,1932.556c-.767-.767-1.48-1.694-5.783-1.992s-4.984-1.448-5.368-3.877-1.981-11.609-1.023-13.4-6.109.943-6.11.944l.045.206c.413,1.891,2.549,11.615,3.126,13.228.639,1.789-1.789,1.789-3.2,2.556s1.744.383,3.3.639,1.94,2.045,1.94,2.045.383,4.345,2.3.9a7.571,7.571,0,0,0,.864-2.011,1.555,1.555,0,0,0,.67.732,13.476,13.476,0,0,0,6.9,1.79c1.832-.213,2.854-.937,0-1.491-.7-.137-1.257-.239-1.694-.317C936.6,1932.763,939.311,1933.073,938.795,1932.556Z" transform="translate(-920.135 -1912.682)" fill="url(#bh)"/></g></g><path d="M858.36,1807.188s5.37,13.291,13.783,10.766,1.595-12.88,4.276-19.213S857.614,1802.734,858.36,1807.188Z" transform="translate(-820.79 -1725.511)" fill="url(#bl)"/><g transform="translate(38.857 89.089)"><path d="M869.847,1930.02h0l-.014-.066Z" transform="translate(-869.47 -1928.468)" fill="url(#bm)"/><path d="M869.771,1929.673l-.01-.048Z" transform="translate(-869.409 -1928.187)" fill="url(#bn)"/><path d="M885.994,1939.6c-.767-.767-1.48-1.693-5.783-1.992s-4.984-1.449-5.368-3.877-1.981-11.609-1.022-13.4-6.109.943-6.11.943l.045.206c.413,1.891,2.549,11.615,3.126,13.229.639,1.789-1.789,1.789-3.195,2.556s1.744.383,3.3.639,1.94,2.045,1.94,2.045.383,4.345,2.3.895a7.568,7.568,0,0,0,.864-2.011,1.552,1.552,0,0,0,.67.733,13.478,13.478,0,0,0,6.9,1.789c1.832-.213,2.854-.937,0-1.491-.7-.136-1.258-.239-1.694-.317C883.8,1939.8,886.511,1940.113,885.994,1939.6Z" transform="translate(-867.334 -1919.722)" fill="url(#bh)"/></g><path d="M823.9,1814.823s-.767,14.314,7.924,15.592,6.9-10.991,12.013-15.592S825.11,1810.473,823.9,1814.823Z" transform="translate(-791.335 -1738.099)" fill="url(#bp)"/><g transform="translate(0)"><path d="M1167.458,1407.513s1.9,5.465-.95,5.721-4.6-.767-5.027-.256S1166.108,1405.881,1167.458,1407.513Z" transform="translate(-1079.884 -1392.615)" fill="url(#bq)"/><path d="M1142.791,1317.7s.895-4.537-.7-6.646-2.62-2.748-3.067-2.109-4.154-3.834-4.473-2.364-2.945,1.76-2.3,4.026-1.47,3.387.895,3.578S1142.543,1320.383,1142.791,1317.7Z" transform="translate(-1054.697 -1306.283)" fill="url(#br)"/><path d="M1193.595,1383.724a5.054,5.054,0,0,1,3.877,3.536s.341,1.577-.724,1.193a9.036,9.036,0,0,0-4-.469C1191.934,1388.24,1191.72,1384.022,1193.595,1383.724Z" transform="translate(-1106.119 -1372.478)" fill="url(#bs)"/><path d="M687.552,1354.506c-2.045-2.045-7.412-2.812-7.412-2.812-13.931-1.789-25.049,18.915-27.733,24.922s-15.336.895-22.621,0-9.585-8.179-16.231-21.087c-4-7.767-5.036,2.418-5.228,11.764-.426-3.063-1.318-5.535-3.079-5.63-2.77-.15-2.119,8.164-1.439,13.177-1.509-7.353-2.566-2.867-2.566-2.867-4.26,10.054,1.875,18.574,4.431,26.413s.17,14.484,12.61,22.664,26.072,5.794,44.816,3.579,22.408-38.81,18.319-47.756.767-11.758,3.067-13.292S689.6,1356.551,687.552,1354.506Z" transform="translate(-599.777 -1345.006)" fill="url(#bt)"/><path d="M752.58,1567.359c-2.28-3.76-8.691,2.727-13.292,5.267s-9.713-2.37-16.1-4.244c-3.414-1-3.739,1.255-3.146,3.848-1.884-.543-4.039-.635-5.034,1.094-.828,1.44.156,3.487,1.489,5.167-1.29.431-2.376,2.324-2.255,6.932.256,9.8,23.686,14.143,38.341,8.52S752.58,1567.359,752.58,1567.359Z" transform="translate(-697.608 -1528.464)" fill="url(#bu)"/></g><path d="M954.805,1368.354s-8.544,9.3-5.855,9.9,5.689-1.228,5.855,0,.947,7.787,5.632,5.965,5.362-2.03,5.362-2.03,2.6,6.715,6.819,4.841,4.321-2.655,4.321-2.655,3.592,4.477,4.425,2.186a10.518,10.518,0,0,0-.754-7.548c-1.028-1.931-3.14-7.291-2.73-9.171s1.612-4.906,4.187-6.119,3.946-5.322,4.068-6.149.8-3.289-2.315-4.383c-3.282-1.153-10.214-4.834-19.845,3.778C963.977,1356.969,956.1,1365.5,954.805,1368.354Z" transform="translate(-897.793 -1344.862)" fill="url(#bv)"/></g><g transform="translate(520.297 543.369)"><path d="M1639.842,1732.3c-4.754-.365-4.5-1.506-9.224-1.7-2.94-.119-9.2-.373-13.694,2.942-7.063,5.214-6.086,16.545-5.829,19.523.8,9.322,6.158,20.221,15.562,24.276,4.378,1.888,9.16,2.088,13.355,2.264,4.287.179,7.9.33,11.544-.792,12.6-3.88,16.729-20.248,16.92-21.051.533-2.24,3.649-15.345-3.848-22.692a16.768,16.768,0,0,0-7.073-4.018C1651.2,1729.333,1648.49,1732.963,1639.842,1732.3Z" transform="translate(-1610.902 -1717.188)" fill="url(#bw)"/><g transform="translate(0 13.353)" opacity="0.3" style="mix-blend-mode:multiply;isolation:isolate"><path d="M1637.069,1775.134c-1.086-2.868-.5-5.509-2.6-7.243-2.3-1.89-4.869-.293-7.923-.962-7.309-1.6-14.441-15.553-9.676-24.672,2.892-5.536,9.211-7.463,10.016-7.7,7.674-2.224,13.366,2.223,16.41-.736a4.105,4.105,0,0,0,.986-1.557,25.605,25.605,0,0,1-4.438.028c-4.754-.365-4.5-1.506-9.224-1.7-2.94-.119-9.2-.373-13.694,2.942-7.063,5.214-6.086,16.545-5.829,19.523.8,9.322,6.158,20.221,15.562,24.276,4.378,1.888,9.16,2.088,13.355,2.264l.38.016A10.827,10.827,0,0,1,1637.069,1775.134Z" transform="translate(-1610.902 -1730.541)" fill="url(#bx)"/></g><path d="M1810.155,1655.349c-2.27-.963-2.32-4.695-2.32-4.867a8.7,8.7,0,0,1,3.282-6.451c1.936-1.559,3.759-1.566,4.7-3.565.424-.9.5-1.855.849-1.867.407-.015.742,1.245,1.018,2.207,1.674,5.84,2.557,5.672,2.32,7.356-.4,2.845-3.1,4.589-4.753,5.659C1813.628,1654.868,1811.8,1656.048,1810.155,1655.349Z" transform="translate(-1779.235 -1638.599)" fill="url(#by)"/><path d="M1831.159,1640.864c-.261-.909-.575-2.083-.952-2.2a4.1,4.1,0,0,1-.067,2.763c-.569,1.338-1.627,1.319-2.433,3.056-.758,1.632-.105,2.256-.906,3.848-.72,1.431-1.559,1.546-2.32,2.6a5.919,5.919,0,0,0-.774,4.5c1.628.633,3.422-.526,5.018-1.557,1.656-1.07,4.353-2.813,4.753-5.659C1833.716,1646.536,1832.834,1646.7,1831.159,1640.864Z" transform="translate(-1792.713 -1638.657)" opacity="0.2" fill="url(#by)" style="mix-blend-mode:multiply;isolation:isolate"/><path d="M1774.695,1694.338a.676.676,0,0,0,.453-.17c1.106-1.056-2.963-6.114-4.3-9.111a2.245,2.245,0,0,0-.622-.849,3.012,3.012,0,0,0-2.15-.509c-.619.039-1.5.1-1.641.509-.152.459.713,1.064,2.547,2.547,1.706,1.379,2.559,2.069,2.773,2.32C1773.747,1691.416,1773.639,1694.312,1774.695,1694.338Z" transform="translate(-1743.831 -1677.135)" fill="url(#ca)"/><path d="M1768.541,1684.322c.959.063,1.437.5,1.584.339.066-.074.049-.252-.2-.664a3.336,3.336,0,0,0-1.839-.3c-.619.039-1.5.1-1.641.509a.318.318,0,0,0-.015.072.97.97,0,0,0,.241.155C1767.2,1684.669,1767.553,1684.258,1768.541,1684.322Z" transform="translate(-1743.844 -1677.135)" opacity="0.3" fill="url(#ca)" style="mix-blend-mode:multiply;isolation:isolate"/><path d="M1834.331,1745.468s9.337-5.15,16.014-1.868,8.715,9.394,7.753,19.693-6.961,24.5-21.956,25.634c0,0,4.527-10.355,4.3-21.051S1838.745,1747.391,1834.331,1745.468Z" transform="translate(-1801.883 -1727.416)" fill="url(#cc)"/><path d="M1885.764,1871.668c.942-2.736,2.047-5.268,2.943-5.15.506.067.822.961.849,1.585C1889.62,1869.577,1888.145,1871.153,1885.764,1871.668Z" transform="translate(-1845.846 -1833.415)" fill="url(#cd)"/><g transform="translate(32.448 16.665)" opacity="0.5" style="mix-blend-mode:multiply;isolation:isolate"><path d="M1847.516,1771.26c1.22-2.942,3.569-3.324,4.188-6.79.452-2.535-.111-6.214-2.49-8.035-2.578-1.973-5.083-.078-9.394-1.811a12.318,12.318,0,0,1-2.37-1.273,25.972,25.972,0,0,0-3.118,1.387c4.414,1.924,5.885,11.714,6.111,22.408s-4.3,21.051-4.3,21.051a20.827,20.827,0,0,0,13.844-6.457,8.861,8.861,0,0,0,1.265-4.408C1851.271,1781.684,1845.171,1776.911,1847.516,1771.26Z" transform="translate(-1834.331 -1753.35)" fill="url(#ce)"/></g><g transform="translate(32.448 15.09)"><g clip-path="url(#cf)"><g transform="translate(-1.019 7.37)"><path d="M1827.317,1829.415a59.911,59.911,0,0,1,13.015-17.656c2.263-2.08,3.662-3.006,6.734-5.772a102.182,102.182,0,0,0,11.495-12.186,1.465,1.465,0,0,1,2.36.093,21.883,21.883,0,0,1,3.846,13.263c-.226,4.412-1.96,9.491-6.667,14.787C1843.718,1838.125,1827.317,1829.415,1827.317,1829.415Z" transform="translate(-1827.317 -1793.25)" fill="url(#cg)"/><path d="M1860.921,1793.9a1.463,1.463,0,0,0-1.678-.57c1.158,6.978,2.212,22.454-8.952,30.827a27.975,27.975,0,0,1-22.962,5.238l-.012.024s16.4,8.71,30.784-7.47c4.707-5.3,6.441-10.375,6.667-14.787A21.882,21.882,0,0,0,1860.921,1793.9Z" transform="translate(-1827.317 -1793.253)" fill="url(#ch)"/><path d="M1924.93,1913.372c-.376-.758,2.65-3.976,4.753-3.169.546.209,1.253.776,1.188,1.358C1930.7,1913.077,1925.356,1914.23,1924.93,1913.372Z" transform="translate(-1910.727 -1893.108)" fill="url(#ci)"/></g></g></g></g></g></g></svg>