<svg xmlns="http://www.w3.org/2000/svg" width="400" height="313.014" viewBox="0 0 400 313.014"><g transform="translate(9488.667 4476)"><g transform="translate(-9488.667 -4442.815)"><rect width="400" height="279.829" rx="10" fill="#f2e6dc"/></g><g transform="translate(-9756.544 -4810.685)"><path d="M129.257,0c71.386,0,129.257,58.13,129.257,129.836s-57.87,129.836-129.257,129.836S0,201.543,0,129.836,57.87,0,129.257,0Z" transform="translate(334.878 334.685)" fill="#f9efe4"/><g transform="translate(340.861 407.683)"><path d="M792.666,943.892H773.151V862.233l9.757-13.925,9.758,13.925Z" transform="translate(-716.994 -848.309)" fill="#e6d0be"/><path d="M594.232,943.892H574.717V862.233l9.757-13.925,9.758,13.925Z" transform="translate(-546.639 -848.309)" fill="#e6d0be"/><path d="M395.8,943.892H376.283V862.233l9.758-13.925,9.757,13.925Z" transform="translate(-376.283 -848.309)" fill="#e6d0be"/><path d="M991.1,943.892H971.584V862.233l9.758-13.925,9.757,13.925Z" transform="translate(-887.35 -848.309)" fill="#e6d0be"/><path d="M1189.533,943.892h-19.515V862.233l9.758-13.925,9.757,13.925Z" transform="translate(-1057.706 -848.309)" fill="#e6d0be"/><path d="M1387.967,943.892h-19.515V862.233l9.757-13.925,9.758,13.925Z" transform="translate(-1228.061 -848.309)" fill="#e6d0be"/><path d="M1586.4,943.892h-19.515V862.233l9.757-13.925,9.757,13.925Z" transform="translate(-1398.417 -848.309)" fill="#e6d0be"/><path d="M1784.834,943.892h-19.515V862.233l9.757-13.925,9.758,13.925Z" transform="translate(-1568.772 -848.309)" fill="#e6d0be"/><path d="M1983.268,943.892h-19.515V862.233l9.757-13.925,9.758,13.925Z" transform="translate(-1739.128 -848.309)" fill="#e6d0be"/><rect width="220.762" height="7.485" transform="translate(12.849 28.895)" fill="#e6d0be"/><rect width="220.762" height="7.485" transform="translate(12.849 74.151)" fill="#e6d0be"/></g><g transform="translate(336.245 384.922)"><path d="M606.339,1663.029l16.354-58.347,75.887,1.731,16.238,56.877H666.651l-5.471-9.315-4.98,9.315Z" transform="translate(-569.17 -1474.895)" fill="#84524d"/><g transform="translate(0 17.063)"><path d="M347.27,1044.87c-17.165-25.044,29.587-58,83.614-58,40.606,0,94.049,31.462,87.612,55.848-5.895,22.332-41.585,14.7-41.585,14.7l-1.535,24.22-56.465-.855-3.753-1.962-2.9,1.862-17.411-.264-8.213-34.135-14.08,1.532S356.08,1057.724,347.27,1044.87Z" transform="translate(-343.661 -961.565)" fill="#fff"/><path d="M866.887,1009.9a.139.139,0,0,1-.069-.018.141.141,0,0,1-.072-.119l-.619-19.044a.141.141,0,0,1,.137-.146.145.145,0,0,1,.146.137l.611,18.81,12.717-7.2a.142.142,0,0,1,.133,0l12.562,6.225.37-17.285a.14.14,0,0,1,.145-.138.142.142,0,0,1,.139.144l-.375,17.507a.142.142,0,0,1-.2.124l-12.694-6.291-12.855,7.276A.139.139,0,0,1,866.887,1009.9Z" transform="translate(-792.198 -964.748)" fill="#363e44"/><path d="M1075.743,1108.109l6.653-.1,13.37-88.449-6.276-2.07Z" transform="translate(-972.154 -987.853)" fill="#363e44"/><path d="M740.359,1096.554l-6.653-.1-15.615-90.1,6.442-1.117Z" transform="translate(-665.11 -977.337)" fill="#363e44"/><path d="M362.069,1234.787l-.021,0a.141.141,0,0,1-.119-.161c1.215-8.1,6.365-14.8,11.98-15.6a12.059,12.059,0,0,1,8.077,1.828.142.142,0,0,1-.154.238,11.766,11.766,0,0,0-7.883-1.786c-5.5.78-10.543,7.385-11.74,15.364A.142.142,0,0,1,362.069,1234.787Z" transform="translate(-359.343 -1160.773)" fill="#363e44"/><g transform="translate(145.862)"><path d="M1525.543,830.956c2.139-6.675,1.5-9.536.428-9.842-1.8-.513-5.957,4.438-10.313,13.8C1518.511,834.058,1522.69,831.812,1525.543,830.956Z" transform="translate(-1495.684 -819.233)" fill="#e2a18d"/><path d="M1374.686,874.972s0,0,0,0c10.115-25.76,16.8-44.231,19.084-49.852a11.168,11.168,0,0,1,1.547-2.784c3.3-4.28,7.784-3.269,13.3-6.188,6.263-3.312,7.914-8.723,9.591-8.044,1.167.472,1.118,2.688-.619,6.8h0c1.679-2.976,4.132-6.913,5.774-5.98,1.839,1.178-.5,6.142-2.063,9.076,1.891-3.551,3.958-4.873,4.744-4.125,1.237,1.178.412,4.273-2.268,8.868h0c2.737-2.656,3.8-2.893,4.331-2.062.974,1.517-1.3,5.254-3.818,8.249a22.589,22.589,0,0,1-8.35,5.983h0c-5.213,18.777-12.392,45.64-12.392,45.64C1401.135,883.578,1380.273,883.234,1374.686,874.972Z" transform="translate(-1374.658 -808.043)" fill="#e2a18d"/><path d="M1539.65,879.444a.142.142,0,0,1-.068-.266,19.847,19.847,0,0,1,4.463-1.575c.747-.2,1.52-.407,2.32-.659a.141.141,0,0,1,.085.27c-.805.254-1.581.461-2.331.662a19.636,19.636,0,0,0-4.4,1.55A.14.14,0,0,1,1539.65,879.444Z" transform="translate(-1516.159 -867.19)" fill="#363e44"/><path d="M1647.952,856.528a.141.141,0,0,1-.071-.264,13.7,13.7,0,0,0,4.49-4.207.142.142,0,0,1,.235.158,13.98,13.98,0,0,1-4.582,4.294A.141.141,0,0,1,1647.952,856.528Z" transform="translate(-1609.136 -845.776)" fill="#363e44"/><path d="M1675.8,875.093a.142.142,0,0,1-.071-.264,13.7,13.7,0,0,0,4.49-4.207.142.142,0,1,1,.235.158,13.981,13.981,0,0,1-4.582,4.294A.141.141,0,0,1,1675.8,875.093Z" transform="translate(-1633.043 -861.713)" fill="#363e44"/><path d="M1692.507,912.222a.142.142,0,0,1-.071-.264,13.693,13.693,0,0,0,4.49-4.207.142.142,0,0,1,.235.158,13.982,13.982,0,0,1-4.582,4.294A.141.141,0,0,1,1692.507,912.222Z" transform="translate(-1647.387 -893.589)" fill="#363e44"/><path d="M1591.309,934.438a.141.141,0,0,1-.135-.184,9.143,9.143,0,0,1,2.956-4.346,9.4,9.4,0,0,1,6.344-2,.142.142,0,0,1,.133.149.14.14,0,0,1-.15.133,9.115,9.115,0,0,0-6.15,1.937,8.859,8.859,0,0,0-2.864,4.212A.142.142,0,0,1,1591.309,934.438Z" transform="translate(-1560.509 -910.935)" fill="#363e44"/><path d="M1374.636,1173.123a.14.14,0,0,1-.052-.01.141.141,0,0,1-.08-.183c2.23-5.681,4.427-11.348,6.717-17.326a.142.142,0,0,1,.264.1c-2.291,5.978-4.489,11.646-6.718,17.328A.141.141,0,0,1,1374.636,1173.123Z" transform="translate(-1374.495 -1106.346)" fill="#363e44"/></g></g><g transform="translate(8.451 54.041)"><g transform="translate(142.342 22.28)"><path d="M1448.1,1328.261a19.318,19.318,0,0,1-17.247-27.988,15.841,15.841,0,0,1-12.5-27.775,15.837,15.837,0,1,1,15.37-27.625,19.892,19.892,0,1,1,30.89,18.37,33.815,33.815,0,0,1,3.094,6.193,31.318,31.318,0,0,1,1.827,15.923,20.463,20.463,0,0,1-5.989,11.979,19.332,19.332,0,0,1-15.449,30.923Zm-17-28.312a.141.141,0,0,1,.125.207,19.027,19.027,0,1,0,32.015-2.75.142.142,0,0,1,.018-.191c6.441-5.789,8.162-17.171,4.183-27.678a33.474,33.474,0,0,0-3.143-6.257.142.142,0,0,1,.041-.195,19.608,19.608,0,1,0-30.357-17.953.141.141,0,0,1-.219.106,15.554,15.554,0,1,0-15.092,27.1.141.141,0,0,1,.03.238,15.558,15.558,0,0,0,12.375,27.377Z" transform="translate(-1409.351 -1226.834)" fill="#8b865c"/><path d="M1655.234,1436.021a.141.141,0,0,1-.137-.107,147.228,147.228,0,0,1,.87-74.624.142.142,0,0,1,.273.075,146.942,146.942,0,0,0-.869,74.481.141.141,0,0,1-.1.171A.139.139,0,0,1,1655.234,1436.021Z" transform="translate(-1616.563 -1342.175)" fill="#8b865c"/><path d="M1665.792,1365.715a.141.141,0,0,1-.082-.257,111.076,111.076,0,0,0,11.657-9.463c1.982-1.846,4.2-4.118,6.587-6.754a.141.141,0,1,1,.209.19c-2.394,2.642-4.615,4.92-6.6,6.772a111.417,111.417,0,0,1-11.686,9.487A.141.141,0,0,1,1665.792,1365.715Z" transform="translate(-1629.384 -1331.881)" fill="#8b865c"/></g><g transform="translate(53.031 22.771)"><path d="M835.475,1332a21.2,21.2,0,0,1-20.785-25.149,22.452,22.452,0,0,1-11.714-8.9,34.38,34.38,0,0,1-5.919-16.569,37.114,37.114,0,0,1,.047-7.613,21.831,21.831,0,1,1,21.514-33.042,17.378,17.378,0,1,1,28.516,19.748,17.382,17.382,0,0,1,1.15,33.414,21.192,21.192,0,0,1-10.751,38.009Q836.5,1332,835.475,1332Zm-56.925-77.811a21.686,21.686,0,0,0,18.728,19.321.141.141,0,0,1,.123.156,36.789,36.789,0,0,0-.063,7.692c1.176,12.288,8.394,22.674,17.554,25.256a.142.142,0,0,1,.1.163,20.912,20.912,0,1,0,32.9-12.823.141.141,0,0,1,.043-.249,17.1,17.1,0,0,0-1.083-33,.142.142,0,0,1-.077-.227,17.095,17.095,0,1,0-28.034-19.4.141.141,0,0,1-.121.07h0a.142.142,0,0,1-.122-.069,21.55,21.55,0,0,0-39.948,13.11Z" transform="translate(-778.168 -1230.304)" fill="#8b865c"/><path d="M976.84,1419.472a.141.141,0,0,1-.138-.112,161.385,161.385,0,0,0-36.976-72.972.141.141,0,1,1,.212-.188,161.667,161.667,0,0,1,37.041,73.1.142.142,0,0,1-.108.168A.132.132,0,0,1,976.84,1419.472Z" transform="translate(-916.834 -1329.76)" fill="#9e9569"/><path d="M943.711,1622a.141.141,0,0,1-.041-.006,122.321,122.321,0,0,1-15.455-5.86,161.5,161.5,0,0,1-20.526-11.755.142.142,0,1,1,.159-.234,161.191,161.191,0,0,0,20.485,11.731,122.009,122.009,0,0,0,15.419,5.847.142.142,0,0,1-.041.277Z" transform="translate(-889.309 -1551.226)" fill="#9e9569"/></g><g transform="translate(158.245 0)"><ellipse cx="72.668" cy="17.455" rx="72.668" ry="17.455" transform="translate(0 129.31) rotate(-62.839)" fill="#efbc73"/><path d="M1621.107,1253.06a2.427,2.427,0,0,1-1.124-.256c-2.978-1.528-2.289-9.717,1.943-23.058,4.21-13.274,11.41-30.1,20.275-47.376s18.332-32.939,26.659-44.1c8.369-11.218,14.619-16.554,17.6-15.026s2.289,9.717-1.943,23.058c-4.21,13.274-11.411,30.1-20.275,47.377l-.126-.065.126.065c-8.864,17.277-18.332,32.938-26.659,44.1C1630.15,1247.736,1624.391,1253.06,1621.107,1253.06Zm64.22-129.793c-3.146,0-8.944,5.39-16.24,15.17-8.318,11.15-17.777,26.8-26.635,44.061s-16.051,34.073-20.257,47.333c-4.124,13-4.884,21.284-2.083,22.72s9.084-4.01,17.241-14.944c8.318-11.15,17.777-26.8,26.634-44.061s16.051-34.073,20.257-47.333c4.124-13,4.883-21.284,2.083-22.72A2.162,2.162,0,0,0,1685.327,1123.267Z" transform="translate(-1604.517 -1115.4)" fill="#fff"/><path d="M1627.01,1253.828a.987.987,0,0,1-.458-.1c-2.365-1.213,1.391-12.373,4.958-21.521,5.014-12.859,12.657-29.454,21.519-46.728s17.886-33.161,25.406-44.734c5.351-8.233,12.226-17.792,14.59-16.579s-1.39,12.373-4.958,21.521c-5.014,12.859-12.656,29.454-21.519,46.728l-.126-.064.126.064c-8.863,17.274-17.886,33.161-25.407,44.734C1636.1,1244.9,1629.713,1253.828,1627.01,1253.828Zm65.545-129.491c-.708,0-2.067.776-4.675,3.8a123.881,123.881,0,0,0-9.206,12.759c-7.516,11.565-16.534,27.442-25.392,44.708s-16.5,33.851-21.507,46.7a123.859,123.859,0,0,0-4.995,14.92c-1.114,4.633-.668,5.954-.1,6.247s1.9-.115,5.018-3.723a124.01,124.01,0,0,0,9.206-12.759c7.516-11.565,16.534-27.443,25.392-44.708s16.5-33.852,21.507-46.7a124.017,124.017,0,0,0,4.995-14.92c1.114-4.633.668-5.954.1-6.247A.738.738,0,0,0,1692.555,1124.337Z" transform="translate(-1611.086 -1116.32)" fill="#fff"/><path d="M1630.316,1254.209a.209.209,0,0,1-.1-.03c-.273-.14-1-.511,8.158-19.89,5.867-12.418,13.978-28.768,22.839-46.04s17.412-33.4,24.078-45.4c10.4-18.742,11.126-18.367,11.4-18.228s1,.512-8.158,19.89c-5.867,12.418-13.978,28.768-22.839,46.04s-17.412,33.4-24.078,45.4C1632.23,1252.857,1630.722,1254.209,1630.316,1254.209Zm66.234-129.323c-.349.151-2.147,2.1-11.281,18.579-6.624,11.953-15.078,27.9-23.805,44.913s-16.753,33.181-22.6,45.532c-8.062,17.033-8.593,19.628-8.512,20,.349-.151,2.147-2.1,11.281-18.579,6.624-11.953,15.078-27.9,23.806-44.914l.126.065-.126-.065c8.727-17.01,16.753-33.18,22.6-45.532C1696.1,1127.853,1696.631,1125.259,1696.55,1124.887Z" transform="translate(-1614.748 -1116.776)" fill="#fff"/><path d="M2041.776,1152.319h-.019a23.116,23.116,0,0,1-13.631-6.919.142.142,0,0,1,.2-.2,22.835,22.835,0,0,0,13.465,6.834.142.142,0,0,1-.019.282Z" transform="translate(-1956.439 -1134.436)" fill="#fff"/><path d="M2019.027,1179.659h-.019a27.749,27.749,0,0,1-16.362-8.305.142.142,0,0,1,.2-.2,27.467,27.467,0,0,0,16.2,8.221.142.142,0,0,1-.019.282Z" transform="translate(-1934.564 -1156.717)" fill="#fff"/><path d="M1995.15,1211.445h-.017a30.348,30.348,0,0,1-18.873-9.574.142.142,0,0,1,.208-.192,30.063,30.063,0,0,0,18.7,9.485.142.142,0,0,1-.016.282Z" transform="translate(-1911.914 -1182.919)" fill="#fff"/><path d="M1967.326,1246.667h-.017a35.26,35.26,0,0,1-21.928-11.123.141.141,0,1,1,.208-.192,34.98,34.98,0,0,0,21.753,11.034.141.141,0,0,1-.016.282Z" transform="translate(-1885.404 -1211.826)" fill="#fff"/><path d="M1945.673,1288.869h-.017a35.262,35.262,0,0,1-21.928-11.123.142.142,0,0,1,.208-.192,34.978,34.978,0,0,0,21.753,11.034.142.142,0,0,1-.016.282Z" transform="translate(-1866.816 -1248.057)" fill="#fff"/><path d="M1924.021,1331.071H1924a35.26,35.26,0,0,1-21.927-11.123.141.141,0,1,1,.208-.192,34.977,34.977,0,0,0,21.753,11.034.142.142,0,0,1-.016.282Z" transform="translate(-1848.228 -1284.287)" fill="#fff"/><path d="M1902.369,1373.272h-.017a35.26,35.26,0,0,1-21.927-11.123.141.141,0,1,1,.208-.192,34.979,34.979,0,0,0,21.753,11.034.141.141,0,0,1-.016.282Z" transform="translate(-1829.639 -1320.517)" fill="#fff"/><path d="M1880.716,1415.474h-.017a35.262,35.262,0,0,1-21.928-11.123.141.141,0,0,1,.208-.192,34.976,34.976,0,0,0,21.753,11.034.142.142,0,0,1-.016.282Z" transform="translate(-1811.05 -1356.747)" fill="#fff"/><path d="M1859.064,1457.676h-.017a35.261,35.261,0,0,1-21.927-11.123.141.141,0,1,1,.208-.192,34.975,34.975,0,0,0,21.753,11.034.142.142,0,0,1-.016.282Z" transform="translate(-1792.462 -1392.978)" fill="#fff"/><path d="M1837.412,1499.878h-.016a35.263,35.263,0,0,1-21.928-11.123.141.141,0,0,1,.208-.192,34.977,34.977,0,0,0,21.753,11.034.142.142,0,0,1-.016.282Z" transform="translate(-1773.873 -1429.208)" fill="#fff"/><path d="M1815.759,1542.079h-.017a35.26,35.26,0,0,1-21.927-11.123.142.142,0,1,1,.208-.192,34.975,34.975,0,0,0,21.752,11.034.141.141,0,0,1-.016.282Z" transform="translate(-1755.285 -1465.438)" fill="#fff"/><path d="M1773.006,1573.455h-.016a35.264,35.264,0,0,1-21.928-11.123.141.141,0,1,1,.208-.192,34.976,34.976,0,0,0,21.753,11.034.142.142,0,0,1-.016.282Z" transform="translate(-1718.581 -1492.374)" fill="#fff"/><path d="M1751.354,1615.657h-.016a35.261,35.261,0,0,1-21.927-11.123.141.141,0,1,1,.207-.193,34.977,34.977,0,0,0,21.753,11.034.142.142,0,0,1-.016.282Z" transform="translate(-1699.992 -1528.604)" fill="#fff"/><path d="M1729.7,1657.858h-.016a35.263,35.263,0,0,1-21.927-11.123.141.141,0,1,1,.208-.192,34.98,34.98,0,0,0,21.753,11.034.142.142,0,0,1-.017.282Z" transform="translate(-1681.404 -1564.834)" fill="#fff"/><path d="M1708.049,1700.06h-.016a35.262,35.262,0,0,1-21.928-11.123.141.141,0,0,1,.208-.192,34.978,34.978,0,0,0,21.753,11.034.142.142,0,0,1-.016.282Z" transform="translate(-1662.815 -1601.065)" fill="#fff"/><path d="M1662.435,1110.389a189.852,189.852,0,0,0-24.844,23.994c-11.08,12.857-34.209,40.413-39.031,81.1-1.5,12.638-1.557,29.306,1.4,29.841,4.461.807,11.1-35.919,31.69-80.446A386.691,386.691,0,0,1,1662.435,1110.389Z" transform="translate(-1586.823 -1104.586)" fill="#a8a073"/><path d="M1678.723,1276.065c22.868-36.172,25.027-80.712,25.027-80.712a222.347,222.347,0,0,0-23.964,31.859c-21.569,35.408-44.074,84.2-37.848,87.978C1646.537,1317.982,1666.214,1295.852,1678.723,1276.065Z" transform="translate(-1624.025 -1177.527)" fill="#a8a073"/><path d="M1695.37,1153.958a189.834,189.834,0,0,1-5,34.175c-3.982,16.5-12.876,51.358-43.116,79.008-9.392,8.587-22.9,18.357-25.057,16.266-3.257-3.153,22.705-29.963,46.865-72.661A386.614,386.614,0,0,0,1695.37,1153.958Z" transform="translate(-1607.743 -1141.99)" fill="#8b865c"/></g><g transform="translate(12.582 50.545)"><path d="M535.569,1623.737c10.795.669,22.85-9.4,15.37-23.6-3.97-7.534-13.218-12.831-21.075-24.318-15.831-23.144-15.162-40.63-22.609-40.812-6.241-.152-11.626,12.207-13.546,19.474-5.459,20.659,6.45,40.317,11.235,47.486C506.981,1605.022,518.627,1622.687,535.569,1623.737Z" transform="translate(-492.306 -1519.668)" fill="#363e44"/><path d="M542.978,1540.135c-1.4-5.811-3.831-10.315-8.1-10.618-4.945-.35-7.645,4.744-9.594,11.33,1.468-1.938,3.9-3.258,5.574-2.888a4.56,4.56,0,0,1,3.3,4.146,5.366,5.366,0,0,1,4.764-4.325C541.38,1537.644,542.806,1539.923,542.978,1540.135Z" transform="translate(-520.613 -1514.939)" fill="#8b865c"/><path d="M593.14,1445.352a.141.141,0,0,1-.141-.13,21.724,21.724,0,0,1,7.824-18.6.142.142,0,0,1,.181.218,21.441,21.441,0,0,0-7.723,18.358.142.142,0,0,1-.129.153Z" transform="translate(-578.688 -1426.59)" fill="#8b865c"/><path d="M647.046,1667.381c1.188-.31,2.73,12.04,12.764,26.391,9.252,13.232,19.108,18.7,18.417,19.65-.786,1.075-14.807-4.24-23.58-16.8C645.476,1683.494,645.726,1667.725,647.046,1667.381Z" transform="translate(-624.571 -1633.305)" fill="#40484c"/></g><g transform="translate(96.482 37.393)"><path d="M1163.829,1534.655a51.126,51.126,0,0,1,16.825,17.647c6.663,11.664,4.2,36.874,4,41.585,6.132-.367,16.954-7.537,23.087-7.9-1.223-4.632-4.814-20.446-2.475-30.538,4.021-17.35,16.619-26.8,20.172-29.284-2.13-1.627-16.834-12.472-36.069-8.227A44.245,44.245,0,0,0,1163.829,1534.655Z" transform="translate(-1152.71 -1491.018)" fill="#776e42"/><path d="M1162.466,1375.753a12.468,12.468,0,0,0-20.182-9.044c0-.172.005-.344-.005-.518a6.326,6.326,0,0,0-9.92-4.829,14.972,14.972,0,0,0-29.841,2.4c.008.128.021.255.032.381a8.259,8.259,0,0,0-5.289,7.283c-.273,0-.546-.009-.823.008a11.9,11.9,0,1,0,8.354,20.987,10.73,10.73,0,0,0,17.514,3.637,9.782,9.782,0,0,0,18.95.237,9.951,9.951,0,0,0,12.454-7.892A12.472,12.472,0,0,0,1162.466,1375.753Z" transform="translate(-1085.247 -1345.877)" fill="#9e9569"/><path d="M1144.806,1389.557a9.913,9.913,0,0,1-9.575-7.344,10.871,10.871,0,0,1-17.5-3.676,12.033,12.033,0,0,1-19.607-8.619c-.2-3.266.627-5.884,2.445-7.781a11.362,11.362,0,0,1,7.714-3.092c.189-.011,1.371.013,2.566.04l.547.012c.191-3.175,1.47-7.213,4.475-8.463-.052-.1-.14-.258-.205-.374a2.132,2.132,0,0,1-.292-.6,15.113,15.113,0,0,1,30.1-2.655,6.471,6.471,0,0,1,9.945,5.068c0,.08.007.159.008.236a12.612,12.612,0,1,1,11.408,22.093,10.092,10.092,0,0,1-12.48,7.955,9.918,9.918,0,0,1-8.951,7.188Q1145.1,1389.557,1144.806,1389.557Zm-9.5-7.757a.155.155,0,0,1,.039.005.141.141,0,0,1,.1.1,9.64,9.64,0,0,0,18.676.233.142.142,0,0,1,.174-.1,9.81,9.81,0,0,0,12.278-7.78.142.142,0,0,1,.1-.111,12.3,12.3,0,0,0,8.655-12.506h0a12.327,12.327,0,0,0-19.953-8.941.142.142,0,0,1-.229-.114c0-.153.006-.331,0-.507a6.184,6.184,0,0,0-9.7-4.721.142.142,0,0,1-.221-.1,14.83,14.83,0,0,0-29.559,2.377,5.323,5.323,0,0,0,.256.483,2.159,2.159,0,0,1,.282.58.142.142,0,0,1-.09.144c-2.823,1.08-4.261,5-4.433,8.4a.137.137,0,0,1-.143.134l-.686-.014c-.878-.019-2.348-.052-2.543-.04a11.089,11.089,0,0,0-7.527,3c-1.761,1.838-2.557,4.384-2.366,7.569a11.744,11.744,0,0,0,19.292,8.3.141.141,0,0,1,.222.056,10.589,10.589,0,0,0,17.283,3.589A.141.141,0,0,1,1135.308,1381.8Z" transform="translate(-1096.282 -1333.637)" fill="#8b865c"/><path d="M1273.55,1688.777c-.378,0-.656-.748-1.281-2.432a57.627,57.627,0,0,0-2.977-6.889,46.64,46.64,0,0,0-6.033-8.883.141.141,0,1,1,.214-.185,46.912,46.912,0,0,1,6.071,8.937,57.86,57.86,0,0,1,2.991,6.921,7.222,7.222,0,0,0,1.021,2.247c.005,0,.027-.015.055-.061.46-.748.316-5.024-.818-9.172a28.817,28.817,0,0,0-3.792-8.315.142.142,0,1,1,.236-.156,29.11,29.11,0,0,1,3.829,8.4c1.088,3.979,1.341,8.492.786,9.395a.376.376,0,0,1-.24.19A.311.311,0,0,1,1273.55,1688.777Z" transform="translate(-1238.041 -1622.696)" fill="#9e9569"/><path d="M1392.6,1691.471l-.035,0c-1-.093-1.3-4.338-1.049-7.106a20.9,20.9,0,0,1,2.722-8.51.141.141,0,0,1,.246.14,20.618,20.618,0,0,0-2.686,8.4c-.318,3.553.27,6.75.793,6.8.327.031.768-1.4,1.2-2.782.273-.883.584-1.883.965-2.916a37.267,37.267,0,0,1,7.749-12.306.142.142,0,1,1,.208.192,36.987,36.987,0,0,0-7.692,12.212c-.379,1.027-.688,2.023-.961,2.9C1393.485,1690.339,1393.134,1691.471,1392.6,1691.471Z" transform="translate(-1348.109 -1625.098)" fill="#9e9569"/><path d="M1257.407,1570.788a.142.142,0,0,1-.14-.119,10.366,10.366,0,0,1,17.72-8.817.142.142,0,0,1-.2.2,10.081,10.081,0,0,0-17.236,8.575.142.142,0,0,1-.117.162Z" transform="translate(-1232.813 -1526.816)" fill="#8b865c"/><g transform="translate(35.541 24.096)"><path d="M1336.565,1511.879a.143.143,0,0,1-.031,0,.141.141,0,0,1-.107-.169,10.441,10.441,0,0,1,.7-2.062,10.329,10.329,0,0,1,6.821-5.712.141.141,0,1,1,.071.274,10.1,10.1,0,0,0-7.312,7.562A.141.141,0,0,1,1336.565,1511.879Z" transform="translate(-1336.424 -1503.929)" fill="#8b865c"/></g><path d="M1215.109,1500.727a.141.141,0,0,1-.126-.077,8.7,8.7,0,0,1,12.627-11.178.142.142,0,0,1-.16.234,8.414,8.414,0,0,0-12.216,10.814.142.142,0,0,1-.06.191A.144.144,0,0,1,1215.109,1500.727Z" transform="translate(-1195.8 -1466.133)" fill="#8b865c"/><path d="M1449.482,1549.515a.142.142,0,0,1-.131-.2,7.985,7.985,0,0,0-11.656-9.833.142.142,0,0,1-.152-.239,8.27,8.27,0,0,1,12.069,10.181A.142.142,0,0,1,1449.482,1549.515Z" transform="translate(-1387.638 -1509.037)" fill="#8b865c"/><g transform="translate(3.966 35.821)"><path d="M1113.417,1589.022a.142.142,0,0,1-.1-.243,7.058,7.058,0,0,1,1.237-.957,7.24,7.24,0,0,1,6.447-.5.142.142,0,0,1-.1.264,6.958,6.958,0,0,0-6.2.479,6.743,6.743,0,0,0-1.187.918A.142.142,0,0,1,1113.417,1589.022Z" transform="translate(-1113.275 -1586.793)" fill="#8b865c"/></g></g><g transform="translate(139.761 85.161)"><path d="M1576.906,2095.918l-1,2.6,1.182-.742.727,1.026.981-1.192,1.222,1.292.656-1.317,1.874,1.542-1.184-4.116Z" transform="translate(-1549.757 -2035.049)" fill="#363e44"/><path d="M1449.448,1752.416c0,16.457-11.4,29.906-28.978,29.906s-29.363-13.3-29.363-29.76c0-14.147,8.424-22.641,21.371-23.08,2.255-.076,5.957,1.315,8.423,1.315,2.871,0,6.991-1.46,9.515-1.315C1443.053,1730.212,1449.448,1738.647,1449.448,1752.416Z" transform="translate(-1391.108 -1721.229)" fill="#efbc73"/><path d="M1601.051,1683.362a.142.142,0,0,1-.136-.1c-.927-3.2.1-7.119,3.136-11.97a.142.142,0,0,1,.24.15c-2.992,4.778-4.007,8.619-3.1,11.741a.142.142,0,0,1-.136.181Z" transform="translate(-1570.944 -1671.223)" fill="#363e44"/></g><g transform="translate(50.613 60.468)"><path d="M824.331,1587.546c14.451-11.892,5.653-37.074-.379-44.826-11.148-14.33-20.595-12.563-27.956-18.211-4.348-3.336-20.965-25.109-31.267-20.737-8.8,3.735.916,26.915,2.218,33.424,1.722,8.612-3.755,23.494,3.928,39.426C778.411,1592.243,806.651,1602.1,824.331,1587.546Z" transform="translate(-761.08 -1502.278)" fill="#8b865c"/><path d="M860.061,1579.239c14.451-11.892,11.164-31.011,5.133-38.764-11.148-14.33-20.595-12.563-27.956-18.211-4.348-3.336-28.464-28.422-38.765-24.05-8.8,3.735,8.415,30.228,9.717,36.737,1.722,8.612-3.024,17.352,2.179,30.07C816.934,1581.074,842.381,1593.788,860.061,1579.239Z" transform="translate(-791.04 -1497.564)" fill="#efbc73"/><path d="M861.28,1584.914a32.224,32.224,0,0,1-7.884-1c-10.7-2.7-20.386-10.608-24.1-19.682-3.211-7.85-2.642-14.255-2.14-19.905.315-3.545.613-6.893-.047-10.191-.379-1.9-2.151-5.565-4.2-9.811-4.242-8.782-9.521-19.711-7.614-24.78a3.89,3.89,0,0,1,2.183-2.3c8.552-3.629,26.351,12.678,34.9,20.516,1.807,1.655,3.233,2.962,4,3.552a31.554,31.554,0,0,0,8.364,4.163c5.772,2.2,12.314,4.684,19.618,14.074,2.654,3.412,5.4,9.912,5.144,17.921a28.22,28.22,0,0,1-28.231,27.452Zm-41.018-87.919a6.784,6.784,0,0,0-2.673.5,3.617,3.617,0,0,0-2.029,2.143c-1.864,4.956,3.608,16.285,7.6,24.557,2.059,4.264,3.838,7.946,4.224,9.879.667,3.338.368,6.705.051,10.271-.5,5.619-1.065,11.987,2.12,19.773,3.679,9,13.286,16.838,23.905,19.515,9.411,2.373,18.49.472,25.567-5.353l.09.109-.09-.109a27.433,27.433,0,0,0,10.2-20.829c.208-6.537-1.787-13.5-5.085-17.738-7.256-9.327-13.758-11.8-19.5-13.983a31.759,31.759,0,0,1-8.435-4.2c-.779-.6-2.21-1.909-4.021-3.568C844.5,1510.917,829.308,1496.994,820.262,1496.994Z" transform="translate(-807.28 -1496.717)" fill="#8b865c"/><path d="M1013.409,1717.447c6.2-4.285,5.519-18.028-.55-26.38-7.753-10.669-25.174-13.741-30.425-7.63-4.46,5.19.182,16.621,5.176,23.016C994,1714.635,1006.784,1722.024,1013.409,1717.447Z" transform="translate(-949.569 -1654.346)" fill="#b77250"/></g><g transform="translate(110.001 99.162)"><path d="M1681.869,1795.229q32.95-27.176,35.149-24.878,1.305,1.362-8.212,13.1,20.319-4.7,21.013-2.681.82,2.393-25.848,14.2c12.134-.646,17.55,1.254,17.573,2.113.034,1.278-11.974,4.547-38.67,4.859Z" transform="translate(-1610.967 -1770.171)" fill="#776e42"/><path d="M1237.657,1891.74c-7.619,1.746-58.571,19.927-56.825,27.546s55.53,1.791,63.149.044a14.153,14.153,0,1,0-6.324-27.59Z" transform="translate(-1180.789 -1874.229)" fill="#b77250"/><path d="M1605.091,2047.122a.142.142,0,0,1-.138-.112l-1.529-7.181a.142.142,0,0,1,.277-.059l1.529,7.181a.142.142,0,0,1-.109.168Z" transform="translate(-1543.619 -2001.526)" fill="#363e44"/><path d="M1543.875,1946.621a.142.142,0,0,1-.139-.112l-1.529-7.181a.142.142,0,0,1,.277-.059l1.529,7.181a.142.142,0,0,1-.109.168Z" transform="translate(-1491.065 -1915.246)" fill="#363e44"/><path d="M1451.689,2044.108a.142.142,0,0,1-.138-.112l-1.529-7.181a.141.141,0,0,1,.277-.059l1.529,7.181a.142.142,0,0,1-.109.168A.136.136,0,0,1,1451.689,2044.108Z" transform="translate(-1411.923 -1998.939)" fill="#363e44"/><path d="M1326.244,1996.508a.142.142,0,0,1-.138-.112l-1.529-7.181a.142.142,0,1,1,.277-.059l1.529,7.181a.141.141,0,0,1-.109.168A.127.127,0,0,1,1326.244,1996.508Z" transform="translate(-1304.228 -1958.074)" fill="#363e44"/></g><g transform="translate(104.486 114.717)"><path d="M1658.411,1898.977q37.068-21.218,38.847-18.582,1.057,1.562-10.307,11.521,20.821-1.2,21.163.908.4,2.5-27.876,9.631c12.069,1.414,17.086,4.2,16.963,5.052-.182,1.265-12.57,2.459-38.935-1.745Z" transform="translate(-1585.189 -1880.104)" fill="#8b865c"/><path d="M1202.477,1944.034c-7.8.434-61.1,9.745-60.662,17.549s54.429,11.147,62.234,10.713a14.153,14.153,0,0,0-1.572-28.261Z" transform="translate(-1141.812 -1934.969)" fill="#d87355"/><path d="M1566.6,2099.078a.141.141,0,0,1-.141-.136l-.293-7.335a.141.141,0,1,1,.283-.011l.294,7.336a.141.141,0,0,1-.136.147Z" transform="translate(-1506.122 -2061.553)" fill="#363e44"/><path d="M1523.248,1989.678a.142.142,0,0,1-.141-.136l-.293-7.336a.141.141,0,1,1,.282-.011l.294,7.336a.142.142,0,0,1-.136.147Z" transform="translate(-1468.902 -1967.633)" fill="#363e44"/><path d="M1415.915,2070.19a.142.142,0,0,1-.141-.136l-.294-7.336a.141.141,0,0,1,.136-.146.143.143,0,0,1,.147.135l.293,7.336a.142.142,0,0,1-.136.147Z" transform="translate(-1376.756 -2036.753)" fill="#363e44"/><path d="M1300.316,2002.079a.142.142,0,0,1-.141-.136l-.293-7.336a.141.141,0,1,1,.283-.011l.293,7.336a.141.141,0,0,1-.135.147Z" transform="translate(-1277.515 -1978.279)" fill="#363e44"/></g><g transform="translate(0 25.178)"><path d="M418.729,1247.313c10.857,5,31.223,12.926,33.735,14.053,4.7,2.106,29.6,14.061,28.266,17.842-.638,1.807-5.54-.28-7.177-1.033,1.022,1.26,5.47,5.675,4.254,7.446-1.429,2.08-7.535-2.369-7.674-2.379,1.168,1.175,6.008,5.665,5.148,7.028-1.119,1.773-6.875-1.054-8.559-1.98.05.327,4.751,5.034,4.021,6.09-.809,1.171-6.239-1.337-8.482-2.13-4.173-1.868-20.782-8.255-29-10.975-19.295-6.386-29.341-11.531-29.341-11.531S399.053,1248.217,418.729,1247.313Z" transform="translate(-403.389 -1247.313)" fill="#e2a18d"/><path d="M853.64,1433.82a.141.141,0,0,1-.1-.04,23.365,23.365,0,0,0-7.489-4.888.141.141,0,0,1,.107-.262,23.629,23.629,0,0,1,7.579,4.947.141.141,0,0,1-.1.243Z" transform="translate(-783.341 -1402.965)" fill="#363e44"/><path d="M841.206,1480.271a.141.141,0,0,1-.087-.029c-.178-.14-.362-.279-.547-.414a23.5,23.5,0,0,0-5.034-2.811.141.141,0,0,1,.107-.262,23.787,23.787,0,0,1,5.094,2.845c.187.137.373.278.554.419a.141.141,0,0,1-.087.253Z" transform="translate(-774.315 -1444.28)" fill="#363e44"/><path d="M828.865,1525.08a.14.14,0,0,1-.074-.021,23.65,23.65,0,0,0-3.377-1.7.141.141,0,0,1,.107-.262,23.935,23.935,0,0,1,3.417,1.722.141.141,0,0,1-.074.262Z" transform="translate(-765.623 -1484.063)" fill="#363e44"/><path d="M794.449,1365.982c7.559-1.272,13.122-2.229,13.652-1.15.42.856-.327,3.2-6.5,5.713Z" transform="translate(-739.115 -1347.802)" fill="#e2a18d"/><path d="M827.674,1384.355a.138.138,0,0,1-.068-.018c-1.57-.866-3.274-1.774-5.065-2.7a.142.142,0,0,1,.13-.252c1.793.926,3.5,1.835,5.072,2.7a.141.141,0,0,1-.069.265Z" transform="translate(-763.166 -1362.402)" fill="#363e44"/></g></g><g transform="translate(47.67 0)"><ellipse cx="39.19" cy="6.183" rx="39.19" ry="6.183" transform="translate(0 21.654) rotate(-12.415)" fill="#e0aa63"/><g transform="translate(24.136 7.908)"><ellipse cx="3.351" cy="3.937" rx="3.351" ry="3.937" transform="translate(0.45 19.49) rotate(-46.532)" fill="#e2a18d"/><path d="M876.887,871.23A2.8,2.8,0,0,1,874.2,868.8a2,2,0,0,1,.515-1.623,2.209,2.209,0,0,1,2.678-.291.141.141,0,0,1-.133.25,1.93,1.93,0,0,0-2.339.236,1.724,1.724,0,0,0-.439,1.4,2.433,2.433,0,0,0,.765,1.492,2.14,2.14,0,0,0,2.714.341.142.142,0,1,1,.172.225A2.026,2.026,0,0,1,876.887,871.23Z" transform="translate(-870.919 -849.135)" fill="#363e44"/><path d="M1015.523,824.306a3.394,3.394,0,1,0,4.527-2.5A3.68,3.68,0,0,0,1015.523,824.306Z" transform="translate(-992.006 -810.545)" fill="#e2a18d"/><path d="M1030.627,837.312h-.021a.142.142,0,0,1,0-.283h.019a2.041,2.041,0,0,0,1.82-1.407,2.249,2.249,0,0,0,.036-1.549,1.59,1.59,0,0,0-.926-.985,1.746,1.746,0,0,0-1.9.576.142.142,0,0,1-.212-.188,2.025,2.025,0,0,1,2.216-.653,1.868,1.868,0,0,1,1.092,1.154,2.532,2.532,0,0,1-.038,1.745A2.324,2.324,0,0,1,1030.627,837.312Z" transform="translate(-1004.179 -820.065)" fill="#363e44"/><path d="M917.833,897.973h0a7.037,7.037,0,0,1-6.707-7.353l.652-19.958,14.06.645-.652,19.958A7.037,7.037,0,0,1,917.833,897.973Z" transform="translate(-902.629 -852.646)" fill="#e2a18d"/><path d="M910.794,868.962C899.8,871.576,896.122,853.1,896.122,853.1l19.565-4.134S921.452,866.427,910.794,868.962Z" transform="translate(-889.755 -834.022)" fill="#84524d"/><circle cx="7.172" cy="7.172" r="7.172" transform="translate(0 7.049) rotate(-16.309)" fill="#84524d"/><path d="M915.419,805.733c2.2,9.782-2.692,4.957-7.9,6.15s-8.046,8.541-10.953-1.83c-1.693-6.042,1.981-10.347,7.186-11.54S914.039,799.612,915.419,805.733Z" transform="translate(-889.78 -790.446)" fill="#e2a18d"/><path d="M1028.13,838.009a.142.142,0,0,1-.141-.133,16.16,16.16,0,0,0-1.511-5.764.141.141,0,0,1,.257-.118,16.439,16.439,0,0,1,1.537,5.866.141.141,0,0,1-.132.15Z" transform="translate(-1001.654 -819.379)" fill="#363e44"/><path d="M896.064,868.282a.142.142,0,0,1-.127-.08,21.036,21.036,0,0,1-1.206-3.606,13.458,13.458,0,0,1-.34-2.786.141.141,0,0,1,.139-.143.143.143,0,0,1,.144.139,13.16,13.16,0,0,0,.333,2.728,21.078,21.078,0,0,0,1.184,3.546.142.142,0,0,1-.127.2Z" transform="translate(-888.269 -844.923)" fill="#363e44"/><path d="M975.843,876.316a.141.141,0,0,1-.113-.227,1.064,1.064,0,0,0,.295-.857.9.9,0,0,0-.372-.455,1.956,1.956,0,0,1-.577-.656,1.85,1.85,0,0,1-.181-.983.141.141,0,0,1,.282.02,1.575,1.575,0,0,0,.151.835,1.694,1.694,0,0,0,.5.564,1.135,1.135,0,0,1,.468.606,1.319,1.319,0,0,1-.344,1.1A.142.142,0,0,1,975.843,876.316Z" transform="translate(-957.377 -854.66)" fill="#363e44"/><path d="M956.194,914.563a2.721,2.721,0,0,1-1.062-.212,2.76,2.76,0,0,1-1.021-.751.142.142,0,1,1,.215-.184,2.477,2.477,0,0,0,.916.674,2.531,2.531,0,0,0,1.6.109.142.142,0,1,1,.071.274A2.9,2.9,0,0,1,956.194,914.563Z" transform="translate(-939.509 -889.308)" fill="#fff"/><path d="M886.2,759.935s5.218-.143,9.4-7.287c0,0,12.051,11.081,16.863-5.69,0,0-4.07,2.725-6.979.065-4.63-4.233-14.367-6.6-16.352,3.076Z" transform="translate(-881.235 -743.343)" fill="#84524d"/><g transform="translate(8.221 14.274)"><g transform="translate(9.793)"><path d="M982.52,844.262h0l-.023,0c0,.05-.019.117-.069.127a1.475,1.475,0,0,0-.068.29c-.041.152-.275.079-.234-.073.028-.1-.256.146-.386.233-.413.278-.837.536-1.269.782-.2.114-.4.231-.609.338a5.806,5.806,0,0,1-.755.385,6.065,6.065,0,0,0-.676,1.261,6.244,6.244,0,0,0,2.041-.01c0-.015,0-.031,0-.046a9.528,9.528,0,0,1,2.474-1.229,1.237,1.237,0,1,0-.426-2.061Z" transform="translate(-978.432 -844.219)" fill="#fff"/><path d="M984.813,845.112a4.986,4.986,0,0,0-1.6,1.515,2.022,2.022,0,0,0,1.33,1.259,4.671,4.671,0,0,0,1.542-.53,4.438,4.438,0,0,0,.95-.737,2.031,2.031,0,0,0-.434-2.072A4.8,4.8,0,0,0,984.813,845.112Z" transform="translate(-982.54 -844.501)" fill="#363e44"/></g><g transform="translate(0 2.758)"><path d="M910.768,865.688h0l.022-.008c.023.045.068.1.118.084a1.482,1.482,0,0,1,.187.232c.1.119.282-.048.178-.168-.07-.08.294.021.449.043.493.071.987.119,1.483.152.231.015.464.032.7.04a5.831,5.831,0,0,0,.847.018,6.066,6.066,0,0,1,1.157.842,6.243,6.243,0,0,1-1.842.878c-.007-.014-.013-.028-.019-.042a9.523,9.523,0,0,0-2.762-.032,6.24,6.24,0,0,1-2.059-1.256A6.2,6.2,0,0,1,910.768,865.688Z" transform="translate(-909.222 -865.402)" fill="#fff"/><path d="M921.6,863.718a4.986,4.986,0,0,1,2.1.671,2.023,2.023,0,0,1-.651,1.712,4.675,4.675,0,0,1-1.619.193,4.451,4.451,0,0,1-1.176-.251,2.031,2.031,0,0,1-.51-2.055A4.807,4.807,0,0,1,921.6,863.718Z" transform="translate(-918.169 -863.709)" fill="#363e44"/></g></g></g><g transform="translate(1.307)"><path d="M883.079,699.116c-7.81-10.83-9.659-11.947-11.713-11.612-1.686.275-1.615,3.289-3.863,3.74s-3.793-2.2-5.862-1.842c-1.722.294-3.552,3.54-4.3,15.855Z" transform="translate(-833.634 -687.455)" fill="#efbc73"/><path d="M880.417,751.67l-23.881,5.28-.356,2.909,26.073-5.827Z" transform="translate(-832.636 -742.584)" fill="#363e44"/><path d="M727.833,758.563a341.283,341.283,0,0,1,38.447-6.479c-1.456-3.068-18.861-1.945-39.525,2.6-20.781,4.575-37.118,10.911-36.966,14.292A338.022,338.022,0,0,1,727.833,758.563Z" transform="translate(-689.788 -741.459)" fill="#efbc73"/></g></g></g><g transform="translate(456.036 340.084)"><path d="M1190.25,387.381l.055-.011a21.573,21.573,0,0,0,16.843-16.8h0l.011.056a21.573,21.573,0,0,0,16.8,16.843h0l-.055.011a21.573,21.573,0,0,0-16.843,16.8h0l-.011-.056a21.573,21.573,0,0,0-16.8-16.843Z" transform="translate(-1190.25 -370.572)" fill="#fff"/><path d="M1351.808,675.234l.027-.005a10.567,10.567,0,0,0,8.25-8.228h0l.006.027a10.567,10.567,0,0,0,8.228,8.25h0l-.027.006a10.567,10.567,0,0,0-8.25,8.228h0l-.006-.027a10.568,10.568,0,0,0-8.228-8.25Z" transform="translate(-1328.948 -625.056)" fill="#fff"/></g></g></g></svg>