<svg xmlns="http://www.w3.org/2000/svg" xmlns:xlink="http://www.w3.org/1999/xlink" width="497" height="182" viewBox="0 0 497 182"><defs><clipPath id="a"><rect width="497" height="182" fill="none"/></clipPath></defs><g clip-path="url(#a)"><g transform="translate(-5070 7010)"><rect width="497" height="182" transform="translate(5070 -7010)" fill="#fff"/><g transform="translate(4365 -12210)"><path d="M29.783,0H21.944L10.354-20.35V0H2.471V-32.7h7.884l11.567,20.35V-32.7h7.861ZM34.77,0V-32.7H45.3A15.5,15.5,0,0,1,53.1-30.738a13.814,13.814,0,0,1,5.4,5.548,16.75,16.75,0,0,1,1.965,8.03v1.5a16.847,16.847,0,0,1-1.9,8.052,13.874,13.874,0,0,1-5.346,5.57A15.155,15.155,0,0,1,45.528,0Zm7.884-26.616V-6.064h2.74A6.133,6.133,0,0,0,50.6-8.479q1.819-2.415,1.819-7.176V-17.07q0-4.739-1.819-7.143a6.24,6.24,0,0,0-5.3-2.4Z" transform="translate(739 5315)" fill="#12263f"/><path d="M23.674-16.217H2.875v-5.84h20.8Zm0,9.86H2.875V-12.2h20.8Z" transform="translate(810 5313)" fill="#12263f"/><path d="M13.9-8.984,23.921-32.7h8.8L16.913,0h-8.4L3.032-32.7h8.311Zm43.17-2.2H43.934l1.011-5.84h13.14Zm29.491,2.2L96.582-32.7h8.8L89.574,0h-8.4l-5.48-32.7H84Z" transform="translate(880 5283)" fill="#12263f"/><path d="M13.9-8.984,23.921-32.7h8.8L16.913,0h-8.4L3.032-32.7h8.311Zm77.2-2.2H77.962l1.011-5.84h13.14Zm29.491,2.2L130.61-32.7h8.8L123.6,0h-8.4l-5.48-32.7h8.311Z" transform="translate(862 5343)" fill="#12263f"/><path d="M11.972-17.609,15.5-24.3h7.861l-6.4,11.837L23.674,0H15.768L11.949-7.187,8.2,0H.247L6.985-12.466.606-24.3H8.558ZM53.906,0H46.314V-24.168l-7.457,2.179v-5.75L53.21-32.7h.7ZM86.475-13.364q0,6.626-2.976,10.22A10.284,10.284,0,0,1,75.109.449a10.34,10.34,0,0,1-8.445-3.616q-2.987-3.616-2.987-10.2v-5.975q0-6.626,2.976-10.22a10.31,10.31,0,0,1,8.412-3.594,10.314,10.314,0,0,1,8.423,3.616q2.987,3.616,2.987,10.22ZM78.905-20.3a11.664,11.664,0,0,0-.921-5.267,3.078,3.078,0,0,0-2.92-1.741A3.005,3.005,0,0,0,72.223-25.7a10.988,10.988,0,0,0-.955,4.9v8.355a11.752,11.752,0,0,0,.921,5.357,3.09,3.09,0,0,0,2.92,1.7,3.048,3.048,0,0,0,2.853-1.651,11.219,11.219,0,0,0,.943-5.177Zm34.208,6.94q0,6.626-2.976,10.22A10.284,10.284,0,0,1,101.748.449,10.34,10.34,0,0,1,93.3-3.167q-2.987-3.616-2.987-10.2v-5.975q0-6.626,2.976-10.22a10.31,10.31,0,0,1,8.412-3.594,10.314,10.314,0,0,1,8.423,3.616q2.987,3.616,2.987,10.22Zm-7.569-6.94a11.664,11.664,0,0,0-.921-5.267,3.078,3.078,0,0,0-2.92-1.741A3.005,3.005,0,0,0,98.862-25.7a10.988,10.988,0,0,0-.955,4.9v8.355a11.752,11.752,0,0,0,.921,5.357,3.09,3.09,0,0,0,2.92,1.7A3.048,3.048,0,0,0,104.6-7.042a11.219,11.219,0,0,0,.943-5.177Z" transform="translate(1062 5313)" fill="#12263f"/><text transform="translate(978 5293)" fill="#12263f" font-size="20" font-family="Roboto-Black, Roboto" font-weight="800"><tspan x="0" y="0">min</tspan></text><path d="M4.033-10.566l.107,1.24a3.633,3.633,0,0,1,3.018-1.436A2.675,2.675,0,0,1,9.863-9.17a3.517,3.517,0,0,1,3.105-1.592q3.213,0,3.3,3.887V0h-3.3V-6.67A2.014,2.014,0,0,0,12.7-7.852a1.164,1.164,0,0,0-1-.371,1.559,1.559,0,0,0-1.455.869l.01.137V0h-3.3V-6.65a2.117,2.117,0,0,0-.264-1.2,1.161,1.161,0,0,0-1.006-.371,1.578,1.578,0,0,0-1.445.869V0H.947V-10.566ZM21.621,0h-3.3V-10.566h3.3Zm-3.5-13.291a1.469,1.469,0,0,1,.508-1.152,1.916,1.916,0,0,1,1.318-.449,1.916,1.916,0,0,1,1.318.449,1.469,1.469,0,0,1,.508,1.152,1.469,1.469,0,0,1-.508,1.152,1.916,1.916,0,0,1-1.318.449,1.916,1.916,0,0,1-1.318-.449A1.469,1.469,0,0,1,18.125-13.291Zm8.545,2.725.107,1.24a3.583,3.583,0,0,1,3.018-1.436,3.015,3.015,0,0,1,2.466.986,4.7,4.7,0,0,1,.845,2.969V0H29.8V-6.67a1.783,1.783,0,0,0-.322-1.177,1.491,1.491,0,0,0-1.172-.376,1.569,1.569,0,0,0-1.436.762V0H23.584V-10.566Z" transform="translate(995 5350)" fill="#12263f"/><text transform="translate(892 5350)" fill="#12263f" font-size="20" font-family="Roboto-Black, Roboto" font-weight="800"><tspan x="0" y="0">max</tspan></text><text transform="translate(830 5330)" fill="#12263f" font-size="111" font-family="Roboto-Light, Roboto" font-weight="300"><tspan x="0" y="0">(</tspan></text><text transform="matrix(-1, 0, 0, 1, 1069, 5330)" fill="#12263f" font-size="111" font-family="Roboto-Light, Roboto" font-weight="300"><tspan x="0" y="0">(</tspan></text><path d="M4167-6409h171.2" transform="translate(-3302 11706)" fill="none" stroke="#12263f" stroke-width="2"/></g></g></g></svg>