<svg xmlns="http://www.w3.org/2000/svg" xmlns:xlink="http://www.w3.org/1999/xlink" width="156" height="157" viewBox="0 0 156 157"><defs><clipPath id="a"><ellipse cx="78" cy="78.5" rx="78" ry="78.5" fill="#ffc846"/></clipPath><clipPath id="b"><rect width="160.033" height="117.542" fill="none"/></clipPath><clipPath id="d"><path d="M123.494,110.17l-.169,20.338L188.07,92.483s-.8-1.59-.838-8.16c-.048-8.176,1.225-12.475,1.225-12.475Z" transform="translate(-123.325 -71.848)" fill="none"/></clipPath></defs><g transform="translate(-390 -5002)"><ellipse cx="78" cy="78.5" rx="78" ry="78.5" transform="translate(390 5002)" fill="#ffe9e1"/><g transform="translate(390 5002)" clip-path="url(#a)"><g transform="translate(-10.339 19.946)"><g clip-path="url(#b)"><g clip-path="url(#b)"><path d="M64.27,32.406.28,69.6c-.092.053-.115.059-.2.114l91.88,53.4c.1-.051,64.193-37.3,64.193-37.3,3.008-1.749,3.008-4.61,0-6.358L75.208,32.406a12.058,12.058,0,0,0-10.938,0" transform="translate(-0.021 -7.993)" fill="#5c6940"/><path d="M188.457,71.848,123.494,110.17l-.169,20.338L188.07,92.483s-.8-1.59-.838-8.16c-.048-8.176,1.225-12.475,1.225-12.475" transform="translate(-32.316 -18.469)" fill="#fff"/></g><g transform="translate(91.009 53.379)"><g clip-path="url(#d)"><path d="M192.233,74.351l-68.91,40.05v-.569l68.91-40.05Z" transform="translate(-123.324 -72.345)" fill="#e4e0d0"/><path d="M192.233,76.65,123.322,116.7v-.57l68.911-40.05Z" transform="translate(-123.324 -72.936)" fill="#e4e0d0"/><path d="M192.233,78.95,123.323,119v-.57l68.91-40.05Z" transform="translate(-123.324 -73.527)" fill="#e4e0d0"/><path d="M192.233,81.249,123.322,121.3v-.569l68.911-40.051Z" transform="translate(-123.324 -74.118)" fill="#e4e0d0"/><path d="M192.233,83.549l-68.91,40.05v-.569l68.91-40.05Z" transform="translate(-123.325 -74.71)" fill="#e4e0d0"/><path d="M192.233,85.848,123.322,125.9v-.569l68.911-40.05Z" transform="translate(-123.324 -75.301)" fill="#e4e0d0"/><path d="M192.233,88.148,123.322,128.2v-.569l68.911-40.05Z" transform="translate(-123.324 -75.892)" fill="#e4e0d0"/><path d="M192.389,90.31l-68.911,40.05v-.569l68.911-40.051Z" transform="translate(-123.365 -76.447)" fill="#e4e0d0"/><path d="M192.389,92.609l-68.91,40.05v-.57l68.91-40.05Z" transform="translate(-123.365 -77.038)" fill="#e4e0d0"/><path d="M192.389,94.909l-68.911,40.051v-.57l68.911-40.05Z" transform="translate(-123.365 -77.63)" fill="#e4e0d0"/><path d="M192.389,97.208l-68.91,40.05v-.57l68.911-40.05Z" transform="translate(-123.365 -78.221)" fill="#e4e0d0"/><path d="M192.39,99.508l-68.91,40.05v-.57l68.91-40.05Z" transform="translate(-123.365 -78.812)" fill="#e4e0d0"/><path d="M192.389,101.807l-68.911,40.051v-.569l68.911-40.051Z" transform="translate(-123.365 -79.403)" fill="#e4e0d0"/><path d="M192.39,104.107l-68.91,40.05v-.569l68.91-40.05Z" transform="translate(-123.366 -79.994)" fill="#e4e0d0"/></g></g><g clip-path="url(#b)"><path d="M91.961,106.606v22.2L.074,75.4V53.2Z" transform="translate(-0.019 -13.676)" fill="#5c6940"/><path d="M11.914,62.7V80.982L5.077,77.009V58.73Z" transform="translate(-1.33 -15.097)" fill="#542c37"/><path d="M116.559,124.133v16.745l-3.256-1.892V122.241Z" transform="translate(-29.69 -31.423)" fill="#9d4532"/><path d="M64.249,2.883.26,40.08c-.092.053-.173.111-.26.167L91.855,93.642c.1-.051.195-.1.287-.151l63.989-37.2c3.008-1.749,3.008-4.61,0-6.359L75.187,2.883a12.057,12.057,0,0,0-10.938,0" transform="translate(0 -0.404)" fill="#869d69"/><path d="M92.518,25.927,46.121,52.9,33.177,45.374,79.574,18.4Z" transform="translate(-8.694 -4.731)" fill="#9d4532"/></g></g></g></g></g></svg>