<svg xmlns="http://www.w3.org/2000/svg" xmlns:xlink="http://www.w3.org/1999/xlink" width="157.341" height="157.341" viewBox="0 0 157.341 157.341"><defs><clipPath id="a"><circle cx="78.67" cy="78.67" r="78.67" transform="translate(0 0)" fill="#ffc846"/></clipPath><clipPath id="b"><rect width="166.273" height="121.306" fill="none"/></clipPath><clipPath id="d"><path d="M123.5,111.4l-.176,20.989,67.269-39.243s-.83-1.641-.871-8.422C189.673,76.284,191,71.848,191,71.848Z" transform="translate(-123.325 -71.848)" fill="none"/></clipPath><clipPath id="f"><rect width="93.818" height="54.048" fill="#636363"/></clipPath><clipPath id="g"><rect width="93.818" height="54.047" fill="#e5efd4"/></clipPath><clipPath id="h"><path d="M126.332,82.81,126.2,98.636l50.722-29.59s-.626-1.237-.656-6.349a36.7,36.7,0,0,1,.96-9.708Z" transform="translate(-126.199 -52.989)" fill="none"/></clipPath></defs><g transform="translate(-5213.277 3911.5)"><path d="M71.861,0A71.861,71.861,0,1,1,0,71.861,71.861,71.861,0,0,1,71.861,0Z" transform="translate(5213.277 -3911.5)" fill="#ffe9e1"/><g transform="translate(5213.277 -3911.5)" clip-path="url(#a)"><g transform="translate(-18.356 21.275)"><g clip-path="url(#b)"><g clip-path="url(#b)"><path d="M66.772,32.448.288,70.836c-.1.055-.12.061-.209.118l95.462,55.112c.1-.052,66.7-38.5,66.7-38.5,3.125-1.8,3.125-4.758,0-6.562l-84.1-48.559a12.6,12.6,0,0,0-11.365,0" transform="translate(-0.018 -7.253)" fill="#942e19"/><path d="M191,71.848,123.5,111.4l-.176,20.989,67.269-39.243s-.83-1.641-.871-8.422C189.673,76.284,191,71.848,191,71.848" transform="translate(-28.768 -16.76)" fill="#fff"/></g><g transform="translate(94.557 55.088)"><g clip-path="url(#d)"><path d="M194.92,74.369l-71.6,41.333v-.587l71.6-41.333Z" transform="translate(-123.324 -72.299)" fill="#e4e0d0"/><path d="M194.919,76.668,123.322,118v-.588l71.6-41.333Z" transform="translate(-123.324 -72.835)" fill="#e4e0d0"/><path d="M194.92,78.968l-71.6,41.333v-.588l71.6-41.333Z" transform="translate(-123.325 -73.372)" fill="#e4e0d0"/><path d="M194.92,81.268l-71.6,41.333v-.587l71.6-41.334Z" transform="translate(-123.324 -73.908)" fill="#e4e0d0"/><path d="M194.92,83.567l-71.6,41.333v-.587l71.6-41.333Z" transform="translate(-123.325 -74.445)" fill="#e4e0d0"/><path d="M194.92,85.867l-71.6,41.333v-.587l71.6-41.333Z" transform="translate(-123.324 -74.981)" fill="#e4e0d0"/><path d="M194.92,88.166l-71.6,41.333v-.587l71.6-41.333Z" transform="translate(-123.324 -75.518)" fill="#e4e0d0"/><path d="M195.076,90.328l-71.6,41.333v-.587l71.6-41.333Z" transform="translate(-123.361 -76.022)" fill="#e4e0d0"/><path d="M195.076,92.627l-71.6,41.333v-.588l71.6-41.333Z" transform="translate(-123.361 -76.558)" fill="#e4e0d0"/><path d="M195.076,94.927l-71.6,41.333v-.588l71.6-41.332Z" transform="translate(-123.361 -77.095)" fill="#e4e0d0"/><path d="M195.076,97.226l-71.6,41.333v-.588l71.6-41.333Z" transform="translate(-123.361 -77.631)" fill="#e4e0d0"/><path d="M195.076,99.526l-71.6,41.333v-.588l71.6-41.333Z" transform="translate(-123.361 -78.167)" fill="#e4e0d0"/><path d="M195.076,101.825l-71.6,41.333v-.587l71.6-41.334Z" transform="translate(-123.361 -78.704)" fill="#e4e0d0"/><path d="M195.076,104.125l-71.6,41.333v-.587l71.6-41.333Z" transform="translate(-123.361 -79.24)" fill="#e4e0d0"/></g></g><g clip-path="url(#b)"><path d="M95.543,108.317v22.911L.074,76.114V53.2Z" transform="translate(-0.017 -12.41)" fill="#942e19"/><path d="M12.181,62.83V81.695l-7.1-4.1V58.73Z" transform="translate(-1.184 -13.7)" fill="#542c37"/><path d="M21.371,68.136V87l-3.693-2.132V66Z" transform="translate(-4.123 -15.396)" fill="#542c37"/><path d="M116.686,124.193v17.281l-3.383-1.953V122.241Z" transform="translate(-26.43 -28.515)" fill="#542c37"/><path d="M66.754,2.925.27,41.313c-.1.055-.179.115-.27.173l95.436,55.1c.1-.052.2-.1.3-.156l66.484-38.388c3.125-1.8,3.125-4.758,0-6.562L78.119,2.925a12.6,12.6,0,0,0-11.365,0" transform="translate(0 -0.367)" fill="#bf6755"/><path d="M94.831,26.168,46.625,54,33.177,46.238,81.383,18.4Z" transform="translate(-7.739 -4.293)" fill="#f5ae00"/><path d="M157.2,83.35l-11.542,6.664-3.22-1.859,11.542-6.664Z" transform="translate(-33.226 -19.009)" fill="#542c37"/><path d="M83.557,23.281,33.427,52.226c-.072.042-.09.046-.158.09l71.98,41.555c.075-.039,50.291-29.028,50.291-29.028,2.356-1.36,2.356-3.587,0-4.948L92.126,23.281a9.5,9.5,0,0,0-8.569,0" transform="translate(-7.761 -5.193)" fill="#869d69"/><g transform="translate(55.648 17.105)" opacity="0.57" style="mix-blend-mode:multiply;isolation:isolate"><g clip-path="url(#f)"><path d="M164.628,59.944,101.215,23.329a9.5,9.5,0,0,0-8.57,0L72.577,34.917l72.2,41.44,19.855-11.465c2.357-1.36,2.357-3.587,0-4.948" transform="translate(-72.578 -22.309)" fill="#636363"/></g></g><path d="M177.224,52.99,126.332,82.811,126.2,98.637l50.722-29.59s-.626-1.238-.656-6.35a36.68,36.68,0,0,1,.959-9.708" transform="translate(-29.438 -12.361)" fill="#fff"/><path d="M83.544,1.02,33.413,29.965c-.072.042-.136.087-.2.13l71.96,41.55c.075-.039.153-.076.225-.117l50.131-28.946c2.356-1.36,2.356-3.587,0-4.948L92.113,1.02a9.5,9.5,0,0,0-8.569,0" transform="translate(-7.747 0)" fill="#869d69"/><g transform="translate(55.728)" style="mix-blend-mode:multiply;isolation:isolate"><g clip-path="url(#g)"><path d="M164.733,37.635,101.32,1.02a9.5,9.5,0,0,0-8.57,0L72.683,12.608l72.195,41.44,19.855-11.465c2.357-1.36,2.357-3.587,0-4.948" transform="translate(-72.683 0)" fill="#e5efd4"/></g></g><path d="M101.741,16.112,67.647,35.8l-3.41-1.968L98.331,14.143Z" transform="translate(-14.984 -3.299)" fill="#542c37"/></g><g transform="translate(96.761 40.628)"><g clip-path="url(#h)"><path d="M192.572,45.58l-71.6,41.333v-.588l71.6-41.333Z" transform="translate(-124.98 -51.124)" fill="#e4e0d0"/><path d="M192.573,47.88l-71.6,41.333v-.588l71.6-41.332Z" transform="translate(-124.981 -51.66)" fill="#e4e0d0"/><path d="M192.572,50.179l-71.6,41.333v-.587l71.6-41.333Z" transform="translate(-124.98 -52.197)" fill="#e4e0d0"/><path d="M192.573,52.479l-71.6,41.333v-.588l71.6-41.333Z" transform="translate(-124.981 -52.733)" fill="#e4e0d0"/><path d="M192.573,54.778l-71.6,41.333v-.588l71.6-41.333Z" transform="translate(-124.98 -53.269)" fill="#e4e0d0"/><path d="M192.573,57.078l-71.6,41.333v-.587l71.6-41.333Z" transform="translate(-124.98 -53.806)" fill="#e4e0d0"/><path d="M192.573,59.378l-71.6,41.333v-.587l71.6-41.333Z" transform="translate(-124.98 -54.342)" fill="#e4e0d0"/></g></g><g clip-path="url(#b)"><path d="M105.251,80.488V97.763L33.265,56.206V38.931Z" transform="translate(-7.76 -9.081)" fill="#5a6c44"/><path d="M42.394,46.19V60.414l-5.356-3.092V43.1Z" transform="translate(-8.64 -10.053)" fill="#942e19"/><path d="M121.193,92.459v13.031l-2.551-1.473V90.986Z" transform="translate(-27.675 -21.224)" fill="#942e19"/><path d="M112.2,95.639c0,1.93-1.355,2.712-3.026,1.747a6.69,6.69,0,0,1-3.026-5.241c0-1.929,1.355-2.711,3.026-1.747a6.688,6.688,0,0,1,3.025,5.241" transform="translate(-24.76 -20.991)" fill="#942e19"/></g></g></g></g></g></svg>