<svg xmlns="http://www.w3.org/2000/svg" xmlns:xlink="http://www.w3.org/1999/xlink" width="157.34" height="157.34" viewBox="0 0 157.34 157.34"><defs><clipPath id="a"><circle cx="78.67" cy="78.67" r="78.67" transform="translate(390 4883.5)" fill="#ffe9e1"/></clipPath><clipPath id="b"><circle cx="78.67" cy="78.67" r="78.67" fill="#ffc846"/></clipPath><clipPath id="c"><rect width="103.025" height="136.83" fill="none"/></clipPath><clipPath id="e"><rect width="7.227" height="84.309" fill="none"/></clipPath><clipPath id="f"><rect width="7.227" height="84.309" fill="#9f4633"/></clipPath><clipPath id="g"><rect width="7.23" height="84.296" fill="none"/></clipPath></defs><g transform="translate(-390 -4883.5)" clip-path="url(#a)"><path d="M78.67,0A78.67,78.67,0,1,1,0,78.67,78.67,78.67,0,0,1,78.67,0Z" transform="translate(390 4883.5)" fill="#ffe9e1"/><g transform="translate(417.158 4893.755)"><g clip-path="url(#c)"><path d="M95.505,0l0,77.865,47.1,27.189,0-77.864Z" transform="translate(-39.578 0)" fill="#2f6e85"/><g clip-path="url(#c)"><path d="M132.821,28.169,85.92,1.207s-.355,1.348-3.831,4.044-10,3.69-10,3.69l48.178,27.6s5.534.071,8.231-2.342a20.634,20.634,0,0,0,4.328-6.031" transform="translate(-29.873 -0.5)" fill="#fff"/><path d="M119.153,118.746l-47.1-27.189,0-77.865,47.1,27.189Z" transform="translate(-29.861 -5.674)" fill="#2f6e85"/><path d="M165.994,124.191c-4.189,5.746-9.86,8.45-14.049,8.113q0-38.934,0-77.867c4.189.34,9.86-2.363,14.049-8.108q0,38.931,0,77.863" transform="translate(-62.968 -19.199)" fill="#afafaf"/><g transform="translate(95.798 27.128)" opacity="0.35" style="mix-blend-mode:multiply;isolation:isolate"><g clip-path="url(#e)"><path d="M163.6,52.771q0,38.933,0,77.865a21.728,21.728,0,0,0,7.224-6.446q0-38.931,0-77.863a21.726,21.726,0,0,1-7.224,6.444" transform="translate(-163.596 -46.327)" fill="#2f6e85"/></g></g><path d="M165.991,59.773c-4.189,5.746-9.86,8.448-14.049,8.109V66.844c4.189.339,9.86-2.363,14.049-8.109Z" transform="translate(-62.968 -24.341)" fill="#f5ae00"/><path d="M165.991,66.105c-4.189,5.746-9.86,8.449-14.049,8.109V73.176c4.189.34,9.86-2.363,14.049-8.109v1.038" transform="translate(-62.968 -26.965)" fill="#f5ae00"/><path d="M165.992,104.889c-4.189,5.746-9.86,8.449-14.049,8.11v-1.038c4.189.339,9.861-2.365,14.049-8.11Z" transform="translate(-62.969 -43.038)" fill="#f5ae00"/><path d="M165.993,111.222c-4.189,5.746-9.861,8.449-14.049,8.11v-1.038c4.189.339,9.86-2.365,14.049-8.11v1.038" transform="translate(-62.969 -45.663)" fill="#f5ae00"/><path d="M165.994,161.087c-4.189,5.746-9.86,8.45-14.049,8.112v-1.038c4.189.338,9.86-2.366,14.049-8.112Z" transform="translate(-62.969 -66.328)" fill="#f5ae00"/><path d="M165.994,167.42c-4.189,5.746-9.86,8.45-14.049,8.112v-1.038c4.189.338,9.86-2.366,14.049-8.112v1.038" transform="translate(-62.969 -68.952)" fill="#f5ae00"/><path d="M118.639,118.8l-47.1-27.189,0-77.865,47.1,27.189Z" transform="translate(-29.649 -5.696)" fill="#df0031"/><path d="M108.862,41.913l-46.9-26.962s-.355,1.348-3.831,4.044-10,3.69-10,3.69L96.3,50.286s5.534.071,8.231-2.342a20.634,20.634,0,0,0,4.328-6.031" transform="translate(-19.944 -6.196)" fill="#fff"/><path d="M95.193,132.49,48.1,105.3l0-77.865L95.2,54.625Z" transform="translate(-19.932 -11.37)" fill="#df0031"/><path d="M142.034,137.934c-4.189,5.747-9.86,8.45-14.049,8.113q0-38.934,0-77.867c4.188.34,9.86-2.363,14.049-8.108q0,38.932,0,77.863" transform="translate(-53.039 -24.895)" fill="#9f4633"/><g transform="translate(81.768 35.176)" opacity="0.35" style="mix-blend-mode:multiply;isolation:isolate"><g clip-path="url(#f)"><path d="M139.636,66.516q0,38.933,0,77.864a21.728,21.728,0,0,0,7.224-6.446q0-38.931,0-77.862a21.726,21.726,0,0,1-7.224,6.444" transform="translate(-139.636 -60.071)" fill="#9f4633"/></g></g><path d="M142.031,73.517c-4.189,5.746-9.861,8.448-14.049,8.109V80.588c4.189.339,9.86-2.364,14.049-8.109v1.038" transform="translate(-53.039 -30.037)" fill="#f5ae00"/><path d="M142.031,79.849c-4.189,5.746-9.861,8.449-14.049,8.109V86.92c4.189.34,9.86-2.363,14.049-8.109v1.038" transform="translate(-53.039 -32.661)" fill="#f5ae00"/><path d="M142.032,118.633c-4.189,5.746-9.861,8.449-14.049,8.11v-1.038c4.189.339,9.861-2.365,14.049-8.11Z" transform="translate(-53.039 -48.734)" fill="#f5ae00"/><path d="M142.033,124.966c-4.189,5.746-9.861,8.449-14.049,8.11v-1.038c4.189.339,9.86-2.364,14.049-8.11v1.038" transform="translate(-53.039 -51.359)" fill="#f5ae00"/><path d="M142.034,174.832c-4.189,5.746-9.86,8.451-14.049,8.112v-1.039c4.189.339,9.861-2.365,14.049-8.111Z" transform="translate(-53.04 -72.024)" fill="#f5ae00"/><path d="M142.035,181.164c-4.189,5.747-9.86,8.45-14.049,8.112v-1.038c4.189.339,9.861-2.366,14.049-8.112Z" transform="translate(-53.04 -74.648)" fill="#f5ae00"/><path d="M94.658,132.311l-47.1-27.189,0-77.865,47.1,27.189Z" transform="translate(-19.71 -11.296)" fill="#25b1b6"/><path d="M84.838,55.553l-46.9-26.962s-.355,1.348-3.831,4.044-10,3.69-10,3.69l48.178,27.6s5.534.071,8.231-2.342a20.634,20.634,0,0,0,4.328-6.031" transform="translate(-9.988 -11.849)" fill="#fff"/><path d="M71.169,146.13l-47.1-27.189,0-77.865,47.1,27.189Z" transform="translate(-9.976 -17.023)" fill="#25b1b6"/><path d="M118.05,151.448c-4.189,5.747-9.858,8.456-14.052,8.128q0-38.934,0-77.867c4.194.329,9.863-2.379,14.052-8.124q0,38.931,0,77.863" transform="translate(-43.098 -30.495)" fill="#f0ddd8"/><g transform="translate(67.7 43.18)" opacity="0.35" style="mix-blend-mode:multiply;isolation:isolate"><g clip-path="url(#g)"><path d="M115.612,80.17q0,38.933,0,77.865a21.751,21.751,0,0,0,7.227-6.434q0-38.931,0-77.863a21.742,21.742,0,0,1-7.228,6.431" transform="translate(-115.612 -73.739)" fill="#25b1b6"/></g></g><path d="M118.011,87.184c-4.195,5.735-9.863,8.432-14.052,8.093V94.239c4.188.34,9.857-2.358,14.052-8.093v1.038" transform="translate(-43.083 -35.701)" fill="#f5ae00"/><path d="M118.011,93.516c-4.195,5.735-9.863,8.432-14.052,8.093v-1.038c4.188.34,9.857-2.358,14.052-8.093v1.038" transform="translate(-43.083 -38.325)" fill="#f5ae00"/><path d="M118.013,132.3c-4.194,5.735-9.863,8.433-14.052,8.094v-1.038c4.189.339,9.858-2.359,14.052-8.094V132.3" transform="translate(-43.084 -54.398)" fill="#f5ae00"/><path d="M118.013,138.633c-4.194,5.735-9.863,8.433-14.052,8.094v-1.038c4.189.34,9.858-2.359,14.052-8.094v1.038" transform="translate(-43.084 -57.022)" fill="#f5ae00"/><path d="M118.015,188.5c-4.194,5.736-9.863,8.434-14.052,8.1v-1.038c4.189.338,9.858-2.36,14.052-8.1Z" transform="translate(-43.085 -77.688)" fill="#f5ae00"/><path d="M118.015,194.832c-4.194,5.736-9.862,8.434-14.052,8.1V201.89c4.189.339,9.858-2.36,14.052-8.1Z" transform="translate(-43.085 -80.313)" fill="#f5ae00"/><path d="M70.543,145.524l-47.1-27.189,0-77.865,47.1,27.189Z" transform="translate(-9.717 -16.772)" fill="#542c37"/><path d="M60.766,68.64l-46.9-26.962s-.355,1.348-3.831,4.044-10,3.69-10,3.69l48.178,27.6s5.534.071,8.231-2.342a20.634,20.634,0,0,0,4.328-6.031" transform="translate(-0.012 -17.272)" fill="#fff"/><path d="M47.1,159.216,0,132.027,0,54.162,47.1,81.351Z" transform="translate(0 -22.446)" fill="#869d69"/><path d="M93.938,164.66c-4.189,5.747-9.86,8.45-14.049,8.113q0-38.934,0-77.867c4.189.34,9.86-2.363,14.049-8.108q0,38.932,0,77.863" transform="translate(-33.107 -35.971)" fill="#789357"/><g transform="translate(53.604 50.827)" opacity="0.35" style="mix-blend-mode:multiply;isolation:isolate"><g clip-path="url(#e)"><path d="M91.541,93.242q0,38.933,0,77.865a21.729,21.729,0,0,0,7.224-6.446q0-38.931,0-77.863a21.726,21.726,0,0,1-7.224,6.444" transform="translate(-91.541 -86.798)" fill="#542c37"/></g></g><path d="M93.935,100.243c-4.189,5.746-9.861,8.448-14.049,8.109v-1.038c4.189.339,9.86-2.363,14.049-8.109v1.038" transform="translate(-33.107 -41.113)" fill="#f5ae00"/><path d="M93.936,106.575c-4.189,5.746-9.861,8.449-14.049,8.109v-1.038c4.189.34,9.86-2.363,14.049-8.109v1.038" transform="translate(-33.107 -43.737)" fill="#f5ae00"/><path d="M93.937,145.36c-4.189,5.746-9.861,8.449-14.049,8.11v-1.038c4.189.339,9.86-2.365,14.049-8.11Z" transform="translate(-33.107 -59.81)" fill="#f5ae00"/><path d="M93.937,151.692c-4.189,5.746-9.861,8.449-14.049,8.11v-1.038c4.189.339,9.86-2.365,14.049-8.11v1.038" transform="translate(-33.107 -62.434)" fill="#f5ae00"/><path d="M93.939,201.558c-4.189,5.746-9.86,8.45-14.049,8.112v-1.039c4.189.339,9.861-2.365,14.049-8.111Z" transform="translate(-33.108 -83.1)" fill="#f5ae00"/><path d="M93.939,207.89c-4.189,5.746-9.86,8.451-14.049,8.112v-1.038c4.189.338,9.861-2.366,14.049-8.112Z" transform="translate(-33.108 -85.724)" fill="#f5ae00"/></g></g></g></g></svg>