<svg xmlns="http://www.w3.org/2000/svg" xmlns:xlink="http://www.w3.org/1999/xlink" width="56" height="56" viewBox="0 0 56 56"><defs><clipPath id="a"><rect width="56" height="56" transform="translate(696 1400)" fill="#fff" stroke="#707070" stroke-width="1"/></clipPath></defs><g transform="translate(-696 -1400)" clip-path="url(#a)"><g transform="translate(696 1400)"><path d="M39.742,18.968H52.387v3.613H39.742Z" fill="#a0d468"/><path d="M52.387,16.258v2.71H39.742v-2.71a.906.906,0,0,1,.9-.9H51.484A.906.906,0,0,1,52.387,16.258Z" fill="#b4dd7f"/><path d="M52.387,22.581V28H43.852a6.725,6.725,0,0,0-4.11,1.382v-6.8Z" fill="#b4dd7f"/><path d="M39.742,52.387a6.286,6.286,0,0,1,3.053-5.4l.56,4.5,2.71-2.71,2.71,2.71.56-4.5a5.706,5.706,0,0,1,1.2.93,6.285,6.285,0,0,1,1.852,4.471V55.1H39.742Z" fill="#b4dd7f"/><path d="M49.334,46.986l-.56,4.5-2.71-2.71-2.71,2.71-.56-4.5a6.187,6.187,0,0,1,3.27-.921A24.573,24.573,0,0,1,49.334,46.986Z" fill="#a0d468"/><path d="M34.323,22.581v8a9.029,9.029,0,0,0-12.645,0v-8Z" fill="#ff826e"/><path d="M34.323,16.258v2.71H21.677v-2.71a.906.906,0,0,1,.9-.9H33.419A.906.906,0,0,1,34.323,16.258Z" fill="#ff826e"/><path d="M21.677,18.968H34.323v3.613H21.677Z" fill="#fc6e51"/><path d="M28,46.065a6.214,6.214,0,0,0-2.683.605,6.3,6.3,0,0,0-2.854,2.655,5.427,5.427,0,0,1-3.5-5.067V37.032a9,9,0,0,1,2.646-6.386l.063-.063a9.032,9.032,0,0,1,15.355,6.449v7.226a5.427,5.427,0,0,1-3.5,5.067,6.5,6.5,0,0,0-1.066-1.409,6.013,6.013,0,0,0-1.788-1.246L28,46.065h1.806a3.612,3.612,0,0,0,3.613-3.613V35.226H31.694a15.7,15.7,0,0,1-7-1.653,1.461,1.461,0,0,0-2.114,1.31v7.569a3.612,3.612,0,0,0,3.613,3.613Z" fill="#b27946"/><path d="M37.52,37.348A6.817,6.817,0,0,1,39.028,30a5.7,5.7,0,0,1,.714-.614A6.725,6.725,0,0,1,43.852,28H55.1v6.819a6.738,6.738,0,0,1-.488,2.529l-.226.56-.081-.081a2.7,2.7,0,0,0-1.915-.795h-.9V35.226h-3.7a6.306,6.306,0,0,1-4.426-1.806l-1.5,1a2.7,2.7,0,0,0-1.21,2.258v.352h-.9a2.679,2.679,0,0,0-2,.885Z" fill="#656d78"/><path d="M4.516,36.129v.9h-.9a2.7,2.7,0,0,0-2,.876l-.226-.56A6.817,6.817,0,0,1,2.9,30a5.779,5.779,0,0,1,.723-.614A6.679,6.679,0,0,1,7.723,28h4.426a6.679,6.679,0,0,1,4.1,1.382,6.8,6.8,0,0,1,2.231,7.966l-.226.56-.081-.081a2.7,2.7,0,0,0-1.915-.795h-.9v-.9a1.812,1.812,0,0,0-1.806-1.806H6.323A1.812,1.812,0,0,0,4.516,36.129Z" fill="#656d78"/><path d="M16.258,22.581v6.792l-.009.009A6.679,6.679,0,0,0,12.148,28H7.723a6.679,6.679,0,0,0-4.1,1.382l-.009-.009V22.581Z" fill="#fcd770"/><path d="M16.258,16.258v2.71H3.613v-2.71a.906.906,0,0,1,.9-.9H15.355A.906.906,0,0,1,16.258,16.258Z" fill="#fcd770"/><path d="M3.613,18.968H16.258v3.613H3.613Z" fill="#ffc729"/><path d="M3.613,52.387a6.286,6.286,0,0,1,3.053-5.4l.56,4.5,2.71-2.71,2.71,2.71.56-4.5a5.706,5.706,0,0,1,1.2.93,6.285,6.285,0,0,1,1.852,4.471V55.1H3.613Z" fill="#fcd770"/><path d="M13.205,46.986l-.56,4.5-2.71-2.71-2.71,2.71-.56-4.5a6.187,6.187,0,0,1,3.27-.921A24.573,24.573,0,0,1,13.205,46.986Z" fill="#ffc729"/><path d="M34.323,52.387V55.1H21.677v-2.71a6.278,6.278,0,0,1,3.64-5.717c-.009.1-.027.2-.027.3a2.71,2.71,0,1,0,5.419,0c0-.1-.018-.2-.027-.3a6.013,6.013,0,0,1,1.788,1.246,6.5,6.5,0,0,1,1.066,1.409,6.349,6.349,0,0,1,.786,3.062Z" fill="#ff826e"/><path d="M15.481,37.032h.777a2.7,2.7,0,0,1,1.915.795l.081.081a2.71,2.71,0,0,1-2,4.543h-.9V37.032Z" fill="#f0d0b4"/><path d="M3.613,37.032h.9v5.419h-.9a2.71,2.71,0,1,1,0-5.419Z" fill="#f0d0b4"/><path d="M9.935,46.065H8.129a3.612,3.612,0,0,1-3.613-3.613V36.129a1.812,1.812,0,0,1,1.806-1.806h7.226a1.812,1.812,0,0,1,1.806,1.806v6.323a3.612,3.612,0,0,1-3.613,3.613Z" fill="#f0d0b4"/><path d="M30.71,46.968a2.71,2.71,0,1,1-5.419,0c0-.1.018-.2.027-.3A6.214,6.214,0,0,1,28,46.065l2.683.605C30.692,46.769,30.71,46.868,30.71,46.968Z" fill="#f0d0b4"/><path d="M28,46.065H26.194a3.612,3.612,0,0,1-3.613-3.613V34.883a1.461,1.461,0,0,1,2.114-1.31,15.7,15.7,0,0,0,7,1.653h1.725v7.226a3.612,3.612,0,0,1-3.613,3.613Z" fill="#f0d0b4"/><path d="M52.387,37.032a2.7,2.7,0,0,1,1.915.795l.081.081a2.71,2.71,0,0,1-2,4.543h-.9V37.032h.9Z" fill="#f0d0b4"/><path d="M40.645,37.032v5.419h-.9a2.71,2.71,0,0,1,0-5.419h.9Z" fill="#f0d0b4"/><path d="M46.065,46.065H44.258a3.612,3.612,0,0,1-3.613-3.613V36.68a2.7,2.7,0,0,1,1.21-2.258l1.5-1a6.306,6.306,0,0,0,4.426,1.806h3.7v7.226a3.612,3.612,0,0,1-3.613,3.613Z" fill="#f0d0b4"/><path d="M46.065,2.71V4.516H42.452V2.71A1.812,1.812,0,0,1,44.258.9a1.766,1.766,0,0,1,1.274.533A1.766,1.766,0,0,1,46.065,2.71Z" fill="#f0d0b4"/><path d="M49.677,2.71V6.323a1.81,1.81,0,0,1-3.387.885,2.724,2.724,0,0,0,.677-1.788.906.906,0,0,0-.9-.9V2.71A1.812,1.812,0,0,1,47.871.9a1.766,1.766,0,0,1,1.274.533A1.766,1.766,0,0,1,49.677,2.71Z" fill="#f0d0b4"/><path d="M51.484,8.129A1.812,1.812,0,0,0,53.29,6.323v5.726a3.617,3.617,0,0,1-1.057,2.556l-.75.75H40.645l-.75-.75a3.617,3.617,0,0,1-1.057-2.556V6.323a1.812,1.812,0,0,1,1.806-1.806h5.419a.906.906,0,0,1,.9.9,2.724,2.724,0,0,1-.677,1.788,1.81,1.81,0,0,0,3.387-.885A1.812,1.812,0,0,0,51.484,8.129Z" fill="#f0d0b4"/><path d="M53.29,5.419v.9a1.806,1.806,0,1,1-3.613,0V2.71A1.812,1.812,0,0,1,51.484.9a1.766,1.766,0,0,1,1.274.533A1.766,1.766,0,0,1,53.29,2.71Z" fill="#f0d0b4"/><path d="M40.645,4.516a1.812,1.812,0,0,0-1.806,1.806V2.71A1.812,1.812,0,0,1,40.645.9a1.766,1.766,0,0,1,1.274.533,1.766,1.766,0,0,1,.533,1.274V4.516Z" fill="#f0d0b4"/><path d="M22.581,4.516a1.812,1.812,0,0,0-1.806,1.806V2.71A1.812,1.812,0,0,1,22.581.9a1.766,1.766,0,0,1,1.274.533,1.766,1.766,0,0,1,.533,1.274V4.516Z" fill="#f0d0b4"/><path d="M35.226,5.419v.9a1.806,1.806,0,0,1-3.613,0V2.71A1.812,1.812,0,0,1,33.419.9a1.766,1.766,0,0,1,1.274.533,1.766,1.766,0,0,1,.533,1.274Z" fill="#f0d0b4"/><path d="M31.613,2.71V6.323a1.81,1.81,0,0,1-3.387.885A2.724,2.724,0,0,0,28.9,5.419a.906.906,0,0,0-.9-.9V2.71A1.812,1.812,0,0,1,29.806.9a1.766,1.766,0,0,1,1.274.533A1.766,1.766,0,0,1,31.613,2.71Z" fill="#f0d0b4"/><path d="M28,2.71V4.516H24.387V2.71A1.812,1.812,0,0,1,26.194.9a1.766,1.766,0,0,1,1.274.533A1.766,1.766,0,0,1,28,2.71Z" fill="#f0d0b4"/><path d="M33.419,15.355H22.581l-.75-.75a3.617,3.617,0,0,1-1.057-2.556V6.323a1.812,1.812,0,0,1,1.806-1.806H28a.906.906,0,0,1,.9.9,2.724,2.724,0,0,1-.677,1.788,1.81,1.81,0,0,0,3.387-.885,1.806,1.806,0,0,0,3.613,0v5.726a3.617,3.617,0,0,1-1.057,2.556Z" fill="#f0d0b4"/><path d="M13.548,2.71V6.323a1.81,1.81,0,0,1-3.387.885,2.724,2.724,0,0,0,.677-1.788.906.906,0,0,0-.9-.9V2.71A1.812,1.812,0,0,1,11.742.9a1.766,1.766,0,0,1,1.274.533A1.766,1.766,0,0,1,13.548,2.71Z" fill="#f0d0b4"/><path d="M9.935,2.71V4.516H6.323V2.71A1.812,1.812,0,0,1,8.129.9,1.766,1.766,0,0,1,9.4,1.436,1.766,1.766,0,0,1,9.935,2.71Z" fill="#f0d0b4"/><path d="M17.161,5.419v.9a1.806,1.806,0,1,1-3.613,0V2.71A1.812,1.812,0,0,1,15.355.9a1.766,1.766,0,0,1,1.274.533,1.766,1.766,0,0,1,.533,1.274Z" fill="#f0d0b4"/><path d="M4.516,4.516A1.812,1.812,0,0,0,2.71,6.323V2.71A1.812,1.812,0,0,1,4.516.9a1.766,1.766,0,0,1,1.274.533A1.766,1.766,0,0,1,6.323,2.71V4.516Z" fill="#f0d0b4"/><path d="M15.355,8.129a1.812,1.812,0,0,0,1.806-1.806v5.726A3.617,3.617,0,0,1,16.1,14.605l-.75.75H4.516l-.75-.75A3.617,3.617,0,0,1,2.71,12.049V6.323A1.812,1.812,0,0,1,4.516,4.516H9.935a.906.906,0,0,1,.9.9,2.724,2.724,0,0,1-.677,1.788,1.81,1.81,0,0,0,3.387-.885A1.812,1.812,0,0,0,15.355,8.129Z" fill="#f0d0b4"/><path d="M56,34.817V27.1H53.29V16.258a1.786,1.786,0,0,0-.366-1.078,4.485,4.485,0,0,0,1.269-3.129V2.71A2.7,2.7,0,0,0,49.677.7a2.668,2.668,0,0,0-3.613,0,2.668,2.668,0,0,0-3.613,0A2.7,2.7,0,0,0,37.935,2.71v9.342A4.484,4.484,0,0,0,39.2,15.181a1.786,1.786,0,0,0-.366,1.078v12.7a7.737,7.737,0,0,0-2.214,3.165,9.992,9.992,0,0,0-1.4-1.886V16.258a1.786,1.786,0,0,0-.366-1.078,4.485,4.485,0,0,0,1.269-3.129V2.71A2.7,2.7,0,0,0,31.613.7,2.668,2.668,0,0,0,28,.7a2.668,2.668,0,0,0-3.613,0A2.7,2.7,0,0,0,19.871,2.71v9.342a4.484,4.484,0,0,0,1.269,3.129,1.786,1.786,0,0,0-.366,1.078V30.235a9.963,9.963,0,0,0-1.4,1.886,7.743,7.743,0,0,0-2.214-3.165v-12.7a1.786,1.786,0,0,0-.366-1.078,4.485,4.485,0,0,0,1.269-3.129V2.71A2.7,2.7,0,0,0,13.548.7,2.668,2.668,0,0,0,9.935.7,2.668,2.668,0,0,0,6.323.7,2.7,2.7,0,0,0,1.806,2.71v9.342a4.484,4.484,0,0,0,1.269,3.129,1.786,1.786,0,0,0-.366,1.078v12.7a7.7,7.7,0,0,0-2.158,8.73l.037.092a3.6,3.6,0,0,0,3.024,5.578H3.7a4.513,4.513,0,0,0,2.231,3.019A7.225,7.225,0,0,0,2.71,52.387v1.806H0V56H56V54.194H53.29V52.387a7.225,7.225,0,0,0-3.225-6.013A4.51,4.51,0,0,0,52.3,43.355h.091a3.6,3.6,0,0,0,3.024-5.578l.037-.093A7.7,7.7,0,0,0,56,34.817ZM51.484,16.258v1.806H40.645V16.258ZM40.645,19.871H51.484v1.806H40.645ZM51.484,1.806a.9.9,0,0,1,.9.9V6.323a.9.9,0,0,1-1.806,0V2.71A.9.9,0,0,1,51.484,1.806Zm-3.613,0a.9.9,0,0,1,.9.9V6.323a.9.9,0,0,1-1.342.787,3.569,3.569,0,0,0,.439-1.69,1.8,1.8,0,0,0-.9-1.555V2.71A.9.9,0,0,1,47.871,1.806Zm-3.613,0a.9.9,0,0,1,.9.9v.9H43.355v-.9A.9.9,0,0,1,44.258,1.806Zm-3.613,0a.9.9,0,0,1,.9.9v.9h-.9a2.679,2.679,0,0,0-.9.166V2.71A.9.9,0,0,1,40.645,1.806Zm0,3.613h5.419a1.808,1.808,0,0,1-1.806,1.806h-2.71V9.59l.5.249a2.354,2.354,0,0,1,1.307,2.115v.69h1.806v-.69A4.148,4.148,0,0,0,43.97,9.032h.288a3.589,3.589,0,0,0,1.965-.589,2.635,2.635,0,0,0,3.454-.116,2.626,2.626,0,0,0,2.71.538v3.186a2.693,2.693,0,0,1-.793,1.917l-.484.483H41.019l-.483-.483a2.692,2.692,0,0,1-.794-1.917V6.323a.9.9,0,0,1,.9-.9Zm0,18.065H51.484V27.1H43.849a7.666,7.666,0,0,0-3.2.7Zm7.718,24-.257,2.052L46.065,47.5l-2.042,2.042-.257-2.052a5.347,5.347,0,0,1,4.6,0Zm-9.525,4.9v1.806H35.226V52.387a7.17,7.17,0,0,0-.5-2.626,6.363,6.363,0,0,0,3.211-5.5V42.853a3.576,3.576,0,0,0,1.806.5h.091a4.513,4.513,0,0,0,2.231,3.019,7.225,7.225,0,0,0-3.225,6.013Zm-28.9-5.419a5.371,5.371,0,0,1,2.3.519l-.257,2.052L9.935,47.5,7.893,49.539l-.257-2.052A5.371,5.371,0,0,1,9.935,46.968Zm4-.593a4.51,4.51,0,0,0,2.231-3.019h.091a3.576,3.576,0,0,0,1.806-.5v1.405a6.363,6.363,0,0,0,3.211,5.5,7.17,7.17,0,0,0-.5,2.626v1.806H17.161V52.387A7.225,7.225,0,0,0,13.936,46.374Zm2.322-8.439a1.806,1.806,0,1,1,0,3.613Zm6.323,14.452a5.411,5.411,0,0,1,2.027-4.22,3.591,3.591,0,0,0,6.785,0,5.411,5.411,0,0,1,2.027,4.22v1.806H22.581Zm3.613-7.226a2.713,2.713,0,0,1-2.71-2.71V34.881a.558.558,0,0,1,.807-.5,16.631,16.631,0,0,0,7.4,1.748h.822v6.323a2.713,2.713,0,0,1-2.71,2.71ZM28,46.968a5.384,5.384,0,0,1,1.776.305,1.8,1.8,0,0,1-3.551,0A5.384,5.384,0,0,1,28,46.968Zm11.742-5.419a1.806,1.806,0,1,1,0-3.613Zm-3.613,2.71a4.547,4.547,0,0,1-2.27,3.916A7.292,7.292,0,0,0,32,46.374a4.5,4.5,0,0,0,2.322-3.923V34.323H31.694A14.81,14.81,0,0,1,25.1,32.765a2.365,2.365,0,0,0-3.422,2.115v7.571A4.5,4.5,0,0,0,24,46.374a7.278,7.278,0,0,0-1.859,1.8,4.547,4.547,0,0,1-2.27-3.916V37.032a8.129,8.129,0,0,1,16.258,0ZM22.581,19.871H33.419v1.806H22.581Zm10.839-3.613v1.806H22.581V16.258ZM22.581,23.484H33.419v5.231a9.882,9.882,0,0,0-10.839,0ZM33.419,1.806a.9.9,0,0,1,.9.9V6.323a.9.9,0,1,1-1.806,0V2.71A.9.9,0,0,1,33.419,1.806Zm-3.613,0a.9.9,0,0,1,.9.9V6.323a.9.9,0,0,1-1.342.787,3.569,3.569,0,0,0,.439-1.69,1.8,1.8,0,0,0-.9-1.555V2.71A.9.9,0,0,1,29.806,1.806Zm-3.613,0a.9.9,0,0,1,.9.9v.9H25.29v-.9A.9.9,0,0,1,26.194,1.806Zm-3.613,0a.9.9,0,0,1,.9.9v.9h-.9a2.679,2.679,0,0,0-.9.166V2.71A.9.9,0,0,1,22.581,1.806Zm0,3.613H28a1.808,1.808,0,0,1-1.806,1.806h-2.71V9.59l.5.249a2.354,2.354,0,0,1,1.307,2.115v.69H27.1v-.69a4.148,4.148,0,0,0-1.191-2.923h.288a3.589,3.589,0,0,0,1.965-.589,2.635,2.635,0,0,0,3.454-.116,2.626,2.626,0,0,0,2.71.538v3.186a2.693,2.693,0,0,1-.793,1.917l-.484.483H22.955l-.483-.483a2.692,2.692,0,0,1-.794-1.917V6.323a.9.9,0,0,1,.9-.9ZM15.355,16.258v1.806H4.516V16.258ZM4.516,19.871H15.355v1.806H4.516ZM15.355,1.806a.9.9,0,0,1,.9.9V6.323a.9.9,0,0,1-1.806,0V2.71A.9.9,0,0,1,15.355,1.806Zm-3.613,0a.9.9,0,0,1,.9.9V6.323a.9.9,0,0,1-1.342.787,3.569,3.569,0,0,0,.439-1.69,1.8,1.8,0,0,0-.9-1.555V2.71A.9.9,0,0,1,11.742,1.806Zm-3.613,0a.9.9,0,0,1,.9.9v.9H7.226v-.9A.9.9,0,0,1,8.129,1.806Zm-3.613,0a.9.9,0,0,1,.9.9v.9h-.9a2.679,2.679,0,0,0-.9.166V2.71A.9.9,0,0,1,4.516,1.806Zm0,3.613H9.935A1.808,1.808,0,0,1,8.129,7.226H5.419V9.59l.5.249a2.354,2.354,0,0,1,1.307,2.115v.69H9.032v-.69A4.148,4.148,0,0,0,7.841,9.032h.288a3.589,3.589,0,0,0,1.965-.589,2.635,2.635,0,0,0,3.454-.116,2.626,2.626,0,0,0,2.71.538v3.186a2.693,2.693,0,0,1-.793,1.917l-.484.483H4.89l-.483-.483a2.692,2.692,0,0,1-.794-1.917V6.323a.9.9,0,0,1,.9-.9Zm0,18.065H15.355V27.8a7.666,7.666,0,0,0-3.2-.7H7.72a7.666,7.666,0,0,0-3.2.7ZM1.806,39.742a1.808,1.808,0,0,1,1.806-1.806v3.613A1.808,1.808,0,0,1,1.806,39.742Zm1.806-3.613a3.574,3.574,0,0,0-1.562.369A5.912,5.912,0,0,1,7.72,28.9h4.431a5.912,5.912,0,0,1,5.669,7.6,3.574,3.574,0,0,0-1.562-.369,2.713,2.713,0,0,0-2.71-2.71H6.323A2.713,2.713,0,0,0,3.613,36.129Zm4.516,9.032a2.713,2.713,0,0,1-2.71-2.71V36.129a.9.9,0,0,1,.9-.9h7.226a.9.9,0,0,1,.9.9v6.323a2.713,2.713,0,0,1-2.71,2.71ZM4.516,52.387a5.393,5.393,0,0,1,1.452-3.68l.59,4.722,3.377-3.378,3.377,3.377.59-4.722a5.4,5.4,0,0,1,1.452,3.681v1.806H4.516Zm46.968,0v1.806H40.645V52.387a5.393,5.393,0,0,1,1.452-3.68l.59,4.722,3.377-3.378,3.377,3.377.59-4.722a5.4,5.4,0,0,1,1.452,3.681Zm-.9-9.935a2.713,2.713,0,0,1-2.71,2.71H44.258a2.713,2.713,0,0,1-2.71-2.71V36.675a1.8,1.8,0,0,1,.8-1.5l.925-.617a7.163,7.163,0,0,0,4.5,1.573h2.8Zm-2.8-8.129a5.386,5.386,0,0,1-3.832-1.587l-1.761-1.761-1.277,1.277,1.027,1.028-.586.391a3.6,3.6,0,0,0-1.563,2.459h-.045a3.574,3.574,0,0,0-1.562.369,5.913,5.913,0,0,1,5.669-7.6H54.194v5.913a5.9,5.9,0,0,1-.245,1.682,3.574,3.574,0,0,0-1.562-.369V34.323Zm4.607,7.226V37.935a1.806,1.806,0,0,1,0,3.613Z"/><circle cx="0.903" cy="0.903" r="0.903" transform="translate(42.452 37.032)"/><circle cx="0.903" cy="0.903" r="0.903" transform="translate(47.871 37.032)"/><path d="M46.065,42.452a.9.9,0,0,1-.9-.9H43.355a2.71,2.71,0,0,0,5.419,0H46.968A.9.9,0,0,1,46.065,42.452Z"/><circle cx="0.903" cy="0.903" r="0.903" transform="translate(24.387 37.032)"/><circle cx="0.903" cy="0.903" r="0.903" transform="translate(29.806 37.032)"/><path d="M30.71,41.548H28.9a.9.9,0,0,1-1.806,0H25.29a2.71,2.71,0,1,0,5.419,0Z"/><circle cx="0.903" cy="0.903" r="0.903" transform="translate(6.323 37.032)"/><circle cx="0.903" cy="0.903" r="0.903" transform="translate(11.742 37.032)"/><path d="M12.645,41.548H10.839a.9.9,0,0,1-1.806,0H7.226a2.71,2.71,0,1,0,5.419,0Z"/></g></g></svg>