<svg xmlns="http://www.w3.org/2000/svg" xmlns:xlink="http://www.w3.org/1999/xlink" width="295" height="188.236" viewBox="0 0 295 188.236"><defs><clipPath id="a"><path d="M0,0H295V188.236H0Z" transform="translate(0 -11.699)" fill="none"/></clipPath><clipPath id="b"><rect width="295" height="186.564" transform="translate(0 -12)" fill="none"/></clipPath><clipPath id="c"><rect width="18.975" height="97.175" fill="none"/></clipPath><clipPath id="d"><rect width="18.975" height="97.174" fill="none"/></clipPath><clipPath id="e"><rect width="15.325" height="28.472" fill="none"/></clipPath><clipPath id="g"><rect width="3.826" height="10.693" fill="none"/></clipPath><clipPath id="h"><rect width="3.822" height="10.693" fill="none"/></clipPath><clipPath id="i"><rect width="13.227" height="5.725" fill="none"/></clipPath><clipPath id="j"><rect width="13.226" height="5.723" fill="none"/></clipPath><clipPath id="k"><rect width="13.977" height="7.014" fill="none"/></clipPath></defs><g transform="translate(-390 -5407)"><g transform="translate(390 5418.699)"><g clip-path="url(#a)"><g transform="translate(0 0.001)"><g clip-path="url(#b)"><path d="M140.969,147.161c1.829-7.391,2.249-15.209,6.7-22.114,3.637-5.645,8-8.629,14.557-9.73,3.439-.579,9.667,1.3,12.5.3,4.164-1.479,5.661-10.374,9.615-13.84,8.042-7.044,17.991-7.147,26.574-2.467,2.93-9.645,13.547-14.147,23.273-13.227,5.428.511,6.1,4.084,9.76,5.708,1.68.744,2.524-.511,4.377-.118,6.031,1.276,11.1,4.464,13.877,10.34.876,1.852.393,7.771,1.583,8.946,1.3,1.286,6.679,1.106,8.417,1.817a20.766,20.766,0,0,1,11.847,13.588c2.467,8.4,1.519,2.837,9.75,7.325,6.015,3.279,6.415,9.774,10.721,13.154,3.586,2.813,7.1,2.4,8.46,8.452.742,3.3.2,7.658-.34,10.847a791.718,791.718,0,0,1-86.6-.3c-20.861-1.285-41.995.432-62.727-1.307-11.156-.936-22.212-3.6-33.322-3.517.891-6.187,5.083-14.254,10.983-13.864" transform="translate(-19.386 -12.822)" fill="#56a254"/><path d="M15.2,169.8c.294-5.908-1.264-19.485,10.314-18.613-2.865-14.271,9.542-22.713,23.393-22.346.143-9.763,5.115-21.157,15.081-24.728,5.371-1.925,12.593-4.241,17.953-1.924,3.842,1.66,5.263,5.922,7.859,7.411,2.36,1.355,1.719.059,4.9.207,9.189.43,14.083,2.862,17.5,10.891,9.014-3.551,23.089,2.453,26.292,11.988,5.477-2.273,11.61-.129,15.674,4.4,2.033,2.265,5.639,5.755,7.124,8.146,2.85,4.587,4.254,17.533-.841,20.267-3.881,2.082-11.342.986-15.632,1.16-11.719.473-23.34.245-35.088-.24-20.916-.864-42.117-1.446-62.922,0-8.641.6-22.4-.351-31.612,3.392" transform="translate(-2.266 -15.096)" fill="#73b88d"/><path d="M295,184.345c0,8.514-73.75,14.75-147.5,14.75S0,192.859,0,184.345,66.038,168.93,147.5,168.93s147.5,6.9,147.5,15.415" transform="translate(0 -25.195)" fill="#c1722e"/><path d="M47.474,62.971H109.3c1.8-5.21-5.244-7.971-9.339-6.506-.865-6.205-3.444-11.855-10-8.434-1.828-3.416-2.449-6.756-6.08-9.274-5.621-3.892-9.76-.776-13.746,3.1-2.568,2.495-3.254.689-6.916,1.191-6.151.841-6.878,6.381-8.679,11.136-2.6-.208-4.346-.516-6.255,1.667-1.446,1.659-2.275,5.078-.809,7.122" transform="translate(-6.966 -5.514)" fill="#d5d5d5"/><path d="M236.58,32.356h76.936c2.244-6.483-6.525-9.919-11.627-8.1-1.075-7.722-4.285-14.753-12.444-10.5-2.276-4.25-3.048-8.408-7.568-11.537-6.994-4.844-12.146-.969-17.1,3.854-3.195,3.1-4.048.857-8.606,1.481-7.654,1.046-8.56,7.939-10.8,13.858-3.24-.258-5.41-.641-7.785,2.076-1.806,2.059-2.832,6.32-1.008,8.862" transform="translate(-50.42 -10.001)" fill="#d5d5d5"/><path d="M254.964,179.877c0,2.028-10,3.672-22.334,3.672s-22.334-1.644-22.334-3.672,10-3.672,22.334-3.672,22.334,1.644,22.334,3.672" transform="translate(-31.364 -26.28)" fill="#a44a0d"/><path d="M205.826,148.216v5.626H202.2v-.01H169.863v-5.616Z" transform="translate(-25.334 -22.106)" fill="#a7560b"/><rect width="35.962" height="6.502" transform="translate(144.529 119.608)" fill="#c1722e"/><rect width="35.962" height="6.507" transform="translate(144.529 113.101)" fill="#a7560b"/><rect width="35.962" height="5.667" transform="translate(144.529 107.434)" fill="#c1722e"/><path d="M205.826,91.107v5.626H202.2v-.01H169.863V91.107Z" transform="translate(-25.334 -13.589)" fill="#a7560b"/><rect width="35.962" height="6.502" transform="translate(144.529 71.021)" fill="#c1722e"/><rect width="35.962" height="6.502" transform="translate(144.529 64.519)" fill="#a7560b"/><path d="M205.825,69.163v5.672H169.863V69.163H204.7c.312.01.636.01.973,0Z" transform="translate(-25.334 -10.316)" fill="#c1722e"/><rect width="35.957" height="5.621" transform="translate(140.912 150.401)" fill="#b85815"/><rect width="35.957" height="6.502" transform="translate(140.912 143.899)" fill="#e8873f"/><rect width="35.957" height="6.502" transform="translate(140.912 137.397)" fill="#b85815"/><path d="M201.57,154.826v5.662H165.613v-5.672h3.617v.01Z" transform="translate(-24.7 -23.09)" fill="#e8873f"/><rect width="35.957" height="5.621" transform="translate(140.912 101.814)" fill="#b85815"/><rect width="35.957" height="6.502" transform="translate(140.912 95.311)" fill="#e8873f"/><rect width="35.957" height="6.502" transform="translate(140.912 88.81)" fill="#b85815"/><path d="M201.57,97.722v5.662H165.613V97.712h3.617v.01Z" transform="translate(-24.7 -14.574)" fill="#e8873f"/><g transform="translate(161.517 58.847)" opacity="0.35"><g clip-path="url(#c)"><g clip-path="url(#d)"><path d="M208.8,69.163v24.3h-3.622V117.75H208.8v24.3h-3.622v24.281l-15.353.005,12.879-97.174h4.97c.312.01.636.01.973,0Z" transform="translate(-189.828 -69.163)" fill="#4c1f20"/></g></g></g><path d="M246.432,171.959a16.192,16.192,0,0,1,.733,4.3,8.059,8.059,0,0,1-3.277,4.092,6.343,6.343,0,0,1-2.523,1.069,12.8,12.8,0,0,1-6.449-.374,1.071,1.071,0,0,1-.693-1.267,1.826,1.826,0,0,1,.27-.579c.485.672,1.657,1.151,4.3.716,0,0,5.1.044,6.752-4.02a8.246,8.246,0,0,0,.893-3.933" transform="translate(-34.928 -25.647)" fill="#111212"/><path d="M246.433,169.12a8.31,8.31,0,0,1-.892,3.935c-1.655,4.063-6.753,4.017-6.753,4.017-2.638.436-3.812-.041-4.3-.717a2.3,2.3,0,0,1-.117-2.024,3.678,3.678,0,0,1,2.433-2.3l-.015-.149c.41-2.142-1.265-10.775-1.265-10.775l2.306-2.228,6.184-5.964,1.087,6.892,1.281,8.146c.041.415.051.8.051,1.168" transform="translate(-34.928 -22.807)" fill="#242425"/><path d="M241.4,175.626a.261.261,0,0,1-.085-.012,7.784,7.784,0,0,0-4.021-.067.276.276,0,1,1-.17-.525,8.242,8.242,0,0,1,4.35.066.276.276,0,0,1-.085.539" transform="translate(-35.336 -26.065)" fill="#040405"/><path d="M245.741,159.8c-.441-.139-.9-.255-1.343-.359a22.158,22.158,0,0,0-5.928-.568l6.184-5.964Z" transform="translate(-35.566 -22.807)" fill="#171717"/><path d="M245.268,148.084l-2.967,2.869-8.489,8.193-1.48,1.429a11.843,11.843,0,0,0-3.608,8.495v.436a6.329,6.329,0,0,0,.225,1.665,3.092,3.092,0,0,1-1.845,3.94s-5.2-1.691-4.288-12.809c0,0,.42-7.67-.112-10.775,0,0,.466-1.475,3.136-1.055,0,0,.02-.005.061-.02a18.131,18.131,0,0,0,3.971-1.86c.42-.261.861-.548,1.312-.871a20,20,0,0,0,6.564-7.942l1.361,1.5,5.472,6.036Z" transform="translate(-33.215 -20.848)" fill="#242425"/><path d="M226.844,177.158a1.658,1.658,0,0,1-2.212.165c-5.02-5.02-3.426-12.167-3.426-12.167a67.391,67.391,0,0,0,0-10.647.88.88,0,0,1,1.233-.936c.528,3.1.11,10.773.11,10.773-.914,11.12,4.291,12.811,4.291,12.811" transform="translate(-32.955 -22.893)" fill="#111212"/><path d="M235.713,160.83a.274.274,0,0,1-.276-.274.271.271,0,0,1,.084-.2L246.976,149.3a.276.276,0,0,1,.383.4L235.9,160.753a.272.272,0,0,1-.191.077" transform="translate(-35.114 -22.257)" fill="#040405"/><path d="M228.747,154.22c-.79,1.314-.486,2.855-.653,4.361a.148.148,0,0,1-.294,0c-.165-1.252-.471-2.522-.646-3.758a7.5,7.5,0,0,0-.693-2.828,18.172,18.172,0,0,0,3.971-1.86c.077,1.378-1.05,3.033-1.686,4.084" transform="translate(-33.775 -22.392)" fill="#171717"/><path d="M241.232,15.616a11.746,11.746,0,0,1-.856,2.542c-.277.511-.6.881-.964.809a23.191,23.191,0,0,1-.333-3.289,19.835,19.835,0,0,0-.82-3.829c-.692.712-.968,1.645-1.787,2.311a6.314,6.314,0,0,1-2.388,1.209,7.65,7.65,0,0,1-4.96-.287c-.17,1.158.271,2.679-.4,3.744-.246.379-.511.466-.773.39h-.005a2.259,2.259,0,0,1-1-.994,5.638,5.638,0,0,1-.861-3.883c.21-.7.917-1.548,1.721-1.348q.054-.255.123-.511c.015-.056.031-.112.051-.17a6.983,6.983,0,0,1,.522-1.24l.066-.117a10.749,10.749,0,0,1,6.277-4.595,9.263,9.263,0,0,1,1.829-.379c.052-.005.108-.01.164-.01a5.057,5.057,0,0,1,1.04.026,3.69,3.69,0,0,1,1.845.773l.17.149a3.319,3.319,0,0,1,.563.656,3.7,3.7,0,0,1,.255,3.259c-.185.766.214.978.44,1.721a6.109,6.109,0,0,1,.072,3.069" transform="translate(-33.703 -0.889)" fill="#040405"/><path d="M240.243,7.05a1.713,1.713,0,0,0-1.9.814,4.338,4.338,0,0,0-.533,1.3c-.052.18-.108.364-.17.543a7.978,7.978,0,0,1-1.132,2.142,5.354,5.354,0,0,1-3.637,2.075,8.861,8.861,0,0,1-1.191.085,5.52,5.52,0,0,1-1.993-.322,3.368,3.368,0,0,1-1.418-1.066c.015-.056.031-.112.051-.17a3.1,3.1,0,0,0,1.415,1.117,6.967,6.967,0,0,0,3.12.236,5.24,5.24,0,0,0,3.55-2.029,7.843,7.843,0,0,0,1.112-2.106c.062-.18.118-.364.17-.538a4.753,4.753,0,0,1,.549-1.332,1.8,1.8,0,0,1,1.828-.892Z" transform="translate(-34.045 -1.027)" fill="#353435"/><path d="M228.948,11.066a1.956,1.956,0,0,0,.9.62,3.982,3.982,0,0,0,1.291.2,6.131,6.131,0,0,0,2.162-.425c1.511-.584,2.521-2.408,3.3-4.119.056-.128.113-.255.164-.364a6.732,6.732,0,0,1,.517-1.014c-.056,0-.112.005-.164.01a8.541,8.541,0,0,0-.471.948c-.052.117-.1.241-.164.364-.773,1.691-1.762,3.489-3.233,4.053a5.04,5.04,0,0,1-3.361.225,1.8,1.8,0,0,1-.876-.615Z" transform="translate(-34.146 -0.89)" fill="#353435"/><path d="M241.768,20.82a1.57,1.57,0,0,0-1.3-1.63c-.276.511-.606.881-.964.809a23.027,23.027,0,0,1-.33-3.288,20.16,20.16,0,0,0-.821-3.829c-.693.71-.969,1.646-1.787,2.313a6.32,6.32,0,0,1-2.39,1.207,7.611,7.611,0,0,1-4.956-.287c-.17,1.156.27,2.682-.4,3.744-.242.38-.511.468-.771.391h-.005a.829.829,0,0,0-.165.016,1.577,1.577,0,0,0,.54,3.106,1.486,1.486,0,0,0,.578-.231h.033l.671,9.054s.138,3.806,6.207,3.586c0,0,4.924-.5,4.318-4.88a2.15,2.15,0,0,0-.039-.255l-.066.011c-6.113,2.241-8.266-2.1-8.4-2.406.17.255,2.1,2.919,6.152.986a3.233,3.233,0,0,0,1.729-2.127,10.524,10.524,0,0,0,.308-4.819,1.238,1.238,0,0,0,.209.028,1.573,1.573,0,0,0,1.652-1.489v0m-10.034-.138a.681.681,0,1,1,.655-.705h0a.687.687,0,0,1-.655.7m5.281-.3a.681.681,0,1,1,.655-.705.68.68,0,0,1-.655.705" transform="translate(-33.794 -1.922)" fill="#f9ae81"/><path d="M241.086,33.128l-.066.011c-6.113,2.241-8.267-2.1-8.4-2.406.17.255,2.1,2.919,6.152.986a3.238,3.238,0,0,0,1.729-2.127l.511,3.129c.033.137.06.275.085.408" transform="translate(-34.693 -4.414)" fill="#cd7e5b"/><path d="M239.377,20.756a.7.7,0,1,1,0-.012v.012" transform="translate(-35.498 -2.999)" fill="#040405"/><path d="M233.166,21.105a.681.681,0,1,1-.71-.661.681.681,0,0,1,.71.661h0" transform="translate(-34.572 -3.05)" fill="#040405"/><path d="M237.872,27.255a2,2,0,0,1-.884.979,2.266,2.266,0,0,1-1.349.277,2.984,2.984,0,0,1-1.267-.476,5.813,5.813,0,0,1-.511-.415,5.6,5.6,0,0,1-.417-.5c.205.085.391.185.574.282l.558.255a4.3,4.3,0,0,0,1.12.307,2.946,2.946,0,0,0,2.176-.709" transform="translate(-34.816 -4.045)" fill="#a3563b"/><path d="M236.656,20.7a13.271,13.271,0,0,1,.545,2.175,21,21,0,0,1,.264,2.212v.032a.212.212,0,0,1-.2.225h-.02a11.662,11.662,0,0,1-1.694-.162,11.652,11.652,0,0,1,1.676-.294l-.217.255a21.161,21.161,0,0,1-.318-2.2,13.152,13.152,0,0,1-.038-2.242" transform="translate(-35.131 -3.087)" fill="#cd7e5b"/><path d="M233.214,19.441a7.6,7.6,0,0,1-1.149.277c-.362.065-.681.142-1.127.242a1.323,1.323,0,0,1,1.021-.782,1.6,1.6,0,0,1,1.251.265" transform="translate(-34.443 -2.856)" fill="#040405"/><path d="M239.9,18.914a5.056,5.056,0,0,1-1.133.17c-.18,0-.354.02-.537.016a5.8,5.8,0,0,1-.6-.013,1.409,1.409,0,0,1,1.1-.552,1.6,1.6,0,0,1,1.164.376" transform="translate(-35.441 -2.764)" fill="#040405"/><path d="M227.6,22.43a1.191,1.191,0,0,1,.9.457,1.3,1.3,0,0,1,.289.963,4.274,4.274,0,0,0-.488-.8,3.081,3.081,0,0,0-.7-.619" transform="translate(-33.945 -3.346)" fill="#a3563b"/><path d="M243.282,21.058a3.093,3.093,0,0,0-.5.784,4.2,4.2,0,0,0-.255.9,1.3,1.3,0,0,1,.019-1.006,1.2,1.2,0,0,1,.739-.681" transform="translate(-36.156 -3.141)" fill="#a3563b"/><path d="M247.56,81.926a.836.836,0,0,1-1.144-.3.826.826,0,0,1-.06-.127.765.765,0,0,1-.056-.3.851.851,0,0,1,.42-.727l4.407-2.516-3,1.184a.821.821,0,0,1-1.068-.455.824.824,0,0,1,.437-1.064l2.306-.978a3.382,3.382,0,0,1,1.25-.271.839.839,0,0,1,.113-.005h.641c-.51-3.417-.841-6.389-1.05-8.971v-.01c-1.5-3.791-2.787-12.978-2.787-12.978l-1.537.307c-.085-.451-.2-.953-.34-1.486l-15.412.866c.553,1.931.978,3.166.978,3.166l-1.617.2q-.361-1.2-.671-2.367a61.4,61.4,0,0,0-2.823,9.6,18.093,18.093,0,0,1,3.422,6.358s1.6,5.687-1.191,6.62l-.1-.036a3.913,3.913,0,0,1-.625,1.132.474.474,0,0,1-.22.154.555.555,0,0,1-.405,0,.568.568,0,0,1-.364-.528.547.547,0,0,1,.046-.22l.215-.5a4.208,4.208,0,0,1-.348.492.537.537,0,0,1-.431.205.6.6,0,0,1-.374-.144.563.563,0,0,1-.128-.641,15.3,15.3,0,0,0,1.055-4.407,17.356,17.356,0,0,0,.1-1.972l-.215,1.645-.041.333a4.8,4.8,0,0,1-.8,2.1l-.707,1.021a.505.505,0,0,1-.395.19.494.494,0,0,1-.34-.123.511.511,0,0,1-.107-.61l.271-.528a.784.784,0,0,0,.085-.215,7.522,7.522,0,0,0-.22-4.627l-.107.046a82.728,82.728,0,0,0-.856,13.373s.277.077.779.195c.195.051.425.1.692.159.766.17,1.814.369,3.063.553h.005c4.935.722,13.034,1.153,19.936-2.085a.856.856,0,0,1,.238-1.187l.043-.027,4.169-2.454Zm-7.311-15.355s-6.784.994-6.031-7.132c0,0,5.641.8,10.109-.7,0,0,2.6,7.214-4.078,7.828" transform="translate(-33.369 -7.939)" fill="#859089"/><path d="M228.806,87.589a.882.882,0,0,1-.517.139h-.005a11.688,11.688,0,0,1-3.063-.553.4.4,0,0,0-.077-.026,3.542,3.542,0,0,0-.615-.134c-.5-.117-.779-.195-.779-.195a82.728,82.728,0,0,1,.856-13.373l.107-.046a7.522,7.522,0,0,1,.22,4.627.784.784,0,0,1-.085.215l-.271.528a.511.511,0,0,0,.107.61.494.494,0,0,0,.34.123.505.505,0,0,0,.395-.19l.707-1.021a4.8,4.8,0,0,0,.8-2.1l.041-.333a2.944,2.944,0,0,1,.118.328,21.522,21.522,0,0,1,.733,5.743,21.8,21.8,0,0,0,.353,3.6c.164.707.446,1.4.63,2.06" transform="translate(-33.369 -10.948)" fill="#676f6a"/><path d="M249.064,50.367c-1.46-5.9-5.392-16.319-5.392-16.319v-.005c.435.005,1.013.033,1.707.11v.005c2.5,5.2,5.557,17.387,5.557,17.387l-1.537.308c-.085-.452-.2-.952-.336-1.487" transform="translate(-36.342 -5.078)" fill="#676f6a"/><path d="M257.683,119.149l-1.3-8.817c-.353-3.679-.836-7.04-1.332-9.935-6.82-.912-6.881-9.4-6.881-9.4a43,43,0,0,1-4.97,1.491c-.241.061-.482.118-.717.17-.573.123-1.132.231-1.686.322-1.143.195-2.233.328-3.284.415a.063.063,0,0,1-.031.005,36.326,36.326,0,0,1-4.493.085c-1.132-.051-2.172-.159-3.115-.292V93.2s.005.031.02.085c.046.205.159.766.255,1.537.379,3.063.492,9.458-5.036,10.125a109.392,109.392,0,0,0,3.689,16.529,18.957,18.957,0,0,1,.712,3.243l1.26,9.87.743,5.821.026.031A20,20,0,0,0,238.1,132.5l1.361,1.5,3.33,3.674,2.142,2.362.092-.085L255.6,126.806a9.872,9.872,0,0,0,2.08-7.665m-10.969,3.376a8.331,8.331,0,0,1-1.44,3.4l-1.506,2.1-3.135,4.36.031-6.23.123-23.072v-.205l.02.061,5.543,15.242a8.335,8.335,0,0,1,.364,4.344" transform="translate(-33.574 -13.573)" fill="#859089"/><path d="M232.148,54.652l-1.617.2q-.364-1.206-.672-2.368v-.006a82.909,82.909,0,0,1-2.82-16.319,16.631,16.631,0,0,1,1.708-.425c-.315,5.138,1.31,11.858,2.423,15.746.556,1.933.981,3.167.981,3.167" transform="translate(-33.861 -5.331)" fill="#676f6a"/><path d="M256.658,88.952a106.125,106.125,0,0,1,2.439,11.125c-6.824-.909-6.884-9.4-6.884-9.4q1.23-.454,2.5-1.007a.875.875,0,0,0,1.237-.007c.014-.014.026-.028.039-.043l.622-.716Z" transform="translate(-37.616 -13.261)" fill="#a5aea8"/><path d="M253.433,84.984l-2.963,2.859a.865.865,0,0,0-.265.628.881.881,0,0,0,.255.623q-1.272.553-2.5,1.007a42.016,42.016,0,0,1-7.374,1.982c-1.151.192-2.252.33-3.31.419a34.458,34.458,0,0,1-7.612-.209,23.325,23.325,0,0,1-5.882-1.492c-.022-.777-.033-1.526-.033-2.252,0,0,13.7,3.871,24.475-1.179a.851.851,0,0,0,1.178.242Z" transform="translate(-33.37 -12.676)" fill="#a5aea8"/><path d="M224.913,105.072c-.538-3.744-.856-7.25-1.014-10.442-.046-.927-.085-1.824-.1-2.695a.916.916,0,0,1-.005-.118,23.215,23.215,0,0,0,5.882,1.5v.005s.005.031.02.085c.046.205.159.766.255,1.537.379,3.063.492,9.458-5.036,10.125" transform="translate(-33.377 -13.695)" fill="#a5aea8"/><path d="M223.755,88.965c1.021.2,2.042.4,3.07.528,1.021.157,2.055.278,3.086.373a51.047,51.047,0,0,0,6.2.224,38.325,38.325,0,0,0,6.157-.6l1.519-.309c.51-.1.995-.274,1.5-.405,1.017-.225,1.957-.666,2.952-.986a24.781,24.781,0,0,1-5.883,2.114,34.308,34.308,0,0,1-6.228.739,43.93,43.93,0,0,1-6.255-.355,36.2,36.2,0,0,1-6.108-1.32" transform="translate(-33.371 -13.094)" fill="#323432"/><path d="M239.652,93.819a28.5,28.5,0,0,1,1.245,7.8,28.5,28.5,0,0,1-1.245-7.8" transform="translate(-35.742 -13.993)" fill="#323432"/><path d="M245.926,146.2l-5.471-6.036-1.361-1.5a19.991,19.991,0,0,1-6.564,7.942l-.026-.031-.743-5.821c.511-.225,1.081-.405,1.394-.573a16.1,16.1,0,0,0,4.863-4.493,15.074,15.074,0,0,1,3.632-3.376l-.031,6.23.443-.617c.385.8,2.824,5.429,3.859,8.277" transform="translate(-34.566 -19.734)" fill="#676f6a"/><path d="M241.868,141.417a.275.275,0,0,1-.224-.436l1.832-2.542a.276.276,0,0,1,.447.322l-1.832,2.54a.275.275,0,0,1-.224.115" transform="translate(-36.032 -20.633)" fill="#323432"/><path d="M231.977,80.113c2.831-2.042,5.9-3.765,8.585-6.079a31.34,31.34,0,0,0,3.586-2.933,11.069,11.069,0,0,1,1.377-1.639c-1.191,2.865-3.423,4.926-4.982,7.521,2.494-1.378,4.747-3.587,7.082-5.438a29.836,29.836,0,0,1-7.251,8.077c-1.191.928-2.236,2.148-3.5,3a15.389,15.389,0,0,0-2.511,1.4c1.746-2.093,4.472-4.595,5.093-7.336-2.191,1.515-4.752,3.62-7.477,3.433" transform="translate(-34.598 -10.361)" fill="#676f6a"/><path d="M243.442,104.968a.663.663,0,0,1,.077.041v.154a1.325,1.325,0,0,0-.077-.195" transform="translate(-36.307 -15.656)" fill="#444745"/><path d="M250.275,123.4c-.132.446-.358,1.122-.814,1.045a8.335,8.335,0,0,0-.363-4.344l-5.544-15.242c2.107-.3,2.382-2.022,2.935.046.411,1.543,5.594,12.4,3.787,18.5" transform="translate(-36.324 -15.497)" fill="#676f6a"/><path d="M243.348,93.328c.425,1.553.759,3.12,1.047,4.7s.532,3.158.726,4.749v.017a.192.192,0,0,1-.15.211q-1.357.291-2.733.511c.869-.332,1.747-.628,2.632-.9l-.148.228c-.331-1.568-.609-3.148-.851-4.729s-.425-3.175-.528-4.783" transform="translate(-36.128 -13.92)" fill="#323432"/><path d="M243.171,92.632a11.59,11.59,0,0,1-3.837,1.424,50.794,50.794,0,0,1-8.213.861c-.39.02-.779.026-1.168.026-1.219-.005-2.444-.077-3.659-.085a8.909,8.909,0,0,1-2.393-.225c-.046-.927-.085-1.939-.108-2.808.579.185,1.174.52,1.748.643.477.1.948.236,1.414.374a16.922,16.922,0,0,0,2.741.568,23.973,23.973,0,0,0,3.095.2c.8,0,1.594-.026,2.377-.066.712-.041,1.429-.026,2.147-.02a17.229,17.229,0,0,0,2.352-.092,11.742,11.742,0,0,0,2.321-.533c.1-.036.2-.077.3-.112a1.775,1.775,0,0,1,.717-.17.959.959,0,0,1,.17.02" transform="translate(-33.377 -13.696)" fill="#676f6a"/><path d="M223.793,91.52a22.643,22.643,0,0,0,3.3.881,32.554,32.554,0,0,0,3.368.5,36.631,36.631,0,0,0,6.789.047l3.376-.405c1.12-.18,2.228-.425,3.334-.685s2.2-.572,3.283-.921c1.092-.327,2.143-.766,3.233-1.125q-.776.361-1.561.708c-.522.235-1.044.471-1.581.671q-1.608.6-3.266,1.076a33.294,33.294,0,0,1-3.356.766l-3.417.459a33.6,33.6,0,0,1-6.883-.177,23.533,23.533,0,0,1-6.615-1.8" transform="translate(-33.377 -13.396)" fill="#323432"/><path d="M231.555,96.349a9.925,9.925,0,0,1,.311,3.181,8.888,8.888,0,0,1-.756,3.148,6.339,6.339,0,0,1-2.049,2.519,7.062,7.062,0,0,1-2.951,1.238,9.4,9.4,0,0,0,2.7-1.551,6.792,6.792,0,0,0,1.834-2.422,10.353,10.353,0,0,0,.824-2.968,15.7,15.7,0,0,0,.085-3.148" transform="translate(-33.723 -14.37)" fill="#323432"/><path d="M251.123,92.681a26.234,26.234,0,0,0,1.027,2.978,14.8,14.8,0,0,0,1.458,2.741,7.62,7.62,0,0,0,2.148,2.159,6.01,6.01,0,0,0,1.393.636,6.842,6.842,0,0,0,1.545.255,5.585,5.585,0,0,1-1.6-.012,5.387,5.387,0,0,1-1.538-.535,6.952,6.952,0,0,1-2.368-2.212,11.593,11.593,0,0,1-1.408-2.893,13.13,13.13,0,0,1-.654-3.12" transform="translate(-37.453 -13.823)" fill="#323432"/><path d="M246.153,59.707s2.594,7.214-4.084,7.828c0,0-6.785.991-6.03-7.132,0,0,5.639.8,10.112-.7" transform="translate(-35.195 -8.905)" fill="#a5aea8"/><path d="M236.379,61.164a23.332,23.332,0,0,0,2.432.284,21.255,21.255,0,0,0,2.431.006,16.478,16.478,0,0,0,2.407-.3l.6-.122.587-.164c.4-.085.773-.255,1.172-.363a9.68,9.68,0,0,1-2.289.936,11.252,11.252,0,0,1-2.454.393,13.218,13.218,0,0,1-2.481-.1,11.062,11.062,0,0,1-2.4-.577" transform="translate(-35.254 -9.025)" fill="#323432"/><path d="M224.126,35.909c-3.386,1.035-9.581,3.978-16.582,12.307l.39.4L213.8,54.7l.287.3a7.1,7.1,0,0,0,3.115-1.947s.02.051.051.149a28.269,28.269,0,0,1,1.414,5.611c.912.255,1.706.487,2.331.676a5.564,5.564,0,0,1,2.547,1.645c.123.144.251.3.385.461.066.077.128.159.195.241a61.405,61.405,0,0,1,2.823-9.6v-.009a83.19,83.19,0,0,1-2.823-16.319m14.157-1.86V34.04c-.573-.01-.892.01-.892.01h-.005c.6,4.381-4.319,4.878-4.319,4.878-6.067.22-6.2-3.581-6.2-3.581a7.369,7.369,0,0,0-1.021.134c-.317,5.139,1.312,11.861,2.423,15.75l15.412-.866c-1.455-5.9-5.39-16.319-5.39-16.319m1.706.1v.005c2.5,5.2,5.56,17.39,5.56,17.39s.046.34.139.927c.369,2.428,1.446,8.992,2.649,12.051-.841-10.289.333-14.336.707-15.33.071-.18.112-.261.112-.261a6.177,6.177,0,0,0,2.747,3.295l.766-.681,5.072-4.555.456-.415a23.157,23.157,0,0,0-18.208-12.423" transform="translate(-30.954 -5.077)" fill="#c4bbb3"/><path d="M225.635,64.137c-.134-.164-.262-.317-.385-.461a5.564,5.564,0,0,0-2.547-1.645c-.625-.19-1.42-.425-2.331-.676a28.212,28.212,0,0,0-1.415-5.611c.318-.589.733-1.112,1.06-1.731a14.952,14.952,0,0,0,1.035-2.915c.835,2.034.968,4.529,1.813,6.666.61,1.543,1.476,2.893,2.07,4.424.231.6.5,1.27.7,1.952" transform="translate(-32.656 -7.622)" fill="#a99e96"/><path d="M255.021,66.354c-1.2-3.059-2.28-9.622-2.649-12.051.241-1.092.538-2.167.824-3.243a22.174,22.174,0,0,1,.989-3.213,6.5,6.5,0,0,0,.641-1.543c-.231,1.491.538,2.8.789,4.027.046.231.085.461.112.692-.374.994-1.548,5.041-.707,15.33" transform="translate(-37.639 -6.907)" fill="#a99e96"/><path d="M232.508,48.576a4.1,4.1,0,0,0,2.108-.962,22.43,22.43,0,0,0,3.988-3.055,16.376,16.376,0,0,0,3.148-3.764c.255-.529.47-1.076.726-1.606a12.013,12.013,0,0,1-5.58,8.679c-1.09.681-3.489,2.02-4.39.71" transform="translate(-34.677 -5.845)" fill="#a99e96"/><path d="M256.227,50.445a.276.276,0,0,1-.255-.17,15.8,15.8,0,0,1-.858-7.714.279.279,0,0,1,.3-.247.274.274,0,0,1,.247.3,15.271,15.271,0,0,0,.816,7.443.275.275,0,0,1-.146.361.269.269,0,0,1-.109.022" transform="translate(-38.026 -6.311)" fill="#8a827d"/><path d="M218.852,55.38a.276.276,0,0,1-.2-.468,10.071,10.071,0,0,0,2.593-6.862.263.263,0,0,1,.26-.265h.026a.276.276,0,0,1,.265.286h0a10.605,10.605,0,0,1-2.749,7.225.27.27,0,0,1-.2.085" transform="translate(-32.599 -7.127)" fill="#8a827d"/><path d="M264.753,74.987a2.967,2.967,0,0,0-.318.6l-.9,2.28a3.688,3.688,0,0,1-1.9,2.008l-3.617,1.675a3.737,3.737,0,0,0-1.26.948l-.44.511-.625.717a.873.873,0,0,1-1.232.083l-.039-.037a.873.873,0,0,1-.011-1.234l.017-.016,2.962-2.859-4.028,2.628a.855.855,0,0,1-.938-1.429l.043-.026,4.169-2.454-5.122,2.956a.835.835,0,0,1-1.142-.3.878.878,0,0,1-.061-.128.766.766,0,0,1-.057-.3.851.851,0,0,1,.42-.727l4.407-2.516-3,1.184a.82.82,0,0,1-1.127-.766.81.81,0,0,1,.5-.753l2.306-.978a3.378,3.378,0,0,1,1.25-.271.84.84,0,0,1,.113-.005h2.752a1.678,1.678,0,0,0,.7-.149,1.716,1.716,0,0,0,.927-.936c.066-.17.144-.354.225-.553,1.343-3.346,4.2-10.954,4.063-14.879a2.876,2.876,0,0,0-.015-.3,6.437,6.437,0,0,1-2.162-1.5,14.988,14.988,0,0,1-2.566-3.643l2.547-2.291.882-.789,1.645-1.475s12.824,8.044.646,25.726" transform="translate(-37.323 -7.348)" fill="#f9ae81"/><path d="M252.473,84.173a.276.276,0,0,1-.137-.511l2.893-1.655a.276.276,0,0,1,.3.465l-.024.014-2.893,1.655a.274.274,0,0,1-.136.037" transform="translate(-37.614 -12.225)" fill="#a3563b"/><path d="M252.8,86.16a.275.275,0,0,1-.14-.511l4.169-2.456a.275.275,0,0,1,.28.474l-4.169,2.456a.277.277,0,0,1-.14.038" transform="translate(-37.663 -12.403)" fill="#a3563b"/><path d="M253.857,87.838a.276.276,0,0,1-.276-.276.272.272,0,0,1,.124-.231l4.026-2.627a.276.276,0,0,1,.3.462l-4.026,2.627a.275.275,0,0,1-.15.044" transform="translate(-37.82 -12.627)" fill="#a3563b"/><path d="M263.489,81.459a6.118,6.118,0,0,0-1.9-1.055c-.385-.159-1.087-.21-1.568-.415a1.716,1.716,0,0,0,.927-.936c.066-.17.144-.353.225-.553a7.584,7.584,0,0,1,2.316,2.961" transform="translate(-38.78 -11.709)" fill="#cd7e5b"/><path d="M263.141,57.459a15.013,15.013,0,0,1-2.567-3.643l5.072-4.555c-.454,1.962-1.578,5.6-2.506,8.2" transform="translate(-38.863 -7.348)" fill="#cd7e5b"/><path d="M226.214,70.747a18.1,18.1,0,0,0-3.423-6.358c-.2-.255-.4-.492-.579-.7a5.559,5.559,0,0,0-2.547-1.645c-.625-.19-1.419-.425-2.33-.676-2.085-.573-4.755-1.24-7.225-1.65,0,0,.052-.041.144-.117a8.86,8.86,0,0,0,2.212-2.342L206.6,51.17s-.7.748-1.686,1.906c-2.167,2.562-5.743,7.127-6.292,10.078a1.593,1.593,0,0,0,.949,1.742,24.659,24.659,0,0,0,9.411,1.583h1.127a59.453,59.453,0,0,0,8.52-.779l.17.005a3.61,3.61,0,0,0,1.235,2.644,6.654,6.654,0,0,1,.936,1.737,7.522,7.522,0,0,1,.22,4.627.783.783,0,0,1-.085.215l-.271.528a.511.511,0,0,0,.107.61.494.494,0,0,0,.34.123.505.505,0,0,0,.395-.19l.707-1.021a4.8,4.8,0,0,0,.8-2.1l.255-1.977a17.308,17.308,0,0,1-1.153,6.381.564.564,0,0,0,.128.641.6.6,0,0,0,.374.144.534.534,0,0,0,.43-.205,4.209,4.209,0,0,0,.348-.492,6.56,6.56,0,0,0,.751-1.975,6.513,6.513,0,0,1-.751,1.977l-.215.5a.516.516,0,0,0-.044.22.569.569,0,0,0,.364.528.56.56,0,0,0,.623-.154,3.892,3.892,0,0,0,.627-1.133l.1.036c2.792-.936,1.191-6.62,1.191-6.62" transform="translate(-29.619 -7.632)" fill="#f9ae81"/><path d="M227.894,81.4a.276.276,0,0,1-.275-.277.269.269,0,0,1,.04-.142,6.688,6.688,0,0,0,.828-2.467,12.975,12.975,0,0,0,.134-1.9.276.276,0,0,1,.551,0,13.634,13.634,0,0,1-.14,1.979,7.252,7.252,0,0,1-.9,2.669.277.277,0,0,1-.236.132" transform="translate(-33.948 -11.389)" fill="#a3563b"/><path d="M226.386,80.967a.266.266,0,0,1-.109-.023.275.275,0,0,1-.145-.361,17.212,17.212,0,0,0,1.134-6.262.276.276,0,0,1,.268-.282.285.285,0,0,1,.282.267,17.45,17.45,0,0,1-1.179,6.494.276.276,0,0,1-.255.17" transform="translate(-33.723 -11.043)" fill="#a3563b"/><path d="M222.295,68.251h-.006a.276.276,0,0,1-.27-.282,2.857,2.857,0,0,1,.417-1.461.276.276,0,0,1,.454.311,2.343,2.343,0,0,0-.322,1.161.276.276,0,0,1-.275.27" transform="translate(-33.112 -9.904)" fill="#a3563b"/><path d="M229.483,81.394a.274.274,0,0,1-.256-.376,10.873,10.873,0,0,0,.568-2.276,18.618,18.618,0,0,0,.195-1.908.289.289,0,0,1,.286-.265.276.276,0,0,1,.265.285,18.876,18.876,0,0,1-.2,1.97,11.436,11.436,0,0,1-.6,2.394.274.274,0,0,1-.255.174" transform="translate(-34.184 -11.421)" fill="#a3563b"/><path d="M213.576,57.257a8.914,8.914,0,0,1-2.212,2.342c-.4-.123-.528-.471-.871-1.117a12.783,12.783,0,0,0-2.008-2.782,26.944,26.944,0,0,0-2.459-2.623c.989-1.158,1.686-1.906,1.686-1.906Z" transform="translate(-30.727 -7.632)" fill="#cd7e5b"/><path d="M211.139,61.381h-.045a16.566,16.566,0,0,0-5.295-.249.276.276,0,0,1-.1-.541,16.984,16.984,0,0,1,5.488.247.276.276,0,0,1-.044.547" transform="translate(-30.646 -9.02)" fill="#a3563b"/><path d="M134.012,175.3c-2.946,0-5.748.1-8.286.267-2.237-.128-4.653-.2-7.175-.2-11.487,0-20.806,1.446-20.806,3.233s9.315,3.233,20.806,3.233c2.946,0,5.748-.1,8.287-.267,2.236.128,4.652.2,7.174.2,11.487,0,20.805-1.446,20.805-3.233S145.5,175.3,134.011,175.3" transform="translate(-14.578 -26.146)" fill="#a44a0d"/><path d="M134.06,157.611v17.717a.935.935,0,0,1-.936.936h-.568a.935.935,0,0,1-.936-.936V160.214a.936.936,0,0,0-1.872,0v15.115a.935.935,0,0,1-.936.936h-.757a.935.935,0,0,1-.936-.936V160.06a.935.935,0,0,0-.936-.936h-.656a.935.935,0,0,0-.936.936v15.269a.935.935,0,0,1-.936.936h-.6a.935.935,0,0,1-.936-.936V160.06a.935.935,0,0,0-.936-.936h-.553a.935.935,0,0,0-.936.936v15.269a.935.935,0,0,1-.936.936h-.693a.935.935,0,0,1-.936-.936V157.611a5.53,5.53,0,0,1,5.518-5.518.943.943,0,0,0,.948-.938v-.026l-.021-1.1-.17-7.347-.056-2.553h3.951v11.021a.935.935,0,0,0,.929.943h.319a5.524,5.524,0,0,1,5.518,5.236c.006.092.006.19.006.282" transform="translate(-17.468 -20.901)" fill="#565656"/><g transform="translate(101.266 121.785)" opacity="0.3"><g clip-path="url(#e)"><g clip-path="url(#e)"><path d="M134.341,158.058V171.6c-.539-.553-1.045-1.143-1.512-1.548-.322-.277-.63-.558-.927-.84v-8.552a.936.936,0,0,0-1.872,0v6.722q-.255-.246-.522-.492-1.091-1.015-2.106-2.065v-4.324a.936.936,0,0,0-.936-.936h-.656a.936.936,0,0,0-.936.936v1.526c-.922-1.1-1.8-2.233-2.644-3.437-1.045-1.491-2.106-2.978-3.213-4.437a5.506,5.506,0,0,1,3.9-1.617.942.942,0,0,0,.948-.938v-.026l-.021-1.1-.17-7.347c.841.994,1.674,2,2.592,2.92a11.083,11.083,0,0,0,1.3,1.092V151.6a.935.935,0,0,0,.929.943h.32a5.524,5.524,0,0,1,5.518,5.236c.006.092.006.19.006.282" transform="translate(-119.016 -143.133)" fill="#040405"/></g></g></g><path d="M127.2,126.642h-2.382l-1.348-28.1L123,88.717l-.641-13.28-.84-17.512-.307-6.44.2-1.066a.878.878,0,0,1,.861-.717.89.89,0,0,1,.774.461,4.063,4.063,0,0,1,.446,1.191.733.733,0,0,0,1.229.359.051.051,0,0,0,.02-.041l.291,8.72.441,13.572.465,14.279.307,9.417Z" transform="translate(-18.078 -7.413)" fill="#654010"/><g transform="translate(103.138 42.288)" opacity="0.3"><g clip-path="url(#g)"><g transform="translate(0.003)"><g clip-path="url(#h)"><path d="M125.042,60.392c-.511-.436-1.021-.851-1.548-1.235-.559-.4-1.246-.807-1.971-1.233l-.307-6.44.205-1.066a.878.878,0,0,1,.861-.717.888.888,0,0,1,.773.461,4.063,4.063,0,0,1,.446,1.191.733.733,0,0,0,1.229.359.052.052,0,0,0,.02-.041Z" transform="translate(-121.219 -49.701)" fill="#040405"/></g></g></g></g><path d="M110.82,177.248a2.423,2.423,0,0,1-1.559-.568,1.82,1.82,0,0,0,.143,1.421.99.99,0,0,0,.562.425c.628.176,2.241.248,5.965-1.276v-1.485l-4.395,1.372a2.491,2.491,0,0,1-.716.11m14.237-3.784a1.7,1.7,0,0,0-.452-1.021,1.426,1.426,0,0,1-.936.914l-.265.085V174.6l1.2-.425a.69.69,0,0,0,.457-.639c0-.022-.006-.044-.006-.066m-6.558,2.872,2.428-.864v-1.267l-2.428.761Z" transform="translate(-16.283 -25.719)" fill="#b36504"/><path d="M119.9,160.858h-.553a.941.941,0,0,0-.936.936v10.089l1.429-.446,1-.312V161.8a.936.936,0,0,0-.936-.936m2.388-9.089h-8.7l1.265,14.635c.01.1.01.205.01.307a3.546,3.546,0,0,1-2.553,3.4l-2.567.748a1.585,1.585,0,0,0-1.127,1.286,1.9,1.9,0,0,0-.015.241,1.564,1.564,0,0,0,.573,1.214,2.422,2.422,0,0,0,1.558.568,2.466,2.466,0,0,0,.712-.112l4.4-1.368V159.347a5.493,5.493,0,0,1,1.6-3.878l.02-.02a5.51,5.51,0,0,1,3.9-1.617.942.942,0,0,0,.948-.938v-.026Zm2.291,16.939-1-7.557a.922.922,0,0,0-.255.646v8.556l.266-.085a1.429,1.429,0,0,0,.936-.912,1.534,1.534,0,0,0,.061-.651" transform="translate(-16.197 -22.636)" fill="#fbb800"/><path d="M121.192,160.858h-.553a.936.936,0,0,0-.528.164c.3,2.71.5,5.436.851,8.141a18.666,18.666,0,0,0,.17,2.275l1-.312V161.8a.935.935,0,0,0-.936-.936m4.68,7.849-1.013-7.558a.922.922,0,0,0-.255.646v8.556l.266-.085a1.429,1.429,0,0,0,.936-.912,1.534,1.534,0,0,0,.061-.651m-8.588-16.935c-.185.936.636,2.223,1.03,2.9.154.266.3.533.42.8l.02-.02a5.51,5.51,0,0,1,3.9-1.617.943.943,0,0,0,.948-.938v-.026l-.02-1.1Z" transform="translate(-17.488 -22.636)" fill="#ed8a00"/><path d="M155.062,176.016c1.63,2.1-5.3,2.4-5.3,2.4a10.565,10.565,0,0,1-6.5-2.148,2.682,2.682,0,0,0-.931-.468,14.622,14.622,0,0,0-3.178-.34c-.374-.38,0-1.4,0-1.4a10.408,10.408,0,0,1,6.807,2.252,10.9,10.9,0,0,0,9.1-.3" transform="translate(-20.728 -25.959)" fill="#b36504"/><path d="M154.909,172.694a10.987,10.987,0,0,1-7.393.866,10.015,10.015,0,0,1-1.711-.568A10.419,10.419,0,0,0,139,170.737l-.646-11.742-.085-1.548-.307-5.682H147.4l-.543,10.027a7.4,7.4,0,0,0,2.428,5.882l1.907,1.715a4.823,4.823,0,0,0,1.373.856c.907.374,2.342,1.173,2.342,2.449" transform="translate(-20.576 -22.635)" fill="#fbb800"/><path d="M147.569,174.555a10.014,10.014,0,0,1-1.711-.568,10.419,10.419,0,0,0-6.807-2.255l-.646-11.742-.085-1.548a3.677,3.677,0,0,1,1.617,1.132c1.087,1.5,1.014,3.791,1.276,5.543a6.342,6.342,0,0,0,1.05,3.346,13.789,13.789,0,0,0,2.6,1.824,2.622,2.622,0,0,1,1.112,1.446c.1.317.128.661.225.984.21.681.61.83,1.066,1.327a1.246,1.246,0,0,1,.3.5" transform="translate(-20.629 -23.631)" fill="#ed8a00"/><path d="M143.663,101.739c-4.612,0-6.082-3.91-6.552-6.637a14.168,14.168,0,0,1-.215-2.572c1.543-.425,3.2-.922,5-1.516l.287,1.726Z" transform="translate(-20.417 -13.575)" fill="#a5aea8"/><path d="M142.172,117.808,139.564,102c-4.612,0-6.082-3.91-6.552-6.637a14.091,14.091,0,0,1-.216-2.572,79.093,79.093,0,0,1-8.607,1.872h0l.071,2.2.107,3.284.128,3.93a112.267,112.267,0,0,1,9.867,28.871c.488,2.553.881,5.2,1.143,7.89.071.707.128,1.414.18,2.127h5.548l.134-1.009,1.065-8.049a54.718,54.718,0,0,0-.255-16.1m-20.547-14.647-.293-6.077-.092-1.942c-.3.031-.318.031-.59.066a29.593,29.593,0,0,1-6.174-.066,14.6,14.6,0,0,1,.4,2.347c.282,3.084-.1,8.361-5.462,10.636l5.41,33.676.189,1.173h5.816v-2.5c.005-2.321.02-6.046.056-10.232.077-10.252.287-23.282.824-25.27Z" transform="translate(-16.319 -13.84)" fill="#859089"/><path d="M109.085,108.517l-1.48-9.233-.415-2.572s2.091-1.7,6.957-1.173a14.7,14.7,0,0,1,.4,2.347c.282,3.084-.1,8.361-5.462,10.631" transform="translate(-15.986 -14.235)" fill="#a5aea8"/><path d="M116.049,95.709a15.5,15.5,0,0,1,.543,4.234,12.885,12.885,0,0,1-.705,4.247,8.425,8.425,0,0,1-2.419,3.574,8.318,8.318,0,0,1-3.854,1.822,11.368,11.368,0,0,0,1.92-.877,9.7,9.7,0,0,0,.881-.561,8.782,8.782,0,0,0,2.991-4.133,15,15,0,0,0,.795-4.084,18.728,18.728,0,0,0,.019-2.108,20.193,20.193,0,0,0-.17-2.114" transform="translate(-16.348 -14.275)" fill="#323432"/><path d="M135.354,93.209c.062.6.138,1.191.255,1.779a16.907,16.907,0,0,0,.391,1.74,13.009,13.009,0,0,0,1.344,3.251,7.177,7.177,0,0,0,2.387,2.485,5.944,5.944,0,0,0,1.6.7,8.921,8.921,0,0,0,1.754.328,6.439,6.439,0,0,1-3.552-.686,6.161,6.161,0,0,1-1.5-1.1,8.226,8.226,0,0,1-1.134-1.465,10.86,10.86,0,0,1-1.286-3.424,13.36,13.36,0,0,1-.264-3.61" transform="translate(-20.183 -13.902)" fill="#323432"/><path d="M120.322,94.947a29.593,29.593,0,0,1-6.174-.066c-4.868-.522-6.957,1.173-6.957,1.173l.415,2.572a6.831,6.831,0,0,1,.692-.3,19.631,19.631,0,0,1,5.149-1.021c.369-.02.733-.046,1.1-.071,1.9-.134,3.786-.307,5.672-.374l.784-.031-.092-1.942c-.3.031-.317.031-.589.066m17.144-3.93c-1.794.6-3.454,1.092-5,1.516a79.061,79.061,0,0,1-8.608,1.872h-.005l.071,2.2a55.524,55.524,0,0,0,8.757-1.506c.34-.085.681-.18,1.021-.277a19.956,19.956,0,0,0,4.048-2.085Z" transform="translate(-15.987 -13.576)" fill="#676f6a"/><path d="M136.98,134.247a112.31,112.31,0,0,0-9.863-28.866l-.128-3.93c2.582,1.787,4.99,3.689,6.261,6.671.794,1.872,3.607,13.193,4.032,14.8a42.9,42.9,0,0,1,1.021,5.211c.164,1.191.282,6.323-1.326,6.118" transform="translate(-18.939 -15.131)" fill="#676f6a"/><path d="M121.782,148.83v2.5h-5.816l-.189-1.173c.5-.149,1.035-.369,1.388-.461a37.119,37.119,0,0,1,4.048-.743c.123-.015.328-.066.568-.123" transform="translate(-17.267 -22.198)" fill="#676f6a"/><path d="M145.936,150.389,145.8,151.4h-5.548c-.051-.712-.107-1.419-.18-2.127.318.085.63.185.936.255,1.219.287,2.459.446,3.688.7.328.066.8.085,1.235.164" transform="translate(-20.891 -22.263)" fill="#676f6a"/><path d="M123.324,106.789c-.538,1.988-.748,15.018-.824,25.27-.563.164-.948-.144-1.281-.676-1.317-2.07-.958-5.139-.958-7.488a87.421,87.421,0,0,1,.492-11.7,18.709,18.709,0,0,1,1.148-5.246,6.9,6.9,0,0,1,1.338-1.967Z" transform="translate(-17.929 -15.658)" fill="#676f6a"/><path d="M119.044,32.374a5.989,5.989,0,0,0,2.736.861,5.063,5.063,0,0,0,4.652-2.563,4.845,4.845,0,0,0,.3-.615,11.663,11.663,0,0,0,.727-4.85,23.009,23.009,0,0,0-.287-2.838,9.923,9.923,0,0,0-1.25-2.459,6.261,6.261,0,0,0-.436-.558.839.839,0,0,0-1.06-.164c-3.925,2.321-6.272,1.317-6.272,1.317-.533.22-1.045.436-1.526.646v.005a2.755,2.755,0,0,1-.34,1.021,4.14,4.14,0,0,1-.425.636,3.186,3.186,0,0,1-.3.34,1.7,1.7,0,0,0-.425-.005c-.026.005-.061.005-.085.01a1.576,1.576,0,0,0,.436,3.12,1.5,1.5,0,0,0,.6-.195h.041l.031,2.731.061,4.424.02,1.926s-.092,3.807,5.974,3.951c0,0,4.949-.19,4.617-4.6a6.747,6.747,0,0,1-7.784-2.141m5.324-7.658a.681.681,0,1,1,.676-.685v0a.681.681,0,0,1-.676.681m-6.179-.359a.684.684,0,1,1,0,.006v-.006" transform="translate(-16.963 -2.845)" fill="#f8ad83"/><path d="M127.676,35.87a4.941,4.941,0,0,1,.085.671,6.743,6.743,0,0,1-7.782-2.137,6.011,6.011,0,0,0,2.731.859,5.075,5.075,0,0,0,4.653-2.561l.255,2.583Z" transform="translate(-17.894 -4.878)" fill="#f08262"/><path d="M128.744,19.385c.041,3.279-.794,2.593-.794,2.593a9.923,9.923,0,0,0-1.25-2.459,6.26,6.26,0,0,0-.436-.558.839.839,0,0,0-1.06-.164c-3.924,2.321-6.272,1.317-6.272,1.317.9-.374,1.86-.766,2.893-1.173,0,0,3.186-1.383,6.738-2.485.092.9.144,1.655.17,2.291.01.231.015.441.015.641" transform="translate(-17.738 -2.455)" fill="#b44213"/><path d="M116.8,21.513v.005a2.755,2.755,0,0,1-.34,1.021,3.807,3.807,0,0,1-.42.636,3.187,3.187,0,0,1-.3.34,1.7,1.7,0,0,0-.425-.005c-.026.005-.061.005-.085.01a1.353,1.353,0,0,1-.282-.589,1.516,1.516,0,0,1-.026-.584c.59-.271,1.214-.543,1.881-.836" transform="translate(-17.137 -3.209)" fill="#b44213"/><path d="M126.11,24.108a.681.681,0,1,1-.681.681.68.68,0,0,1,.681-.681" transform="translate(-18.707 -3.596)" fill="#040405"/><path d="M119.647,24.483a.681.681,0,1,1-.681.681.681.681,0,0,1,.681-.681" transform="translate(-17.743 -3.652)" fill="#040405"/><path d="M120.164,30.762a5.44,5.44,0,0,0,2.5.722,3.754,3.754,0,0,0,1.249-.2,5.7,5.7,0,0,0,.619-.232c.208-.085.4-.205.626-.293a3.147,3.147,0,0,1-1.075.922,2.926,2.926,0,0,1-1.421.35,3.14,3.14,0,0,1-1.418-.352,2.964,2.964,0,0,1-1.081-.92" transform="translate(-17.922 -4.589)" fill="#b7492e"/><path d="M124.449,22.729a1.233,1.233,0,0,1,.676-.457,2.485,2.485,0,0,1,.8-.136,2.077,2.077,0,0,1,1.486.56c-.551.014-1.007-.019-1.485-.009-.237,0-.474.005-.719.007a5.062,5.062,0,0,0-.753.036" transform="translate(-18.561 -3.302)" fill="#b44213"/><path d="M122.533,28.005a6.917,6.917,0,0,1,1.458-.389l-.221.275a10.277,10.277,0,0,1-.18-1.479,6.885,6.885,0,0,1,.067-1.509,6.867,6.867,0,0,1,.425,1.446,10.287,10.287,0,0,1,.179,1.479v.037a.229.229,0,0,1-.217.239h-.006a6.918,6.918,0,0,1-1.505-.1" transform="translate(-18.275 -3.715)" fill="#f08262"/><path d="M117.167,23.8a1.97,1.97,0,0,1,.658-.64,2.676,2.676,0,0,1,.858-.345,2.409,2.409,0,0,1,.93-.02,1.891,1.891,0,0,1,.851.356c-.313.037-.59.037-.865.074a6.522,6.522,0,0,0-.8.128c-.531.1-1.04.273-1.629.447" transform="translate(-17.475 -3.395)" fill="#b44213"/><path d="M115,24.8a1.2,1.2,0,0,1,.839.553,1.3,1.3,0,0,1,.18.99,4.224,4.224,0,0,0-.395-.851A3.081,3.081,0,0,0,115,24.8" transform="translate(-17.151 -3.699)" fill="#b44213"/><g transform="translate(97.764 13.997)" opacity="0.44"><g clip-path="url(#i)"><g transform="translate(0.001 0.003)"><g clip-path="url(#j)"><path d="M116.8,20.758c-.666.292-1.291.563-1.88.836a1.516,1.516,0,0,0,.026.584c.266-.046.548-.159.773-.21.255-.051.5-.112.743-.18a2.755,2.755,0,0,0,.34-1.021Zm11.163-4.3c-3.551,1.1-6.738,2.485-6.738,2.485-1.03.41-1.988.8-2.893,1.173-.533.22-1.045.436-1.526.646v.005a2.755,2.755,0,0,1-.34,1.021c.236-.066.466-.139.7-.215a18.35,18.35,0,0,1,3.7-.814,26.06,26.06,0,0,0,5.231-1.24c.692-.236,1.368-.5,2.029-.773-.026-.636-.077-1.389-.17-2.291" transform="translate(-114.902 -16.455)" fill="#040405"/></g></g></g></g><path d="M135.468,14.427v.958c-.568-.851-2.038-1.007-3.872-.793a31.667,31.667,0,0,0-5.37,1.256c-3.552,1.1-6.741,2.484-6.741,2.484-1.03.408-1.988.8-2.886,1.173-.533.22-1.047.435-1.532.644-.666.292-1.294.568-1.884.837-2.39,1.08-4.163,1.988-5.474,2.732-3.073,1.746-3.6,2.572-3.6,2.572s-2.148-1.768.468-3.7a48.443,48.443,0,0,1,6.185-3.547,98.36,98.36,0,0,1,13.98-5.611c.231-.071.463-.149.694-.22a17.8,17.8,0,0,1,5.237-.843c2.1-.005,4.45.374,4.791,2.049" transform="translate(-15.404 -1.846)" fill="#845318"/><path d="M139.383,15.759s-.793,5.37-9.555,8.823h-.011a22.038,22.038,0,0,0-.287-2.837s.837.681.793-2.594h.005c3.96-1.586,5.183-4.185,5.183-4.185,1.834-.214,3.3-.06,3.872.793" transform="translate(-19.318 -2.22)" fill="#654010"/><path d="M135.619,14.981s-1.223,2.6-5.183,4.186h-.006c-.005-.75-.06-1.707-.181-2.93a31.67,31.67,0,0,1,5.37-1.257" transform="translate(-19.426 -2.235)" fill="#040405"/><path d="M126.056,12.93a97.825,97.825,0,0,0-13.977,5.605l.092-3.622.036-1.44a2.251,2.251,0,0,1,2.308-2.193,2.209,2.209,0,0,1,.423.051l1.537.333a2.242,2.242,0,0,0,2.562-1.338,2.249,2.249,0,0,1,3.669-.738l1.937,1.931Z" transform="translate(-16.716 -1.333)" fill="#654010"/><path d="M114.708,27.071l.036,2.729h-.038c-7.765,1.641-10.442-1.526-10.442-1.526s.523-.826,3.6-2.572a9.512,9.512,0,0,0,4.477.17,1.572,1.572,0,0,0,1.737,1.388h0a1.436,1.436,0,0,0,.6-.192Z" transform="translate(-15.55 -3.834)" fill="#654010"/><path d="M113.961,22.5a1.53,1.53,0,0,0,.309,1.173,1.579,1.579,0,0,0-1.305,1.729,9.512,9.512,0,0,1-4.477-.17c1.311-.744,3.084-1.652,5.474-2.732" transform="translate(-16.18 -3.356)" fill="#040405"/><g transform="translate(95.363 10.188)" opacity="0.34"><g clip-path="url(#k)"><g clip-path="url(#k)"><path d="M126.056,13.384a97.825,97.825,0,0,0-13.977,5.605l.092-3.622c1.762-.7,3.853-.117,5.713-.558a23.527,23.527,0,0,0,4.57-1.731c.568-.266,1.389-.789,2.188-1.1Z" transform="translate(-112.079 -11.975)" fill="#040405"/></g></g></g><path d="M119.122,81.483l-.149-3.028-.246-5.105-.8-16.762-.34-7.193a2.69,2.69,0,0,1-1.291,1.814l-.354.205a1.892,1.892,0,0,0-.687.692l-3.228,5.811c-2.526,4.424-4.909,6.876-6.807,8.229.01.085.117.994.255,2.408.374,3.776.936,11.113.3,15.7,0,0-.134,2.4-.134,3.551,0,0,2.091-1.7,6.957-1.173a29.592,29.592,0,0,0,6.174.066c.271-.036.292-.036.59-.066Zm15.656-17.154c-.046-.625-.071-1.219-.071-1.778A26.647,26.647,0,0,1,128.2,55.86a27.893,27.893,0,0,1-1.686-2.818,5.007,5.007,0,0,0-1.209-1.6l-.855-.4a3.457,3.457,0,0,1-1.48-1.361,1.08,1.08,0,0,1-1.845-.1l.189,5.836.539,16.462.17,5.211.138,4.156.154,4.914h.005a79.061,79.061,0,0,0,8.608-1.872c1.542-.425,3.2-.922,5-1.516q1.168-.383,2.413-.819s-3.063-10.586-3.562-17.62m5.375-20.315c-2.855-8.629-15.826-8.3-15.826-8.3l-.159.015.062.584a4.758,4.758,0,0,1,.085.676c.333,4.412-4.616,4.6-4.616,4.6-6.07-.149-5.975-3.956-5.975-3.956l-.02-1.926h-.1s-14.653,2.388-16.584,14.2a15.505,15.505,0,0,0-.139,3.34,54.719,54.719,0,0,0,.936,7.788s.666-3.325,7.337-5.385c.021-.005.047-.015.067-.02a25.612,25.612,0,0,0,5.12-4.282,71.7,71.7,0,0,0,5.7-6.774.335.335,0,0,1-.015-.092l-.255-.118a.5.5,0,0,1-.229-.67c.008-.014.015-.029.024-.043a1.771,1.771,0,0,1,.558-.543l.651-.405a2.016,2.016,0,0,1,1.03-.292l1.265-.625a1.764,1.764,0,0,1,.615-.17.968.968,0,0,1,.271-.015l2.808.17a1.073,1.073,0,0,1,.86.533l2.893,5.067a3.864,3.864,0,0,0,.887,1.04l2.212,1.809.005.005.851.692A11.556,11.556,0,0,0,132.029,52,30.533,30.533,0,0,0,135,53.483l.139.061a16.259,16.259,0,0,0,2.951.958s4.069.876,5.2,3.484c-.292-1.378-3.135-13.972-3.135-13.972" transform="translate(-14.444 -5.328)" fill="#e95934"/><path d="M134.611,74.02a33.552,33.552,0,0,1-4.084,2.042,33.191,33.191,0,0,1-4.3,1.532,33.009,33.009,0,0,1,4.084-2.042,33.448,33.448,0,0,1,4.3-1.532" transform="translate(-18.826 -11.04)" fill="#9e1f10"/><path d="M113.632,83.882a24.109,24.109,0,0,1,3.647-2.264,25.125,25.125,0,0,1,3.954-1.669,34.928,34.928,0,0,1-3.7,2.158,38.466,38.466,0,0,1-3.9,1.775" transform="translate(-16.947 -11.925)" fill="#9e1f10"/><path d="M119.053,51.8l.34,7.193a9.3,9.3,0,0,0-2.741,3.181c-1.507,2.8-3.6,6.518-6.476,8.049a5.643,5.643,0,0,1-3.233.733c-.139-1.414-.246-2.326-.255-2.408,1.9-1.353,4.278-3.8,6.807-8.229l3.223-5.81a1.892,1.892,0,0,1,.687-.692l.354-.205a2.692,2.692,0,0,0,1.291-1.814" transform="translate(-15.912 -7.726)" fill="#d43b19"/><path d="M139.03,66.758a14.027,14.027,0,0,1-3.817-1.045c-2.275-1.219-3.848-3.366-5.257-5.416a5.264,5.264,0,0,0-4.391-2.449l-.19-5.836a1.08,1.08,0,0,0,1.845.1,3.457,3.457,0,0,0,1.48,1.361l.856.4a5.007,5.007,0,0,1,1.209,1.6,27.887,27.887,0,0,0,1.686,2.818,26.65,26.65,0,0,0,6.507,6.691c0,.558.026,1.153.071,1.778" transform="translate(-18.699 -7.758)" fill="#d43b19"/><path d="M121.19,85.946l.148,3.028c-2.428.255-4.77.5-6.922,1.787a32.243,32.243,0,0,0-2.695,1.829c.322-.5.573-1.009,1.06-1.787,1.06-.733,1.777-2.06,2.978-2.782a28.566,28.566,0,0,1,5.43-2.075" transform="translate(-16.662 -12.819)" fill="#d43b19"/><path d="M136.44,81.251c-1.855.558-2.838,2.506-4.247,3.71a10.734,10.734,0,0,1-3.243,2.2,9.61,9.61,0,0,1-2.382.431l-.138-4.156a26.318,26.318,0,0,0,4.186-2.553c1.03-.794,1.962-1.947,3.038-2.613-.026,1.506-1.743,3.148-2.7,4.207-.865.963-2,1.8-2.771,2.767,3.095-.041,5.154-3.8,8.259-3.991" transform="translate(-18.856 -11.675)" fill="#d43b19"/><path d="M111.753,53.871a25.639,25.639,0,0,1-5.119,4.283c-.021.005-.046.015-.067.02-.071-1.014.042-2.091,0-3.141a16.913,16.913,0,0,1-.246-2.485c.277.733,1.655.978,2.316,1.163a6.161,6.161,0,0,0,2.356.34,5.926,5.926,0,0,0,.759-.18" transform="translate(-15.857 -7.838)" fill="#d43b19"/><path d="M140.745,55.78a30.528,30.528,0,0,1-2.972-1.486,11.511,11.511,0,0,1-1.558-1.066l-.851-.692a5.371,5.371,0,0,0,2.188-.077,15.873,15.873,0,0,0,2.679-1.338c.369,1.127.144,2.587.317,3.781a8.8,8.8,0,0,0,.195.876" transform="translate(-20.188 -7.625)" fill="#d43b19"/><path d="M108.778,40.9a9.62,9.62,0,0,0,6.847,5.525c-2.753-.575-3.993-3.626-5.006-5.85-.414.577.085,1.43-.011,2.085-.81-.085-1.5-1.222-1.83-1.76" transform="translate(-16.223 -6.052)" fill="#d43b19"/><path d="M131.245,44.493a6.644,6.644,0,0,1,1.021-.135,8.345,8.345,0,0,0,2.844-1.508c.977-.687,1.542-1.688,2.421-2.382a4.935,4.935,0,0,1-2.9,4.206c-.932.5-2.7.947-3.382-.177" transform="translate(-19.574 -6.036)" fill="#d43b19"/><path d="M141.722,55.4a.275.275,0,0,1-.264-.2c-.983-3.3-.047-8.463-.007-8.679a.276.276,0,0,1,.542.1c-.009.052-.951,5.25-.007,8.423a.276.276,0,0,1-.264.352" transform="translate(-21.031 -6.907)" fill="#9e1f10"/><path d="M106.437,57.787h-.014a.275.275,0,0,1-.26-.288h0a27.175,27.175,0,0,0-1.136-8.915.276.276,0,0,1,.52-.182,27.186,27.186,0,0,1,1.167,9.127.276.276,0,0,1-.275.26" transform="translate(-15.662 -7.194)" fill="#9e1f10"/><path d="M146.692,61.5s-.006.036-.02.1c-.174.758-1.43,5.349-6.175,3.433a13.369,13.369,0,0,1-2.526-1.446,26.647,26.647,0,0,1-6.507-6.691,27.9,27.9,0,0,1-1.686-2.818,5.006,5.006,0,0,0-1.209-1.6l-.855-.4a3.457,3.457,0,0,1-1.48-1.361,3.554,3.554,0,0,1-.293-.661L124.7,46.266l-1.342-.5a.845.845,0,0,0-.34-.056l-2.055.077-.841.271a.635.635,0,0,1-.8-.41c0-.01-.007-.02-.009-.031a.335.335,0,0,1-.015-.092l-.255-.118a.5.5,0,0,1-.229-.67c.008-.014.015-.029.024-.043a1.753,1.753,0,0,1,.558-.543l.651-.405a2.015,2.015,0,0,1,1.03-.292l1.266-.625a1.783,1.783,0,0,1,.615-.17.968.968,0,0,1,.271-.015l2.808.17a1.071,1.071,0,0,1,.861.533l2.893,5.067a3.864,3.864,0,0,0,.887,1.04l3.063,2.506A11.5,11.5,0,0,0,135.3,53.03a30.224,30.224,0,0,0,3.11,1.548c.036.015.067.026.1.041a16.013,16.013,0,0,0,2.848.917s4.065.878,5.193,3.483v.01a3.627,3.627,0,0,1,.139,2.467" transform="translate(-17.712 -6.361)" fill="#f8ad83"/><path d="M123.123,51.236a1.081,1.081,0,0,1-1.845-.094.051.051,0,0,1-.02.041.732.732,0,0,1-1.229-.359,4.063,4.063,0,0,0-.446-1.191.89.89,0,0,0-.774-.461.878.878,0,0,0-.861.717l-.2,1.066a2.692,2.692,0,0,1-1.291,1.814l-.354.205a1.9,1.9,0,0,0-.687.692l-3.228,5.811c-2.526,4.424-4.908,6.876-6.807,8.229-2.577,1.84-4.284,1.65-4.284,1.65-3.744-1.092-3.176-6.287-3.125-6.717a.126.126,0,0,0,0-.031s.671-3.346,7.4-5.405c.046-.026.1-.056.144-.085,4.77-2.844,10.677-10.969,10.677-10.969a.636.636,0,0,0,.779.45l.031-.009.841-.271,2.054-.077a.845.845,0,0,1,.34.056l1.343.5,1.245,3.791a3.564,3.564,0,0,0,.293.656" transform="translate(-14.602 -6.883)" fill="#f8ad83"/><path d="M124.966,51.557a.285.285,0,0,1-.054-.005.276.276,0,0,1-.217-.323,3.054,3.054,0,0,0-1.89-3.58.276.276,0,0,1,.18-.521c2.8.966,2.316,3.878,2.251,4.207a.275.275,0,0,1-.27.222" transform="translate(-18.289 -7.028)" fill="#b7492e"/><path d="M125.558,44.36a.274.274,0,0,1-.154-.047l-.523-.352a.711.711,0,0,0-.414-.129h-3.029a.276.276,0,0,1,0-.551h3.029a1.261,1.261,0,0,1,.725.226l.52.35a.276.276,0,0,1-.154.5" transform="translate(-18.073 -6.456)" fill="#b7492e"/><path d="M126.277,51.252a.277.277,0,0,1-.24-.14,3.945,3.945,0,0,1-.314-.7l-1.2-3.67L123.3,46.29a.617.617,0,0,0-.229-.038l-2.017.072-.807.255a.921.921,0,0,1-.719-.069.9.9,0,0,1-.441-.563.514.514,0,0,1-.025-.134.618.618,0,0,1-.006-.1.9.9,0,0,1,.5-.813l.474-.237a1.479,1.479,0,0,1,.61-.156c.632-.022,3.091-.1,3.175-.1a.276.276,0,0,1,.031.551h-.031c-.085,0-2.3.074-3.158.1a.934.934,0,0,0-.382.1l-.474.237a.358.358,0,0,0-.2.321.292.292,0,0,1,.006.066.371.371,0,0,0,.181.244.363.363,0,0,0,.287.027l.842-.27a.27.27,0,0,1,.074-.013l2.055-.077a1.126,1.126,0,0,1,.441.071l1.343.5a.273.273,0,0,1,.17.17l1.238,3.806a3.506,3.506,0,0,0,.27.606.275.275,0,0,1-.1.374h0a.274.274,0,0,1-.136.036" transform="translate(-17.757 -6.624)" fill="#b7492e"/><path d="M127.477,43.578a.275.275,0,0,1-.237-.136.805.805,0,0,0-.64-.4l-2.808-.165a.808.808,0,0,0-.2.007,1.531,1.531,0,0,0-.551.149.275.275,0,1,1-.265-.483.192.192,0,0,1,.03-.014,2.025,2.025,0,0,1,.713-.2,1.245,1.245,0,0,1,.308-.011l2.808.166a1.349,1.349,0,0,1,1.08.669.276.276,0,0,1-.1.377h0a.269.269,0,0,1-.14.038" transform="translate(-18.289 -6.313)" fill="#b7492e"/><path d="M105.217,61.336c-.574.727-1.787.819-2.624,1.148a45.208,45.208,0,0,1-4.612,2.075.193.193,0,0,0,.005-.031s.671-3.346,7.4-5.405c.046-.026.1-.056.144-.085a2.962,2.962,0,0,1-.317,2.3" transform="translate(-14.613 -8.806)" fill="#f08262"/><path d="M150.154,63.6s-.006.036-.02.1a1.791,1.791,0,0,1-.841-.395c-1.281-.994-1.338-2.644-2.978-3.3-2.106-.846-3.586-1.737-4.339-3.289a16.013,16.013,0,0,0,2.848.917s4.069.876,5.2,3.484v.01a3.627,3.627,0,0,1,.139,2.467" transform="translate(-21.175 -8.459)" fill="#f08262"/></g></g></g></g></g></svg>