<svg xmlns="http://www.w3.org/2000/svg" xmlns:xlink="http://www.w3.org/1999/xlink" width="190" height="134" viewBox="0 0 190 134"><defs><clipPath id="a"><rect width="95" height="95" transform="translate(228 5033)" fill="#01f6ff" stroke="#707070" stroke-width="1"/></clipPath></defs><g transform="translate(-180 -5013)"><rect width="190" height="134" transform="translate(180 5013)" fill="#fff"/><g clip-path="url(#a)"><g transform="translate(227.304 5031.481)"><path d="M15.943,25.053l7.224-7.224a3.845,3.845,0,0,1,5.25-.176l9.44,8.261.1,5.972H15.183Z" fill="#719301"/><path d="M37.857,25.914l-9.44-8.261a3.852,3.852,0,0,0-2.531-.95c-.029,0-.055.008-.082.008l-4.145,4.145a4.684,4.684,0,0,0,3.312,7.994H37.907Z" fill="#82ab00"/><path d="M1.518,31.885H95.656V95.656H1.518Z" fill="#e49151"/><path d="M74.4,81.991H95.656V77.436H69.844A4.555,4.555,0,0,0,74.4,81.991Z" fill="#f7ac5e"/><path d="M62.252,63.771h33.4V59.216H57.7A4.555,4.555,0,0,0,62.252,63.771Z" fill="#f7ac5e"/><path d="M50.105,45.55h45.55V41H45.55A4.555,4.555,0,0,0,50.105,45.55Z" fill="#f7ac5e"/><path d="M22.775,31.885l-9.342-9.342a4.4,4.4,0,0,0-5.367-.66L1.518,25.812v6.073Z" fill="#8dbf00"/><path d="M31.885,31.885l7.744-7.744a4.67,4.67,0,0,1,5.391-.873l5.086,2.543,3.586-1.195a6.285,6.285,0,0,1,5.646.849l8.988,6.419Z" fill="#8dbf00"/><path d="M71.362,31.885l7.944-6.62a4.194,4.194,0,0,1,5.369,0l7.944,6.62" fill="#719301"/><circle cx="7.592" cy="7.592" r="7.592" transform="translate(63.771 3.037)" fill="#e73844"/><path d="M40.13,31.885a4.555,4.555,0,0,0,4.555,4.555H95.656V31.885Z" fill="#f7ac5e"/><path d="M52.717,50.105a4.555,4.555,0,0,0,4.555,4.555H95.656V50.105Z" fill="#f7ac5e"/><path d="M65.289,68.326a4.555,4.555,0,0,0,4.555,4.555H95.656V68.326Z" fill="#f7ac5e"/><path d="M77.436,86.546A4.555,4.555,0,0,0,81.991,91.1H95.656V86.546Z" fill="#f7ac5e"/><path d="M10.628,31.885,6.073,95.656H28.849L18.22,31.885Z" fill="#b77743"/><path d="M1.518,31.885V95.656H6.073l4.555-63.771Z" fill="#b77743"/><path d="M25.812,31.885,51.624,95.656H77.436L33.4,31.885Z" fill="#b77743"/><path d="M18.22,31.885,28.849,95.656H51.624L25.812,31.885Z" fill="#b77743"/><path d="M64.208,89.583a9.983,9.983,0,0,0,7.057-2.862L33.4,31.885H30.309l24.713,51.9a10.173,10.173,0,0,0,9.186,5.8Z" fill="#ce8f4b"/><path d="M25.812,31.885H22.848L35.985,82.042a10.067,10.067,0,0,0,12.968,7.01Z" fill="#ce8f4b"/><path d="M18.22,31.885H13.776l1.155,47.392A10.564,10.564,0,0,0,27.793,89.329Z" fill="#ce8f4b"/><path d="M10.628,31.885H4.555V88.741a2.356,2.356,0,0,0,1.848,2.3Z" fill="#ce8f4b"/><path d="M13.433,22.543a4.394,4.394,0,0,0-5.366-.66L3.377,24.7A6.054,6.054,0,0,0,9.11,28.849H19.739Z" fill="#a6d305"/><path d="M59.337,25.466a6.284,6.284,0,0,0-5.645-.849l-3.586,1.195-5.088-2.543a4.623,4.623,0,0,0-5.188.709,4.529,4.529,0,0,0,4.523,4.871H64.074Z" fill="#a6d305"/><path d="M84.675,25.265a4.192,4.192,0,0,0-2.089-.92,3.747,3.747,0,0,0,3.671,4.5h2.718Z" fill="#82ab00"/><path d="M71.362,3.037a7.516,7.516,0,0,0-3.606.949,7.516,7.516,0,0,0-.949,3.606A7.592,7.592,0,0,0,74.4,15.183a7.516,7.516,0,0,0,3.606-.949,7.516,7.516,0,0,0,.949-3.606A7.592,7.592,0,0,0,71.362,3.037Z" fill="#ff4d55"/><circle cx="7.592" cy="7.592" r="7.592" transform="translate(63.771 3.037)" fill="#e73844"/><path d="M85.648,24.1a5.856,5.856,0,0,0-7.314,0l-7.522,6.266h-2L60.221,24.23a7.847,7.847,0,0,0-7.009-1.052l-2.99.995L45.7,21.908a6.345,6.345,0,0,0-7.136,1.16l-.759.767-8.372-7.326a5.5,5.5,0,0,0-7.323.244l-6.169,6.152-1.435-1.435a6.017,6.017,0,0,0-7.22-.89L.736,24.511l1.564,2.6,6.547-3.928a2.933,2.933,0,0,1,3.513.433l6.749,6.749H1.518V33.4H9L4.555,95.548l3.037.216,4.45-62.36h4.892L27.352,95.9l2.994-.5-10.334-62h4.777L50.216,96.225l2.815-1.139L28.064,33.4h4.543L76.183,96.518l2.5-1.725-4.643-6.729H95.656V85.027H71.942l-4.194-6.073H95.656V75.917h-30l-4.194-6.073h34.2V66.807H59.367l-4.194-6.073H95.656V57.7H53.071l-4.194-6.073H95.656V48.587H46.78l-4.192-6.073H95.656V39.477H40.491L36.3,33.4H95.656V30.367H93.169ZM80.28,26.431a2.745,2.745,0,0,1,3.424,0l4.721,3.936H75.556ZM44.336,24.626l5.091,2.552a1.493,1.493,0,0,0,1.159.08l3.586-1.193a4.8,4.8,0,0,1,4.285.642l5.132,3.659H35.551l5.15-5.152a3.237,3.237,0,0,1,3.635-.589Zm-26.246.427L24.24,18.9a2.387,2.387,0,0,1,3.176-.1l8.219,7.192-4.379,4.379H23.4Z"/><path d="M80.472,10.628a9.11,9.11,0,1,0-9.11,9.11,9.11,9.11,0,0,0,9.11-9.11Zm-15.183,0A6.073,6.073,0,1,1,71.362,16.7,6.073,6.073,0,0,1,65.289,10.628Z"/></g></g></g></svg>