<svg xmlns="http://www.w3.org/2000/svg" xmlns:xlink="http://www.w3.org/1999/xlink" width="505" height="274" viewBox="0 0 505 274">
  <defs>
    <clipPath id="clip-path">
      <rect id="Rectángulo_43852" data-name="Rectángulo 43852" width="505" height="274" transform="translate(915 398)" fill="#fff" stroke="#707070" stroke-width="1"/>
    </clipPath>
    <clipPath id="clip-path-2">
      <rect id="Rectángulo_41896" data-name="Rectángulo 41896" width="8.053" height="14.166" fill="none"/>
    </clipPath>
    <clipPath id="clip-path-3">
      <rect id="Rectángulo_41895" data-name="Rectángulo 41895" width="8.046" height="14.166" fill="none"/>
    </clipPath>
    <clipPath id="clip-path-4">
      <rect id="Rectángulo_41898" data-name="Rectángulo 41898" width="7.35" height="6.983" fill="none"/>
    </clipPath>
    <clipPath id="clip-path-5">
      <rect id="Rectángulo_41897" data-name="Rectángulo 41897" width="7.348" height="6.983" fill="none"/>
    </clipPath>
    <clipPath id="clip-path-6">
      <rect id="Rectángulo_41900" data-name="Rectángulo 41900" width="4.709" height="11.395" fill="none"/>
    </clipPath>
    <clipPath id="clip-path-7">
      <rect id="Rectángulo_41899" data-name="Rectángulo 41899" width="4.709" height="11.393" fill="none"/>
    </clipPath>
    <clipPath id="clip-path-8">
      <rect id="Rectángulo_41902" data-name="Rectángulo 41902" width="23.614" height="18.45" fill="none"/>
    </clipPath>
    <clipPath id="clip-path-9">
      <rect id="Rectángulo_41901" data-name="Rectángulo 41901" width="23.614" height="18.446" fill="none"/>
    </clipPath>
    <clipPath id="clip-path-10">
      <rect id="Rectángulo_41904" data-name="Rectángulo 41904" width="18.517" height="10.015" fill="none"/>
    </clipPath>
    <clipPath id="clip-path-11">
      <rect id="Rectángulo_41903" data-name="Rectángulo 41903" width="18.516" height="10.014" fill="none"/>
    </clipPath>
    <clipPath id="clip-path-12">
      <rect id="Rectángulo_41906" data-name="Rectángulo 41906" width="15.76" height="2.854" fill="none"/>
    </clipPath>
    <clipPath id="clip-path-13">
      <rect id="Rectángulo_41905" data-name="Rectángulo 41905" width="15.76" height="2.847" fill="none"/>
    </clipPath>
    <clipPath id="clip-path-14">
      <rect id="Rectángulo_41908" data-name="Rectángulo 41908" width="22.975" height="24.171" fill="none"/>
    </clipPath>
    <clipPath id="clip-path-15">
      <rect id="Rectángulo_41907" data-name="Rectángulo 41907" width="22.974" height="24.171" fill="none"/>
    </clipPath>
    <clipPath id="clip-path-16">
      <rect id="Rectángulo_41910" data-name="Rectángulo 41910" width="5.341" height="9.193" fill="none"/>
    </clipPath>
    <clipPath id="clip-path-17">
      <rect id="Rectángulo_41909" data-name="Rectángulo 41909" width="5.339" height="9.192" fill="none"/>
    </clipPath>
    <clipPath id="clip-path-18">
      <rect id="Rectángulo_41912" data-name="Rectángulo 41912" width="3.097" height="4.397" fill="none"/>
    </clipPath>
    <clipPath id="clip-path-19">
      <rect id="Rectángulo_41911" data-name="Rectángulo 41911" width="3.096" height="4.392" fill="none"/>
    </clipPath>
    <clipPath id="clip-path-20">
      <rect id="Rectángulo_41914" data-name="Rectángulo 41914" width="31.512" height="33.877" fill="none"/>
    </clipPath>
    <clipPath id="clip-path-21">
      <rect id="Rectángulo_41913" data-name="Rectángulo 41913" width="31.512" height="33.869" fill="none"/>
    </clipPath>
    <clipPath id="clip-path-22">
      <rect id="Rectángulo_41916" data-name="Rectángulo 41916" width="32.218" height="13.904" fill="none"/>
    </clipPath>
    <clipPath id="clip-path-23">
      <rect id="Rectángulo_41915" data-name="Rectángulo 41915" width="32.209" height="13.899" fill="none"/>
    </clipPath>
    <clipPath id="clip-path-24">
      <rect id="Rectángulo_41929" data-name="Rectángulo 41929" width="30.751" height="157.483" fill="none"/>
    </clipPath>
    <clipPath id="clip-path-25">
      <rect id="Rectángulo_41928" data-name="Rectángulo 41928" width="30.751" height="157.482" fill="none"/>
    </clipPath>
  </defs>
  <g id="Enmascarar_grupo_127" data-name="Enmascarar grupo 127" transform="translate(-915 -398)" clip-path="url(#clip-path)">
    <g id="Grupo_150118" data-name="Grupo 150118">
      <path id="Trazado_202325" data-name="Trazado 202325" d="M147.788,185.141c2.965-11.977,3.644-24.648,10.853-35.838,5.894-9.148,12.973-13.984,23.592-15.768,5.574-.938,15.666,2.111,20.253.483,6.748-2.4,9.174-16.812,15.582-22.429,13.033-11.416,29.157-11.583,43.066-4,4.748-15.631,21.954-22.927,37.716-21.437,8.8.827,9.884,6.619,15.818,9.251,2.723,1.205,4.09-.827,7.093-.192,9.774,2.068,17.991,7.235,22.489,16.757,1.419,3,.637,12.594,2.566,14.5,2.113,2.085,10.824,1.793,13.64,2.945a33.654,33.654,0,0,1,19.2,22.021c4,13.614,2.461,4.6,15.8,11.871,9.747,5.314,10.4,15.84,17.374,21.318,5.811,4.559,11.5,3.886,13.711,13.7,1.2,5.345.32,12.41-.552,17.578a1283.062,1283.062,0,0,1-140.35-.478c-33.808-2.082-68.058.7-101.656-2.118-18.08-1.517-36-5.838-54-5.7,1.444-10.027,8.238-23.1,17.8-22.468" transform="translate(949.35 430.572)" fill="#56a254"/>
      <path id="Trazado_202326" data-name="Trazado 202326" d="M15.2,212.36c.477-9.574-2.049-31.577,16.715-30.165-4.643-23.127,15.463-36.809,37.91-36.214.232-15.822,8.29-34.287,24.441-40.075,8.705-3.12,20.408-6.872,29.1-3.118,6.226,2.69,8.53,9.6,12.736,12.01,3.825,2.2,2.785.1,7.934.335,14.892.7,22.824,4.639,28.367,17.65,14.608-5.756,37.418,3.975,42.608,19.428,8.876-3.683,18.815-.21,25.4,7.126,3.294,3.671,9.138,9.327,11.546,13.2,4.619,7.434,6.895,28.414-1.362,32.844-6.289,3.374-18.381,1.6-25.333,1.879-18.992.767-37.825.4-56.864-.389-33.9-1.4-68.256-2.344-101.972,0-14,.965-36.294-.57-51.231,5.5" transform="translate(905.856 436.352)" fill="#73b88d"/>
      <path id="Trazado_202327" data-name="Trazado 202327" d="M569.385,186c0,9.425-127.462,17.065-284.692,17.065S65,195.42,65,186s62.462-17.065,219.693-17.065S569.385,176.571,569.385,186" transform="translate(850.607 462.01)" fill="#c1722e"/>
    </g>
    <g id="Grupo_150119" data-name="Grupo 150119">
      <path id="Trazado_202328" data-name="Trazado 202328" d="M72.908,55.75H173.1c2.923-8.443-8.5-12.918-15.136-10.543-1.4-10.056-5.58-19.212-16.206-13.668C138.8,26,137.793,20.59,131.907,16.508c-9.108-6.307-15.818-1.258-22.276,5.019-4.16,4.043-5.272,1.117-11.206,1.93C88.456,24.822,87.275,33.8,84.359,41.505c-4.221-.336-7.045-.836-10.138,2.7-2.344,2.689-3.687,8.229-1.311,11.542" transform="translate(927.251 403.156)" fill="#d3fdff"/>
      <path id="Trazado_202329" data-name="Trazado 202329" d="M236.714,36.839h87.6c2.555-7.381-7.43-11.293-13.238-9.218-1.224-8.792-4.879-16.8-14.168-11.95-2.591-4.839-3.471-9.572-8.617-13.136-7.963-5.516-13.829-1.1-19.474,4.388-3.638,3.534-4.608.976-9.8,1.686-8.715,1.191-9.746,9.039-12.3,15.778-3.689-.294-6.16-.729-8.864,2.363-2.056,2.344-3.224,7.2-1.147,10.09" transform="translate(989.375 398)" fill="#d3fdff"/>
    </g>
    <path id="Trazado_202330" data-name="Trazado 202330" d="M274.191,178.182c0,2.7-15.1,4.883-33.719,4.883s-33.717-2.186-33.717-4.883,15.1-4.883,33.717-4.883,33.719,2.186,33.719,4.883" transform="translate(994.44 463.665)" fill="#a44a0d"/>
    <path id="Trazado_202331" data-name="Trazado 202331" d="M239.357,30.36a2.588,2.588,0,0,0,.259.138,1.867,1.867,0,0,1-.259-.138" transform="translate(1006.793 409.504)" fill="#9e9d9d"/>
    <path id="Trazado_202332" data-name="Trazado 202332" d="M238.366,29.627c.1.1.2.188.3.276-.107-.088-.205-.178-.3-.276" transform="translate(1006.418 409.226)" fill="#9e9d9d"/>
    <path id="Trazado_202333" data-name="Trazado 202333" d="M237.79,28.93a2.923,2.923,0,0,0,.233.321,3.334,3.334,0,0,1-.233-.321" transform="translate(1006.2 408.962)" fill="#9e9d9d"/>
    <path id="Trazado_202334" data-name="Trazado 202334" d="M237.616,28.645c.062.116.138.233.205.339-.072-.108-.138-.223-.205-.339" transform="translate(1006.134 408.854)" fill="#9e9d9d"/>
    <path id="Trazado_202335" data-name="Trazado 202335" d="M259.542,119.132l-.414,3.62-2.515,22.179-.124,1.1-.138,1.27a19.464,19.464,0,0,1-11.616.124c-1.655-.572-2.424-.764-2.424-.764-.138-.64-.241-2.151-.341-3.2-.041-.448-.074-.929-.116-1.437-.432-6.386-.414-17.114-.365-23.175.025-2.608.058-4.35.058-4.509a48.681,48.681,0,0,0,18,4.8" transform="translate(1007.592 441.321)" fill="#859089"/>
    <path id="Trazado_202336" data-name="Trazado 202336" d="M259.539,119.132l-.414,3.62a24.445,24.445,0,0,1-9.652-.539,23.355,23.355,0,0,1-8-3.371c.025-2.608.058-4.35.058-4.509a48.682,48.682,0,0,0,18,4.8" transform="translate(1007.596 441.321)" fill="#676f6a"/>
    <path id="Trazado_202337" data-name="Trazado 202337" d="M256.381,138.418l-.138,1.27a19.463,19.463,0,0,1-11.616.124c-1.655-.572-2.424-.764-2.424-.764-.138-.64-.241-2.151-.341-3.2-.041-.448-.074-.929-.116-1.437a17.739,17.739,0,0,0,4.235,2.732,19.625,19.625,0,0,0,7.332,1.495,15.026,15.026,0,0,0,1.93.008c.349-.033.747-.166,1.138-.225" transform="translate(1007.699 448.929)" fill="#676f6a"/>
    <path id="Trazado_202338" data-name="Trazado 202338" d="M219.935,130.109l-.216-2.989-1.295-17.686L217,89.962c-.523.208-18.284,7.257-4.367,42.123.241.623.506,1.253.772,1.893l6.768-.689Zm5.223-18.466a4.076,4.076,0,0,1,2.566-3.786l4.924-1.951a34.6,34.6,0,0,0-10.778-10.23l.465,9.357.332,6.735,1.038,21.157,5.63-.59-4.094-19.856a4.632,4.632,0,0,1-.083-.827" transform="translate(994.652 432.088)" fill="#859089"/>
    <path id="Trazado_202339" data-name="Trazado 202339" d="M221.112,109.631l4.093,19.856-5.63.59-1.038-21.157-.331-6.735a56.179,56.179,0,0,1,5.587-4.724,33.635,33.635,0,0,1,4.724,5.6l-4.924,1.951a4.076,4.076,0,0,0-2.566,3.786,4.641,4.641,0,0,0,.084.827" transform="translate(998.779 434.93)" fill="#676f6a"/>
    <path id="Trazado_202340" data-name="Trazado 202340" d="M218.7,122.257l-6.768.689c-.266-.64-.531-1.27-.772-1.893a27.443,27.443,0,0,1,2.856-1c1.4-.316,2.823-.607,4.226-.921a1.577,1.577,0,0,0,.225-.058Z" transform="translate(996.111 443.119)" fill="#676f6a"/>
    <path id="Trazado_202341" data-name="Trazado 202341" d="M223.059,149.843c-8.291,4.186-13.577,4.069-15.8,3.7a1.988,1.988,0,0,1-1.571-1.295s-1.429,3.143,2.517,3.686a29.917,29.917,0,0,0,6.4-.731,26.119,26.119,0,0,0,7.381-2.75,20.076,20.076,0,0,0,1.786-1.151l-.125-1.724c-.2.08-.4.161-.589.259m8.773-2.606a1.519,1.519,0,0,1-1.143.848c-1.347.205-3.034.552-4.413.856l.116,2.366s1.481.124,3.285.124c.517,0,1.071-.01,1.615-.036a1.54,1.54,0,0,0,1.464-1.571,4.285,4.285,0,0,0-.92-2.588" transform="translate(993.941 453.789)" fill="#b36504"/>
    <path id="Trazado_202342" data-name="Trazado 202342" d="M231.888,156.247l-1.8-6.526a16.836,16.836,0,0,1-.332-2.226,17.669,17.669,0,0,1-.083-1.984L230,120.69l-5.63.59,1.437,29.087.423,8.636c1.387-.308,3.072-.648,4.412-.855a1.516,1.516,0,0,0,1.278-1.722,1.332,1.332,0,0,0-.037-.179m-8.793-3.671-2.259-30.93-6.768.689,2.765,27.5a7.085,7.085,0,0,1-4.036,7.125l-6.12,2.864a2,2,0,0,0,.539,3.786c1.893.307,6.012.44,12.314-2.118,1.1-.44,2.259-.965,3.487-1.586a5.446,5.446,0,0,1,.59-.258Z" transform="translate(993.975 443.73)" fill="#fbb800"/>
    <path id="Trazado_202343" data-name="Trazado 202343" d="M220.177,143.814l.514,7.074a5.3,5.3,0,0,0-.589.258c-1.229.623-2.391,1.146-3.487,1.586l-.349.1c-1.677.49-3.512.888-2.915-1.371a9.628,9.628,0,0,1,3.338-4.468q1.731-1.607,3.487-3.18" transform="translate(996.896 452.492)" fill="#ed8a00"/>
    <path id="Trazado_202344" data-name="Trazado 202344" d="M226.225,149.936a1.529,1.529,0,0,1-1.146.847c-1.346.208-3.034.552-4.413.855L220.243,143c.88-.6,1.793-1.154,2.62-1.786.174-.138.78-.656,1.32-1.088a16.822,16.822,0,0,0,.332,2.226l1.8,6.526a1.522,1.522,0,0,1-.091,1.055" transform="translate(999.551 451.096)" fill="#ed8a00"/>
    <path id="Trazado_202345" data-name="Trazado 202345" d="M251.294,179.7c-.008.138-.008.258-.008.382a23.279,23.279,0,0,1,2.632,4.766,3.122,3.122,0,0,1,.138,1.976,3.024,3.024,0,0,1-1.685,2.075c-3.347,1.536-9.283.481-9.283.481a3.209,3.209,0,0,1-2.242-1.677l-.025-.074-.349-.789-.008-.017a7.818,7.818,0,0,1-.382-2.217,4.955,4.955,0,0,0-.266-1.387c-1.262-3.611.689-12.447.689-12.447V137.317l5.081,1.241a18.893,18.893,0,0,0,11.541.033l2.206-.365s-2.05,8.046-4.094,17.345c-1.93,8.876-3.861,18.906-3.944,24.131" transform="translate(1006.807 450.031)" fill="#fbb800"/>
    <path id="Trazado_202346" data-name="Trazado 202346" d="M253.822,173.215a2.361,2.361,0,0,1-.335,3.322c-.033.028-.068.054-.1.079-4.891,3.125-12.049.706-12.049.706-1.919-.911-1.115-4.106-1.115-4.106l.01.018a4.191,4.191,0,0,0,.347.794l.028.072a3.2,3.2,0,0,0,2.241,1.678s5.929,1.053,9.283-.481a3.014,3.014,0,0,0,1.686-2.079Z" transform="translate(1007.057 463.633)" fill="#b36504"/>
    <path id="Trazado_202347" data-name="Trazado 202347" d="M253.525,147.544c-1.93,8.876-4.79,23.055-4.873,28.277a1.914,1.914,0,0,0-.175-.116,6.133,6.133,0,0,1-1.577-1.693c-.965-1.429-.332-2.773-.167-4.384.258-2.474,6.235-20.987,6.791-22.083" transform="translate(1009.453 453.906)" fill="#ed8a00"/>
    <path id="Trazado_202348" data-name="Trazado 202348" d="M248.772,169.644a.448.448,0,0,1-.364-.188,20.943,20.943,0,0,0-2.245-2.656.447.447,0,1,1,.614-.649l.018.018a21.93,21.93,0,0,1,2.344,2.77.447.447,0,0,1-.364.7" transform="translate(1009.319 460.91)" fill="#b36504"/>
    <path id="Trazado_202349" data-name="Trazado 202349" d="M264.284,33.043c-.827-.233-1.311-.341-1.311-.341l.066.564s.523,8.112-8.81,9.3a4.561,4.561,0,0,1-.582.033c-1.4-.017-6.369-.531-6.933-7.332-.946.1-1.868.216-2.748.365A60.459,60.459,0,0,1,240.4,47.4c.414.091,12.962,2.915,23.175-.523-.341-2.408-.341-6.584.714-13.833m2.956.921a98.676,98.676,0,0,1-.39,11.859s.872,1.693,1.669,3.762A20.068,20.068,0,0,1,269.74,54a4.376,4.376,0,0,1,.3-.531A14.3,14.3,0,0,1,271.41,51.7a19.415,19.415,0,0,1,3.2-2.856,11.2,11.2,0,0,1,5.248-2.383c.772-.108,1.544-.174,2.317-.216v-.066c-1.495-6.568-9.739-10.412-14.93-12.214m-49.464,21.11a15.655,15.655,0,0,1,2.391.607,16.426,16.426,0,0,1,7.54,4.688,10.78,10.78,0,0,1,1.668,2.6,9.611,9.611,0,0,0,.965,1.769,4.193,4.193,0,0,0,1.9,1.655l.324.017a61.678,61.678,0,0,1,3.263-16.433c.7-1.976,1.212-3.105,1.212-3.105l.074.017a74.346,74.346,0,0,1,3.82-10.645,33.3,33.3,0,0,0-23.157,18.824m62.732-3.413a1.414,1.414,0,0,1-1.387-.4c-.473-.44-.772-.929-1.487-1.088-.871-.2-1.586.523-2.275,1a12.02,12.02,0,0,0-1.984,1.86c-.276.3-.539.615-.8.913a6.414,6.414,0,0,0-1.212,2.084,7.1,7.1,0,0,1-.357,1.2l-.017.025c.083.05.175.1.266.165a4.011,4.011,0,0,1,1.295,2.344l.116.041a4.937,4.937,0,0,1,.665-1.437,1.792,1.792,0,0,1,1.4-.814v-.008c.8-.98,1.412-2.1,2.3-3.072.138-.157.291-.316.448-.465a14.046,14.046,0,0,1,3.047-2.292Zm4.25,2.708c-.456-1.2-2.416-.965-3.33-.632a10.115,10.115,0,0,0-1.893.956,10,10,0,0,0-3.264,3.454l-.033.025a2.888,2.888,0,0,1,.589,1.328,8.431,8.431,0,0,1,.149,1.644c.025.008.05.008.083.017.673-1.171,1.655-2.508,2.715-2.748l-.025-.138a6.851,6.851,0,0,1,4.468-3.7,3.085,3.085,0,0,1,.551-.074Z" transform="translate(998.617 410.391)" fill="#fff"/>
    <path id="Trazado_202350" data-name="Trazado 202350" d="M233.1,45.233a61.682,61.682,0,0,0-3.264,16.433l-.324-.017a4.193,4.193,0,0,1-1.9-1.655,9.609,9.609,0,0,1-.965-1.769,10.782,10.782,0,0,0-1.668-2.6,3.19,3.19,0,0,1,.423-.564,7.4,7.4,0,0,0,2.317-5.5c.025-.681-.208-1.777.241-2.344.589-.756.98-.192,1.777-.074,1.9.266,2.6-.789,3.363-1.893" transform="translate(1001.345 415.139)" fill="#e5e5e5"/>
    <path id="Trazado_202351" data-name="Trazado 202351" d="M255.954,45.958c-.341-.241-.855-.656-1.379-1.013a20.067,20.067,0,0,1,1.22,4.413,4.37,4.37,0,0,1,.3-.531,14.294,14.294,0,0,1,1.369-1.769c-.506-.374-1.012-.747-1.517-1.1m14.323,3.969c-.086-.007-.172-.01-.258-.008-1.453.05-2.948.165-4.425.124a10,10,0,0,0-3.264,3.454l-.033.025a2.89,2.89,0,0,1,.59,1.328,8.422,8.422,0,0,1,.149,1.644c.025.008.05.008.083.017.673-1.171,1.655-2.508,2.715-2.748l-.025-.138a6.853,6.853,0,0,1,4.468-3.7m-10.237-1.179c-.2-.116-.414-.233-.607-.357-.276.3-.539.615-.8.913a6.406,6.406,0,0,0-1.214,2.084,6.969,6.969,0,0,1-.357,1.2l-.017.025c.084.05.174.1.266.165a4,4,0,0,1,1.295,2.344l.116.041a4.928,4.928,0,0,1,.672-1.426,1.792,1.792,0,0,1,1.4-.814v-.014c.8-.98,1.412-2.1,2.3-3.072a9.645,9.645,0,0,1-3.056-1.071" transform="translate(1012.56 415.029)" fill="#e5e5e5"/>
    <path id="Trazado_202352" data-name="Trazado 202352" d="M237.719,40.564c1.6,3.13,7.4,5.422,10.669,4.1-2.068.4-5.3-.9-6.9-2.115a29.113,29.113,0,0,1-4.031-3.952,3.889,3.889,0,0,0,.265,1.972" transform="translate(1006.062 412.623)" fill="#e5e5e5"/>
    <path id="Trazado_202353" data-name="Trazado 202353" d="M251.044,46.784c-.341-2.41-.341-6.587.714-13.835.741.205,1.766.509,2.954.92a98.943,98.943,0,0,1-.393,11.859c-.3,2.41-.786,4.257-1.606,4.346,0,0-1.178.063-1.669-3.293" transform="translate(1011.145 410.484)" fill="#d5aa7a"/>
    <path id="Trazado_202354" data-name="Trazado 202354" d="M255.605,47.444a43.811,43.811,0,0,1-6.551,1.473c-9.559,1.365-13.771-1.856-13.771-1.856s-3.356,11.416,7.623,11.9l.116-.072-1.473-2.49a2.166,2.166,0,0,1,3.749-2.169l2.2,3.723c.054-.018.116-.046.17-.063l-.018-4.6a2.171,2.171,0,0,1,1.74-2.115,2.33,2.33,0,0,1,.437-.045,2.179,2.179,0,0,1,2.161,2.177l.008,3.223q.689-.188,1.367-.349c2.937-3.257,2.249-8.738,2.249-8.738" transform="translate(1005.066 415.832)" fill="#ffe0bb"/>
    <path id="Trazado_202355" data-name="Trazado 202355" d="M235.708,35.442q1.46-.362,3.025-.616a59.419,59.419,0,0,1-3.57,11.765h-.01c-1.884,4-3.089,3.043-3.089,3.043-.651-.339-.589-1.74-.178-3.542a74.025,74.025,0,0,1,3.821-10.648" transform="translate(1003.846 411.195)" fill="#d5aa7a"/>
    <path id="Trazado_202356" data-name="Trazado 202356" d="M275.969,103.177c-.827,19.912-7.356,43.277-7.356,43.277a48.68,48.68,0,0,1-18-4.8,64.168,64.168,0,0,1-21.148-16.59c-.225-.365-.456-.723-.689-1.071A34.936,34.936,0,0,0,218,113.763l-.456-9.283a34,34,0,0,0,11.343-14.124,48.3,48.3,0,0,0,3.789-14.007c.138-1.179.216-2.151.25-2.839a13.491,13.491,0,0,0-.066-2.084,50.419,50.419,0,0,1-.2-8.62,59.337,59.337,0,0,1,4.476-19.538l.074.017c-.414,1.811-.473,3.2.183,3.545,0,0,1.2.956,3.089-3.034h.008c.414.091,12.962,2.915,23.174-.523.473,3.238,1.594,3.3,1.668,3.3.827-.091,1.311-1.93,1.611-4.35a31.047,31.047,0,0,1,2.9,8.178c-.465,1.038-.39,2.042-.8,3.1l.05.083c-.623.4-.552,1.445-.552,2.11q0,.536.025,1.071l.041.582a5.579,5.579,0,0,0-.838-.531,4.477,4.477,0,0,0-4.866.607c-1.005.165-2,.374-3,.607,2.932-3.254,2.25-8.735,2.25-8.735a43.8,43.8,0,0,1-6.551,1.47c-9.566,1.371-13.775-1.86-13.775-1.86s-3.355,11.417,7.623,11.9l.116-.066.465.789c-5.82,2.9-9.782,6.834-8.81,11a5.724,5.724,0,0,0,1.744,2.907,7.946,7.946,0,0,0,1.693,1.187l7.414,8.461.4.149a1.357,1.357,0,0,0,.552,1.412s-1.668,4.069,9.142,5.589l-.008.025s0,5.007,13.635.582l.016.066a77.615,77.615,0,0,1,.165,10.288" transform="translate(998.526 413.998)" fill="#ebcba3"/>
    <path id="Trazado_202357" data-name="Trazado 202357" d="M224.974,84.033a3.9,3.9,0,0,1,2.9.783,13.285,13.285,0,0,1,2.336,2,32.339,32.339,0,0,1,3.585,4.982c2.115,3.5,3.571,7.366,5.4,10.922a39.285,39.285,0,0,0,6.962,9.774,28.647,28.647,0,0,0,4.619,3.861,20.745,20.745,0,0,0,5.4,2.7,23.334,23.334,0,0,1-10.5-6.067,37.948,37.948,0,0,1-7.274-9.854c-.912-1.834-1.728-3.723-2.533-5.561s-1.724-3.651-2.664-5.434a32.31,32.31,0,0,0-3.309-5.033,12.893,12.893,0,0,0-2.141-2.1,5.662,5.662,0,0,0-1.293-.75,2.621,2.621,0,0,0-1.467-.226" transform="translate(1001.344 429.828)" fill="#d5aa7a"/>
    <path id="Trazado_202358" data-name="Trazado 202358" d="M231.207,85.69a37.021,37.021,0,0,0,3.172,3,39.417,39.417,0,0,0,3.447,2.654,34.959,34.959,0,0,0,7.62,4.037,26.817,26.817,0,0,0,8.4,1.736,23.065,23.065,0,0,0,4.317-.2,30.456,30.456,0,0,0,4.275-.852,22.98,22.98,0,0,1-8.6,1.74,24.057,24.057,0,0,1-8.7-1.586,30.049,30.049,0,0,1-7.71-4.32,31.315,31.315,0,0,1-6.213-6.205" transform="translate(1003.706 430.469)" fill="#d5aa7a"/>
    <path id="Trazado_202359" data-name="Trazado 202359" d="M269.407,94.055a17.479,17.479,0,0,1-9.59-.108,55.656,55.656,0,0,1-9.486-3.926,28.337,28.337,0,0,1-5.936-4.6c-.49-.44-3.462-2.482-2.151-3.338.552-.365,1.893.78,2.574.789-.938-1.146-1.517-2.474-2.574-3.537-2.184-2.226-5.057-4.468-6.584-7.257-.648-1.2-1.262-3.985-.341-5.19a1.55,1.55,0,0,1,1.088-.59,7.943,7.943,0,0,0,1.693,1.187l7.415,8.461.4.149a1.357,1.357,0,0,0,.552,1.412s-1.668,4.069,9.142,5.589l-.008.025s0,5.007,13.635.58l.017.066a77.615,77.615,0,0,1,.165,10.288" transform="translate(1005.086 423.12)" fill="#d5aa7a"/>
    <path id="Trazado_202360" data-name="Trazado 202360" d="M247.959,97.129c-5.614-1.42-9.532-4.592-13.238-8.876-2.308-2.682-5.157-6.667-8.963-7.274a48.261,48.261,0,0,0,3.795-14.008c2.325,2.441,4.137,7.381,4.732,10.164.921,4.342,1.354,8.963,4.4,12.514a32.772,32.772,0,0,0,9.268,7.482" transform="translate(1001.641 423.376)" fill="#d5aa7a"/>
    <path id="Trazado_202361" data-name="Trazado 202361" d="M280.508,49.112a1,1,0,0,1,.188.116c1.339.946.848,2.5,1.838,3.562,1.267,1.365,2.344,1.856,2.187,3.945a8.019,8.019,0,0,0-.171,2.3,12.109,12.109,0,0,1,.74,2.732,5.77,5.77,0,0,1-2.169,4.688,23.8,23.8,0,0,1-1.365-2.044c-.669-1.295-.331-3.071-.617-4.508a7.068,7.068,0,0,0-2.971-4.937c-1.517-.884-3.187-1.178-4.526-2.383-1.393-1.259-2.241-2.981-4.32-2.981a1.457,1.457,0,0,0-.206.01l-.01-.138c-.455-1.205-2.419-.972-3.329-.633a10.033,10.033,0,0,0-5.158,4.413l-.036.028a1.753,1.753,0,0,0-.911-.563,1.7,1.7,0,0,0-.589-.054v-.012a31.1,31.1,0,0,1,2.75-3.534,14.281,14.281,0,0,1,3.043-2.295,10.955,10.955,0,0,1,2.079-.848c1.838-.535,3.74-.794,5.23.661,1.116,1.08,1.409,2.344,3.24,2.366,1.655.01,3.552-.794,5.079.108" transform="translate(1014.269 415.262)" fill="#3b7832"/>
    <path id="Trazado_202362" data-name="Trazado 202362" d="M281.227,71.462c.339,1.5,1.793,2.714,1.606,4.392-.138,1.205-1.526,2.579-2.821,2.068a1.991,1.991,0,0,1-.974-.92c-.722-1.295-.731-3.294-2.668-3.24-.8.026-1.356.689-2.2.607a2.878,2.878,0,0,1-1.931-1.59,6.444,6.444,0,0,1-.723-4.248,14.089,14.089,0,0,1,.465-2.213c.491-1.768.946-3.231-.661-4.534-1.1-.892-1.062-1.624-.66-2.955.827-2.66,1.205-5.378-1.036-7.86a2.151,2.151,0,0,0-2.3-.827c-1.331.375-2.508,1.93-3.374,2.534a1.483,1.483,0,0,0-1.205-.25l-.026-.138a6.668,6.668,0,0,1,5.015-3.782,1.7,1.7,0,0,1,.205-.008c2.079,0,2.928,1.722,4.32,2.981,1.339,1.205,3.007,1.5,4.526,2.383A7.066,7.066,0,0,1,279.76,58.8c.285,1.437-.054,3.213.616,4.508a23.89,23.89,0,0,0,1.365,2.045,3.514,3.514,0,0,1,.652,2.267c-.088,1.411-1.526,2.295-1.169,3.847" transform="translate(1015.647 416.376)" fill="#56a455"/>
    <path id="Trazado_202363" data-name="Trazado 202363" d="M281.367,44.769a4.519,4.519,0,0,1,2.213,3.749,4.306,4.306,0,0,1-1.481,2.588c-1.526-.9-3.428-.1-5.079-.108-1.83-.018-2.123-1.285-3.24-2.366-1.491-1.455-3.391-1.2-5.23-.661a10.988,10.988,0,0,0-2.079.848l-.018-.036a1.439,1.439,0,0,1-1.393-.4c-.473-.437-.767-.928-1.481-1.088-.874-.2-1.589.527-2.277,1a16.369,16.369,0,0,0-2.785,2.766,6.542,6.542,0,0,0-1.213,2.088,6.7,6.7,0,0,1-.357,1.2l-.018.026a2.273,2.273,0,0,0-1.8-.17.8.8,0,0,0-.2.1l-.044-.08c.4-1.053.331-2.068.794-3.1a3.955,3.955,0,0,1,.3-.535,18.158,18.158,0,0,1,4.57-4.623,11.318,11.318,0,0,1,5.248-2.383c.776-.108,1.543-.17,2.321-.214l.723-.054a4.617,4.617,0,0,1,3.8-2.9,4.744,4.744,0,0,1,3.2.367c.892.6.827,1.526,1.276,2.374.936,1.7,2.784.974,4.257,1.606" transform="translate(1012.677 413.267)" fill="#56a455"/>
    <path id="Trazado_202364" data-name="Trazado 202364" d="M270.2,61.351c1.606,1.3,1.151,2.766.661,4.534a14.361,14.361,0,0,0-.463,2.206l-.09-.008a2.908,2.908,0,0,0-1.544-1.241c-.008-.01-.008-.01-.018-.01-.652-.223-1.7-.026-2.295-.483-.786-.6-.625-1.517-.294-2.355.178-.473.414-.928.563-1.295.517-1.269.01-1.655-.59-2.668a3.264,3.264,0,0,1-.33-.776,3.559,3.559,0,0,1,.294-2.437,7.628,7.628,0,0,0,.75-4.137,9.082,9.082,0,0,0-.365-2.068,3.4,3.4,0,0,1-.241-.767l-.036-.152a2.151,2.151,0,0,1,2.3.827c2.241,2.49,1.856,5.2,1.036,7.86-.4,1.331-.437,2.068.661,2.955" transform="translate(1016.776 416.802)" fill="#3b7832"/>
    <path id="Trazado_202365" data-name="Trazado 202365" d="M269.545,62.952l-.036.08s-.447.99-1.267,2.454c-.758-.768-2.233.138-2.233.138a2.047,2.047,0,0,1-2.374-.125V65.49l.7-4.3v-.01a8.4,8.4,0,0,0,.767-1.267,1.348,1.348,0,0,0,1.83.2h.008c-.329.838-.491,1.758.3,2.357.589.455,1.642.259,2.295.481.008,0,.008,0,.018.01" transform="translate(1015.993 420.701)" fill="#1d401b"/>
    <path id="Trazado_202366" data-name="Trazado 202366" d="M267.705,52.664a7.641,7.641,0,0,1-.75,4.137,3.559,3.559,0,0,0-.3,2.437l-1.116.1a5.945,5.945,0,0,0-2.115-2.864c.652-1.187,1.655-3.309.259-4.258.866-.6,2.043-2.159,3.374-2.534l.036.152a3.4,3.4,0,0,0,.241.768,9.007,9.007,0,0,1,.367,2.068" transform="translate(1015.915 416.823)" fill="#2b5922"/>
    <path id="Trazado_202367" data-name="Trazado 202367" d="M266.358,64.173s1.473-.9,2.231-.138a34.154,34.154,0,0,1-5.855,7.756l-.01-.01,1.259-7.738a2.047,2.047,0,0,0,2.375.125" transform="translate(1015.647 422.147)" fill="#56a455"/>
    <path id="Trazado_202368" data-name="Trazado 202368" d="M266.51,57.391c.6,1.009,1.1,1.4.589,2.668-.138.367-.383.827-.563,1.295h-.008a1.348,1.348,0,0,1-1.83-.2,5.791,5.791,0,0,0,.509-3.963,3.869,3.869,0,0,0-.138-.483l1.116-.1a3.239,3.239,0,0,0,.331.776" transform="translate(1016.396 419.451)" fill="#2b5922"/>
    <path id="Trazado_202369" data-name="Trazado 202369" d="M276.61,57.955a5.79,5.79,0,0,1-.509,3.963,8.282,8.282,0,0,1-.767,1.267v.01c-2.937,4.087-10.005,7.507-17.4,9.247-.517.124-1.036.241-1.553.339a.009.009,0,0,1-.01.01,47.993,47.993,0,0,1-5.426.794h-.01c-1.205.108-2.383.16-3.508.16a19.781,19.781,0,0,1-9.219-1.822l-.008-.008h-.01a6.368,6.368,0,0,1-3.436-4.1c-.974-4.168,2.989-8.1,8.809-11l1.347,2.293c-.3.138-.589.285-.866.437a2.42,2.42,0,0,0-.509-.046,3.353,3.353,0,0,0-3.228,2.448c-2.206,1.766-3.33,3.614-2.945,5.248l.054.188v.01c.491,1.553,2.344,2.65,5.079,3.221.259.054.535.1.812.138a26.23,26.23,0,0,0,4.964.285h.01a.235.235,0,0,0,.116,0,44.8,44.8,0,0,0,8.926-1.213l.892-.214c.126-.036.25-.072.375-.1a40.573,40.573,0,0,0,9.453-3.7c.267-.152.535-.3.786-.456,3.632-2.206,5.685-4.688,5.186-6.8a3.185,3.185,0,0,0-1.088-1.688c.481-.7.946-1.409,1.365-2.151a.855.855,0,0,1,.072-.124,5.944,5.944,0,0,1,2.115,2.864,3.616,3.616,0,0,1,.138.483" transform="translate(1004.992 418.689)" fill="#a7560b"/>
    <path id="Trazado_202370" data-name="Trazado 202370" d="M274.352,60.835l-.7,4.3v.008l-1.262,7.738.008.008a13.506,13.506,0,0,1-7.93,4.061l-1-.414-6.459-2.665a1.455,1.455,0,0,0-1.445,2.5l3.919,3.014a7.942,7.942,0,0,1-3.827.414,15.887,15.887,0,0,1-4.137-1l-4.786-1.594a1.357,1.357,0,0,0-1.612.665c-.041.1-.075.2-.108.291l-.4-.149-7.414-8.461h.008l.01.008a19.749,19.749,0,0,0,9.215,1.819c1.131,0,2.308-.05,3.512-.157h.01a45.208,45.208,0,0,0,5.421-.8l.008-.008c.523-.091,1.038-.208,1.553-.341A46.648,46.648,0,0,0,266.4,66.8a21.1,21.1,0,0,0,7.955-5.962" transform="translate(1005.979 421.051)" fill="#c1722e"/>
    <path id="Trazado_202371" data-name="Trazado 202371" d="M265.58,55.859a.6.6,0,0,0-.068.124c-.423.739-.888,1.445-1.371,2.151a22.142,22.142,0,0,0-2.449,4.226c-.1.258-.208.506-.332.764a14.768,14.768,0,0,0-1.328,3.462l.017.033c-.25.149-.523.307-.789.456a5.122,5.122,0,0,0-1.517-2.574c.05-.241.066-.531.124-.747a16.636,16.636,0,0,1,.88-2.715c.157-.382.316-.764.465-1.146.465-1.129.921-2.259,1.453-3.371.138-.308.283-.615.441-.913a16.093,16.093,0,0,1,.805-1.517c.673-1.171,1.655-2.508,2.715-2.748a1.473,1.473,0,0,1,1.205.25c1.4.946.4,3.072-.258,4.259" transform="translate(1013.761 417.44)" fill="#e85536"/>
    <path id="Trazado_202372" data-name="Trazado 202372" d="M264.607,57.945c.5,2.115-1.553,4.6-5.185,6.8l-.018-.036a22.935,22.935,0,0,1,1.655-4.222,21.838,21.838,0,0,1,2.456-4.231,3.2,3.2,0,0,1,1.089,1.688" transform="translate(1014.39 419.316)" fill="#6a320c"/>
    <path id="Trazado_202373" data-name="Trazado 202373" d="M262.492,54.321a16.129,16.129,0,0,0-.805,1.517c-.157.3-.308.607-.44.913-.531,1.113-.989,2.242-1.453,3.371-.15.382-.307.764-.465,1.146a16.758,16.758,0,0,0-.88,2.715c-.058.217-.074.506-.124.747a5,5,0,0,0-2.092-1.138,25.03,25.03,0,0,1,.7-6.419c.083-.291.15-.572.233-.863l.025-.1c.225-.871.456-1.761.714-2.62,0-.008,0-.008.008-.017.058-.2.116-.4.19-.6a4.941,4.941,0,0,1,.665-1.437,1.832,1.832,0,0,1,2.907-.2,2.9,2.9,0,0,1,.589,1.328,8.441,8.441,0,0,1,.149,1.644c.025.008.05.008.083.017" transform="translate(1013.186 417.219)" fill="#c22f15"/>
    <path id="Trazado_202374" data-name="Trazado 202374" d="M261.615,63.819c-.458.258-.938.514-1.437.747a41.884,41.884,0,0,1-8.012,2.948,3.922,3.922,0,0,1-.307-.665.9.9,0,0,0,.007-.149,5.189,5.189,0,0,0-.331-1.844,5.081,5.081,0,0,1,1.4-3.347,5,5,0,0,1,1.336-1.013,5.109,5.109,0,0,1,2.383-.59c.108,0,.225,0,.332.008a4.665,4.665,0,0,1,1.029.19,5.009,5.009,0,0,1,2.093,1.138,5.121,5.121,0,0,1,1.517,2.574" transform="translate(1011.408 420.699)" fill="#c22f15"/>
    <path id="Trazado_202375" data-name="Trazado 202375" d="M258.748,53.128a6.273,6.273,0,0,0-.19.6c-.008.008-.008.008-.008.017-.258.863-.49,1.753-.714,2.62l-.025.1c-.083.291-.149.574-.233.863a25.024,25.024,0,0,0-.7,6.419,4.679,4.679,0,0,0-1.03-.19l.008-.182a14.368,14.368,0,0,0-.49-2.151c-.041-.216-.083-.423-.124-.64-.174-1.055-.258-2.1-.365-3.163s-.223-2.1-.291-3.147c-.016-.19-.033-.382-.041-.582-.008-.138-.008-.266-.008-.4-.016-.225-.016-.448-.016-.673,0-.665-.075-1.71.552-2.11a.613.613,0,0,1,.19-.1,2.3,2.3,0,0,1,1.811.165c.083.05.174.1.266.165a4,4,0,0,1,1.295,2.344Z" transform="translate(1012.539 417.058)" fill="#e85536"/>
    <path id="Trazado_202376" data-name="Trazado 202376" d="M256.681,60.543l-.01.188c-.108-.01-.223-.01-.339-.01a5.1,5.1,0,0,0-3.713,1.6,3.974,3.974,0,0,0,.152-1.088,4.223,4.223,0,0,0-.414-1.83,1.089,1.089,0,0,0,.241.018,4.429,4.429,0,0,0,3.472-1.655c.036.214.08.414.126.634a15.732,15.732,0,0,1,.491,2.151" transform="translate(1011.719 419.887)" fill="#bf8f00"/>
    <path id="Trazado_202377" data-name="Trazado 202377" d="M257.23,59.766a4.422,4.422,0,0,1-3.472,1.655,1.178,1.178,0,0,1-.241-.017,4.185,4.185,0,0,0-3.669-2.358h-.041a.3.3,0,0,1-.034-.074l-.008-.008a4.376,4.376,0,0,1-.357-.954,4.528,4.528,0,0,1-.124-1.063,3.069,3.069,0,0,1,.025-.39,4.357,4.357,0,0,1,1.561-3.034,4.477,4.477,0,0,1,4.866-.607,4.661,4.661,0,0,1,.807.506c.008.008.023.017.032.025.068,1.047.183,2.092.291,3.147s.192,2.108.365,3.163" transform="translate(1010.554 417.877)" fill="#f48735"/>
    <path id="Trazado_202378" data-name="Trazado 202378" d="M254.96,61.425a3.984,3.984,0,0,1-.157,1.1,5.088,5.088,0,0,0-1.4,3.347,5.278,5.278,0,0,0-4.949-3.438,3.53,3.53,0,0,0-.59.041,1.431,1.431,0,0,0-.266.033,3.541,3.541,0,0,0-.414.083,2.156,2.156,0,0,0-.225.058h-.008l-.165.05a1.128,1.128,0,0,1-.05-.19,3.936,3.936,0,0,1-.149-1.08,3.944,3.944,0,0,1,.138-1.047,4.146,4.146,0,0,1,4.036-3.138h.1a4.19,4.19,0,0,1,3.669,2.358,4.237,4.237,0,0,1,.425,1.827" transform="translate(1009.535 419.688)" fill="#fbb800"/>
    <path id="Trazado_202379" data-name="Trazado 202379" d="M254.678,66.286a.91.91,0,0,1-.008.149,4.433,4.433,0,0,1-.066.764q-.449.1-.9.216a45.1,45.1,0,0,1-8.926,1.212.273.273,0,0,1-.116,0h-.008a5.357,5.357,0,0,1-.514-1.81c-.016-.174-.025-.357-.025-.531a5.45,5.45,0,0,1,.341-1.877,4.707,4.707,0,0,1,.25-.552,5.1,5.1,0,0,1,.423-.681,5.325,5.325,0,0,1,2.6-1.91l.165-.05h.008a2.145,2.145,0,0,1,.225-.058,3.541,3.541,0,0,1,.414-.083,2.047,2.047,0,0,1,.225-.033.038.038,0,0,1,.041,0,1.265,1.265,0,0,1,.25-.025A2.349,2.349,0,0,1,249.4,61a5.28,5.28,0,0,1,4.949,3.438,5.189,5.189,0,0,1,.332,1.844" transform="translate(1008.598 421.114)" fill="#f48735"/>
    <path id="Trazado_202380" data-name="Trazado 202380" d="M250.565,57.926h-.054a4.138,4.138,0,0,0-3.221,1.517l-.01-3.319c.643-.188,1.295-.357,1.964-.509.276-.062.552-.125.827-.178a2.736,2.736,0,0,0-.026.383,4.425,4.425,0,0,0,.527,2.107" transform="translate(1009.796 419.006)" fill="#6a320c"/>
    <path id="Trazado_202381" data-name="Trazado 202381" d="M248.633,53.842c1-.232,2-.437,3-.607a4.374,4.374,0,0,0-1.562,3.034c-.276.054-.552.116-.827.178-.67.152-1.321.321-1.964.509l-.018-2.766q.689-.186,1.365-.347" transform="translate(1009.789 418.171)" fill="#a7560b"/>
    <path id="Trazado_202382" data-name="Trazado 202382" d="M248.483,60.178V61.5a4.149,4.149,0,0,0-.815,1.619l-.43-.739L245.6,59.6l-.258-.44h-.007l-1.205-2.042v-.357l-.015-4.592a2.171,2.171,0,0,1,1.735-2.118,2.61,2.61,0,0,1,.44-.041,2.169,2.169,0,0,1,2.159,2.176l.008,3.221v.539l.018,2.226Z" transform="translate(1008.597 416.95)" fill="#3b7832"/>
    <path id="Trazado_202383" data-name="Trazado 202383" d="M249.484,64.875a5.311,5.311,0,0,0-2.6,1.91l-.383-.64-.582-.989v-.006l-.39-.665-.5-.847-.008-.008a3.332,3.332,0,0,0-1.353-2.292l-.615-1.038L241.711,58l-.465-.789-1.469-2.492a2.165,2.165,0,0,1,.781-2.961l.007,0a2.181,2.181,0,0,1,2.956.8l2.193,3.723.174.276v.008l1.205,2.042h.007l.258.44,1.635,2.773.432.739a3.943,3.943,0,0,0-.138,1.047,4.221,4.221,0,0,0,.2,1.27" transform="translate(1006.841 417.503)" fill="#56a455"/>
    <path id="Trazado_202384" data-name="Trazado 202384" d="M244.691,61.823l.965,1.624a4.894,4.894,0,0,0-.429.678,3.322,3.322,0,0,0-2.344-.946.663.663,0,0,0-.138.01,3.353,3.353,0,0,0,1.071-2.464,3.408,3.408,0,0,0-.026-.429l.892,1.517Z" transform="translate(1008.077 420.847)" fill="#6a320c"/>
    <path id="Trazado_202385" data-name="Trazado 202385" d="M245.443,66.291a5.358,5.358,0,0,0,.514,1.811A26.393,26.393,0,0,1,241,67.81a2.573,2.573,0,0,1-.324-.5,3.2,3.2,0,0,0,.938-1.346,3.11,3.11,0,0,0,.225-1.179,3.2,3.2,0,0,0-.357-1.486.087.087,0,0,0-.041-.074,3.269,3.269,0,0,1,2.084-.827h.008a.772.772,0,0,1,.138-.008,3.322,3.322,0,0,1,2.344.946,4.718,4.718,0,0,0-.249.552,5.451,5.451,0,0,0-.341,1.877c0,.174.008.357.025.531" transform="translate(1007.293 421.641)" fill="#bf8f00"/>
    <path id="Trazado_202386" data-name="Trazado 202386" d="M245.38,61.533a3.475,3.475,0,0,1-.138.938s0-.008-.008,0A3.3,3.3,0,0,1,244.3,64H244.3a3.269,3.269,0,0,0-2.083.827,3.329,3.329,0,0,0-2.981-1.811c-.074,0-.165,0-.25.008a2.658,2.658,0,0,1-.2-.506,3.209,3.209,0,0,1-.149-.989,3.478,3.478,0,0,1,.138-.929,3.372,3.372,0,0,1,3.238-2.441,2.592,2.592,0,0,1,.506.041,3.355,3.355,0,0,1,2.831,2.9l.008.008a3.6,3.6,0,0,1,.025.423" transform="translate(1006.52 420.037)" fill="#c22f15"/>
    <path id="Trazado_202387" data-name="Trazado 202387" d="M243.372,65.055a3.312,3.312,0,0,1-1.164,2.525,2.589,2.589,0,0,1-.49.357,11.136,11.136,0,0,1-3.071-1.071,3.908,3.908,0,0,1-2.01-2.151v-.008a3.387,3.387,0,0,1,2.847-2.989l.258-.025c.083-.008.174-.008.249-.008a3.329,3.329,0,0,1,2.981,1.811.087.087,0,0,1,.041.074,3.188,3.188,0,0,1,.359,1.486" transform="translate(1005.763 421.372)" fill="#fbb800"/>
    <path id="Trazado_202388" data-name="Trazado 202388" d="M239.566,59.934a3.206,3.206,0,0,0-.138.928,3.329,3.329,0,0,0,.347,1.491,3.37,3.37,0,0,0-3.107,3.017l-.054-.188c-.383-1.633.741-3.48,2.945-5.248" transform="translate(1005.727 420.709)" fill="#6a320c"/>
    <path id="Trazado_202389" data-name="Trazado 202389" d="M241.447,58.313a7.482,7.482,0,0,1,.866-.437l.615,1.045a3.217,3.217,0,0,0-1.481-.607" transform="translate(1007.585 419.93)" fill="#6a320c"/>
    <path id="Trazado_202390" data-name="Trazado 202390" d="M267.133,60.835l-.7,4.3v.008l-1.262,7.738.008.008a13.506,13.506,0,0,1-7.93,4.061l-1-.414a31.3,31.3,0,0,0,2.923-9.739,21.1,21.1,0,0,0,7.955-5.962" transform="translate(1013.197 421.051)" fill="#af5e23"/>
    <g id="Grupo_150062" data-name="Grupo 150062" transform="translate(1267.07 470.353)" opacity="0.34">
      <g id="Grupo_150061" data-name="Grupo 150061">
        <g id="Grupo_150060" data-name="Grupo 150060" clip-path="url(#clip-path-2)">
          <g id="Grupo_150059" data-name="Grupo 150059" transform="translate(0.007)">
            <g id="Grupo_150058" data-name="Grupo 150058" clip-path="url(#clip-path-3)">
              <path id="Trazado_202391" data-name="Trazado 202391" d="M261.253,66.147l.015.033c-.25.149-.523.308-.789.456a5.121,5.121,0,0,0-1.517-2.574,5.009,5.009,0,0,0-2.093-1.138,4.665,4.665,0,0,0-1.029-.19l.008-.182a14.536,14.536,0,0,0-.491-2.151c-.04-.217-.083-.423-.124-.64-.174-1.055-.258-2.1-.365-3.163s-.223-2.1-.291-3.147c-.017-.192-.032-.382-.041-.582-.008-.138-.008-.266-.008-.4a4.344,4.344,0,0,0,3.272,3.172.144.144,0,0,0,.068.017,3.713,3.713,0,0,0,2.565,3.795c.026.008.041.017.066.025a3.335,3.335,0,0,0,1.655,2.932c.159.1.3.192.423.276a14.711,14.711,0,0,0-1.328,3.462" transform="translate(-254.535 -52.471)" fill="#040405"/>
            </g>
          </g>
        </g>
      </g>
    </g>
    <g id="Grupo_150067" data-name="Grupo 150067" transform="translate(1244.409 482.327)" opacity="0.34">
      <g id="Grupo_150066" data-name="Grupo 150066">
        <g id="Grupo_150065" data-name="Grupo 150065" clip-path="url(#clip-path-4)">
          <g id="Grupo_150064" data-name="Grupo 150064">
            <g id="Grupo_150063" data-name="Grupo 150063" clip-path="url(#clip-path-5)">
              <path id="Trazado_202392" data-name="Trazado 202392" d="M245.442,61.33a3.314,3.314,0,0,1-.931,1.528H244.5a3.276,3.276,0,0,0-2.085.827.087.087,0,0,1,.041.074,3.187,3.187,0,0,1,.359,1.486,3.312,3.312,0,0,1-1.164,2.525,2.592,2.592,0,0,1-.489.357,11.136,11.136,0,0,1-3.071-1.071,2.427,2.427,0,0,1,.405-1.038c.44-.607,1.162-.789,1.437-1.569.456-1.287-.59-1.728-1.005-2.541a1.336,1.336,0,0,1-.149-.456,1.391,1.391,0,0,1,.208-.074,6.168,6.168,0,0,1,3.628.149,5.419,5.419,0,0,0,2.824-.2" transform="translate(-238.094 -61.148)" fill="#040405"/>
            </g>
          </g>
        </g>
      </g>
    </g>
    <g id="Grupo_150072" data-name="Grupo 150072" transform="translate(1252.372 472.899)" opacity="0.34">
      <g id="Grupo_150071" data-name="Grupo 150071">
        <g id="Grupo_150070" data-name="Grupo 150070" clip-path="url(#clip-path-6)">
          <g id="Grupo_150069" data-name="Grupo 150069" transform="translate(0 0.003)">
            <g id="Grupo_150068" data-name="Grupo 150068" clip-path="url(#clip-path-7)">
              <path id="Trazado_202393" data-name="Trazado 202393" d="M248.578,58.555a.833.833,0,0,0,0,.465v.847a4.153,4.153,0,0,0-.815,1.619,3.948,3.948,0,0,0-.138,1.047,4.223,4.223,0,0,0,.2,1.27,5.31,5.31,0,0,0-2.6,1.91l-.385-.643-.582-.989v0l-.39-.665a.128.128,0,0,0,.025-.041,11.083,11.083,0,0,0,.291-1.769c.223-.731.552-1.42.827-2.143a9.846,9.846,0,0,1,.681-1.486,6.753,6.753,0,0,1,1.295-1.544,7.4,7.4,0,0,0,1.56-2.11l.018,2.226.008,2Z" transform="translate(-243.869 -54.321)" fill="#040405"/>
            </g>
          </g>
        </g>
      </g>
    </g>
    <g id="Grupo_150077" data-name="Grupo 150077" transform="translate(1247.972 471.307)" opacity="0.34">
      <g id="Grupo_150076" data-name="Grupo 150076">
        <g id="Grupo_150075" data-name="Grupo 150075" clip-path="url(#clip-path-8)">
          <g id="Grupo_150074" data-name="Grupo 150074">
            <g id="Grupo_150073" data-name="Grupo 150073" clip-path="url(#clip-path-9)">
              <path id="Trazado_202394" data-name="Trazado 202394" d="M264.292,67.118a41.864,41.864,0,0,1-8.013,2.948,4.09,4.09,0,0,1-.308-.665,4.427,4.427,0,0,1-.066.764q-.449.1-.9.216a45.1,45.1,0,0,1-8.926,1.212.274.274,0,0,1-.116,0h-.008A26.391,26.391,0,0,1,241,71.3a2.572,2.572,0,0,1-.324-.5,3.2,3.2,0,0,0,.938-1.346,4.6,4.6,0,0,1,3.454.116c.116.058.241.138.374.208.7.382,1.594.827,2.259.365.756-.531.689-1.387,1.728-1.644,1.014-.25,1.993-.058,2.707-1.005a1.552,1.552,0,0,0-.208-2.186l-.05-.04c-.789-.739-1.769-.648-2.641-1.063a.147.147,0,0,1-.033-.025H249.2a.85.85,0,0,1-.216-.138.486.486,0,0,1-.124-.632,1.453,1.453,0,0,1,.98-.648c1.287-.308,2.49.552,3.687-.116a1.944,1.944,0,0,0,.667-2.665,1.866,1.866,0,0,0-.178-.25,12.894,12.894,0,0,0-.9-.956l-.074-.074-.008-.008c-.365-.39-.623-.756-.357-.954a1.225,1.225,0,0,1,.648-.157,8.976,8.976,0,0,0,4.55-.965,5.307,5.307,0,0,0,1.931-3.454c.008.008.025.017.033.025.066,1.047.183,2.092.291,3.147s.192,2.11.365,3.163a4.41,4.41,0,0,1-3.471,1.655,1.18,1.18,0,0,1-.241-.017,4.235,4.235,0,0,1,.423,1.827,3.983,3.983,0,0,1-.157,1.1,4.954,4.954,0,0,1,1.338-1.013,2.9,2.9,0,0,0,.25,2.474c.965,1.379,2.374.414,3.712.6a3.183,3.183,0,0,1,1.951,1" transform="translate(-240.678 -53.161)" fill="#040405"/>
            </g>
          </g>
        </g>
      </g>
    </g>
    <path id="Trazado_202395" data-name="Trazado 202395" d="M262.424,14.036c-1.233.116-2.446.25-3.633.414a93.712,93.712,0,0,0-18.708,4.49,84.153,84.153,0,0,0-9.1,3.8,39.335,39.335,0,0,0,9.928.946h.008l.947,5.4C223.552,33.127,222.2,26.3,222.2,26.3s-2.206-6.793,18.182-12.629c.848-.241,1.731-.481,2.66-.723A120.867,120.867,0,0,1,258.83,9.5c7.711-1.088,15.906-1.16,18.626,2.668a2.813,2.813,0,0,1,.492,1.866c-.214,2.221-2.117,7.308-14.639,10.407a2.566,2.566,0,0,0-1.427-1.838l.25-3.909h.026a55.526,55.526,0,0,0,8.549-5.025c-2.856-.01-5.623.125-8.282.367" transform="translate(1000.266 401.354)" fill="#845318"/>
    <path id="Trazado_202396" data-name="Trazado 202396" d="M268,12.733a27.494,27.494,0,0,0,3.275-.4c.48-.05,2.715-.469,3.111-.088.729.7-.738,2.879-1.214,3.416a8.775,8.775,0,0,1-1.98,1.394,23.512,23.512,0,0,1-4.885,2.715,103.168,103.168,0,0,1-19.618,5.019c-3.723.53-7.368,1.624-11.109,1.973-2.823.263-6.186.458-8.717-1.034-1.517-.895-1.881-2.085-.259-3.009a14.564,14.564,0,0,1,3.354-1.293,21.115,21.115,0,0,1,3.476-.5,41.457,41.457,0,0,0,5.772-1.4c2.62-.663,5.157-1.611,7.777-2.242,2.985-.721,5.914-1.379,8.876-2.23a36.418,36.418,0,0,1,5.98-.989,21.974,21.974,0,0,0,4.246-.764A8.605,8.605,0,0,1,268,12.735" transform="translate(1001.561 402.581)" fill="#654010"/>
    <path id="Trazado_202397" data-name="Trazado 202397" d="M251.432,12.712c2.659-.241,5.426-.375,8.282-.367a55.528,55.528,0,0,1-8.549,5.025h-.026Z" transform="translate(1011.257 402.677)" fill="#2f1f0f"/>
    <path id="Trazado_202398" data-name="Trazado 202398" d="M253.84,11.1a119.819,119.819,0,0,0-15.784,3.447c-.929.241-1.81.481-2.665.723,0,0-.033-.174-.066-.473-.167-1.644-.192-7.141,6.584-9.607a7.764,7.764,0,0,1,1.655-.4,11.772,11.772,0,0,1,5.6.465,7.39,7.39,0,0,1,4.675,5.845" transform="translate(1005.249 399.759)" fill="#654010"/>
    <path id="Trazado_202399" data-name="Trazado 202399" d="M238.114,18.807l.375,2.107h-.01a39.334,39.334,0,0,1-9.928-.946,84.145,84.145,0,0,1,9.1-3.8Z" transform="translate(1002.699 404.125)" fill="#2f1f0f"/>
    <g id="Grupo_150082" data-name="Grupo 150082" transform="translate(1240.571 405.013)" opacity="0.34">
      <g id="Grupo_150081" data-name="Grupo 150081">
        <g id="Grupo_150080" data-name="Grupo 150080" clip-path="url(#clip-path-10)">
          <g id="Grupo_150079" data-name="Grupo 150079" transform="translate(0.001)">
            <g id="Grupo_150078" data-name="Grupo 150078" clip-path="url(#clip-path-11)">
              <path id="Trazado_202400" data-name="Trazado 202400" d="M253.827,10.93a119.81,119.81,0,0,0-15.784,3.447c-.929.241-1.811.481-2.665.723,0,0-.033-.174-.066-.473a4.03,4.03,0,0,1,.572-.39,36.03,36.03,0,0,1,5.131-2.017c2.308-.9,5.516-1.354,7.183-3.355A4.713,4.713,0,0,0,249.2,5.5c-.008-.091-.025-.241-.05-.414a7.39,7.39,0,0,1,4.675,5.845" transform="translate(-235.312 -5.085)" fill="#040405"/>
            </g>
          </g>
        </g>
      </g>
    </g>
    <path id="Trazado_202401" data-name="Trazado 202401" d="M252.353,12.615l-.183,2.814-.116,1.844-.25,3.911a2.3,2.3,0,0,0-.7-.225,2.383,2.383,0,0,0-.873.025l-1.161-5.971-.324-1.693-.032-.3c1.187-.157,2.4-.291,3.636-.414" transform="translate(1010.34 402.776)" fill="#6a320c"/>
    <path id="Trazado_202402" data-name="Trazado 202402" d="M255.1,35.676s.527,8.114-8.808,9.3a4.3,4.3,0,0,1-.581.036c-1.4-.018-6.373-.535-6.935-7.337-.018-.268-.036-.535-.044-.827,8.136,1.3,11.255-6.364,11.656-7.446l.429-.4c1.009-.982,2.344-1.606,3.309-2.66l.92,8.764Z" transform="translate(1006.556 407.98)" fill="#f9ae81"/>
    <path id="Trazado_202403" data-name="Trazado 202403" d="M250.423,28.484a.488.488,0,0,1-.036.116c-.4,1.08-3.526,8.746-11.656,7.446-.01-.3-.01-.616,0-.938l-.01-4.606a5.229,5.229,0,0,0,.874.571,1.73,1.73,0,0,0,.259.138l.3.138a6.257,6.257,0,0,0,.643.214c4.688,1.267,9.377-2.847,9.622-3.071" transform="translate(1006.553 408.793)" fill="#cd7e5b"/>
    <path id="Trazado_202404" data-name="Trazado 202404" d="M258.374,22.906a2.557,2.557,0,0,0-1.429-1.835,2.309,2.309,0,0,0-.7-.225,2.374,2.374,0,0,0-.871.025L254.214,14.9l-.324-1.693-.033-.3a93.241,93.241,0,0,0-12.123,2.441c-2.391.648-4.592,1.346-6.584,2.05l.465,2.641.374,2.11.946,5.4.448,2.525a15.125,15.125,0,0,1,2.042-2.773,6.858,6.858,0,0,1,3.363-1.86,7.3,7.3,0,0,1,2.267-.216,8.279,8.279,0,0,1,4.675,1.943,3.34,3.34,0,0,0,3.537.827c.489-.149,1.146-.739,1.736-.98l-.138-1.287a2.655,2.655,0,0,0,1,.192,2.555,2.555,0,0,0,2.558-2.552,2.6,2.6,0,0,0-.041-.462m-17.853-.607a1.1,1.1,0,0,1-1.1-1.1,1.084,1.084,0,0,1,1.065-1.1h.039a1.1,1.1,0,0,1,0,2.206m8.254-.673a1.1,1.1,0,1,1,1.113-1.1,1.1,1.1,0,0,1-1.113,1.1h0" transform="translate(1005.199 402.891)" fill="#f9ae81"/>
    <path id="Trazado_202405" data-name="Trazado 202405" d="M251.163,31.005c-.25.223-4.935,4.338-9.622,3.071-.222-.062-.437-.138-.643-.214a5,5,0,0,1-.563-.268,5.232,5.232,0,0,1-.874-.571c-.062-.054-.125-.1-.187-.16-.108-.09-.205-.178-.3-.276a4.884,4.884,0,0,1-.563-.643,3.1,3.1,0,0,1-.232-.321c-.01-.018-.026-.036-.036-.054-.072-.108-.138-.222-.205-.339a5.982,5.982,0,0,1-.616-1.526,5.179,5.179,0,0,1-.116-.509l-.437-2.5a15.149,15.149,0,0,1,2.044-2.776,6.865,6.865,0,0,1,3.366-1.856,7.26,7.26,0,0,1,2.267-.222,8.352,8.352,0,0,1,4.676,1.946,3.325,3.325,0,0,0,3.534.827c.491-.152,1.143-.742,1.732-.982l.473,4.428c-.965,1.053-2.293,1.678-3.3,2.66l-.429.4a.437.437,0,0,0,.036-.116" transform="translate(1005.812 406.271)" fill="#e96937"/>
    <path id="Trazado_202406" data-name="Trazado 202406" d="M245.336,17.635a1.1,1.1,0,1,1-1.1,1.1,1.1,1.1,0,0,1,1.1-1.1" transform="translate(1008.641 404.682)" fill="#040405"/>
    <path id="Trazado_202407" data-name="Trazado 202407" d="M239.349,18.121a1.1,1.1,0,1,1-1.1,1.1,1.1,1.1,0,0,1,1.107-1.107" transform="translate(1006.373 404.864)" fill="#040405"/>
    <path id="Trazado_202408" data-name="Trazado 202408" d="M239.455,25.417a4.766,4.766,0,0,0,3.562,1.023,6.987,6.987,0,0,0,1.793-.564l.888-.451c.292-.168.586-.341.913-.49a9.515,9.515,0,0,1-.645.837,9.484,9.484,0,0,1-.8.7,4.806,4.806,0,0,1-2.023.847,3.67,3.67,0,0,1-2.206-.371,3.237,3.237,0,0,1-1.486-1.535" transform="translate(1006.828 407.448)" fill="#b44213"/>
    <path id="Trazado_202409" data-name="Trazado 202409" d="M241.286,18.645a22.471,22.471,0,0,1,.08,3.631,32.932,32.932,0,0,1-.383,3.585l-.367-.4a18.853,18.853,0,0,1,2.722.368,18.852,18.852,0,0,1-2.722.368.341.341,0,0,1-.367-.313h0v-.088a34.9,34.9,0,0,1,.29-3.6,20.565,20.565,0,0,1,.747-3.553" transform="translate(1007.131 405.064)" fill="#b44213"/>
    <path id="Trazado_202410" data-name="Trazado 202410" d="M237.015,18.6a2.856,2.856,0,0,1,.9-1.1,3.588,3.588,0,0,1,1.311-.634,3.024,3.024,0,0,1,1.481,0,2.444,2.444,0,0,1,1.241.734,12.83,12.83,0,0,0-1.322-.043,5.409,5.409,0,0,0-1.189.17,16.726,16.726,0,0,0-2.421.871" transform="translate(1005.906 404.355)" fill="#6a320c"/>
    <path id="Trazado_202411" data-name="Trazado 202411" d="M242.962,17.61a4.443,4.443,0,0,1,1.417-.993,5.853,5.853,0,0,1,1.681-.487,4.8,4.8,0,0,1,1.773.124,3.266,3.266,0,0,1,1.517.892,12.214,12.214,0,0,0-1.627-.207,10.843,10.843,0,0,0-1.554.074c-1.041.124-2.068.376-3.2.6" transform="translate(1008.16 404.1)" fill="#6a320c"/>
    <path id="Trazado_202412" data-name="Trazado 202412" d="M249.773,21.933a1.927,1.927,0,0,1,.448-1.566,2.1,2.1,0,0,1,1.441-.761,6.883,6.883,0,0,0-1.123,1.025,4.994,4.994,0,0,0-.767,1.3" transform="translate(1010.731 405.428)" fill="#a3563b"/>
    <g id="Grupo_150087" data-name="Grupo 150087" transform="translate(1246.934 415.387)" opacity="0.44">
      <g id="Grupo_150086" data-name="Grupo 150086">
        <g id="Grupo_150085" data-name="Grupo 150085" clip-path="url(#clip-path-12)">
          <g id="Grupo_150084" data-name="Grupo 150084" transform="translate(0 0.006)">
            <g id="Grupo_150083" data-name="Grupo 150083" clip-path="url(#clip-path-13)">
              <path id="Trazado_202413" data-name="Trazado 202413" d="M255.685,12.615l-.183,2.814c-.946-.138-1.827-.307-2.242-.349-.29-.025-.572-.05-.855-.066a45.6,45.6,0,0,0-7.515.2c-1.644.157-3.322.116-4.964.25a93.238,93.238,0,0,1,12.123-2.441c1.187-.157,2.4-.291,3.636-.414" transform="translate(-239.925 -12.615)" fill="#040405"/>
            </g>
          </g>
        </g>
      </g>
    </g>
    <path id="Trazado_202414" data-name="Trazado 202414" d="M231.985,184.473l-2.434-11.616-.848-4.021a6.277,6.277,0,0,0-6.153-5h-2.079l3.5-13.542c.514,0,1.071-.008,1.611-.033l5.92.448.332,23.632Z" transform="translate(999.637 454.936)" fill="#2c2c2c"/>
    <path id="Trazado_202415" data-name="Trazado 202415" d="M232,165.1l3.276,15.647-3.366,1.419a20.513,20.513,0,0,1-17.315-.643l-2.812-1.446,3.472-15.094a6.284,6.284,0,0,1,6.131-4.883h4.454a6.289,6.289,0,0,1,6.158,5" transform="translate(996.345 458.665)" fill="#565656"/>
    <path id="Trazado_202416" data-name="Trazado 202416" d="M225.128,150.315l-3.5,13.542-3.471-12.438-.714-.074a19.9,19.9,0,0,0,1.786-1.154h2.62s1.478.124,3.289.124" transform="translate(998.488 454.909)" fill="#1c1c1d"/>
    <path id="Trazado_202417" data-name="Trazado 202417" d="M223.766,163.541h-2.383a6.305,6.305,0,0,0-6.128,4.883l-3.471,15.087.374-26.87.041-2.864a26.118,26.118,0,0,0,7.381-2.748l.714.074Z" transform="translate(996.346 455.227)" fill="#2c2c2c"/>
    <path id="Trazado_202418" data-name="Trazado 202418" d="M211.783,180.2c.811-4.342,1.715-8.664,2.635-12.981a24.286,24.286,0,0,1,.8-3.274,6.717,6.717,0,0,1,2.115-2.758,6.639,6.639,0,0,1,3.224-1.329,14.064,14.064,0,0,1,1.7-.066l1.655-.01,1.655.01a7.081,7.081,0,0,1,1.737.179,6.7,6.7,0,0,1,4.921,4.585c.291,1.136.452,2.18.672,3.276l1.241,6.507c.379,2.175.789,4.345,1.143,6.525-.552-2.139-1.047-4.29-1.571-6.435l-1.479-6.455c-.257-1.058-.476-2.191-.736-3.192a5.919,5.919,0,0,0-1.648-2.584,5.842,5.842,0,0,0-2.714-1.4,6.3,6.3,0,0,0-1.55-.138l-1.655.01-1.655-.01a13.206,13.206,0,0,0-1.6.04,5.808,5.808,0,0,0-2.838,1.131,5.922,5.922,0,0,0-1.895,2.41,9.924,9.924,0,0,0-.45,1.525l-.4,1.606c-1.059,4.286-2.132,8.569-3.3,12.824" transform="translate(996.345 458.543)" fill="#1c1c1d"/>
    <g id="Grupo_150092" data-name="Grupo 150092" transform="translate(1208.506 605.101)" opacity="0.3">
      <g id="Grupo_150091" data-name="Grupo 150091">
        <g id="Grupo_150090" data-name="Grupo 150090" clip-path="url(#clip-path-14)">
          <g id="Grupo_150089" data-name="Grupo 150089">
            <g id="Grupo_150088" data-name="Grupo 150088" clip-path="url(#clip-path-15)">
              <path id="Trazado_202419" data-name="Trazado 202419" d="M235.033,174.362c-.772-.481-1.528-.989-2.292-1.478-.946-.615-1.893-1.22-2.864-1.8A75.668,75.668,0,0,1,219.971,164c-2.408-1.976-4.724-4.069-6.925-6.178-.25-.241-.607-.539-.989-.863l.041-2.864a26.119,26.119,0,0,0,7.381-2.748,19.909,19.909,0,0,0,1.786-1.154h2.62s1.478.124,3.289.124c.514,0,1.071-.008,1.611-.033l5.921.448Z" transform="translate(-212.057 -150.191)" fill="#040405"/>
            </g>
          </g>
        </g>
      </g>
    </g>
    <path id="Trazado_202420" data-name="Trazado 202420" d="M220.8,68.485c.607,0,1.1,1.009,1.1,2.249s-.491,2.241-1.1,2.241l-.124-.01c-.545-.124-.974-1.08-.974-2.231,0-1.241.491-2.249,1.1-2.249" transform="translate(999.347 423.949)" fill="#3d260f"/>
    <path id="Trazado_202421" data-name="Trazado 202421" d="M223.41,179.329h-2.62l-.124-1.719L217.9,139.6l-3.171-43.327L213.5,79.408l-.2-2.748a1.314,1.314,0,0,0,1.27.965,1.108,1.108,0,0,0,.165-.008,1.293,1.293,0,0,0,1.138-1.379c-.017-.233-.033-.473-.05-.731l.138-.008a2.82,2.82,0,0,0,2.226-2.206l.025.582.425,8.61.506,10.222.456,9.283.8,16.092,1.038,21.157,1.86,37.723Z" transform="translate(996.918 425.771)" fill="#654010"/>
    <path id="Trazado_202422" data-name="Trazado 202422" d="M221.673,73.008l-.731-.074-1.793-.174-2.026-.2h-.01a12.765,12.765,0,0,0-.041-1.379,10.48,10.48,0,0,1,.623-2.814h.008l2.466.1.656.025.965.033c-.607,0-1.1,1.014-1.1,2.25,0,1.154.432,2.11.972,2.234" transform="translate(998.35 423.905)" fill="#654010"/>
    <g id="Grupo_150097" data-name="Grupo 150097" transform="translate(1210.215 499.064)" opacity="0.3">
      <g id="Grupo_150096" data-name="Grupo 150096">
        <g id="Grupo_150095" data-name="Grupo 150095" clip-path="url(#clip-path-16)">
          <g id="Grupo_150094" data-name="Grupo 150094" transform="translate(0.001 0.001)">
            <g id="Grupo_150093" data-name="Grupo 150093" clip-path="url(#clip-path-17)">
              <path id="Trazado_202423" data-name="Trazado 202423" d="M218.212,73.876l.423,8.61c-.414-.276-.827-.582-1.262-.871a41.836,41.836,0,0,0-3.878-2.206l-.2-2.748a1.314,1.314,0,0,0,1.27.965,1.108,1.108,0,0,0,.165-.008,1.293,1.293,0,0,0,1.138-1.379c-.017-.233-.033-.473-.05-.731l.138-.008a2.82,2.82,0,0,0,2.226-2.206Z" transform="translate(-213.297 -73.294)" fill="#040405"/>
            </g>
          </g>
        </g>
      </g>
    </g>
    <g id="Grupo_150102" data-name="Grupo 150102" transform="translate(1215.43 492.268)" opacity="0.3">
      <g id="Grupo_150101" data-name="Grupo 150101">
        <g id="Grupo_150100" data-name="Grupo 150100" clip-path="url(#clip-path-18)">
          <g id="Grupo_150099" data-name="Grupo 150099" transform="translate(0.001 0.006)">
            <g id="Grupo_150098" data-name="Grupo 150098" clip-path="url(#clip-path-19)">
              <path id="Trazado_202424" data-name="Trazado 202424" d="M219.535,69.724a6.82,6.82,0,0,0-.382,3.034l-2.026-.2h-.008a12.785,12.785,0,0,0-.041-1.379,10.477,10.477,0,0,1,.623-2.814h.008l2.466.1a9.916,9.916,0,0,0-.64,1.253" transform="translate(-217.079 -68.37)" fill="#040405"/>
            </g>
          </g>
        </g>
      </g>
    </g>
    <path id="Trazado_202425" data-name="Trazado 202425" d="M233.562,58.423a18.461,18.461,0,0,0-3.512,1.844,22.982,22.982,0,0,0-7.423,8.511,19.049,19.049,0,0,0-1.2,2.723v.008l-.1.116a7.262,7.262,0,0,1,2.457,4.069l-3.122-.124h-.008a10.478,10.478,0,0,0-.623,2.814,12.773,12.773,0,0,1,.041,1.379,9.261,9.261,0,0,1-.365,2.6,2.82,2.82,0,0,1-2.226,2.206l-.138.008c.017.258.033.5.05.731a1.293,1.293,0,0,1-1.138,1.379,1.11,1.11,0,0,1-.165.008,1.314,1.314,0,0,1-1.27-.965,27.311,27.311,0,0,1-.656-2.989,3.43,3.43,0,0,1-2.465-2.525c-3.7-1.121-2.075-7.016-2.075-7.016,0-1.2,1.959-2.583,1.959-2.583l.382-6.427a9.74,9.74,0,0,1,1.354-4.484,41.417,41.417,0,0,1,9.12-9.618c.552-.44.9-.7.946-.723,2.773.871,7.216,2.915,9.208,7.29a9.608,9.608,0,0,0,.965,1.769" transform="translate(995.394 416.705)" fill="#f9ae81"/>
    <path id="Trazado_202426" data-name="Trazado 202426" d="M217.219,71.411l3.811.375c-.414,2.856-4.159,2.8-4.159,2.8l-.028-.581a9.2,9.2,0,0,0,.367-2.6Z" transform="translate(998.263 425.059)" fill="#cd7e5b"/>
    <path id="Trazado_202427" data-name="Trazado 202427" d="M213.039,76.063a.447.447,0,0,1-.44-.371,19.269,19.269,0,0,1-.058-7.183.447.447,0,0,1,.873.186,18.381,18.381,0,0,0,.066,6.846.445.445,0,0,1-.364.514h0a.349.349,0,0,1-.076,0" transform="translate(996.516 423.833)" fill="#a3563b"/>
    <path id="Trazado_202428" data-name="Trazado 202428" d="M215.342,77.739a.446.446,0,0,1-.445-.421c-.2-3.341-.33-8.22-.331-8.274a.445.445,0,0,1,.433-.458h.012a.448.448,0,0,1,.447.434c0,.05.138,4.914.328,8.243a.445.445,0,0,1-.414.47h-.026" transform="translate(997.4 423.988)" fill="#a3563b"/>
    <path id="Trazado_202429" data-name="Trazado 202429" d="M211.3,73.837a.447.447,0,0,1-.422-.3,15.359,15.359,0,0,1-.485-5.756.441.441,0,0,1,.484-.394h.01a.446.446,0,0,1,.394.494,14.73,14.73,0,0,0,.441,5.365.447.447,0,0,1-.276.568.469.469,0,0,1-.145.023" transform="translate(995.788 423.532)" fill="#a3563b"/>
    <path id="Trazado_202430" data-name="Trazado 202430" d="M229.944,58.423a18.46,18.46,0,0,0-3.512,1.844c-.157-.481-.276-.921-.382-1.162a22.546,22.546,0,0,0-2.206-4.384,23.313,23.313,0,0,0-5.023-4.633c.552-.44.9-.7.946-.723,2.773.871,7.216,2.915,9.208,7.29a9.607,9.607,0,0,0,.965,1.769" transform="translate(999.012 416.705)" fill="#cd7e5b"/>
    <path id="Trazado_202431" data-name="Trazado 202431" d="M221.146,63.668a19.208,19.208,0,0,0-1.2,2.723,21.155,21.155,0,0,0-6.768-2.1,8.649,8.649,0,0,1,4.891-1.445,6.6,6.6,0,0,1,3.074.827" transform="translate(996.875 421.813)" fill="#cd7e5b"/>
    <path id="Trazado_202432" data-name="Trazado 202432" d="M219.266,66.609a.445.445,0,0,1-.287-.1,8.894,8.894,0,0,0-3.9-1.838.447.447,0,0,1,.138-.883,9.668,9.668,0,0,1,4.334,2.037.447.447,0,0,1,.051.63.442.442,0,0,1-.338.157" transform="translate(997.457 422.167)" fill="#a3563b"/>
    <path id="Trazado_202433" data-name="Trazado 202433" d="M216.967,75.894a.463.463,0,0,1-.138-.021.447.447,0,0,1-.29-.561,8.835,8.835,0,0,0,.343-2.467,11.278,11.278,0,0,0-.041-1.331.579.579,0,0,1,0-.1,11.183,11.183,0,0,1,.655-2.93,2.525,2.525,0,0,1,.429-.745.447.447,0,0,1,.655.607,2.045,2.045,0,0,0-.259.48,10.154,10.154,0,0,0-.587,2.642,12.973,12.973,0,0,1,.041,1.39,9.684,9.684,0,0,1-.386,2.723.446.446,0,0,1-.425.31" transform="translate(998.14 423.618)" fill="#a3563b"/>
    <path id="Trazado_202434" data-name="Trazado 202434" d="M286.573,71.835a15.374,15.374,0,0,1-3.089,3.5,72.638,72.638,0,0,1-14.008,8.76,3.5,3.5,0,0,1-.552.241q-1.448.536-2.732.946c-13.635,4.426-13.635-.582-13.635-.582l.008-.025c-10.811-1.517-9.142-5.589-9.142-5.589a1.357,1.357,0,0,1-.552-1.412c.033-.091.066-.19.108-.291a1.355,1.355,0,0,1,1.611-.665l4.792,1.586a15.888,15.888,0,0,0,4.137,1,7.949,7.949,0,0,0,3.828-.414l-3.919-3.014a1.456,1.456,0,0,1,1.445-2.5l7.456,3.08a13.507,13.507,0,0,0,7.93-4.061,29.136,29.136,0,0,0,3.338-3.844,37.861,37.861,0,0,0,2.516-3.911c.827-1.462,1.27-2.457,1.27-2.457l.033-.074a2.9,2.9,0,0,1,1.544,1.241l.091.008a6.4,6.4,0,0,0,.723,4.251,2.886,2.886,0,0,0,1.931,1.586c.838.091,1.4-.582,2.206-.607,1.93-.05,1.943,1.943,2.665,3.238" transform="translate(1008.113 421.534)" fill="#f9ae81"/>
    <path id="Trazado_202435" data-name="Trazado 202435" d="M278.121,71.833a15.376,15.376,0,0,1-3.089,3.5c-.108-.149-.217-.3-.324-.44a12.556,12.556,0,0,0-2.849-2.62,23.008,23.008,0,0,0-2.773-2.034c-.689-.357-1.478-.564-2.184-.913-.564-.276-1.171-.539-1.753-.772a37.618,37.618,0,0,0,2.515-3.911c.827-1.462,1.27-2.457,1.27-2.457l.033-.074a2.9,2.9,0,0,1,1.544,1.241l.091.008a6.4,6.4,0,0,0,.722,4.251,2.9,2.9,0,0,0,1.931,1.586c.838.091,1.4-.582,2.206-.607,1.931-.05,1.943,1.943,2.665,3.238" transform="translate(1016.566 421.536)" fill="#cd7e5b"/>
    <path id="Trazado_202436" data-name="Trazado 202436" d="M251.58,77.917a15.421,15.421,0,0,1-8.453-3.006.447.447,0,0,1,.512-.731c1.532,1.076,5.545,3.486,9.709,2.676a.446.446,0,1,1,.171.876,10.076,10.076,0,0,1-1.94.185" transform="translate(1008.157 426.082)" fill="#a3563b"/>
    <path id="Trazado_202437" data-name="Trazado 202437" d="M253.984,78.972c-.689-.07-1.321-.138-1.921-.221-.288-.04-.567-.083-.838-.127a17.515,17.515,0,0,1-6.193-1.953.447.447,0,0,0-.5.74c.011.007.021.014.032.019A18.362,18.362,0,0,0,251.08,79.5c.276.045.563.088.862.131.61.08,1.258.152,1.948.225h.047a.447.447,0,0,0,.045-.891" transform="translate(1008.68 427.022)" fill="#a3563b"/>
    <g id="Grupo_150121" data-name="Grupo 150121" transform="translate(16)">
      <path id="Trazado_202438" data-name="Trazado 202438" d="M199.4,178.708c0,3.184-15.1,5.765-33.717,5.765s-33.719-2.581-33.719-5.765,15.1-5.765,33.719-5.765,33.717,2.581,33.717,5.765" transform="translate(950.099 463.53)" fill="#a44a0d"/>
      <path id="Trazado_202439" data-name="Trazado 202439" d="M193.584,95.9a.956.956,0,0,1-.353,1.3c-.028.015-.055.03-.084.043a1.078,1.078,0,0,1-1.285-.124,3.257,3.257,0,0,1-.241-.223,2.564,2.564,0,0,1-.848-1.526.966.966,0,0,1,.571-.856,1.912,1.912,0,0,1,1.955.938,2.844,2.844,0,0,1,.285.445" transform="translate(972.384 433.803)" fill="#bf6859"/>
      <path id="Trazado_202440" data-name="Trazado 202440" d="M192.612,97.114c.414.892-.724,1.445-.724,1.445-.312.223-.92-.1-1.463-.5a11.267,11.267,0,0,1-1.071-.911,3.033,3.033,0,0,1-1.187-1.732,1.394,1.394,0,0,1,.581-1.357c1.267-.732,3.017,1.526,3.017,1.526a2.564,2.564,0,0,0,.848,1.526" transform="translate(971.391 433.585)" fill="#bf6859"/>
      <path id="Trazado_202441" data-name="Trazado 202441" d="M191.175,98.008a.817.817,0,0,1-.241,1.116,1.805,1.805,0,0,1-2.295-.054,4.149,4.149,0,0,1-.465-.429,10.182,10.182,0,0,1-.838-.954,3.864,3.864,0,0,1-1.161-2.321,1.3,1.3,0,0,1,.661-1.187c1.062-.607,2.068,1.187,2.068,1.187h.008A3.034,3.034,0,0,0,190.1,97.1a11.26,11.26,0,0,0,1.071.911" transform="translate(970.642 433.638)" fill="#bf6859"/>
      <path id="Trazado_202442" data-name="Trazado 202442" d="M187.682,97.327a10.217,10.217,0,0,0,.838.956c-1.562,1.562-3.1-1.589-3.1-1.589a2.058,2.058,0,0,1-.138-.794c.026-1.053,1.233-.892,1.233-.892a3.847,3.847,0,0,0,1.16,2.321" transform="translate(970.305 433.996)" fill="#bf6859"/>
      <path id="Trazado_202443" data-name="Trazado 202443" d="M191.982,97.452a.449.449,0,0,1-.276-.1s-.11-.091-.276-.252a2.9,2.9,0,0,1-.979-1.842.447.447,0,0,1,.892-.05.3.3,0,0,1,0,.05,2.1,2.1,0,0,0,.717,1.211c.119.119.2.189.21.194a.445.445,0,0,1-.285.79" transform="translate(972.262 433.915)" fill="#94453b"/>
      <path id="Trazado_202444" data-name="Trazado 202444" d="M190.544,98.211a.44.44,0,0,1-.263-.087,11.884,11.884,0,0,1-1.12-.95,3.476,3.476,0,0,1-1.316-1.983.447.447,0,0,1,.883-.138,2.72,2.72,0,0,0,1.037,1.46,10.887,10.887,0,0,0,1.045.889.445.445,0,0,1-.265.807" transform="translate(971.273 433.878)" fill="#94453b"/>
      <path id="Trazado_202445" data-name="Trazado 202445" d="M188.3,98.844a.442.442,0,0,1-.316-.138,10.446,10.446,0,0,1-.88-1,4.276,4.276,0,0,1-1.251-2.581.447.447,0,0,1,.892-.015,3.592,3.592,0,0,0,1.052,2.038,10.436,10.436,0,0,0,.816.929.447.447,0,0,1-.316.761" transform="translate(970.52 433.88)" fill="#94453b"/>
      <path id="Trazado_202446" data-name="Trazado 202446" d="M176.869,174.951c-.108.414-.174.623-.174.623H166.44l.582-4.334,1.877-13.992,1.005-7.49a5.069,5.069,0,0,0-.233-2.344L157.63,112.655l-.174-.506c-2.168,19.6-5.779,58.116-6.235,62.923-.025.324-.041.5-.041.5h-9.192a17.718,17.718,0,0,1-.956-3.047c-2.275-9.848-1.993-31.3-1.777-35.6a6.822,6.822,0,0,0-.1-1.536,279.236,279.236,0,0,1-3.644-30.75c-.05-.921-.108-1.819-.138-2.707,10.653-1.187,10.088-16.2,10.088-16.2v-.008c.965.124,1.976.216,3.047.291a53.319,53.319,0,0,0,6.012.041,52.354,52.354,0,0,0,5.472-.552v8.362l1.959.349,17.612,3.229c10.28,28.5-1.113,71.825-2.69,77.512" transform="translate(951.393 430.399)" fill="#fbb800"/>
      <path id="Trazado_202447" data-name="Trazado 202447" d="M159.945,58.8l.689,4.079-2.026.4c0-.214-.294-1.624-.758-3.686-1.546-6.918-4.91-21.073-4.91-21.073v-.01a22.119,22.119,0,0,1,3.7.581Z" transform="translate(958.049 412.594)" fill="#ed8a00"/>
      <path id="Trazado_202448" data-name="Trazado 202448" d="M146.092,60.344l.938,5.569L145,66.306c0-.25-.414-2.169-1.018-4.846-1.655-7.308-4.731-20.262-4.731-20.262a22.842,22.842,0,0,1,3.017-.535,9.386,9.386,0,0,0,.866,2.115Z" transform="translate(952.863 413.408)" fill="#ed8a00"/>
      <path id="Trazado_202449" data-name="Trazado 202449" d="M161.626,66.57c-.012.05-.028.092-.041.138.012-.05.028-.092.041-.138" transform="translate(961.325 423.224)" fill="#fbb800"/>
      <path id="Trazado_202450" data-name="Trazado 202450" d="M171.263,65.478a57.88,57.88,0,0,0-4.069-10.844h0c-.414-.88-.681-1.4-.681-1.4H166.5l.689,4.077-2.026.4c0-.208-.291-1.619-.756-3.679-6.611,3.82-16.939,1.561-16.939,1.561l.929,5.564-2.027.4c0-.25-.414-2.176-1.014-4.85L143.9,64.772a41.387,41.387,0,0,0,16.067,19.554V74.312l1.844-.341h.01a5.778,5.778,0,0,1,.307-1.744,7.691,7.691,0,0,1-3.413.623s-10.387,1-9.06-11.307c0,0,9.928,2.574,16.557-.814a18.5,18.5,0,0,1-.348,6.551,12.159,12.159,0,0,1,5.4-1.811m-1.014,6.469c-.041.165-.083.341-.116.49l1.179-.216a3.7,3.7,0,0,1,.1-.44c-.167.523-1.164.165-1.164.165M157.432,91.915l-10.787-4.534a21.981,21.981,0,0,1-9.042-7.446,49.674,49.674,0,0,0-1.437,7.29c-.19,1.32-.374,2.831-.531,4.526h.007a44.649,44.649,0,0,0,24.245,2.391V92.95Z" transform="translate(951.492 418.169)" fill="#fbb800"/>
      <path id="Trazado_202451" data-name="Trazado 202451" d="M159.968,83.57v3.57a53.2,53.2,0,0,1-11.478.509c-1.071-.072-2.089-.16-3.053-.285A43.9,43.9,0,0,1,135.423,85.1c.08-1.4.188-2.7.3-3.919h.008a44.7,44.7,0,0,0,24.241,2.392" transform="translate(951.412 428.759)" fill="#ffd53c"/>
      <path id="Trazado_202452" data-name="Trazado 202452" d="M145.515,86.3s.563,15.012-10.087,16.2a173.166,173.166,0,0,1,.072-18.477,43.91,43.91,0,0,0,10.015,2.267Z" transform="translate(951.333 429.836)" fill="#ffd53c"/>
      <path id="Trazado_202453" data-name="Trazado 202453" d="M135.425,104.471a11.37,11.37,0,0,0,3.081-.632,10.281,10.281,0,0,0,2.788-1.34,13.226,13.226,0,0,0,4.128-4.477l.712-1.372c.215-.469.365-.965.56-1.448l.276-.725.2-.754c.128-.5.266-1.008.414-1.517.214-1.023.375-2.068.552-3.1.117-1.047.2-2.1.349-3.158.058,1.059.058,2.124.088,3.195-.088,1.062-.174,2.132-.312,3.2a18.936,18.936,0,0,1-2.068,6.124,12.376,12.376,0,0,1-4.55,4.619,10.6,10.6,0,0,1-6.223,1.386" transform="translate(951.41 430.565)" fill="#b36504"/>
      <path id="Trazado_202454" data-name="Trazado 202454" d="M149.257,85.95a63,63,0,0,1,1.222,7.86,61.239,61.239,0,0,1,.331,7.951,71.206,71.206,0,0,1-1.553-15.816" transform="translate(956.651 430.565)" fill="#b36504"/>
      <path id="Trazado_202455" data-name="Trazado 202455" d="M135.643,81.178a51.667,51.667,0,0,0,5.95,1.517,62.053,62.053,0,0,0,12.15,1.151c2.044.022,4.082-.153,6.143-.276-1,.233-2.012.463-3.034.629-1.023.138-2.051.276-3.085.338a37.548,37.548,0,0,1-12.33-1.172q-1.5-.414-2.965-.925a24.387,24.387,0,0,1-2.831-1.262" transform="translate(951.495 428.759)" fill="#b36504"/>
      <path id="Trazado_202456" data-name="Trazado 202456" d="M135.425,84.02c1,.276,2.006.521,3.021.718q1.516.333,3.034.576c2.033.327,4.079.575,6.127.728,2.042.212,4.1.247,6.161.262,1.029,0,2.068-.026,3.093-.077,1.034-.022,2.068-.1,3.105-.164-1.009.259-2.035.429-3.064.6q-1.547.207-3.109.327a38.251,38.251,0,0,1-6.259-.059,40.922,40.922,0,0,1-6.186-.946,30.209,30.209,0,0,1-5.929-1.965" transform="translate(951.41 429.836)" fill="#b36504"/>
      <path id="Trazado_202457" data-name="Trazado 202457" d="M165.157,148.372c-.814,1.486-1.655,3.122-2.375,4.688l1.005-7.49a5.07,5.07,0,0,0-.233-2.344l-12.039-34.758a45.061,45.061,0,0,1,.59-8.013c.539-3.388.574-4.077,3.861-3.878,1.877-.138,4.275,5.63,5.09,7.308.308.64,1.4,2.416.607,2.94-.448.291-2.217-.871-2.765-.929.506,4.2,2.847,8.963,4.137,13.144a104.745,104.745,0,0,1,3.927,14.748c.814,5.323.756,9.948-1.8,14.581" transform="translate(957.507 434.582)" fill="#ed8a00"/>
      <path id="Trazado_202458" data-name="Trazado 202458" d="M151.508,108.34h-.051a.447.447,0,0,1-.393-.494c.659-5.9,1.1-9.429,1.362-10.78a.447.447,0,0,1,.877.167c-.251,1.328-.689,4.826-1.351,10.713a.445.445,0,0,1-.443.4" transform="translate(957.337 434.648)" fill="#b36504"/>
      <path id="Trazado_202459" data-name="Trazado 202459" d="M151.385,99.006a32.788,32.788,0,0,1,5.171-1.253l-.367.483c-.138-1.059-.234-2.122-.3-3.191a26.219,26.219,0,0,1,0-3.224,26.068,26.068,0,0,1,.736,3.14c.181,1.054.335,2.111.44,3.172v.011a.434.434,0,0,1-.368.472c-.874.13-1.753.234-2.637.3a23.344,23.344,0,0,1-2.671.087" transform="translate(957.459 432.791)" fill="#b36504"/>
      <path id="Trazado_202460" data-name="Trazado 202460" d="M168.332,151.392c-.108.414-.174.623-.174.623H157.9l.581-4.334a37.131,37.131,0,0,1,5.149,2.11c1.536.623,3.138,1.047,4.688,1.6Z" transform="translate(959.929 453.958)" fill="#f6a300"/>
      <path id="Trazado_202461" data-name="Trazado 202461" d="M149.732,150.447c-.025.324-.109,1.213-.109,1.213h-9.192a17.714,17.714,0,0,1-.956-3.047c2.05.607,8.935,1.594,10.255,1.834" transform="translate(952.947 454.312)" fill="#f6a300"/>
      <path id="Trazado_202462" data-name="Trazado 202462" d="M157.286,84.581a25.264,25.264,0,0,1-6.253.291,28.621,28.621,0,0,1-9.673-2.325c-1.718-.615-4.028-1.241-5.339-2.649a49.51,49.51,0,0,1,1.444-7.29,21.981,21.981,0,0,0,9.042,7.446Z" transform="translate(951.638 425.512)" fill="#ed8a00"/>
      <path id="Trazado_202463" data-name="Trazado 202463" d="M162.388,58.672a18.471,18.471,0,0,1-.347,6.551,9.284,9.284,0,0,0-3.616,4.578c-.044.125-.088.241-.124.367a7.654,7.654,0,0,1-3.41.616s-10.389,1-9.059-11.3c0,0,9.928,2.58,16.557-.812" transform="translate(955.311 420.231)" fill="#ffd53c"/>
      <path id="Trazado_202464" data-name="Trazado 202464" d="M146.376,60.34c1.241.193,2.482.36,3.723.484s2.482.208,3.723.236a36.3,36.3,0,0,0,3.715-.108,27.545,27.545,0,0,0,3.686-.612,14.482,14.482,0,0,1-3.625,1.088,20.867,20.867,0,0,1-3.789.254,25.65,25.65,0,0,1-3.771-.385,21.153,21.153,0,0,1-3.655-.957" transform="translate(955.562 420.863)" fill="#b36504"/>
      <path id="Trazado_202465" data-name="Trazado 202465" d="M171.6,63.751a8.889,8.889,0,0,0-5.306,2.017,13.869,13.869,0,0,0-2.508-.108c-.374.008-.772.033-1.2.083A57.973,57.973,0,0,0,158.522,54.9l6.619-1.577,3.322-.8s2.465,7.631,3.13,11.11Z" transform="translate(960.164 417.902)" fill="#ef9986"/>
      <path id="Trazado_202466" data-name="Trazado 202466" d="M165.14,53.1c-.074.357-.116.7-.165.965-.456,2.25-.838,4.492-1.129,6.768a27.647,27.647,0,0,0-.058,4.608c-.374.008-.772.033-1.2.083a57.976,57.976,0,0,0-4.069-10.844Z" transform="translate(960.165 418.121)" fill="#bf6859"/>
      <path id="Trazado_202467" data-name="Trazado 202467" d="M190.831,104.339a1.244,1.244,0,0,1-.623.506l-.78.008a.905.905,0,0,1-.25-.091l-6.642-3.985a11.082,11.082,0,0,0,2.8,4.137,3.682,3.682,0,0,0,1.7.814.485.485,0,0,1,.447.521.476.476,0,0,1-.106.268,2.723,2.723,0,0,1-1.918.965,3.759,3.759,0,0,1-2.482-.648,2.716,2.716,0,0,1-3.33-.083h-.008c-1.976,1-3.723-.017-5.165-1.744a24.24,24.24,0,0,1-3.57-6.757c-.489-1.32-.772-2.292-.805-2.432v-.008l-.008-.008-6.343-2.665L161.279,92.1v-.008l-13.238-5.564A21.994,21.994,0,0,1,139,79.079c-5.853-8-6.895-18.541-7.016-20.011-.008-.091-.017-.149-.017-.165l10.961-3.4a28.5,28.5,0,0,0,.827,3.869,42.271,42.271,0,0,0,17.6,24.08,42.187,42.187,0,0,0,4.9,2.715,49.506,49.506,0,0,0,9.534,3.371s7.092-1.088,11.169,2.059a1.188,1.188,0,0,1,.374,1.412,1.176,1.176,0,0,1-1.355.673l-3.553-.9a.975.975,0,0,0-1.063,1.478,23.665,23.665,0,0,0,2.665,3.246,28.267,28.267,0,0,0,6.386,5.131,1.213,1.213,0,0,1,.456,1.652l-.025.041" transform="translate(950.102 419.031)" fill="#ef9986"/>
      <path id="Trazado_202468" data-name="Trazado 202468" d="M170.006,94.442a.444.444,0,0,1-.25-.076,4.619,4.619,0,0,1-.986-.889,26.074,26.074,0,0,1-2.526-3.447.447.447,0,0,1,.776-.441,25.286,25.286,0,0,0,2.434,3.309,3.774,3.774,0,0,0,.8.723.445.445,0,0,1-.25.815" transform="translate(963.071 431.865)" fill="#94453b"/>
      <path id="Trazado_202469" data-name="Trazado 202469" d="M167.447,94.246a.44.44,0,0,1-.254-.08,10.9,10.9,0,0,1-3.016-3.861.447.447,0,0,1,.811-.375,10.181,10.181,0,0,0,2.714,3.5.447.447,0,0,1-.255.814" transform="translate(962.292 431.98)" fill="#94453b"/>
      <path id="Trazado_202470" data-name="Trazado 202470" d="M162.08,83.7a6,6,0,0,1-.541,1.42c-.066.15-.124.3-.174.448l-.008-.008L155.014,82.9c1.587-.066,3.163-.116,4.774-.266,1.241-.116,2.5-.374,2.293,1.071" transform="translate(958.835 429.273)" fill="#bf6859"/>
      <path id="Trazado_202471" data-name="Trazado 202471" d="M143.752,59.381c-.138-.017-.266-.025-.4-.041-2.857-.258-5.614.124-8.478.108a9.834,9.834,0,0,1-2.9-.374c-.007-.091-.015-.149-.015-.165l10.961-3.4a28.484,28.484,0,0,0,.827,3.869" transform="translate(950.101 419.034)" fill="#bf6859"/>
      <path id="Trazado_202472" data-name="Trazado 202472" d="M178.853,177.773c1.464,2.177-.339,3.508-2.259,4.257a12.379,12.379,0,0,1-6.343.625c-8.176-1.233-10.434-7.1-10.434-7.1-.982-.563-2.187-1.347-3.231-2.053-1.339-.91-2.41-1.678-2.41-1.678a2.446,2.446,0,0,1,.445-2.49,2.755,2.755,0,0,0,1.339,1.822c1.2.678,2.74,1.429,3.785,1.93a3.571,3.571,0,0,1,1.6,1.437,20.868,20.868,0,0,0,5.338,5.061,16.464,16.464,0,0,0,10.808.036,1.977,1.977,0,0,0,1.367-1.848" transform="translate(958.456 462.164)" fill="#111212"/>
      <path id="Trazado_202473" data-name="Trazado 202473" d="M178.708,184.784a1.975,1.975,0,0,1-1.362,1.852,16.525,16.525,0,0,1-10.811-.033,20.866,20.866,0,0,1-5.339-5.065A3.569,3.569,0,0,0,159.6,180.1c-.124-.058-.25-.124-.39-.182-1.013-.49-2.344-1.146-3.4-1.744a2.745,2.745,0,0,1-1.336-1.819,2.608,2.608,0,0,1,.008-1.311,106.591,106.591,0,0,0,2.773-16.7c.208-2.4.332-4.932.332-7.523h13.789l-3.843,14.457a9.505,9.505,0,0,0,.552,6.4l3.77,8.178-.017.138a9.261,9.261,0,0,1,6.568,3.737,1.849,1.849,0,0,1,.291,1.047" transform="translate(958.602 455.148)" fill="#242425"/>
      <path id="Trazado_202474" data-name="Trazado 202474" d="M167.718,172.593h-.066a12.036,12.036,0,0,0-1.9-.138.483.483,0,0,1-.461-.433.445.445,0,0,1,.43-.461h0a13.074,13.074,0,0,1,2.062.148.447.447,0,0,1-.063.888" transform="translate(962.728 463.007)" fill="#040405"/>
      <path id="Trazado_202475" data-name="Trazado 202475" d="M159.889,176.814a2.034,2.034,0,0,1-.681,1.038c-1.014-.49-2.344-1.146-3.4-1.744a2.745,2.745,0,0,1-1.336-1.819,2.608,2.608,0,0,1,.008-1.311,106.594,106.594,0,0,0,2.773-16.7,24.252,24.252,0,0,1,1.586,3.611,10.675,10.675,0,0,1,.523,5c-.208,2.366-1.171,4.774-1.063,7.133.074,1.7,2.118,3.147,1.586,4.792" transform="translate(958.601 457.216)" fill="#171717"/>
      <path id="Trazado_202476" data-name="Trazado 202476" d="M160.684,175.66c1.266,3.1-2.456,3.133-3.679,3.061a3.532,3.532,0,0,1-.669-.1,13.4,13.4,0,0,0-6.343-.233,21.314,21.314,0,0,1-5.378.689,2.336,2.336,0,0,1-2.169-3.025,5.415,5.415,0,0,1,.214-.6c1.379,2.579,5.713,1.16,5.713,1.16.563-.108,1.222-.206,1.9-.276a27.355,27.355,0,0,1,6.838.214,5.407,5.407,0,0,0,2.659-.214,1.489,1.489,0,0,0,.827-.724Z" transform="translate(954.033 464.482)" fill="#111212"/>
      <path id="Trazado_202477" data-name="Trazado 202477" d="M162.146,184.95a1.477,1.477,0,0,1-.827.723,5.412,5.412,0,0,1-2.656.215,27.33,27.33,0,0,0-6.834-.215c-.681.066-1.344.165-1.9.276,0,0-4.334,1.42-5.713-1.162a3.11,3.11,0,0,1-.347-1.038s-.308-3.487-.805-9.018a10.143,10.143,0,0,0-.208-1.4l-4.584-22.511h14.571s.514,7.772,1.72,15.528c.814,5.215,1.93,10.429,3.411,13.253l-.058.241c.05.008.092.025.138.033a6,6,0,0,1,2.184,1.03,6.441,6.441,0,0,1,1.959,2.55,1.714,1.714,0,0,1-.058,1.495" transform="translate(952.49 455.148)" fill="#242425"/>
      <path id="Trazado_202478" data-name="Trazado 202478" d="M154.4,175.61c-1.179.05-2.168-.582-3.512-.241-1.071.266-2.11.827-2.732-.423a6.918,6.918,0,0,1,.017-3.5,47,47,0,0,1,1.718-5.414c.3-1.055.731-2.492,1.014-3.952.814,5.215,1.93,10.429,3.413,13.253l-.058.241c.05.008.091.025.138.033" transform="translate(956.153 459.415)" fill="#171717"/>
      <path id="Trazado_202479" data-name="Trazado 202479" d="M148.574,172.968a.447.447,0,0,1-.164-.86,11.025,11.025,0,0,1,5.869-.5.447.447,0,0,1-.2.87,10.31,10.31,0,0,0-5.341.462.446.446,0,0,1-.164.032" transform="translate(956.227 462.952)" fill="#040405"/>
      <path id="Trazado_202480" data-name="Trazado 202480" d="M159.636,26.69c.563-11.817-8.444-10.542-9.908-10.38a2.443,2.443,0,0,0-.357.072c-14.789,3.766-9.425,15.637-8.926,16.672a.347.347,0,0,1,.036.072,2.589,2.589,0,0,0-1.571.535c-8.952-18.869,11.845-20.27,11.845-20.27,13.673-.827,9.122,14.583,9.122,14.583-.072-.383-.16-.768-.25-1.161a.537.537,0,0,1,.01-.124" transform="translate(951.885 403.062)" fill="#fbb800"/>
      <path id="Trazado_202481" data-name="Trazado 202481" d="M177.454,31.878a9.18,9.18,0,0,0-1.113,2.781c-.05.448-.091.9-.174,1.346l-.04.241a3.649,3.649,0,0,1-1.346,2.358c-1.22.921-2.723.938-3.944,1.736a.648.648,0,0,0-.138.1l-.175.124c-.772.64-1.241,1.586-2.059,2.168a4.523,4.523,0,0,1-5.83-1.32c.05-.149.092-.3.125-.44a27.615,27.615,0,0,0,.19-11.666s4.21-14.248-7.631-14.605c-.108-.008-.215-.008-.323-.008-.375,0-.765.008-1.172.033,0,0-.138.008-.365.033-.083.008-.174.017-.276.033-3.439.432-19.19,3.338-11.194,20.2a2.555,2.555,0,0,0,1.571,4.567,2.38,2.38,0,0,0,1-.208l.965,7.074-.05.008a5.665,5.665,0,0,1-3.229.714c-.138-.017-.276-.033-.425-.058-.116-.017-.233-.041-.341-.066a3.576,3.576,0,0,1-1.677-.888c-.656-.64-.9-1.594-1.546-2.234-1.594-1.594-3.82.357-5.538-1.129a5.612,5.612,0,0,1-.774-.814,2.224,2.224,0,0,1-.157-.216,3.306,3.306,0,0,1-.681-1.811c-.01-1.2.614-2.383.2-3.585-.514-1.517-1.918-2.5-2.432-4.094a7.709,7.709,0,0,1,.514-5.68,7.505,7.505,0,0,1,1.67-2.267c.108-.116.215-.225.332-.332l.008-.008A7.523,7.523,0,0,0,134.12,20c.523-2.864,1.361-5.516,4.177-6.85,1.908-.921,4.137-.316,5.878-1.569a6.942,6.942,0,0,1,6.244-1.379,9.729,9.729,0,0,1,3.962,1.811,9.342,9.342,0,0,1,4.3-2.151c1.635-.138,2.583,1.328,4.053,1.655a6.733,6.733,0,0,0,2.441-.138c.108-.017.223-.025.341-.033s.248-.008.365-.008a6.888,6.888,0,0,1,3.347,1.03,5.792,5.792,0,0,1,2.938,3.6,11.775,11.775,0,0,0,.731,3.072c.7,1.229,2.05,1.868,2.665,3.155a7.272,7.272,0,0,1,.374,3.33c.092,2.292,2.608,3.844,1.517,6.353" transform="translate(948.808 401.732)" fill="#d73c18"/>
      <path id="Trazado_202482" data-name="Trazado 202482" d="M149.065,15.531c1.464-.161,10.47-1.437,9.908,10.38a2.046,2.046,0,0,1-1.241-1.311c-.527-1.3-.414-2.231-1.74-2.945-1.036-.571-1.347-2.079-2.7-2.177-.589-.046-.974.188-1.553-.046-.652-.268-.732-.66-1.161-1.151-.393-.456-.615-.414-1.116,0a6.907,6.907,0,0,1-1.7,1.311c-.589.259-1.169.124-1.748.357-.678.268-.866.865-1.285,1.4-.75.938-1.931.876-2.419,2.1a12.1,12.1,0,0,1-1.205,3.232c-.652.884-1.116,1.3-1,2.445a8.507,8.507,0,0,1,.108,1.776c-.036.331-.414,1.231-.349,1.331l-.09.044c-.5-1.036-5.865-12.907,8.926-16.672a2.445,2.445,0,0,1,.357-.072" transform="translate(952.55 403.84)" fill="#d73c18"/>
      <path id="Trazado_202483" data-name="Trazado 202483" d="M149.081,12.475a7.641,7.641,0,0,1,2.424,1.462c-.083.008-.174.017-.276.033a7.258,7.258,0,0,0-2.206-1.295,4.552,4.552,0,0,0-5.422,1.1,1.967,1.967,0,0,1-1.577.838c-.117.025-.258.041-.414.066-2.259.382-3.6,1.635-4.635,4.334l-.074.208a3.317,3.317,0,0,1-1.178,1.793,7.17,7.17,0,0,0-1.47,6.884,4.781,4.781,0,0,0,.423.838,3.5,3.5,0,0,1,.539,1.27,1.236,1.236,0,0,1-.174.731,3.038,3.038,0,0,0-.138.324,7.664,7.664,0,0,0,1.321,6.619,5.774,5.774,0,0,0,.8.681,3.911,3.911,0,0,1,1.241,1.287,1.722,1.722,0,0,1-.025,1.022,2.629,2.629,0,0,0-.074.414,6.484,6.484,0,0,0,1.7,5.182c-.116-.017-.233-.041-.341-.066a6.7,6.7,0,0,1-1.569-5.139,2.869,2.869,0,0,1,.083-.432,1.575,1.575,0,0,0,.033-.9,3.748,3.748,0,0,0-1.178-1.2,6.089,6.089,0,0,1-.827-.714A7.736,7.736,0,0,1,134.712,31a2.612,2.612,0,0,1,.138-.349,1.035,1.035,0,0,0,.157-.623,3.409,3.409,0,0,0-.506-1.179,4.557,4.557,0,0,1-.44-.88,7.384,7.384,0,0,1,1.528-7.108,3.126,3.126,0,0,0,1.113-1.71l.083-.208a6.065,6.065,0,0,1,4.79-4.459c.157-.033.3-.05.425-.066a1.83,1.83,0,0,0,1.453-.772,4.785,4.785,0,0,1,5.638-1.171" transform="translate(950.768 402.553)" fill="#ef8163"/>
      <path id="Trazado_202484" data-name="Trazado 202484" d="M163.435,39.574l-.175.124a5.054,5.054,0,0,0-2.466-2.847.1.1,0,0,1-.058-.108c.066-.465.157-.921.248-1.354a8.163,8.163,0,0,0,.208-3.487,7.048,7.048,0,0,0-1.528-3.13c-.083-.091-.174-.174-.256-.25a1.1,1.1,0,0,1-.458-.7,4.893,4.893,0,0,1,.514-2.009,7.666,7.666,0,0,0,.4-1.146,8.393,8.393,0,0,0-.332-4.5c-.423-1.113-1.412-3.737-2.9-3.927a.1.1,0,0,1-.092-.1,5.038,5.038,0,0,1,.033-.706,2.672,2.672,0,0,0-.174-1.517c-.723-1.371-2.441-1.561-3.869-1.577h-.084a6.89,6.89,0,0,0-4.393,1.495c-.108-.008-.216-.008-.323-.008a7.141,7.141,0,0,1,4.716-1.693h.091c1.478.017,3.272.225,4.044,1.693a2.815,2.815,0,0,1,.2,1.627c-.017.192-.033.4-.033.6,1.561.291,2.55,2.915,2.973,4.044a8.586,8.586,0,0,1,.339,4.617,7.6,7.6,0,0,1-.4,1.179,4.712,4.712,0,0,0-.506,1.91.848.848,0,0,0,.39.564,2.886,2.886,0,0,1,.276.276,7.325,7.325,0,0,1,1.569,3.221,8.283,8.283,0,0,1-.208,3.57c-.083.414-.165.827-.233,1.262a5.3,5.3,0,0,1,2.482,2.882" transform="translate(956.076 402.598)" fill="#ef8163"/>
      <path id="Trazado_202485" data-name="Trazado 202485" d="M166.006,35.6l-.041.241-.276-.276a2.284,2.284,0,0,1-.2-.2c-.414-.414-.929-.9-1.453-.681a.141.141,0,0,1-.083,0,.105.105,0,0,1-.05-.066,3.742,3.742,0,0,1-.108-1.437c.008-.174.017-.341.017-.506a5.673,5.673,0,0,0-1.8-4.177,2.733,2.733,0,0,0-.523-.382.957.957,0,0,1-.574-.827,4.469,4.469,0,0,1,.116-1.47,5.409,5.409,0,0,0,.138-.9,8.291,8.291,0,0,0-.266-2.525,7.091,7.091,0,0,0-2.234-3.853q-.087-.074-.149-.124c-.291-.25-.307-.291-.258-.656.017-.116.041-.276.066-.506a7.551,7.551,0,0,0-1.03-4.218,5.329,5.329,0,0,0-1.931-2.092c.124-.008.25-.008.365-.008a5.567,5.567,0,0,1,1.74,2,7.837,7.837,0,0,1,1.055,4.342c-.025.233-.05.39-.066.514-.041.276-.041.276.182.465a1.767,1.767,0,0,1,.149.138,7.2,7.2,0,0,1,2.3,3.952,8.121,8.121,0,0,1,.276,2.583,6.332,6.332,0,0,1-.138.938,4.326,4.326,0,0,0-.124,1.4.779.779,0,0,0,.481.689,2.826,2.826,0,0,1,.552.414,5.847,5.847,0,0,1,1.868,4.326c0,.165-.008.341-.017.514a4.5,4.5,0,0,0,.058,1.262c.615-.174,1.162.365,1.569.772.074.066.138.138.2.19a1.891,1.891,0,0,1,.182.182" transform="translate(958.968 402.141)" fill="#ef8163"/>
      <path id="Trazado_202486" data-name="Trazado 202486" d="M133.453,34.108c-.017.414-.423.827-.78,1.187a3.785,3.785,0,0,0-.456.506,6.654,6.654,0,0,0-.9,2.275,2.219,2.219,0,0,1-.157-.216,6.478,6.478,0,0,1,.88-2.168,5.217,5.217,0,0,1,.481-.552c.332-.332.706-.714.723-1.047a1.4,1.4,0,0,0-.276-.6,1.983,1.983,0,0,1-.157-.266,9.97,9.97,0,0,1-.838-2.292,4.6,4.6,0,0,1,.091-2.143c.041-.225.091-.448.138-.689a1.35,1.35,0,0,0-.083-.855,2.527,2.527,0,0,0-.382-.607,4.806,4.806,0,0,1-.332-.5,14.047,14.047,0,0,1-1-2.657,5.271,5.271,0,0,1,.025-3.064c.108-.116.216-.225.332-.332a5.189,5.189,0,0,0-.157,3.338,14.544,14.544,0,0,0,.98,2.62,5.477,5.477,0,0,0,.316.465,2.622,2.622,0,0,1,.414.656,1.519,1.519,0,0,1,.091.965c-.041.241-.083.473-.138.7a4.445,4.445,0,0,0-.091,2.05,10,10,0,0,0,.827,2.25c.033.066.083.149.138.241a1.415,1.415,0,0,1,.316.723" transform="translate(949.431 405.613)" fill="#ef8163"/>
      <path id="Trazado_202487" data-name="Trazado 202487" d="M140.135,31.648a.434.434,0,0,0-.036-.072l.088-.046c-.062-.1.312-1,.347-1.329a8.323,8.323,0,0,0-.108-1.776c-.116-1.143.349-1.562,1-2.446a12.029,12.029,0,0,0,1.205-3.231c.483-1.222,1.67-1.16,2.419-2.1.414-.535.607-1.133,1.285-1.4.581-.232,1.161-.1,1.75-.356a6.947,6.947,0,0,0,1.7-1.313c.5-.414.723-.455,1.116,0,.429.491.509.884,1.161,1.151.579.233.965,0,1.553.045,1.347.1,1.655,1.606,2.7,2.177,1.321.713,1.213,1.641,1.74,2.945a2.049,2.049,0,0,0,1.241,1.311.623.623,0,0,0-.008.124c.088.393.178.776.25,1.161a27.615,27.615,0,0,1-.188,11.666c-.036.138-.08.3-.125.437a6.414,6.414,0,0,1-2.864,3.65,6.114,6.114,0,0,1-1.446.607,9.749,9.749,0,0,1-7.248-1.295s4.311,6.73,9.5,4.972c2.125,7.6-4.24,9.5-4.24,9.5a8.373,8.373,0,0,1-9.148-4.39,9.386,9.386,0,0,1-.866-2.115l-.812-5.917-.965-7.07a2.468,2.468,0,0,1-.99.205,2.557,2.557,0,0,1-1.571-4.57,2.589,2.589,0,0,1,1.571-.535m16.217-3.187a1.1,1.1,0,1,0-1.1,1.1,1.1,1.1,0,0,0,1.1-1.1m-8.9.518a1.1,1.1,0,1,0-1.1,1.1,1.1,1.1,0,0,0,1.1-1.1" transform="translate(952.23 404.538)" fill="#ef9986"/>
      <path id="Trazado_202488" data-name="Trazado 202488" d="M153.638,35.671l.75,4.186c-5.186,1.758-9.5-4.971-9.5-4.971a9.749,9.749,0,0,0,7.248,1.295,6.1,6.1,0,0,0,1.445-.607Z" transform="translate(955 411.219)" fill="#bf6859"/>
      <path id="Trazado_202489" data-name="Trazado 202489" d="M150.7,24.58a1.1,1.1,0,1,1-1.1,1.1,1.1,1.1,0,0,1,1.1-1.1" transform="translate(956.782 407.313)" fill="#040405"/>
      <path id="Trazado_202490" data-name="Trazado 202490" d="M144.244,24.955a1.1,1.1,0,1,1-1.1,1.1,1.1,1.1,0,0,1,1.1-1.1" transform="translate(954.336 407.455)" fill="#040405"/>
      <path id="Trazado_202491" data-name="Trazado 202491" d="M144.876,31.239a8.85,8.85,0,0,0,4.137.844,6.084,6.084,0,0,0,2-.474,9.318,9.318,0,0,0,.965-.454c.324-.168.623-.381.975-.552a5.094,5.094,0,0,1-1.622,1.628,4.771,4.771,0,0,1-2.252.746,5.109,5.109,0,0,1-2.334-.387,4.792,4.792,0,0,1-1.864-1.347" transform="translate(954.993 409.596)" fill="#94453b"/>
      <path id="Trazado_202492" data-name="Trazado 202492" d="M148.621,23.571a1.321,1.321,0,0,1,.5-.465,3.441,3.441,0,0,1,.591-.276A4.024,4.024,0,0,1,151,22.606a3.358,3.358,0,0,1,2.409.9c-.892.022-1.633-.03-2.4-.014-.383,0-.767.01-1.164.014l-.608.01a2.966,2.966,0,0,0-.615.043" transform="translate(956.412 406.564)" fill="#d73c18"/>
      <path id="Trazado_202493" data-name="Trazado 202493" d="M146.708,30.4a15.186,15.186,0,0,1,2.373-.523l-.276.335a22.217,22.217,0,0,1-.291-2.4,14.926,14.926,0,0,1,.01-2.432,14.8,14.8,0,0,1,.589,2.359,21.852,21.852,0,0,1,.29,2.4v.03a.285.285,0,0,1-.266.3,15.036,15.036,0,0,1-2.428-.076" transform="translate(955.688 407.617)" fill="#bf6859"/>
      <path id="Trazado_202494" data-name="Trazado 202494" d="M141.339,24.922a3.18,3.18,0,0,1,1.063-1.04,4.326,4.326,0,0,1,1.389-.564,3.912,3.912,0,0,1,1.508-.034,3.063,3.063,0,0,1,1.379.575c-.507.059-.957.059-1.4.121a10.575,10.575,0,0,0-1.3.21c-.86.17-1.685.447-2.639.731" transform="translate(953.653 406.801)" fill="#d73c18"/>
      <path id="Trazado_202495" data-name="Trazado 202495" d="M138.451,28.9a1.942,1.942,0,0,1,1.539.534,2.106,2.106,0,0,1,.68,1.482,6.881,6.881,0,0,0-.965-1.178,4.968,4.968,0,0,0-1.258-.838" transform="translate(952.557 408.946)" fill="#94453b"/>
      <path id="Trazado_202496" data-name="Trazado 202496" d="M145.678,28.024c.068.467-.647.965-1.6,1.1s-1.776-.128-1.844-.6.647-.965,1.6-1.1,1.777.128,1.845.6" transform="translate(953.991 408.379)" fill="#ec6f5c"/>
      <path id="Trazado_202497" data-name="Trazado 202497" d="M153.989,27.33c.039.47-.706.917-1.663,1s-1.765-.239-1.8-.71.7-.917,1.663-1,1.765.239,1.8.71" transform="translate(957.132 408.081)" fill="#ec6f5c"/>
      <path id="Trazado_202498" data-name="Trazado 202498" d="M208.809,89.635v8.533l-25.972-4.73v-8.22Z" transform="translate(969.377 430.29)" fill="#e8873f"/>
      <path id="Trazado_202499" data-name="Trazado 202499" d="M208.81,84.809V91.36l-25.973-4.413V80.664Z" transform="translate(969.377 428.564)" fill="#b85815"/>
      <path id="Trazado_202500" data-name="Trazado 202500" d="M208.81,80.475v6.4l-25.973-4.151V75.213Z" transform="translate(969.377 426.499)" fill="#e8873f"/>
      <path id="Trazado_202501" data-name="Trazado 202501" d="M208.809,75.733v7.132L182.837,77.6V68.911Z" transform="translate(969.377 424.111)" fill="#b85815"/>
      <path id="Trazado_202502" data-name="Trazado 202502" d="M208.809,72.286v5.654l-25.972-6.815V63.073l1.838.652,8.825,3.123,8.687,3.087h.01Z" transform="translate(969.377 421.898)" fill="#e8873f"/>
      <path id="Trazado_202503" data-name="Trazado 202503" d="M220.03,95.91l-12.505.794a1.912,1.912,0,0,0-1.955-.938.966.966,0,0,0-.571.856s-1.748-2.259-3.017-1.526a1.4,1.4,0,0,0-.579,1.357h-.01s-1.009-1.793-2.068-1.187a1.3,1.3,0,0,0-.661,1.187s-1.205-.161-1.233.892h-.01l-9.906.625L172.8,95.284l-17.609-3.223-1.964-.357,13.13-.17.062-.054c1.445,1.732,3.195,2.74,5.168,1.75h.008a2.722,2.722,0,0,0,3.33.08,3.777,3.777,0,0,0,2.482.652A2.758,2.758,0,0,0,179.324,93a.488.488,0,0,0-.339-.794,3.629,3.629,0,0,1-1.7-.812l4.1-.054a.962.962,0,0,0,.357.063,1.366,1.366,0,0,0,.414-.072l11.905-.152Z" transform="translate(958.156 432.548)" fill="#6c310d"/>
      <path id="Trazado_202504" data-name="Trazado 202504" d="M200.978,68.965a3.775,3.775,0,0,1-.225.324,4.467,4.467,0,0,1-1.495,1.241h-.008l-8.687-3.089c.19-.19.365-.39.523-.582a4.8,4.8,0,0,0,.523-.764,5.318,5.318,0,0,0,.747-2.9c.017-.017.074-.074.138-.149a5.248,5.248,0,0,1,8.744,2.226,4.6,4.6,0,0,1-.266,3.7" transform="translate(972.305 421.308)" fill="#fbb800"/>
      <path id="Trazado_202505" data-name="Trazado 202505" d="M194.784,64.314a5.315,5.315,0,0,1-.749,2.9,4.74,4.74,0,0,1-.523.764c-.157.19-.332.39-.523.582l-8.825-3.122c.043-.414.076-.827.108-1.22,0-.041.008-.074.008-.116.074-.989.124-1.918.157-2.79,0,0,2.574-3.462,6.194-2.62a5.325,5.325,0,0,1,3.662,3.347,7.131,7.131,0,0,1,.483,2.283" transform="translate(969.88 420.188)" fill="#f48735"/>
      <path id="Trazado_202506" data-name="Trazado 202506" d="M187.035,64.307c-.033.871-.083,1.8-.157,2.79,0,.041-.008.074-.008.116-.033.4-.066.805-.108,1.22l-1.835-.648-7.4,1.354s-.192-2.05-.2-4.792c0-.827.008-1.71.05-2.62.008-.208.017-.423.033-.64.276-4.8,1.379-10.022,4.749-10.412,0,0,5.455-1.569,4.874,13.626" transform="translate(967.29 417.184)" fill="#e85536"/>
      <path id="Trazado_202507" data-name="Trazado 202507" d="M187.812,85.217v8.22l-9.324.116-2.583.033a1.244,1.244,0,0,0,.623-.506,1.212,1.212,0,0,0-.39-1.668l-.041-.025a28.269,28.269,0,0,1-6.386-5.131l7.631-.44Z" transform="translate(964.404 430.289)" fill="#c1722e"/>
      <path id="Trazado_202508" data-name="Trazado 202508" d="M188.589,80.659V86.94l-10.47.6-7.631.44a23.671,23.671,0,0,1-2.665-3.246.975.975,0,0,1,1.063-1.478l3.553.9a1.177,1.177,0,0,0,1.355-.673,1.188,1.188,0,0,0-.374-1.412L175,81.917Z" transform="translate(963.627 428.563)" fill="#a7560b"/>
      <path id="Trazado_202509" data-name="Trazado 202509" d="M192.694,75.214v7.515l-13.585,1.262-1.577.149c-4.077-3.147-11.169-2.059-11.169-2.059a49.465,49.465,0,0,1-9.532-3.363l13.193-1.287Z" transform="translate(959.523 426.499)" fill="#c1722e"/>
      <path id="Trazado_202510" data-name="Trazado 202510" d="M194.039,68.91V77.6l-22.668,2.217L158.177,81.1a42.192,42.192,0,0,1-4.9-2.715V74.575l10.756-1.495.116-.017c.233,1.835.827,4.526,2.259,4.185a16.4,16.4,0,0,0,.847-4.617h.017l5.015-.7Z" transform="translate(958.177 424.11)" fill="#a7560b"/>
      <path id="Trazado_202511" data-name="Trazado 202511" d="M190.2,63.075v8.046l-21.75,3.023-5.015.7h-.017c.058-.747.1-1.586.1-2.525,0,0,3.745,2.864,4.193-3.62v-.008a1.016,1.016,0,0,0,.017-.157s3.413,2.715,5.538-2.292a.242.242,0,0,0,.033-.058l5.791-1.063,3.7-.689Z" transform="translate(962.019 421.899)" fill="#c1722e"/>
      <path id="Trazado_202512" data-name="Trazado 202512" d="M181.136,68.449l-3.7.689c-.091-.074-.174-.157-.266-.233-.225-.2-.448-.4-.656-.59-.241-.216-.473-.432-.706-.64-1.371-1.27-2.517-2.441-3.471-3.512-6.7-7.49-4.137-10.379-3.595-10.86.017,0,.017-.008.033-.017s.017-.008.025-.025c.432-.432,5.007-3.679,11.683,7.024.149.241.3.5.456.756h.05c-.041.9-.05,1.793-.05,2.62.008,2.74.2,4.792.2,4.792" transform="translate(963.682 417.88)" fill="#c22f15"/>
      <path id="Trazado_202513" data-name="Trazado 202513" d="M176.384,64.853l-5.8,1.062a3.218,3.218,0,0,1,1.491-1.562,3.756,3.756,0,0,1,3.382-.321c.3.269.607.552.928.827" transform="translate(964.734 422.163)" fill="#3b7832"/>
      <path id="Trazado_202514" data-name="Trazado 202514" d="M173.638,91.294l.776-.01a1.324,1.324,0,0,1-.414.072.989.989,0,0,1-.357-.062" transform="translate(965.892 432.589)" fill="#ef9986"/>
      <path id="Trazado_202515" data-name="Trazado 202515" d="M175.532,92.414l-4.094.058a11.071,11.071,0,0,1-2.8-4.137l6.642,3.985a.9.9,0,0,0,.25.091" transform="translate(963.998 431.471)" fill="#c1722e"/>
      <path id="Trazado_202516" data-name="Trazado 202516" d="M166.419,93.256l-.068.05-13.127.174V87.061l9.623-.552a24.246,24.246,0,0,0,3.571,6.757" transform="translate(958.156 430.779)" fill="#c1722e"/>
      <path id="Trazado_202517" data-name="Trazado 202517" d="M164.014,72.166s.025.706.138,1.619l-.116.017L153.281,75.3V69.091l1.844-.341h.008a4.851,4.851,0,0,0,.25,1.786c.4,1.22,1.3,2.075,3.254-.341,0,0,3.188,3.309,4.817-2.981L164.624,67h.008a26.465,26.465,0,0,0-.615,5.164" transform="translate(958.178 423.386)" fill="#c1722e"/>
      <path id="Trazado_202518" data-name="Trazado 202518" d="M162.845,88.2l-9.623.552V82.04l8.81,3.7s.276,1.022.814,2.449" transform="translate(958.156 429.086)" fill="#a7560b"/>
      <path id="Trazado_202519" data-name="Trazado 202519" d="M174.19,67.1c-.01.018-.018.045-.026.062-2.133,5.007-5.542,2.285-5.542,2.285-.4,6.7-4.213,3.793-4.213,3.793,0,.938-.036,1.776-.1,2.518a16.4,16.4,0,0,1-.848,4.624c-1.437.339-2.026-2.357-2.257-4.186-.116-.92-.138-1.624-.138-1.624a26.723,26.723,0,0,1,.616-5.159c.026-.152.062-.3.1-.447l.01-.008a11.57,11.57,0,0,1,3.552-6.266,8.845,8.845,0,0,1,5.3-2.017,12.065,12.065,0,0,1,4.137.5l.116-.108a54.176,54.176,0,0,0,4.178,4.151,3.756,3.756,0,0,0-3.383.321A3.218,3.218,0,0,0,174.2,67.1" transform="translate(961.129 420.983)" fill="#56a455"/>
      <path id="Trazado_202520" data-name="Trazado 202520" d="M164.08,62.138a15.2,15.2,0,0,1,3.7.026,11.572,11.572,0,0,0-3.553,6.266l-.01.01c-.161.527-1.16.17-1.16.17-.036.17-.08.339-.116.491-1.624,6.292-4.811,2.981-4.811,2.981-1.954,2.419-2.856,1.562-3.257.339a4.846,4.846,0,0,1-.251-1.786,5.841,5.841,0,0,1,.3-1.74c.036-.124.08-.241.125-.367a9.274,9.274,0,0,1,3.614-4.578,12.274,12.274,0,0,1,5.409-1.812" transform="translate(958.686 421.506)" fill="#3b7832"/>
      <g id="Grupo_150107" data-name="Grupo 150107" transform="translate(1111.38 490.38)" opacity="0.25">
        <g id="Grupo_150106" data-name="Grupo 150106">
          <g id="Grupo_150105" data-name="Grupo 150105" clip-path="url(#clip-path-20)">
            <g id="Grupo_150104" data-name="Grupo 150104" transform="translate(0 0.008)">
              <g id="Grupo_150103" data-name="Grupo 150103" clip-path="url(#clip-path-21)">
                <path id="Trazado_202521" data-name="Trazado 202521" d="M162.034,91.449l-8.81-3.7v13.127l13.127-.174.066-.05a24.241,24.241,0,0,1-3.57-6.757c-.531-1.429-.814-2.449-.814-2.449m12.446,4.974a11.072,11.072,0,0,0,2.8,4.137l4.094-.058a.906.906,0,0,1-.25-.091Zm7.672,4.069,2.583-.033c.033-2.441-11.741-31.636-13-33.094a.943.943,0,0,0-.157-.157c-.448,6.481-4.193,3.62-4.193,3.62,0,.938-.041,1.777-.1,2.525a16.4,16.4,0,0,1-.847,4.617c-1.437.341-2.026-2.344-2.259-4.185-.116-.913-.138-1.619-.138-1.619A26.456,26.456,0,0,1,164.654,67h-.017l-1.171.216c-1.627,6.293-4.817,2.981-4.817,2.981-1.951,2.416-2.856,1.561-3.256.341a4.848,4.848,0,0,1-.25-1.786h-.008l-1.844.341V79.1a42.187,42.187,0,0,0,4.9,2.715,49.465,49.465,0,0,0,9.532,3.363s7.092-1.088,11.169,2.059a1.188,1.188,0,0,1,.374,1.412,1.177,1.177,0,0,1-1.355.673l-3.553-.9a.975.975,0,0,0-1.063,1.478,23.668,23.668,0,0,0,2.665,3.246,28.267,28.267,0,0,0,6.386,5.131,1.213,1.213,0,0,1,.456,1.652l-.025.041a1.244,1.244,0,0,1-.623.506" transform="translate(-153.224 -67.003)" fill="#4c1f20"/>
              </g>
            </g>
          </g>
        </g>
      </g>
      <g id="Grupo_150112" data-name="Grupo 150112" transform="translate(1140.84 477.934)" opacity="0.34">
        <g id="Grupo_150111" data-name="Grupo 150111">
          <g id="Grupo_150110" data-name="Grupo 150110" clip-path="url(#clip-path-22)">
            <g id="Grupo_150109" data-name="Grupo 150109" transform="translate(0.01)">
              <g id="Grupo_150108" data-name="Grupo 150108" clip-path="url(#clip-path-23)">
                <path id="Trazado_202522" data-name="Trazado 202522" d="M206.806,70.631a4.468,4.468,0,0,1-1.495,1.241H205.3l-8.687-3.089-8.825-3.122-1.835-.648-7.4,1.354-3.7.689c-.091-.074-.174-.157-.266-.233a23.331,23.331,0,0,1,1.429-5.63A4.966,4.966,0,0,1,177.9,58.2a2.422,2.422,0,0,1,.481-.233,1.363,1.363,0,0,0,.058.349,12.566,12.566,0,0,0,1.968,3.2,7.237,7.237,0,0,0,4.468,2.508,12.893,12.893,0,0,0,3.034.3c.124-.008.241-.025.365-.041a6.609,6.609,0,0,1,4.916.838,19.238,19.238,0,0,1,1.86,1.517c.4.365.665,1.088,1.08,1.4.49.357.539.3,1.005.165.083-.025.183-.05.307-.083.872-.2,1.793-.3,2.674-.465a6.022,6.022,0,0,1,6.111,2.042,4.659,4.659,0,0,1,.572.938" transform="translate(-174.598 -57.968)" fill="#040405"/>
              </g>
            </g>
          </g>
        </g>
      </g>
      <path id="Trazado_202523" data-name="Trazado 202523" d="M161.782,38.541v-.008a13.359,13.359,0,0,0-1.594-.041C162.314,46.1,155.953,48,155.953,48a8.381,8.381,0,0,1-9.15-4.392l2.958,17.569s10.328,2.257,16.937-1.561c-1.544-6.925-4.916-21.074-4.916-21.074m-15.062,19.7c-1.655-7.224-3.8-16.216-3.8-16.216-6.02,1.445-18.375,6.559-11.1,23.648l1.047-.316,10.961-3.4s.017.138.058.414a37.887,37.887,0,0,0,2.308,7.988l1.462-8.071c-.276-1.22-.59-2.591-.929-4.044M165.5,39.112l2.11,12.638c0,.008,0,.017.008.017l1.179,7.057h.008s.276.523.681,1.4h.008l3.861-.921,6.078-1.453,1.08-.258c-1.379-12.954-9.466-17.139-15.012-18.477" transform="translate(949.2 412.582)" fill="#fff"/>
      <path id="Trazado_202524" data-name="Trazado 202524" d="M144.5,53.444a9.066,9.066,0,0,0,7.692-2.194c2.111-1.655,3.4-4.12,5.284-5.721.014,3.585-3.507,7.234-6.235,9.219-3.086,2.246-4.491.514-6.739-1.306" transform="translate(954.852 415.251)" fill="#e5e5e5"/>
      <path id="Trazado_202525" data-name="Trazado 202525" d="M162.9,55.651l-3.861.921h-.007c-.414-.88-.681-1.4-.681-1.4h-.008l-1.178-7.057c.1.225.19.448.307.673a17.21,17.21,0,0,0,2.516,3.347c.954,1.138,2.026,2.292,2.915,3.52" transform="translate(959.65 416.229)" fill="#e5e5e5"/>
      <path id="Trazado_202526" data-name="Trazado 202526" d="M143.722,56.858l-1.462,8.071a37.885,37.885,0,0,1-2.308-7.988,4.668,4.668,0,0,1,.607-.805,12.3,12.3,0,0,0,2.234-3.322c.341,1.453.656,2.823.929,4.044" transform="translate(953.127 418.012)" fill="#e5e5e5"/>
      <path id="Trazado_202527" data-name="Trazado 202527" d="M141,59.886a.447.447,0,0,1-.433-.336l-3.516-13.843a.446.446,0,0,1,.865-.219L141.43,59.33a.446.446,0,0,1-.323.542.414.414,0,0,1-.109.014" transform="translate(952.022 415.108)" fill="#b8b7b8"/>
      <g id="Grupo_150120" data-name="Grupo 150120">
        <rect id="Rectángulo_41958" data-name="Rectángulo 41958" width="511.908" height="209.882" transform="translate(909.191 462.189)" fill="none"/>
        <path id="Trazado_202528" data-name="Trazado 202528" d="M141.637,148.216v9.117h-5.87v-.017H83.354v-9.1Z" transform="translate(931.682 454.161)" fill="#a7560b"/>
        <rect id="Rectángulo_41917" data-name="Rectángulo 41917" width="58.281" height="10.538" transform="translate(1015.036 591.839)" fill="#c1722e"/>
        <rect id="Rectángulo_41918" data-name="Rectángulo 41918" width="58.281" height="10.546" transform="translate(1015.036 581.295)" fill="#a7560b"/>
        <rect id="Rectángulo_41919" data-name="Rectángulo 41919" width="58.281" height="9.184" transform="translate(1015.036 572.111)" fill="#c1722e"/>
        <path id="Trazado_202529" data-name="Trazado 202529" d="M141.637,91.107v9.117h-5.87v-.017H83.354v-9.1Z" transform="translate(931.682 432.521)" fill="#a7560b"/>
        <rect id="Rectángulo_41920" data-name="Rectángulo 41920" width="58.281" height="10.538" transform="translate(1015.036 513.099)" fill="#c1722e"/>
        <rect id="Rectángulo_41921" data-name="Rectángulo 41921" width="58.281" height="10.538" transform="translate(1015.036 502.562)" fill="#a7560b"/>
        <path id="Trazado_202530" data-name="Trazado 202530" d="M141.635,69.163v9.192H83.354V69.163h56.454c.506.017,1.03.017,1.577,0Z" transform="translate(931.682 424.206)" fill="#c1722e"/>
        <rect id="Rectángulo_41922" data-name="Rectángulo 41922" width="58.273" height="9.109" transform="translate(1009.174 641.743)" fill="#b85815"/>
        <rect id="Rectángulo_41923" data-name="Rectángulo 41923" width="58.273" height="10.538" transform="translate(1009.174 631.206)" fill="#e8873f"/>
        <rect id="Rectángulo_41924" data-name="Rectángulo 41924" width="58.273" height="10.538" transform="translate(1009.174 620.67)" fill="#b85815"/>
        <path id="Trazado_202531" data-name="Trazado 202531" d="M137.377,154.833v9.175H79.1v-9.192h5.862v.017Z" transform="translate(930.071 456.661)" fill="#e8873f"/>
        <rect id="Rectángulo_41925" data-name="Rectángulo 41925" width="58.273" height="9.109" transform="translate(1009.174 563.002)" fill="#b85815"/>
        <rect id="Rectángulo_41926" data-name="Rectángulo 41926" width="58.273" height="10.538" transform="translate(1009.174 552.464)" fill="#e8873f"/>
        <rect id="Rectángulo_41927" data-name="Rectángulo 41927" width="58.273" height="10.538" transform="translate(1009.174 541.928)" fill="#b85815"/>
        <path id="Trazado_202532" data-name="Trazado 202532" d="M137.377,97.729V106.9H79.1V97.712h5.862v.017Z" transform="translate(930.071 435.024)" fill="#e8873f"/>
        <g id="Grupo_150117" data-name="Grupo 150117" transform="translate(1042.566 493.369)" opacity="0.35">
          <g id="Grupo_150116" data-name="Grupo 150116">
            <g id="Grupo_150115" data-name="Grupo 150115" clip-path="url(#clip-path-24)">
              <g id="Grupo_150114" data-name="Grupo 150114">
                <g id="Grupo_150113" data-name="Grupo 150113" clip-path="url(#clip-path-25)">
                  <path id="Trazado_202533" data-name="Trazado 202533" d="M134.07,69.163v39.383H128.2V147.9h5.87v39.383H128.2v39.35l-24.881.008L124.19,69.164h8.054c.506.017,1.03.017,1.578,0Z" transform="translate(-103.319 -69.163)" fill="#4c1f20"/>
                </g>
              </g>
            </g>
          </g>
        </g>
        <rect id="Rectángulo_41930" data-name="Rectángulo 41930" width="569.385" height="267.069" transform="translate(850.607 398.001)" fill="none"/>
        <rect id="Rectángulo_41931" data-name="Rectángulo 41931" width="504.992" height="267.071" transform="translate(915 398)" fill="none"/>
      </g>
    </g>
  </g>
</svg>
