<svg xmlns="http://www.w3.org/2000/svg" xmlns:xlink="http://www.w3.org/1999/xlink" width="420" height="133" viewBox="0 0 420 133"><defs><clipPath id="a"><rect width="104" height="97" fill="#01f6ff" stroke="#707070" stroke-width="1"/></clipPath></defs><g transform="translate(-180 -4137)"><g transform="translate(180 4137)"><rect width="420" height="133" fill="#cfdbd2"/><g transform="translate(43 18)" clip-path="url(#a)"><g transform="translate(3.488 0)"><g transform="translate(0 11.942)"><g transform="translate(8.476)"><circle cx="38.94" cy="38.94" r="38.94" transform="translate(1.139 1.111)" fill="#55bde3"/><path d="M48.554,92.123A40.06,40.06,0,1,1,76.872,80.382,40.045,40.045,0,0,1,48.554,92.123Zm0-77.861a37.811,37.811,0,1,0,37.8,37.8A37.85,37.85,0,0,0,48.554,14.262Z" transform="translate(-8.475 -12.012)"/><g transform="translate(4.443 0.009)"><g transform="translate(47.023 18.705)"><path d="M87.214,47.434l-3.677,1.792-3.864,8.046L67.314,60.314l-5.974-7.747,6.5-9.016-1.512-3.341L71.4,34.852h.149a8.322,8.322,0,0,0,2.333-.355l.933.149a8.033,8.033,0,0,0,1.157.075,9.576,9.576,0,0,0,6.216-2.259,38.772,38.772,0,0,1,5.022,14.971Z" transform="translate(-59.941 -30.726)" fill="#2a8078"/><path d="M66.885,61.584,59.941,52.6l6.608-9.184L65,39.985l5.936-6.272h.616a6.438,6.438,0,0,0,1.979-.3l.3-.093.3.056a5.8,5.8,0,0,0,.821.149,8.505,8.505,0,0,0,6.515-1.941l1.027-.859.672,1.157a39.007,39.007,0,0,1,5.152,15.4l.093.8-4.032,1.979-3.92,8.176Zm-4.144-9.035,5.022,6.515,11.126-2.744L82.7,48.386,86,46.78a37.523,37.523,0,0,0-4.163-12.675,10.715,10.715,0,0,1-5.862,1.736,10.224,10.224,0,0,1-1.307-.075l-.728-.112a8.552,8.552,0,0,1-2.053.317L67.65,40.433l1.475,3.248Z" transform="translate(-59.941 -30.726)"/></g><g transform="translate(4.742 0)"><path d="M49.972,25l4.5,10.062-.579,8.792L44.82,47.378l-2.651-6.16-7.971.709-3.192-7.3s-5.19-4.013-8.214-5.376a21.8,21.8,0,0,1-4.013-2.277H18.8A38.992,38.992,0,0,1,54.471,13.59Z" transform="translate(-17.659 -12.022)" fill="#2a8078"/><path d="M44.223,48.815l-2.763-6.4-7.971.691-3.4-7.766a56.737,56.737,0,0,0-7.766-5.078,20.669,20.669,0,0,1-4.219-2.408l-.448-.336V26.508l.3-.3a40.01,40.01,0,0,1,30.6-14.187,41.533,41.533,0,0,1,6.086.448l1.381.224L51.186,24.977l4.424,9.875-.653,9.782Zm-1.344-8.774,2.557,5.9,7.374-2.875.523-7.8-4.573-10.23L52.9,14.5A37.978,37.978,0,0,0,20.459,26.75a22.224,22.224,0,0,0,2.8,1.475A61.291,61.291,0,0,1,31.7,33.732l.224.168,2.987,6.832Z" transform="translate(-17.659 -12.022)"/></g><g transform="translate(4.742)"><path d="M18.779,26.974A39.042,39.042,0,0,1,54.471,13.59L49.972,25l4.5,10.062-.579,8.792L44.82,47.378l-2.651-6.16-7.971.709-3.192-7.3Z" transform="translate(-17.659 -12.022)" fill="#2a8078"/><path d="M44.223,48.815l-2.763-6.4-7.971.691-3.36-7.71-12.47-7.8V26.508l.3-.3a40.01,40.01,0,0,1,30.6-14.187,41.533,41.533,0,0,1,6.086.448l1.381.224L51.186,24.977l4.424,9.875-.653,9.782Zm-1.344-8.774,2.557,5.9,7.374-2.875.523-7.8-4.573-10.23L52.9,14.5A37.951,37.951,0,0,0,20.5,26.713L31.9,33.863l3.005,6.87Z" transform="translate(-17.659 -12.022)"/></g><g transform="translate(15.065 38.975)"><path d="M38.753,52.791s3.267-.336,4.517-.541c3.08-.541,9.166.859,9.166.859l2.483,7.971L52.082,63.73l-2.837,6.776L48.2,80.774l-5.862,6.571s-1.157-4.461-1.4-6.422-.709-6.142-.709-6.142l-2.389-1.344-2.371-6.272-6.179-2,2.184-9.782Z" transform="translate(-27.982 -50.996)" fill="#2a8078"/><path d="M41.778,89.641l-.523-2.016c-.056-.187-1.176-4.555-1.419-6.552-.187-1.512-.523-4.387-.653-5.6l-2.24-1.251-2.333-6.16-6.627-2.147,2.539-11.387,7.971-2.837h.149c.019-.019,3.248-.355,4.443-.56,3.267-.56,9.334.821,9.6.877l.635.149,2.875,9.259-3.155,2.968-2.688,6.4L49.282,81.24ZM38.753,72.672l2.52,1.4.075.579c0,.037.467,4.219.709,6.142.131,1.027.523,2.819.859,4.219l4.219-4.7,1.008-10.08,3.005-7.15,2.483-2.333-2.072-6.683c-1.587-.336-5.824-1.1-8.1-.709-1.139.187-3.827.485-4.461.541l-6.571,2.333L30.614,64.4l5.712,1.848Z" transform="translate(-27.982 -50.996)"/></g><g transform="translate(0 32.369)"><path d="M14.523,49.73l3.3-3.957,4.256,1.979v6.328H20.2Z" transform="translate(-12.918 -44.391)" fill="#2a8078"/><path d="M23.2,55.2h-3.4l-6.888-5.283,4.611-5.526L23.2,47.042Zm-2.632-2.24h.392v-4.5l-2.819-1.307-2.016,2.408Z" transform="translate(-12.918 -44.391)"/></g></g></g><g transform="translate(49.567 40.219)"><g transform="translate(0 29.969)"><path d="M60.949,93.915,57.141,95.8a3.749,3.749,0,0,1-4.5-2.035l-1.568-3.491a4.541,4.541,0,0,1,2.016-5.862l2.072-1.083" transform="translate(-49.566 -82.2)" fill="#ffc9a3"/><path d="M56.039,97.07a4.844,4.844,0,0,1-4.424-2.837l-1.568-3.509a5.685,5.685,0,0,1,2.52-7.3l2.072-1.083a1.089,1.089,0,0,1,1.493.429.018.018,0,0,0,.019.019A1.107,1.107,0,0,1,55.7,84.3a.018.018,0,0,0-.019.019L53.631,85.4A3.377,3.377,0,0,0,52.1,89.809l1.568,3.509a2.566,2.566,0,0,0,3.061,1.419l3.733-1.829a1.119,1.119,0,0,1,1.493.523,1.089,1.089,0,0,1-.485,1.475.018.018,0,0,0-.019.019l-3.9,1.9-.093.037a4.58,4.58,0,0,1-1.419.205Z" transform="translate(-49.566 -82.2)"/></g><g transform="translate(3.902 26.605)"><path d="M69.928,92.59l-4.48,2.893a4.736,4.736,0,0,1-6.123-1.941l-4.331-8.064a3.376,3.376,0,0,1,1.251-4.5l.915-.56a3.387,3.387,0,0,1,4.648,1.195.018.018,0,0,0,.019.019l1.008,1.773" transform="translate(-53.468 -78.836)" fill="#ffc9a3"/><path d="M63.45,97.052a5.858,5.858,0,0,1-5.1-2.949h-.019L54,86.019a4.492,4.492,0,0,1,1.661-5.992l.915-.541A4.492,4.492,0,0,1,62.741,81l.056.112L63.8,82.864a1.121,1.121,0,0,1-1.941,1.12l-1.008-1.773a2.231,2.231,0,0,0-1.381-1.045,2.189,2.189,0,0,0-1.736.243l-.915.541a2.243,2.243,0,0,0-.84,3.005L60.3,93a3.629,3.629,0,0,0,4.611,1.493l4.405-2.837a1.121,1.121,0,0,1,1.213,1.885l-4.536,2.912-.056.037a5.744,5.744,0,0,1-2.483.56Z" transform="translate(-53.468 -78.836)"/></g><g transform="translate(10.009 21.453)"><path d="M77.992,89.081l-5.04,3.267a5.342,5.342,0,0,1-6.926-2.184l-4.872-9.11a3.8,3.8,0,0,1,1.4-5.078l1.045-.635a3.841,3.841,0,0,1,5.227,1.325.069.069,0,0,1,.019.056l1.157,2" transform="translate(-59.575 -73.684)" fill="#ffc9a3"/><path d="M70.693,93.971a6.506,6.506,0,0,1-5.638-3.248v-.037l-4.891-9.11a4.935,4.935,0,0,1,1.811-6.571l1.045-.616a4.9,4.9,0,0,1,6.739,1.68c.019.037.037.056.056.093l1.157,2a1.121,1.121,0,0,1-1.941,1.12l-1.157-2a2.673,2.673,0,0,0-3.715-.971l-1.027.616a2.688,2.688,0,0,0-1.008,3.584l4.891,9.11a4.25,4.25,0,0,0,5.395,1.736l4.984-3.211a1.121,1.121,0,0,1,1.213,1.885l-5.115,3.285-.075.037a6.318,6.318,0,0,1-2.725.616Z" transform="translate(-59.575 -73.684)"/></g><g transform="translate(18.463 18.852)"><path d="M88.6,75.509l-2.427,9.408a5.894,5.894,0,0,1-5.115,4.405l-.411.037A5.867,5.867,0,0,1,75.211,86.9L69.984,79.5a4.607,4.607,0,0,1,.877-6.235l.075-.056a4.6,4.6,0,0,1,6.459.709l.168.224,3.192,4.536" transform="translate(-68.029 -71.083)" fill="#ffc9a3"/><path d="M80.046,90.518A7.053,7.053,0,0,1,74.3,87.55l-5.227-7.411a5.717,5.717,0,0,1,1.1-7.747l.056-.056a5.72,5.72,0,0,1,8.251,1.176L81.67,78.03a1.117,1.117,0,1,1-1.755,1.381c-.019-.037-.037-.056-.056-.093L76.667,74.8a3.427,3.427,0,0,0-2.352-1.437,3.516,3.516,0,0,0-2.669.728l-.056.056a3.471,3.471,0,0,0-.672,4.7l5.227,7.411a4.854,4.854,0,0,0,4.405,2l.411-.037A4.824,4.824,0,0,0,85.1,84.638l2.427-9.408a1.111,1.111,0,0,1,1.4-.728,1.125,1.125,0,0,1,.765,1.288L87.27,85.2a7.077,7.077,0,0,1-6.086,5.246l-.392.037Z" transform="translate(-68.029 -71.083)"/></g><g transform="translate(28.198)"><path d="M87.363,54.975l7.019,8.064c3.677,5.059-.3,10.155-1.811,10.92L86.318,77.1a5.166,5.166,0,0,1-6.926-2.333c0-.019-.019-.019-.019-.037A5,5,0,0,1,81.147,68.4L85.2,64.888a26.518,26.518,0,0,0,1.456-4.461,53.981,53.981,0,0,0,.709-5.451Z" transform="translate(-77.764 -52.231)" fill="#ffc9a3"/><path d="M84.022,78.758a6.4,6.4,0,0,1-2.053-.336,6.233,6.233,0,0,1-3.6-3.211,6.111,6.111,0,0,1,2.091-7.71l3.808-3.3a22.92,22.92,0,0,0,1.307-4.013,49.3,49.3,0,0,0,.672-5.283l.205-2.669L95.3,62.386a8.435,8.435,0,0,1,1.475,7.131,8.873,8.873,0,0,1-3.7,5.432l-6.254,3.136a6.128,6.128,0,0,1-2.8.672Zm4.2-21.075c-.131,1.008-.28,2.128-.467,2.987a29.438,29.438,0,0,1-1.531,4.667l-.112.224-4.349,3.771A3.821,3.821,0,0,0,80.4,74.24a3.9,3.9,0,0,0,2.3,2.053,4.022,4.022,0,0,0,3.117-.205l6.254-3.136a6.848,6.848,0,0,0,2.52-3.957A6.2,6.2,0,0,0,93.5,63.73Z" transform="translate(-77.764 -52.231)"/></g></g><g transform="translate(0 40.219)"><g transform="translate(34.931 29.973)"><path d="M36.065,93.915,39.892,95.8a3.737,3.737,0,0,0,4.48-2.035l1.568-3.491a4.541,4.541,0,0,0-2.016-5.862l-2.072-1.083" transform="translate(-34.93 -82.204)" fill="#ffc9a3"/><path d="M40.975,97.07a4.58,4.58,0,0,1-1.419-.205l-.093-.037-3.9-1.9a1.13,1.13,0,0,1-.523-1.493,1.146,1.146,0,0,1,1.512-.523l3.733,1.829a2.6,2.6,0,0,0,3.08-1.419l1.549-3.509A3.376,3.376,0,0,0,43.4,85.4L41.329,84.32a1.152,1.152,0,0,1-.467-1.531,1.112,1.112,0,0,1,1.512-.448l2.072,1.083a5.685,5.685,0,0,1,2.52,7.3L45.4,94.233a4.814,4.814,0,0,1-4.424,2.837Z" transform="translate(-34.93 -82.204)"/></g><g transform="translate(25.975 26.59)"><path d="M27.086,92.59l4.48,2.893a4.73,4.73,0,0,0,6.123-1.941l4.331-8.064a3.358,3.358,0,0,0-1.251-4.5l-.915-.56a3.387,3.387,0,0,0-4.648,1.195.018.018,0,0,1-.019.019L34.18,83.406" transform="translate(-25.974 -78.821)" fill="#ffc9a3"/><path d="M33.564,97.052a5.744,5.744,0,0,1-2.483-.56l-.056-.037-4.536-2.912A1.121,1.121,0,1,1,27.7,91.657l4.405,2.837A3.629,3.629,0,0,0,36.719,93l4.312-8.064a2.254,2.254,0,0,0-.821-3.005l-.933-.541a2.134,2.134,0,0,0-1.717-.243,2.319,2.319,0,0,0-1.4,1.045l-1.008,1.773a1.089,1.089,0,0,1-1.493.429c-.019,0-.019-.019-.037-.019a1.11,1.11,0,0,1-.411-1.531l1.008-1.755a4.469,4.469,0,0,1,6.1-1.68l.112.056.915.541A4.492,4.492,0,0,1,43.01,86L38.66,94.1A5.858,5.858,0,0,1,33.564,97.052Z" transform="translate(-25.974 -78.821)"/></g><g transform="translate(17.91 21.456)"><path d="M19.022,89.081l5.04,3.267a5.342,5.342,0,0,0,6.926-2.184l4.891-9.11a3.826,3.826,0,0,0-1.419-5.078l-1.027-.635a3.835,3.835,0,0,0-5.246,1.344c0,.019-.019.019-.019.037l-1.139,2" transform="translate(-17.909 -73.687)" fill="#ffc9a3"/><path d="M26.321,93.971a6.319,6.319,0,0,1-2.725-.616l-.075-.037-5.1-3.285a1.121,1.121,0,1,1,1.213-1.885L24.6,91.358A4.212,4.212,0,0,0,30,89.622l4.891-9.11a2.7,2.7,0,0,0-.989-3.584l-1.045-.616a2.679,2.679,0,0,0-3.677.9.142.142,0,0,0-.037.075L28,79.28a1.129,1.129,0,0,1-1.96-1.12l1.157-2a4.917,4.917,0,0,1,6.7-1.829c.037.019.056.037.093.056l1.045.616a4.954,4.954,0,0,1,1.829,6.571l-4.91,9.147a6.506,6.506,0,0,1-5.638,3.248Z" transform="translate(-17.909 -73.687)"/></g><g transform="translate(7.303 18.86)"><path d="M8.419,75.509l2.427,9.408a5.894,5.894,0,0,0,5.115,4.405l.411.037A5.867,5.867,0,0,0,21.8,86.9L27.03,79.5a4.607,4.607,0,0,0-.877-6.235l-.075-.056a4.6,4.6,0,0,0-6.459.709l-.168.224-3.192,4.536" transform="translate(-7.302 -71.092)" fill="#ffc9a3"/><path d="M16.969,90.518l-.709-.037-.411-.037A7.077,7.077,0,0,1,9.763,85.2L7.336,75.789a1.127,1.127,0,1,1,2.184-.56l2.408,9.408a4.824,4.824,0,0,0,4.144,3.584l.411.037a4.854,4.854,0,0,0,4.405-2l5.227-7.411a3.471,3.471,0,0,0-.672-4.7l-.056-.056a3.485,3.485,0,0,0-5.022.709l-3.192,4.518a1.112,1.112,0,0,1-1.549.28,1.134,1.134,0,0,1-.28-1.568l3.192-4.518a5.756,5.756,0,0,1,7.99-1.381,1.41,1.41,0,0,1,.261.205l.056.056a5.717,5.717,0,0,1,1.1,7.747L22.718,87.55a7.053,7.053,0,0,1-5.75,2.968Z" transform="translate(-7.302 -71.092)"/></g><g transform="translate(0)"><path d="M9.67,54.975,2.632,63.04c-3.659,5.059.3,10.155,1.829,10.92L10.715,77.1a5.145,5.145,0,0,0,6.907-2.333.065.065,0,0,1,.019-.037A4.978,4.978,0,0,0,15.886,68.4l-4.069-3.509a26.518,26.518,0,0,1-1.456-4.461,51.914,51.914,0,0,1-.691-5.451Z" transform="translate(0.001 -52.231)" fill="#ffc9a3"/><path d="M12.992,78.758a6,6,0,0,1-2.781-.672L3.957,74.949A8.81,8.81,0,0,1,.243,69.517a8.5,8.5,0,0,1,1.475-7.131l.075-.075,8.774-10.08.205,2.669c.019.037.28,3.435.672,5.283A27.974,27.974,0,0,0,12.75,64.2l3.808,3.3a6.085,6.085,0,0,1,2.091,7.71,6.233,6.233,0,0,1-3.6,3.211,6.4,6.4,0,0,1-2.053.336ZM3.509,63.73a6.2,6.2,0,0,0-1.083,5.264,6.847,6.847,0,0,0,2.539,3.957L11.2,76.088a4.042,4.042,0,0,0,5.414-1.811.065.065,0,0,1,.019-.037,3.861,3.861,0,0,0-1.363-4.91l-.131-.093L10.9,65.56l-.112-.224a29.438,29.438,0,0,1-1.531-4.667c-.187-.859-.336-1.979-.467-2.987Z" transform="translate(0.001 -52.231)"/></g></g></g><g transform="translate(24.773)"><path d="M37.895,1.12a9.71,9.71,0,0,0-8.886,5.806,7.578,7.578,0,0,0,4.461,13.7,7.491,7.491,0,0,0,2.315-.355,10,10,0,0,0,2.109.224,9.688,9.688,0,0,0,0-19.377Z" transform="translate(-24.772 -0.07)" fill="#719b29"/><path d="M33.471,21.747A8.7,8.7,0,0,1,28.113,6.2a10.767,10.767,0,1,1,7.728,15.214A8.46,8.46,0,0,1,33.471,21.747ZM37.895,2.24a8.568,8.568,0,0,0-7.859,5.134.971.971,0,0,1-.373.448,6.479,6.479,0,0,0,5.787,11.387,1.024,1.024,0,0,1,.579-.037,8.936,8.936,0,0,0,1.867.205,8.568,8.568,0,0,0,0-17.137Z" transform="translate(-24.772 -0.07)"/><path d="M35.617,10.883h2.24v21.3h-2.24Z" transform="translate(-24.772 -0.07)"/><path d="M0,0H6.737V2.239H0Z" transform="matrix(0.757, -0.653, 0.653, 0.757, 11.203, 16.59)"/><path d="M0,0H2.241V3.94H0Z" transform="translate(7.973 13.251) rotate(-61.719)"/></g><g transform="translate(62.852 14.151)"><path d="M85.664,25.033a9.68,9.68,0,0,1-9.688,9.688,8.034,8.034,0,0,1-1.157-.075l-.933-.149a8.321,8.321,0,0,1-2.333.355H71.4a7.577,7.577,0,0,1-4.312-13.7,9.689,9.689,0,0,1,18.574,3.883Z" transform="translate(-62.851 -14.221)" fill="#719b29"/><path d="M71.552,35.972h-.187a8.7,8.7,0,0,1-5.171-15.55,10.814,10.814,0,1,1,9.8,15.419,10.224,10.224,0,0,1-1.307-.075l-.728-.112a9.7,9.7,0,0,1-2.408.317Zm4.424-19.507A8.608,8.608,0,0,0,68.117,21.6a1.184,1.184,0,0,1-.355.448,6.46,6.46,0,0,0,3.659,11.686h.131a6.438,6.438,0,0,0,1.979-.3,1.078,1.078,0,0,1,.6-.037,5.8,5.8,0,0,0,.821.149,8.569,8.569,0,0,0,1.96-17.025,7.827,7.827,0,0,0-.933-.056Z" transform="translate(-62.851 -14.221)"/><path d="M73.7,25.108h2.24v21.3H73.7Z" transform="translate(-62.851 -14.221)"/><path d="M0,0H6.737V2.239H0Z" transform="matrix(0.757, -0.653, 0.653, 0.757, 11.201, 16.662)"/><path d="M0,0H2.241V3.94H0Z" transform="translate(7.978 13.305) rotate(-61.719)"/></g></g></g></g></g></svg>